G04 #@! TF.GenerationSoftware,KiCad,Pcbnew,5.0.2-bee76a0~70~ubuntu18.04.1*
G04 #@! TF.CreationDate,2019-11-25T15:04:39+01:00*
G04 #@! TF.ProjectId,RS232CInterface.kicad_pcb,52533233-3243-4496-9e74-657266616365,rev?*
G04 #@! TF.SameCoordinates,Original*
G04 #@! TF.FileFunction,Legend,Top*
G04 #@! TF.FilePolarity,Positive*
%FSLAX46Y46*%
G04 Gerber Fmt 4.6, Leading zero omitted, Abs format (unit mm)*
G04 Created by KiCad (PCBNEW 5.0.2-bee76a0~70~ubuntu18.04.1) date Mon 25 Nov 2019 03:04:39 PM CET*
%MOMM*%
%LPD*%
G01*
G04 APERTURE LIST*
%ADD10C,0.400000*%
%ADD11C,0.080000*%
%ADD12C,0.200000*%
%ADD13C,0.101600*%
%ADD14C,0.254000*%
%ADD15C,0.150000*%
%ADD16C,0.193040*%
%ADD17C,0.081280*%
%ADD18C,0.304800*%
%ADD19C,0.120000*%
%ADD20C,0.300000*%
%ADD21C,0.127000*%
%ADD22C,0.100000*%
%ADD23C,0.222250*%
G04 APERTURE END LIST*
D10*
X170307000Y-83439000D02*
X170307000Y-82804000D01*
X170942000Y-82804000D02*
X170307000Y-83439000D01*
X169672000Y-82804000D02*
X170942000Y-82804000D01*
X170307000Y-83439000D02*
X169672000Y-82804000D01*
X143891000Y-75565000D02*
G75*
G03X143891000Y-75565000I0J0D01*
G01*
X171904000Y-73152000D02*
G75*
G03X171904000Y-73152000I-200000J0D01*
G01*
X150631500Y-93535500D02*
G75*
G03X150631500Y-93535500I-200000J0D01*
G01*
X156410000Y-38481000D02*
G75*
G03X156410000Y-38481000I-200000J0D01*
G01*
D11*
X188309285Y-81997666D02*
X188271190Y-81959571D01*
X188233095Y-81845285D01*
X188233095Y-81769095D01*
X188271190Y-81654809D01*
X188347380Y-81578619D01*
X188423571Y-81540523D01*
X188575952Y-81502428D01*
X188690238Y-81502428D01*
X188842619Y-81540523D01*
X188918809Y-81578619D01*
X188995000Y-81654809D01*
X189033095Y-81769095D01*
X189033095Y-81845285D01*
X188995000Y-81959571D01*
X188956904Y-81997666D01*
X188461666Y-82302428D02*
X188461666Y-82683380D01*
X188233095Y-82226238D02*
X189033095Y-82492904D01*
X188233095Y-82759571D01*
X188233095Y-83026238D02*
X189033095Y-83026238D01*
X188233095Y-83483380D01*
X189033095Y-83483380D01*
X188233095Y-83864333D02*
X189033095Y-83864333D01*
X188652142Y-83864333D02*
X188652142Y-84321476D01*
X188233095Y-84321476D02*
X189033095Y-84321476D01*
X188309285Y-78282904D02*
X188271190Y-78244809D01*
X188233095Y-78130523D01*
X188233095Y-78054333D01*
X188271190Y-77940047D01*
X188347380Y-77863857D01*
X188423571Y-77825761D01*
X188575952Y-77787666D01*
X188690238Y-77787666D01*
X188842619Y-77825761D01*
X188918809Y-77863857D01*
X188995000Y-77940047D01*
X189033095Y-78054333D01*
X189033095Y-78130523D01*
X188995000Y-78244809D01*
X188956904Y-78282904D01*
X188461666Y-78587666D02*
X188461666Y-78968619D01*
X188233095Y-78511476D02*
X189033095Y-78778142D01*
X188233095Y-79044809D01*
X188233095Y-79311476D02*
X189033095Y-79311476D01*
X188233095Y-79768619D01*
X189033095Y-79768619D01*
X188233095Y-80530523D02*
X188233095Y-80149571D01*
X189033095Y-80149571D01*
X188995000Y-74066476D02*
X189033095Y-73990285D01*
X189033095Y-73876000D01*
X188995000Y-73761714D01*
X188918809Y-73685523D01*
X188842619Y-73647428D01*
X188690238Y-73609333D01*
X188575952Y-73609333D01*
X188423571Y-73647428D01*
X188347380Y-73685523D01*
X188271190Y-73761714D01*
X188233095Y-73876000D01*
X188233095Y-73952190D01*
X188271190Y-74066476D01*
X188309285Y-74104571D01*
X188575952Y-74104571D01*
X188575952Y-73952190D01*
X188233095Y-74447428D02*
X189033095Y-74447428D01*
X188233095Y-74904571D01*
X189033095Y-74904571D01*
X188233095Y-75285523D02*
X189033095Y-75285523D01*
X189033095Y-75476000D01*
X188995000Y-75590285D01*
X188918809Y-75666476D01*
X188842619Y-75704571D01*
X188690238Y-75742666D01*
X188575952Y-75742666D01*
X188423571Y-75704571D01*
X188347380Y-75666476D01*
X188271190Y-75590285D01*
X188233095Y-75476000D01*
X188233095Y-75285523D01*
X188995000Y-74066476D02*
X189033095Y-73990285D01*
X189033095Y-73876000D01*
X188995000Y-73761714D01*
X188918809Y-73685523D01*
X188842619Y-73647428D01*
X188690238Y-73609333D01*
X188575952Y-73609333D01*
X188423571Y-73647428D01*
X188347380Y-73685523D01*
X188271190Y-73761714D01*
X188233095Y-73876000D01*
X188233095Y-73952190D01*
X188271190Y-74066476D01*
X188309285Y-74104571D01*
X188575952Y-74104571D01*
X188575952Y-73952190D01*
X188233095Y-74447428D02*
X189033095Y-74447428D01*
X188233095Y-74904571D01*
X189033095Y-74904571D01*
X188233095Y-75285523D02*
X189033095Y-75285523D01*
X189033095Y-75476000D01*
X188995000Y-75590285D01*
X188918809Y-75666476D01*
X188842619Y-75704571D01*
X188690238Y-75742666D01*
X188575952Y-75742666D01*
X188423571Y-75704571D01*
X188347380Y-75666476D01*
X188271190Y-75590285D01*
X188233095Y-75476000D01*
X188233095Y-75285523D01*
X188537857Y-69456476D02*
X188537857Y-70066000D01*
X188233095Y-69761238D02*
X188842619Y-69761238D01*
X188956904Y-70408857D02*
X188995000Y-70446952D01*
X189033095Y-70523142D01*
X189033095Y-70713619D01*
X188995000Y-70789809D01*
X188956904Y-70827904D01*
X188880714Y-70866000D01*
X188804523Y-70866000D01*
X188690238Y-70827904D01*
X188233095Y-70370761D01*
X188233095Y-70866000D01*
X188766428Y-71551714D02*
X188233095Y-71551714D01*
X189071190Y-71361238D02*
X188499761Y-71170761D01*
X188499761Y-71666000D01*
X189033095Y-71856476D02*
X188233095Y-72123142D01*
X189033095Y-72389809D01*
D10*
X109420000Y-47371000D02*
G75*
G03X109420000Y-47371000I-200000J0D01*
G01*
D12*
X145542000Y-45593000D02*
X145542000Y-43053000D01*
D13*
X144952961Y-50158468D02*
X144952961Y-49698849D01*
X145918161Y-49698849D01*
X141777961Y-53333468D02*
X141777961Y-52873849D01*
X142743161Y-52873849D01*
X144952961Y-45078468D02*
X144952961Y-44618849D01*
X145918161Y-44618849D01*
X141777961Y-41903468D02*
X141777961Y-41443849D01*
X142743161Y-41443849D01*
X144952961Y-41903468D02*
X144952961Y-41443849D01*
X145918161Y-41443849D01*
X144952961Y-53333468D02*
X144952961Y-52873849D01*
X145918161Y-52873849D01*
X141777961Y-49698849D02*
X142743161Y-49698849D01*
X142283542Y-49698849D02*
X142283542Y-50250392D01*
X141777961Y-50250392D02*
X142743161Y-50250392D01*
X141777961Y-43983849D02*
X142743161Y-43983849D01*
X142283542Y-43983849D02*
X142283542Y-44535392D01*
X141777961Y-44535392D02*
X142743161Y-44535392D01*
X148473885Y-51647392D02*
X148427923Y-51601430D01*
X148381961Y-51463544D01*
X148381961Y-51371620D01*
X148427923Y-51233735D01*
X148519847Y-51141811D01*
X148611771Y-51095849D01*
X148795619Y-51049887D01*
X148933504Y-51049887D01*
X149117352Y-51095849D01*
X149209276Y-51141811D01*
X149301200Y-51233735D01*
X149347161Y-51371620D01*
X149347161Y-51463544D01*
X149301200Y-51601430D01*
X149255238Y-51647392D01*
X148657733Y-52015087D02*
X148657733Y-52474706D01*
X148381961Y-51923163D02*
X149347161Y-52244897D01*
X148381961Y-52566630D01*
X148381961Y-52888363D02*
X149347161Y-52888363D01*
X148381961Y-53439906D01*
X149347161Y-53439906D01*
X148381961Y-55094535D02*
X148381961Y-54634916D01*
X149347161Y-54634916D01*
X138059885Y-38820392D02*
X138013923Y-38774430D01*
X137967961Y-38636544D01*
X137967961Y-38544620D01*
X138013923Y-38406735D01*
X138105847Y-38314811D01*
X138197771Y-38268849D01*
X138381619Y-38222887D01*
X138519504Y-38222887D01*
X138703352Y-38268849D01*
X138795276Y-38314811D01*
X138887200Y-38406735D01*
X138933161Y-38544620D01*
X138933161Y-38636544D01*
X138887200Y-38774430D01*
X138841238Y-38820392D01*
X138243733Y-39188087D02*
X138243733Y-39647706D01*
X137967961Y-39096163D02*
X138933161Y-39417897D01*
X137967961Y-39739630D01*
X137967961Y-40061363D02*
X138933161Y-40061363D01*
X137967961Y-40612906D01*
X138933161Y-40612906D01*
X137967961Y-41807916D02*
X138933161Y-41807916D01*
X138473542Y-41807916D02*
X138473542Y-42359459D01*
X137967961Y-42359459D02*
X138933161Y-42359459D01*
D14*
X145624734Y-48706505D02*
G75*
G03X145624734Y-48706505I-500000J0D01*
G01*
X142624734Y-48706505D02*
G75*
G03X142624734Y-48706505I-500000J0D01*
G01*
D15*
X145624734Y-39706505D02*
X145624734Y-40706505D01*
X141624734Y-54706505D02*
X141624734Y-55706505D01*
X140624734Y-54706505D02*
X141624734Y-54706505D01*
D14*
X142624734Y-45706505D02*
G75*
G03X142624734Y-45706505I-500000J0D01*
G01*
X145624734Y-45706505D02*
G75*
G03X145624734Y-45706505I-500000J0D01*
G01*
D15*
X140624734Y-39706505D02*
X140624734Y-42706505D01*
X141624734Y-39706505D02*
X140624734Y-39706505D01*
X141624734Y-38706505D02*
X145624734Y-38706505D01*
D16*
X138938679Y-58031017D02*
X138851351Y-58118344D01*
X138589369Y-58205672D01*
X138414713Y-58205672D01*
X138152730Y-58118344D01*
X137978075Y-57943689D01*
X137890748Y-57769034D01*
X137803420Y-57419723D01*
X137803420Y-57157740D01*
X137890748Y-56808430D01*
X137978075Y-56633775D01*
X138152730Y-56459120D01*
X138414713Y-56371792D01*
X138589369Y-56371792D01*
X138851351Y-56459120D01*
X138938679Y-56546447D01*
X139637300Y-57681706D02*
X140510576Y-57681706D01*
X139462645Y-58205672D02*
X140073938Y-56371792D01*
X140685231Y-58205672D01*
X141296525Y-58205672D02*
X141296525Y-56371792D01*
X142344456Y-58205672D01*
X142344456Y-56371792D01*
X144964285Y-56371792D02*
X145313595Y-56371792D01*
X145488250Y-56459120D01*
X145662906Y-56633775D01*
X145750233Y-56983085D01*
X145750233Y-57594379D01*
X145662906Y-57943689D01*
X145488250Y-58118344D01*
X145313595Y-58205672D01*
X144964285Y-58205672D01*
X144789630Y-58118344D01*
X144614974Y-57943689D01*
X144527647Y-57594379D01*
X144527647Y-56983085D01*
X144614974Y-56633775D01*
X144789630Y-56459120D01*
X144964285Y-56371792D01*
X146536182Y-56371792D02*
X146536182Y-57856361D01*
X146623510Y-58031017D01*
X146710837Y-58118344D01*
X146885492Y-58205672D01*
X147234803Y-58205672D01*
X147409458Y-58118344D01*
X147496786Y-58031017D01*
X147584113Y-57856361D01*
X147584113Y-56371792D01*
X148195407Y-56371792D02*
X149243338Y-56371792D01*
X148719372Y-58205672D02*
X148719372Y-56371792D01*
D15*
X141624734Y-39706505D02*
X141624734Y-38706505D01*
X141624734Y-40706505D02*
X141624734Y-39706505D01*
D13*
X138262619Y-52053897D02*
X138216657Y-52007935D01*
X138170695Y-51870049D01*
X138170695Y-51778125D01*
X138216657Y-51640240D01*
X138308581Y-51548316D01*
X138400505Y-51502354D01*
X138584353Y-51456392D01*
X138722238Y-51456392D01*
X138906086Y-51502354D01*
X138998010Y-51548316D01*
X139089934Y-51640240D01*
X139135895Y-51778125D01*
X139135895Y-51870049D01*
X139089934Y-52007935D01*
X139043972Y-52053897D01*
X138446467Y-52421592D02*
X138446467Y-52881211D01*
X138170695Y-52329668D02*
X139135895Y-52651402D01*
X138170695Y-52973135D01*
X138170695Y-53294868D02*
X139135895Y-53294868D01*
X138170695Y-53846411D01*
X139135895Y-53846411D01*
X138170695Y-55041421D02*
X139135895Y-55041421D01*
X138676276Y-55041421D02*
X138676276Y-55592964D01*
X138170695Y-55592964D02*
X139135895Y-55592964D01*
D15*
X141624734Y-54706505D02*
X141624734Y-53706505D01*
X146624734Y-51706505D02*
X145624734Y-51706505D01*
D14*
X142624734Y-51706505D02*
G75*
G03X142624734Y-51706505I-500000J0D01*
G01*
X145624734Y-51706505D02*
G75*
G03X145624734Y-51706505I-500000J0D01*
G01*
D13*
X148473885Y-39963392D02*
X148427923Y-39917430D01*
X148381961Y-39779544D01*
X148381961Y-39687620D01*
X148427923Y-39549735D01*
X148519847Y-39457811D01*
X148611771Y-39411849D01*
X148795619Y-39365887D01*
X148933504Y-39365887D01*
X149117352Y-39411849D01*
X149209276Y-39457811D01*
X149301200Y-39549735D01*
X149347161Y-39687620D01*
X149347161Y-39779544D01*
X149301200Y-39917430D01*
X149255238Y-39963392D01*
X148657733Y-40331087D02*
X148657733Y-40790706D01*
X148381961Y-40239163D02*
X149347161Y-40560897D01*
X148381961Y-40882630D01*
X148381961Y-41204363D02*
X149347161Y-41204363D01*
X148381961Y-41755906D01*
X149347161Y-41755906D01*
X148381961Y-43410535D02*
X148381961Y-42950916D01*
X149347161Y-42950916D01*
D15*
X147624734Y-50706505D02*
X147624734Y-55706505D01*
X145624734Y-48706505D02*
X147624734Y-50706505D01*
X145624734Y-53706505D02*
X145624734Y-54706505D01*
X141624734Y-53706505D02*
X145624734Y-53706505D01*
X145624734Y-55706505D02*
X145624734Y-54706505D01*
X141624734Y-55706505D02*
X145624734Y-55706505D01*
X139624734Y-50706505D02*
X139624734Y-55706505D01*
X141624734Y-48706505D02*
X139624734Y-50706505D01*
X139624734Y-43706505D02*
X139624734Y-37706505D01*
X145624734Y-42706505D02*
X146624734Y-42706505D01*
X140624734Y-42706505D02*
X141624734Y-42706505D01*
X146624734Y-39706505D02*
X145624734Y-39706505D01*
X146624734Y-42706505D02*
X146624734Y-39706505D01*
X146624734Y-54706505D02*
X146624734Y-51706505D01*
X145624734Y-54706505D02*
X146624734Y-54706505D01*
X145624734Y-38706505D02*
X145624734Y-39706505D01*
D17*
X142867478Y-40042735D02*
X142426244Y-40042735D01*
X142646861Y-40042735D02*
X142646861Y-39270575D01*
X142573322Y-39380884D01*
X142499783Y-39454423D01*
X142426244Y-39491192D01*
X143161634Y-39344114D02*
X143198404Y-39307345D01*
X143271943Y-39270575D01*
X143455790Y-39270575D01*
X143529329Y-39307345D01*
X143566099Y-39344114D01*
X143602868Y-39417653D01*
X143602868Y-39491192D01*
X143566099Y-39601501D01*
X143124865Y-40042735D01*
X143602868Y-40042735D01*
X144080872Y-39270575D02*
X144154411Y-39270575D01*
X144227950Y-39307345D01*
X144264720Y-39344114D01*
X144301489Y-39417653D01*
X144338259Y-39564731D01*
X144338259Y-39748579D01*
X144301489Y-39895657D01*
X144264720Y-39969196D01*
X144227950Y-40005965D01*
X144154411Y-40042735D01*
X144080872Y-40042735D01*
X144007333Y-40005965D01*
X143970564Y-39969196D01*
X143933794Y-39895657D01*
X143897025Y-39748579D01*
X143897025Y-39564731D01*
X143933794Y-39417653D01*
X143970564Y-39344114D01*
X144007333Y-39307345D01*
X144080872Y-39270575D01*
X145110419Y-40042735D02*
X144853032Y-39675040D01*
X144669185Y-40042735D02*
X144669185Y-39270575D01*
X144963341Y-39270575D01*
X145036880Y-39307345D01*
X145073649Y-39344114D01*
X145110419Y-39417653D01*
X145110419Y-39527962D01*
X145073649Y-39601501D01*
X145036880Y-39638270D01*
X144963341Y-39675040D01*
X144669185Y-39675040D01*
X142867478Y-55042735D02*
X142426244Y-55042735D01*
X142646861Y-55042735D02*
X142646861Y-54270575D01*
X142573322Y-54380884D01*
X142499783Y-54454423D01*
X142426244Y-54491192D01*
X143161634Y-54344114D02*
X143198404Y-54307345D01*
X143271943Y-54270575D01*
X143455790Y-54270575D01*
X143529329Y-54307345D01*
X143566099Y-54344114D01*
X143602868Y-54417653D01*
X143602868Y-54491192D01*
X143566099Y-54601501D01*
X143124865Y-55042735D01*
X143602868Y-55042735D01*
X144080872Y-54270575D02*
X144154411Y-54270575D01*
X144227950Y-54307345D01*
X144264720Y-54344114D01*
X144301489Y-54417653D01*
X144338259Y-54564731D01*
X144338259Y-54748579D01*
X144301489Y-54895657D01*
X144264720Y-54969196D01*
X144227950Y-55005965D01*
X144154411Y-55042735D01*
X144080872Y-55042735D01*
X144007333Y-55005965D01*
X143970564Y-54969196D01*
X143933794Y-54895657D01*
X143897025Y-54748579D01*
X143897025Y-54564731D01*
X143933794Y-54417653D01*
X143970564Y-54344114D01*
X144007333Y-54307345D01*
X144080872Y-54270575D01*
X145110419Y-55042735D02*
X144853032Y-54675040D01*
X144669185Y-55042735D02*
X144669185Y-54270575D01*
X144963341Y-54270575D01*
X145036880Y-54307345D01*
X145073649Y-54344114D01*
X145110419Y-54417653D01*
X145110419Y-54527962D01*
X145073649Y-54601501D01*
X145036880Y-54638270D01*
X144963341Y-54675040D01*
X144669185Y-54675040D01*
D15*
X145542000Y-48768000D02*
X145542000Y-51308000D01*
D16*
X140167045Y-37076017D02*
X140079717Y-37163344D01*
X139817735Y-37250672D01*
X139643079Y-37250672D01*
X139381096Y-37163344D01*
X139206441Y-36988689D01*
X139119114Y-36814034D01*
X139031786Y-36464723D01*
X139031786Y-36202740D01*
X139119114Y-35853430D01*
X139206441Y-35678775D01*
X139381096Y-35504120D01*
X139643079Y-35416792D01*
X139817735Y-35416792D01*
X140079717Y-35504120D01*
X140167045Y-35591447D01*
X140865666Y-36726706D02*
X141738942Y-36726706D01*
X140691011Y-37250672D02*
X141302304Y-35416792D01*
X141913597Y-37250672D01*
X142524891Y-37250672D02*
X142524891Y-35416792D01*
X143572822Y-37250672D01*
X143572822Y-35416792D01*
X145843340Y-37250672D02*
X145843340Y-35416792D01*
X146716616Y-37250672D02*
X146716616Y-35416792D01*
X147764548Y-37250672D01*
X147764548Y-35416792D01*
D15*
X141624734Y-45706505D02*
X139624734Y-43706505D01*
X147624734Y-43706505D02*
X147624734Y-37706505D01*
X145624734Y-45706505D02*
X147624734Y-43706505D01*
X140624734Y-51706505D02*
X140624734Y-54706505D01*
X141624734Y-51706505D02*
X140624734Y-51706505D01*
X145624734Y-40706505D02*
X141624734Y-40706505D01*
D14*
X145624734Y-42706505D02*
G75*
G03X145624734Y-42706505I-500000J0D01*
G01*
X142624734Y-42706505D02*
G75*
G03X142624734Y-42706505I-500000J0D01*
G01*
D12*
G04 #@! TO.C,.1*
X155702000Y-39751000D02*
X155702000Y-57785000D01*
X155702000Y-57785000D02*
X164592000Y-57785000D01*
X164595000Y-57701000D02*
X164595000Y-39731000D01*
X164592000Y-39751000D02*
X155702000Y-39751000D01*
D18*
G04 #@! TO.C,U3*
X129610000Y-49226000D02*
X129610000Y-102626000D01*
X129610000Y-102626000D02*
X106610000Y-102626000D01*
X106610000Y-102626000D02*
X106610000Y-49226000D01*
X106610000Y-49226000D02*
X129610000Y-49226000D01*
D12*
G04 #@! TO.C,D2*
X164246000Y-109440000D02*
X158842000Y-109440000D01*
X158842000Y-113064000D02*
X164819000Y-113064000D01*
D19*
G04 #@! TO.C,CAN OUT*
X175125000Y-67246000D02*
X174625000Y-66746000D01*
X174125000Y-67246000D02*
X175125000Y-67246000D01*
X174625000Y-66746000D02*
X174125000Y-67246000D01*
X188705000Y-66561000D02*
X188705000Y-51041000D01*
X170745000Y-51041000D02*
X188705000Y-51041000D01*
X170745000Y-51041000D02*
X170745000Y-66561000D01*
X170745000Y-66561000D02*
X188705000Y-66561000D01*
D12*
G04 #@! TO.C,U1*
X173279000Y-74512000D02*
X176479000Y-74512000D01*
X176479000Y-74512000D02*
X176479000Y-79412000D01*
X176479000Y-79412000D02*
X173279000Y-79412000D01*
X173279000Y-79412000D02*
X173279000Y-74512000D01*
X171404000Y-74357000D02*
X172929000Y-74357000D01*
G04 #@! TO.C,IC1*
X152287212Y-94512174D02*
X159087212Y-94512174D01*
X159087212Y-94512174D02*
X159087212Y-107312174D01*
X159087212Y-107312174D02*
X152287212Y-107312174D01*
X152287212Y-107312174D02*
X152287212Y-94512174D01*
X150012212Y-94522174D02*
X151937212Y-94522174D01*
D20*
G04 #@! TO.C,Power*
X184300000Y-69471000D02*
G75*
G03X184300000Y-69471000I-150000J0D01*
G01*
D21*
X181050000Y-70001000D02*
X187250000Y-70001000D01*
X181050000Y-75541000D02*
X181050000Y-70001000D01*
X187250000Y-75541000D02*
X181050000Y-75541000D01*
X187250000Y-70001000D02*
X187250000Y-75541000D01*
D12*
G04 #@! TO.C,C10*
X148835192Y-81164985D02*
X148835192Y-85164985D01*
X148835192Y-85164985D02*
X152535192Y-85164985D01*
X152535192Y-85164985D02*
X152535192Y-81164985D01*
G04 #@! TO.C,D1*
X158588000Y-92490000D02*
X164565000Y-92490000D01*
X163992000Y-88866000D02*
X158588000Y-88866000D01*
G04 #@! TO.C,D3*
X135987192Y-77061985D02*
X135987192Y-71084985D01*
X132363192Y-71657985D02*
X132363192Y-77061985D01*
G04 #@! TO.C,D4*
X149405192Y-71789985D02*
X149405192Y-77209985D01*
X151965192Y-76929985D02*
X151965192Y-71789985D01*
G04 #@! TO.C,D5*
X144055192Y-71194985D02*
X146455192Y-71194985D01*
X144755192Y-72444985D02*
X146455192Y-72444985D01*
G04 #@! TO.C,D6*
X141668192Y-77059985D02*
X141668192Y-71059985D01*
X138112192Y-71659985D02*
X138112192Y-77059985D01*
D20*
G04 #@! TO.C,J1*
X184300000Y-77726000D02*
G75*
G03X184300000Y-77726000I-150000J0D01*
G01*
D21*
X181050000Y-78256000D02*
X187250000Y-78256000D01*
X181050000Y-83796000D02*
X181050000Y-78256000D01*
X187250000Y-83796000D02*
X181050000Y-83796000D01*
X187250000Y-78256000D02*
X187250000Y-83796000D01*
D22*
G04 #@! TO.C,J2*
X169108000Y-116444000D02*
X169108000Y-85644000D01*
X169108000Y-85644000D02*
X181608000Y-85644000D01*
X181608000Y-85644000D02*
X181608000Y-116444000D01*
X181608000Y-116444000D02*
X169108000Y-116444000D01*
D12*
G04 #@! TO.C,L1*
X164716931Y-100767490D02*
X163666931Y-100767490D01*
G04 #@! TO.C,L2*
X163666931Y-104842490D02*
X164716931Y-104842490D01*
G04 #@! TO.C,L4*
X153970192Y-73089985D02*
X155020192Y-73089985D01*
G04 #@! TO.C,R3*
X167719634Y-41422719D02*
X166369634Y-41422719D01*
G04 #@! TO.C,R4*
X166369634Y-55847719D02*
X167719634Y-55847719D01*
G04 #@! TO.C,U2*
X145405192Y-76274000D02*
X145805192Y-76274000D01*
X145805192Y-76274000D02*
X145805192Y-79174000D01*
X145805192Y-79174000D02*
X145405192Y-79174000D01*
X145405192Y-79174000D02*
X145405192Y-76274000D01*
X143655192Y-76124000D02*
X145055192Y-76124000D01*
G04 #@! TO.C,R1*
X145605192Y-83359985D02*
X145605192Y-84409985D01*
G04 #@! TO.C,R2*
X145605192Y-80819985D02*
X145605192Y-81869985D01*
D19*
G04 #@! TO.C,J4*
X122792000Y-44686000D02*
X122792000Y-38666000D01*
X122792000Y-38666000D02*
X112412000Y-38666000D01*
X112412000Y-38666000D02*
X112412000Y-44686000D01*
X112412000Y-44686000D02*
X122792000Y-44686000D01*
X123082000Y-43656000D02*
X123082000Y-39656000D01*
X121412000Y-38666000D02*
X121412000Y-39666000D01*
X121412000Y-39666000D02*
X113792000Y-39666000D01*
X113792000Y-39666000D02*
X113792000Y-38666000D01*
X121412000Y-39666000D02*
X121162000Y-40196000D01*
X121162000Y-40196000D02*
X114042000Y-40196000D01*
X114042000Y-40196000D02*
X113792000Y-39666000D01*
X121162000Y-38666000D02*
X121162000Y-39666000D01*
X114042000Y-38666000D02*
X114042000Y-39666000D01*
X122212000Y-44686000D02*
X122212000Y-44086000D01*
X122212000Y-44086000D02*
X120612000Y-44086000D01*
X120612000Y-44086000D02*
X120612000Y-44686000D01*
X119672000Y-44686000D02*
X119672000Y-44086000D01*
X119672000Y-44086000D02*
X118072000Y-44086000D01*
X118072000Y-44086000D02*
X118072000Y-44686000D01*
X117132000Y-44686000D02*
X117132000Y-44086000D01*
X117132000Y-44086000D02*
X115532000Y-44086000D01*
X115532000Y-44086000D02*
X115532000Y-44686000D01*
X114592000Y-44686000D02*
X114592000Y-44086000D01*
X114592000Y-44086000D02*
X112992000Y-44086000D01*
X112992000Y-44086000D02*
X112992000Y-44686000D01*
D14*
G04 #@! TO.C,F1*
X157286000Y-86052000D02*
X157286000Y-60252000D01*
X157286000Y-60252000D02*
X164786000Y-60252000D01*
X164786000Y-60252000D02*
X164786000Y-86052000D01*
X164786000Y-86052000D02*
X157286000Y-86052000D01*
D22*
G04 #@! TO.C,L3*
X138334192Y-83879985D02*
X137834192Y-84204985D01*
X137834192Y-84204985D02*
X134834192Y-84204985D01*
X134834192Y-84204985D02*
X134334192Y-83879985D01*
X138234192Y-80079985D02*
X137834192Y-79754985D01*
X137834192Y-79754985D02*
X134834192Y-79754985D01*
X134834192Y-79754985D02*
X134334192Y-80079985D01*
D19*
G04 #@! TO.C,CAN IN*
X170745000Y-48781000D02*
X188705000Y-48781000D01*
X170745000Y-33261000D02*
X170745000Y-48781000D01*
X170745000Y-33261000D02*
X188705000Y-33261000D01*
X188705000Y-48781000D02*
X188705000Y-33261000D01*
X174625000Y-48966000D02*
X174125000Y-49466000D01*
X174125000Y-49466000D02*
X175125000Y-49466000D01*
X175125000Y-49466000D02*
X174625000Y-48966000D01*
G04 #@! TO.C,Q1*
X148402522Y-62169522D02*
G75*
G03X150241000Y-66608000I1838478J-1838478D01*
G01*
X152079478Y-62169522D02*
G75*
G02X150241000Y-66608000I-1838478J-1838478D01*
G01*
X152041000Y-62158000D02*
X148441000Y-62158000D01*
G04 #@! TO.C,Q2*
X139341000Y-62158000D02*
X135741000Y-62158000D01*
X139379478Y-62169522D02*
G75*
G02X137541000Y-66608000I-1838478J-1838478D01*
G01*
X135702522Y-62169522D02*
G75*
G03X137541000Y-66608000I1838478J-1838478D01*
G01*
D12*
G04 #@! TO.C,R5*
X154161000Y-64328000D02*
X155211000Y-64328000D01*
G04 #@! TO.C,R6*
X145271000Y-64328000D02*
X146321000Y-64328000D01*
G04 #@! TO.C,R7*
X141461000Y-64328000D02*
X142511000Y-64328000D01*
G04 #@! TO.C,R8*
X132571000Y-64643000D02*
X133621000Y-64643000D01*
G04 #@! TO.C,U3*
D23*
X116975466Y-100935366D02*
X116975466Y-101655033D01*
X117017800Y-101739700D01*
X117060133Y-101782033D01*
X117144800Y-101824366D01*
X117314133Y-101824366D01*
X117398800Y-101782033D01*
X117441133Y-101739700D01*
X117483466Y-101655033D01*
X117483466Y-100935366D01*
X117822133Y-100935366D02*
X118372466Y-100935366D01*
X118076133Y-101274033D01*
X118203133Y-101274033D01*
X118287800Y-101316366D01*
X118330133Y-101358700D01*
X118372466Y-101443366D01*
X118372466Y-101655033D01*
X118330133Y-101739700D01*
X118287800Y-101782033D01*
X118203133Y-101824366D01*
X117949133Y-101824366D01*
X117864466Y-101782033D01*
X117822133Y-101739700D01*
D18*
D23*
X110976833Y-47688500D02*
X111103833Y-47730833D01*
X111146166Y-47773166D01*
X111188500Y-47857833D01*
X111188500Y-47984833D01*
X111146166Y-48069500D01*
X111103833Y-48111833D01*
X111019166Y-48154166D01*
X110680500Y-48154166D01*
X110680500Y-47265166D01*
X110976833Y-47265166D01*
X111061500Y-47307500D01*
X111103833Y-47349833D01*
X111146166Y-47434500D01*
X111146166Y-47519166D01*
X111103833Y-47603833D01*
X111061500Y-47646166D01*
X110976833Y-47688500D01*
X110680500Y-47688500D01*
X111696500Y-48154166D02*
X111611833Y-48111833D01*
X111569500Y-48027166D01*
X111569500Y-47265166D01*
X112416166Y-47561500D02*
X112416166Y-48154166D01*
X112035166Y-47561500D02*
X112035166Y-48027166D01*
X112077500Y-48111833D01*
X112162166Y-48154166D01*
X112289166Y-48154166D01*
X112373833Y-48111833D01*
X112416166Y-48069500D01*
X113178166Y-48111833D02*
X113093500Y-48154166D01*
X112924166Y-48154166D01*
X112839500Y-48111833D01*
X112797166Y-48027166D01*
X112797166Y-47688500D01*
X112839500Y-47603833D01*
X112924166Y-47561500D01*
X113093500Y-47561500D01*
X113178166Y-47603833D01*
X113220500Y-47688500D01*
X113220500Y-47773166D01*
X112797166Y-47857833D01*
X113601500Y-48154166D02*
X113601500Y-47265166D01*
X113940166Y-47265166D01*
X114024833Y-47307500D01*
X114067166Y-47349833D01*
X114109500Y-47434500D01*
X114109500Y-47561500D01*
X114067166Y-47646166D01*
X114024833Y-47688500D01*
X113940166Y-47730833D01*
X113601500Y-47730833D01*
X114490500Y-48154166D02*
X114490500Y-47561500D01*
X114490500Y-47265166D02*
X114448166Y-47307500D01*
X114490500Y-47349833D01*
X114532833Y-47307500D01*
X114490500Y-47265166D01*
X114490500Y-47349833D01*
X115040833Y-48154166D02*
X114956166Y-48111833D01*
X114913833Y-48027166D01*
X114913833Y-47265166D01*
X115506500Y-48154166D02*
X115421833Y-48111833D01*
X115379500Y-48027166D01*
X115379500Y-47265166D01*
X115633500Y-48238833D02*
X116310833Y-48238833D01*
X116480166Y-48111833D02*
X116607166Y-48154166D01*
X116818833Y-48154166D01*
X116903500Y-48111833D01*
X116945833Y-48069500D01*
X116988166Y-47984833D01*
X116988166Y-47900166D01*
X116945833Y-47815500D01*
X116903500Y-47773166D01*
X116818833Y-47730833D01*
X116649500Y-47688500D01*
X116564833Y-47646166D01*
X116522500Y-47603833D01*
X116480166Y-47519166D01*
X116480166Y-47434500D01*
X116522500Y-47349833D01*
X116564833Y-47307500D01*
X116649500Y-47265166D01*
X116861166Y-47265166D01*
X116988166Y-47307500D01*
X117242166Y-47265166D02*
X117750166Y-47265166D01*
X117496166Y-48154166D02*
X117496166Y-47265166D01*
X118046500Y-48154166D02*
X118046500Y-47265166D01*
X118342833Y-47900166D01*
X118639166Y-47265166D01*
X118639166Y-48154166D01*
X118977833Y-47265166D02*
X119528166Y-47265166D01*
X119231833Y-47603833D01*
X119358833Y-47603833D01*
X119443500Y-47646166D01*
X119485833Y-47688500D01*
X119528166Y-47773166D01*
X119528166Y-47984833D01*
X119485833Y-48069500D01*
X119443500Y-48111833D01*
X119358833Y-48154166D01*
X119104833Y-48154166D01*
X119020166Y-48111833D01*
X118977833Y-48069500D01*
X119866833Y-47349833D02*
X119909166Y-47307500D01*
X119993833Y-47265166D01*
X120205500Y-47265166D01*
X120290166Y-47307500D01*
X120332500Y-47349833D01*
X120374833Y-47434500D01*
X120374833Y-47519166D01*
X120332500Y-47646166D01*
X119824500Y-48154166D01*
X120374833Y-48154166D01*
X121052166Y-47688500D02*
X120755833Y-47688500D01*
X120755833Y-48154166D02*
X120755833Y-47265166D01*
X121179166Y-47265166D01*
X121983500Y-48154166D02*
X121475500Y-48154166D01*
X121729500Y-48154166D02*
X121729500Y-47265166D01*
X121644833Y-47392166D01*
X121560166Y-47476833D01*
X121475500Y-47519166D01*
X122533833Y-47265166D02*
X122618500Y-47265166D01*
X122703166Y-47307500D01*
X122745500Y-47349833D01*
X122787833Y-47434500D01*
X122830166Y-47603833D01*
X122830166Y-47815500D01*
X122787833Y-47984833D01*
X122745500Y-48069500D01*
X122703166Y-48111833D01*
X122618500Y-48154166D01*
X122533833Y-48154166D01*
X122449166Y-48111833D01*
X122406833Y-48069500D01*
X122364500Y-47984833D01*
X122322166Y-47815500D01*
X122322166Y-47603833D01*
X122364500Y-47434500D01*
X122406833Y-47349833D01*
X122449166Y-47307500D01*
X122533833Y-47265166D01*
X123126500Y-47265166D02*
X123676833Y-47265166D01*
X123380500Y-47603833D01*
X123507500Y-47603833D01*
X123592166Y-47646166D01*
X123634500Y-47688500D01*
X123676833Y-47773166D01*
X123676833Y-47984833D01*
X123634500Y-48069500D01*
X123592166Y-48111833D01*
X123507500Y-48154166D01*
X123253500Y-48154166D01*
X123168833Y-48111833D01*
X123126500Y-48069500D01*
X124565833Y-48069500D02*
X124523500Y-48111833D01*
X124396500Y-48154166D01*
X124311833Y-48154166D01*
X124184833Y-48111833D01*
X124100166Y-48027166D01*
X124057833Y-47942500D01*
X124015500Y-47773166D01*
X124015500Y-47646166D01*
X124057833Y-47476833D01*
X124100166Y-47392166D01*
X124184833Y-47307500D01*
X124311833Y-47265166D01*
X124396500Y-47265166D01*
X124523500Y-47307500D01*
X124565833Y-47349833D01*
G04 #@! TO.C,D2*
D14*
X160606619Y-114874523D02*
X160606619Y-113604523D01*
X160909000Y-113604523D01*
X161090428Y-113665000D01*
X161211380Y-113785952D01*
X161271857Y-113906904D01*
X161332333Y-114148809D01*
X161332333Y-114330238D01*
X161271857Y-114572142D01*
X161211380Y-114693095D01*
X161090428Y-114814047D01*
X160909000Y-114874523D01*
X160606619Y-114874523D01*
X161816142Y-113725476D02*
X161876619Y-113665000D01*
X161997571Y-113604523D01*
X162299952Y-113604523D01*
X162420904Y-113665000D01*
X162481380Y-113725476D01*
X162541857Y-113846428D01*
X162541857Y-113967380D01*
X162481380Y-114148809D01*
X161755666Y-114874523D01*
X162541857Y-114874523D01*
G04 #@! TO.C,CAN OUT*
X169681071Y-66043023D02*
X169741547Y-66103500D01*
X169802023Y-66284928D01*
X169802023Y-66405880D01*
X169741547Y-66587309D01*
X169620595Y-66708261D01*
X169499642Y-66768738D01*
X169257738Y-66829214D01*
X169076309Y-66829214D01*
X168834404Y-66768738D01*
X168713452Y-66708261D01*
X168592500Y-66587309D01*
X168532023Y-66405880D01*
X168532023Y-66284928D01*
X168592500Y-66103500D01*
X168652976Y-66043023D01*
X169439166Y-65559214D02*
X169439166Y-64954452D01*
X169802023Y-65680166D02*
X168532023Y-65256833D01*
X169802023Y-64833500D01*
X169802023Y-64410166D02*
X168532023Y-64410166D01*
X169802023Y-63684452D01*
X168532023Y-63684452D01*
X168532023Y-61870166D02*
X168532023Y-61628261D01*
X168592500Y-61507309D01*
X168713452Y-61386357D01*
X168955357Y-61325880D01*
X169378690Y-61325880D01*
X169620595Y-61386357D01*
X169741547Y-61507309D01*
X169802023Y-61628261D01*
X169802023Y-61870166D01*
X169741547Y-61991119D01*
X169620595Y-62112071D01*
X169378690Y-62172547D01*
X168955357Y-62172547D01*
X168713452Y-62112071D01*
X168592500Y-61991119D01*
X168532023Y-61870166D01*
X168532023Y-60781595D02*
X169560119Y-60781595D01*
X169681071Y-60721119D01*
X169741547Y-60660642D01*
X169802023Y-60539690D01*
X169802023Y-60297785D01*
X169741547Y-60176833D01*
X169681071Y-60116357D01*
X169560119Y-60055880D01*
X168532023Y-60055880D01*
X168532023Y-59632547D02*
X168532023Y-58906833D01*
X169802023Y-59269690D02*
X168532023Y-59269690D01*
G04 #@! TO.C,U1*
X173911380Y-80330523D02*
X173911380Y-81358619D01*
X173971857Y-81479571D01*
X174032333Y-81540047D01*
X174153285Y-81600523D01*
X174395190Y-81600523D01*
X174516142Y-81540047D01*
X174576619Y-81479571D01*
X174637095Y-81358619D01*
X174637095Y-80330523D01*
X175907095Y-81600523D02*
X175181380Y-81600523D01*
X175544238Y-81600523D02*
X175544238Y-80330523D01*
X175423285Y-80511952D01*
X175302333Y-80632904D01*
X175181380Y-80693380D01*
G04 #@! TO.C,IC1*
X154525738Y-93919523D02*
X154525738Y-92649523D01*
X155856214Y-93798571D02*
X155795738Y-93859047D01*
X155614309Y-93919523D01*
X155493357Y-93919523D01*
X155311928Y-93859047D01*
X155190976Y-93738095D01*
X155130500Y-93617142D01*
X155070023Y-93375238D01*
X155070023Y-93193809D01*
X155130500Y-92951904D01*
X155190976Y-92830952D01*
X155311928Y-92710000D01*
X155493357Y-92649523D01*
X155614309Y-92649523D01*
X155795738Y-92710000D01*
X155856214Y-92770476D01*
X157065738Y-93919523D02*
X156340023Y-93919523D01*
X156702880Y-93919523D02*
X156702880Y-92649523D01*
X156581928Y-92830952D01*
X156460976Y-92951904D01*
X156340023Y-93012380D01*
G04 #@! TO.C,C3*
X149267333Y-92401571D02*
X149206857Y-92462047D01*
X149025428Y-92522523D01*
X148904476Y-92522523D01*
X148723047Y-92462047D01*
X148602095Y-92341095D01*
X148541619Y-92220142D01*
X148481142Y-91978238D01*
X148481142Y-91796809D01*
X148541619Y-91554904D01*
X148602095Y-91433952D01*
X148723047Y-91313000D01*
X148904476Y-91252523D01*
X149025428Y-91252523D01*
X149206857Y-91313000D01*
X149267333Y-91373476D01*
X149690666Y-91252523D02*
X150476857Y-91252523D01*
X150053523Y-91736333D01*
X150234952Y-91736333D01*
X150355904Y-91796809D01*
X150416380Y-91857285D01*
X150476857Y-91978238D01*
X150476857Y-92280619D01*
X150416380Y-92401571D01*
X150355904Y-92462047D01*
X150234952Y-92522523D01*
X149872095Y-92522523D01*
X149751142Y-92462047D01*
X149690666Y-92401571D01*
G04 #@! TO.C,C4*
X168698333Y-74748571D02*
X168637857Y-74809047D01*
X168456428Y-74869523D01*
X168335476Y-74869523D01*
X168154047Y-74809047D01*
X168033095Y-74688095D01*
X167972619Y-74567142D01*
X167912142Y-74325238D01*
X167912142Y-74143809D01*
X167972619Y-73901904D01*
X168033095Y-73780952D01*
X168154047Y-73660000D01*
X168335476Y-73599523D01*
X168456428Y-73599523D01*
X168637857Y-73660000D01*
X168698333Y-73720476D01*
X169786904Y-74022857D02*
X169786904Y-74869523D01*
X169484523Y-73539047D02*
X169182142Y-74446190D01*
X169968333Y-74446190D01*
G04 #@! TO.C,C5*
X166569571Y-97112666D02*
X166630047Y-97173142D01*
X166690523Y-97354571D01*
X166690523Y-97475523D01*
X166630047Y-97656952D01*
X166509095Y-97777904D01*
X166388142Y-97838380D01*
X166146238Y-97898857D01*
X165964809Y-97898857D01*
X165722904Y-97838380D01*
X165601952Y-97777904D01*
X165481000Y-97656952D01*
X165420523Y-97475523D01*
X165420523Y-97354571D01*
X165481000Y-97173142D01*
X165541476Y-97112666D01*
X165420523Y-95963619D02*
X165420523Y-96568380D01*
X166025285Y-96628857D01*
X165964809Y-96568380D01*
X165904333Y-96447428D01*
X165904333Y-96145047D01*
X165964809Y-96024095D01*
X166025285Y-95963619D01*
X166146238Y-95903142D01*
X166448619Y-95903142D01*
X166569571Y-95963619D01*
X166630047Y-96024095D01*
X166690523Y-96145047D01*
X166690523Y-96447428D01*
X166630047Y-96568380D01*
X166569571Y-96628857D01*
G04 #@! TO.C,C6*
X149394333Y-110308571D02*
X149333857Y-110369047D01*
X149152428Y-110429523D01*
X149031476Y-110429523D01*
X148850047Y-110369047D01*
X148729095Y-110248095D01*
X148668619Y-110127142D01*
X148608142Y-109885238D01*
X148608142Y-109703809D01*
X148668619Y-109461904D01*
X148729095Y-109340952D01*
X148850047Y-109220000D01*
X149031476Y-109159523D01*
X149152428Y-109159523D01*
X149333857Y-109220000D01*
X149394333Y-109280476D01*
X150482904Y-109159523D02*
X150241000Y-109159523D01*
X150120047Y-109220000D01*
X150059571Y-109280476D01*
X149938619Y-109461904D01*
X149878142Y-109703809D01*
X149878142Y-110187619D01*
X149938619Y-110308571D01*
X149999095Y-110369047D01*
X150120047Y-110429523D01*
X150361952Y-110429523D01*
X150482904Y-110369047D01*
X150543380Y-110308571D01*
X150603857Y-110187619D01*
X150603857Y-109885238D01*
X150543380Y-109764285D01*
X150482904Y-109703809D01*
X150361952Y-109643333D01*
X150120047Y-109643333D01*
X149999095Y-109703809D01*
X149938619Y-109764285D01*
X149878142Y-109885238D01*
G04 #@! TO.C,C7*
X149394333Y-112848571D02*
X149333857Y-112909047D01*
X149152428Y-112969523D01*
X149031476Y-112969523D01*
X148850047Y-112909047D01*
X148729095Y-112788095D01*
X148668619Y-112667142D01*
X148608142Y-112425238D01*
X148608142Y-112243809D01*
X148668619Y-112001904D01*
X148729095Y-111880952D01*
X148850047Y-111760000D01*
X149031476Y-111699523D01*
X149152428Y-111699523D01*
X149333857Y-111760000D01*
X149394333Y-111820476D01*
X149817666Y-111699523D02*
X150664333Y-111699523D01*
X150120047Y-112969523D01*
G04 #@! TO.C,C8*
X174540333Y-70811571D02*
X174479857Y-70872047D01*
X174298428Y-70932523D01*
X174177476Y-70932523D01*
X173996047Y-70872047D01*
X173875095Y-70751095D01*
X173814619Y-70630142D01*
X173754142Y-70388238D01*
X173754142Y-70206809D01*
X173814619Y-69964904D01*
X173875095Y-69843952D01*
X173996047Y-69723000D01*
X174177476Y-69662523D01*
X174298428Y-69662523D01*
X174479857Y-69723000D01*
X174540333Y-69783476D01*
X175266047Y-70206809D02*
X175145095Y-70146333D01*
X175084619Y-70085857D01*
X175024142Y-69964904D01*
X175024142Y-69904428D01*
X175084619Y-69783476D01*
X175145095Y-69723000D01*
X175266047Y-69662523D01*
X175507952Y-69662523D01*
X175628904Y-69723000D01*
X175689380Y-69783476D01*
X175749857Y-69904428D01*
X175749857Y-69964904D01*
X175689380Y-70085857D01*
X175628904Y-70146333D01*
X175507952Y-70206809D01*
X175266047Y-70206809D01*
X175145095Y-70267285D01*
X175084619Y-70327761D01*
X175024142Y-70448714D01*
X175024142Y-70690619D01*
X175084619Y-70811571D01*
X175145095Y-70872047D01*
X175266047Y-70932523D01*
X175507952Y-70932523D01*
X175628904Y-70872047D01*
X175689380Y-70811571D01*
X175749857Y-70690619D01*
X175749857Y-70448714D01*
X175689380Y-70327761D01*
X175628904Y-70267285D01*
X175507952Y-70206809D01*
G04 #@! TO.C,C9*
X142790333Y-74748571D02*
X142729857Y-74809047D01*
X142548428Y-74869523D01*
X142427476Y-74869523D01*
X142246047Y-74809047D01*
X142125095Y-74688095D01*
X142064619Y-74567142D01*
X142004142Y-74325238D01*
X142004142Y-74143809D01*
X142064619Y-73901904D01*
X142125095Y-73780952D01*
X142246047Y-73660000D01*
X142427476Y-73599523D01*
X142548428Y-73599523D01*
X142729857Y-73660000D01*
X142790333Y-73720476D01*
X143395095Y-74869523D02*
X143637000Y-74869523D01*
X143757952Y-74809047D01*
X143818428Y-74748571D01*
X143939380Y-74567142D01*
X143999857Y-74325238D01*
X143999857Y-73841428D01*
X143939380Y-73720476D01*
X143878904Y-73660000D01*
X143757952Y-73599523D01*
X143516047Y-73599523D01*
X143395095Y-73660000D01*
X143334619Y-73720476D01*
X143274142Y-73841428D01*
X143274142Y-74143809D01*
X143334619Y-74264761D01*
X143395095Y-74325238D01*
X143516047Y-74385714D01*
X143757952Y-74385714D01*
X143878904Y-74325238D01*
X143939380Y-74264761D01*
X143999857Y-74143809D01*
G04 #@! TO.C,C10*
X149551571Y-86686571D02*
X149491095Y-86747047D01*
X149309666Y-86807523D01*
X149188714Y-86807523D01*
X149007285Y-86747047D01*
X148886333Y-86626095D01*
X148825857Y-86505142D01*
X148765380Y-86263238D01*
X148765380Y-86081809D01*
X148825857Y-85839904D01*
X148886333Y-85718952D01*
X149007285Y-85598000D01*
X149188714Y-85537523D01*
X149309666Y-85537523D01*
X149491095Y-85598000D01*
X149551571Y-85658476D01*
X150761095Y-86807523D02*
X150035380Y-86807523D01*
X150398238Y-86807523D02*
X150398238Y-85537523D01*
X150277285Y-85718952D01*
X150156333Y-85839904D01*
X150035380Y-85900380D01*
X151547285Y-85537523D02*
X151668238Y-85537523D01*
X151789190Y-85598000D01*
X151849666Y-85658476D01*
X151910142Y-85779428D01*
X151970619Y-86021333D01*
X151970619Y-86323714D01*
X151910142Y-86565619D01*
X151849666Y-86686571D01*
X151789190Y-86747047D01*
X151668238Y-86807523D01*
X151547285Y-86807523D01*
X151426333Y-86747047D01*
X151365857Y-86686571D01*
X151305380Y-86565619D01*
X151244904Y-86323714D01*
X151244904Y-86021333D01*
X151305380Y-85779428D01*
X151365857Y-85658476D01*
X151426333Y-85598000D01*
X151547285Y-85537523D01*
G04 #@! TO.C,C11*
X153678763Y-76145571D02*
X153618287Y-76206047D01*
X153436858Y-76266523D01*
X153315906Y-76266523D01*
X153134477Y-76206047D01*
X153013525Y-76085095D01*
X152953049Y-75964142D01*
X152892572Y-75722238D01*
X152892572Y-75540809D01*
X152953049Y-75298904D01*
X153013525Y-75177952D01*
X153134477Y-75057000D01*
X153315906Y-74996523D01*
X153436858Y-74996523D01*
X153618287Y-75057000D01*
X153678763Y-75117476D01*
X154888287Y-76266523D02*
X154162572Y-76266523D01*
X154525430Y-76266523D02*
X154525430Y-74996523D01*
X154404477Y-75177952D01*
X154283525Y-75298904D01*
X154162572Y-75359380D01*
X156097811Y-76266523D02*
X155372096Y-76266523D01*
X155734953Y-76266523D02*
X155734953Y-74996523D01*
X155614001Y-75177952D01*
X155493049Y-75298904D01*
X155372096Y-75359380D01*
G04 #@! TO.C,C12*
X154250571Y-86686571D02*
X154190095Y-86747047D01*
X154008666Y-86807523D01*
X153887714Y-86807523D01*
X153706285Y-86747047D01*
X153585333Y-86626095D01*
X153524857Y-86505142D01*
X153464380Y-86263238D01*
X153464380Y-86081809D01*
X153524857Y-85839904D01*
X153585333Y-85718952D01*
X153706285Y-85598000D01*
X153887714Y-85537523D01*
X154008666Y-85537523D01*
X154190095Y-85598000D01*
X154250571Y-85658476D01*
X155460095Y-86807523D02*
X154734380Y-86807523D01*
X155097238Y-86807523D02*
X155097238Y-85537523D01*
X154976285Y-85718952D01*
X154855333Y-85839904D01*
X154734380Y-85900380D01*
X155943904Y-85658476D02*
X156004380Y-85598000D01*
X156125333Y-85537523D01*
X156427714Y-85537523D01*
X156548666Y-85598000D01*
X156609142Y-85658476D01*
X156669619Y-85779428D01*
X156669619Y-85900380D01*
X156609142Y-86081809D01*
X155883428Y-86807523D01*
X156669619Y-86807523D01*
G04 #@! TO.C,C13*
X169617571Y-46964147D02*
X169678047Y-47024623D01*
X169738523Y-47206052D01*
X169738523Y-47327004D01*
X169678047Y-47508433D01*
X169557095Y-47629385D01*
X169436142Y-47689861D01*
X169194238Y-47750338D01*
X169012809Y-47750338D01*
X168770904Y-47689861D01*
X168649952Y-47629385D01*
X168529000Y-47508433D01*
X168468523Y-47327004D01*
X168468523Y-47206052D01*
X168529000Y-47024623D01*
X168589476Y-46964147D01*
X169738523Y-45754623D02*
X169738523Y-46480338D01*
X169738523Y-46117480D02*
X168468523Y-46117480D01*
X168649952Y-46238433D01*
X168770904Y-46359385D01*
X168831380Y-46480338D01*
X168468523Y-45331290D02*
X168468523Y-44545099D01*
X168952333Y-44968433D01*
X168952333Y-44787004D01*
X169012809Y-44666052D01*
X169073285Y-44605576D01*
X169194238Y-44545099D01*
X169496619Y-44545099D01*
X169617571Y-44605576D01*
X169678047Y-44666052D01*
X169738523Y-44787004D01*
X169738523Y-45149861D01*
X169678047Y-45270814D01*
X169617571Y-45331290D01*
G04 #@! TO.C,C14*
X169490571Y-51568428D02*
X169551047Y-51628904D01*
X169611523Y-51810333D01*
X169611523Y-51931285D01*
X169551047Y-52112714D01*
X169430095Y-52233666D01*
X169309142Y-52294142D01*
X169067238Y-52354619D01*
X168885809Y-52354619D01*
X168643904Y-52294142D01*
X168522952Y-52233666D01*
X168402000Y-52112714D01*
X168341523Y-51931285D01*
X168341523Y-51810333D01*
X168402000Y-51628904D01*
X168462476Y-51568428D01*
X169611523Y-50358904D02*
X169611523Y-51084619D01*
X169611523Y-50721761D02*
X168341523Y-50721761D01*
X168522952Y-50842714D01*
X168643904Y-50963666D01*
X168704380Y-51084619D01*
X168764857Y-49270333D02*
X169611523Y-49270333D01*
X168281047Y-49572714D02*
X169188190Y-49875095D01*
X169188190Y-49088904D01*
G04 #@! TO.C,D1*
X160367407Y-88130349D02*
X160367407Y-86860349D01*
X160669788Y-86860349D01*
X160851216Y-86920826D01*
X160972168Y-87041778D01*
X161032645Y-87162730D01*
X161093121Y-87404635D01*
X161093121Y-87586064D01*
X161032645Y-87827968D01*
X160972168Y-87948921D01*
X160851216Y-88069873D01*
X160669788Y-88130349D01*
X160367407Y-88130349D01*
X162302645Y-88130349D02*
X161576930Y-88130349D01*
X161939788Y-88130349D02*
X161939788Y-86860349D01*
X161818835Y-87041778D01*
X161697883Y-87162730D01*
X161576930Y-87223206D01*
G04 #@! TO.C,D3*
X133047619Y-70297523D02*
X133047619Y-69027523D01*
X133350000Y-69027523D01*
X133531428Y-69088000D01*
X133652380Y-69208952D01*
X133712857Y-69329904D01*
X133773333Y-69571809D01*
X133773333Y-69753238D01*
X133712857Y-69995142D01*
X133652380Y-70116095D01*
X133531428Y-70237047D01*
X133350000Y-70297523D01*
X133047619Y-70297523D01*
X134196666Y-69027523D02*
X134982857Y-69027523D01*
X134559523Y-69511333D01*
X134740952Y-69511333D01*
X134861904Y-69571809D01*
X134922380Y-69632285D01*
X134982857Y-69753238D01*
X134982857Y-70055619D01*
X134922380Y-70176571D01*
X134861904Y-70237047D01*
X134740952Y-70297523D01*
X134378095Y-70297523D01*
X134257142Y-70237047D01*
X134196666Y-70176571D01*
G04 #@! TO.C,D4*
X149684619Y-70424523D02*
X149684619Y-69154523D01*
X149987000Y-69154523D01*
X150168428Y-69215000D01*
X150289380Y-69335952D01*
X150349857Y-69456904D01*
X150410333Y-69698809D01*
X150410333Y-69880238D01*
X150349857Y-70122142D01*
X150289380Y-70243095D01*
X150168428Y-70364047D01*
X149987000Y-70424523D01*
X149684619Y-70424523D01*
X151498904Y-69577857D02*
X151498904Y-70424523D01*
X151196523Y-69094047D02*
X150894142Y-70001190D01*
X151680333Y-70001190D01*
G04 #@! TO.C,D5*
X144604619Y-70424523D02*
X144604619Y-69154523D01*
X144907000Y-69154523D01*
X145088428Y-69215000D01*
X145209380Y-69335952D01*
X145269857Y-69456904D01*
X145330333Y-69698809D01*
X145330333Y-69880238D01*
X145269857Y-70122142D01*
X145209380Y-70243095D01*
X145088428Y-70364047D01*
X144907000Y-70424523D01*
X144604619Y-70424523D01*
X146479380Y-69154523D02*
X145874619Y-69154523D01*
X145814142Y-69759285D01*
X145874619Y-69698809D01*
X145995571Y-69638333D01*
X146297952Y-69638333D01*
X146418904Y-69698809D01*
X146479380Y-69759285D01*
X146539857Y-69880238D01*
X146539857Y-70182619D01*
X146479380Y-70303571D01*
X146418904Y-70364047D01*
X146297952Y-70424523D01*
X145995571Y-70424523D01*
X145874619Y-70364047D01*
X145814142Y-70303571D01*
G04 #@! TO.C,D6*
X138762619Y-70297523D02*
X138762619Y-69027523D01*
X139065000Y-69027523D01*
X139246428Y-69088000D01*
X139367380Y-69208952D01*
X139427857Y-69329904D01*
X139488333Y-69571809D01*
X139488333Y-69753238D01*
X139427857Y-69995142D01*
X139367380Y-70116095D01*
X139246428Y-70237047D01*
X139065000Y-70297523D01*
X138762619Y-70297523D01*
X140576904Y-69027523D02*
X140335000Y-69027523D01*
X140214047Y-69088000D01*
X140153571Y-69148476D01*
X140032619Y-69329904D01*
X139972142Y-69571809D01*
X139972142Y-70055619D01*
X140032619Y-70176571D01*
X140093095Y-70237047D01*
X140214047Y-70297523D01*
X140455952Y-70297523D01*
X140576904Y-70237047D01*
X140637380Y-70176571D01*
X140697857Y-70055619D01*
X140697857Y-69753238D01*
X140637380Y-69632285D01*
X140576904Y-69571809D01*
X140455952Y-69511333D01*
X140214047Y-69511333D01*
X140093095Y-69571809D01*
X140032619Y-69632285D01*
X139972142Y-69753238D01*
G04 #@! TO.C,J2*
X187899523Y-101515333D02*
X188806666Y-101515333D01*
X188988095Y-101575809D01*
X189109047Y-101696761D01*
X189169523Y-101878190D01*
X189169523Y-101999142D01*
X188020476Y-100971047D02*
X187960000Y-100910571D01*
X187899523Y-100789619D01*
X187899523Y-100487238D01*
X187960000Y-100366285D01*
X188020476Y-100305809D01*
X188141428Y-100245333D01*
X188262380Y-100245333D01*
X188443809Y-100305809D01*
X189169523Y-101031523D01*
X189169523Y-100245333D01*
G04 #@! TO.C,L1*
X166690523Y-100668666D02*
X166690523Y-101273428D01*
X165420523Y-101273428D01*
X166690523Y-99580095D02*
X166690523Y-100305809D01*
X166690523Y-99942952D02*
X165420523Y-99942952D01*
X165601952Y-100063904D01*
X165722904Y-100184857D01*
X165783380Y-100305809D01*
G04 #@! TO.C,L2*
X166690523Y-105054156D02*
X166690523Y-105658918D01*
X165420523Y-105658918D01*
X165541476Y-104691299D02*
X165481000Y-104630823D01*
X165420523Y-104509870D01*
X165420523Y-104207490D01*
X165481000Y-104086537D01*
X165541476Y-104026061D01*
X165662428Y-103965585D01*
X165783380Y-103965585D01*
X165964809Y-104026061D01*
X166690523Y-104751775D01*
X166690523Y-103965585D01*
G04 #@! TO.C,L4*
X154347333Y-70424523D02*
X153742571Y-70424523D01*
X153742571Y-69154523D01*
X155314952Y-69577857D02*
X155314952Y-70424523D01*
X155012571Y-69094047D02*
X154710190Y-70001190D01*
X155496380Y-70001190D01*
G04 #@! TO.C,R3*
X169738523Y-41613666D02*
X169133761Y-42037000D01*
X169738523Y-42339380D02*
X168468523Y-42339380D01*
X168468523Y-41855571D01*
X168529000Y-41734619D01*
X168589476Y-41674142D01*
X168710428Y-41613666D01*
X168891857Y-41613666D01*
X169012809Y-41674142D01*
X169073285Y-41734619D01*
X169133761Y-41855571D01*
X169133761Y-42339380D01*
X168468523Y-41190333D02*
X168468523Y-40404142D01*
X168952333Y-40827476D01*
X168952333Y-40646047D01*
X169012809Y-40525095D01*
X169073285Y-40464619D01*
X169194238Y-40404142D01*
X169496619Y-40404142D01*
X169617571Y-40464619D01*
X169678047Y-40525095D01*
X169738523Y-40646047D01*
X169738523Y-41008904D01*
X169678047Y-41129857D01*
X169617571Y-41190333D01*
G04 #@! TO.C,R4*
X169738523Y-56345666D02*
X169133761Y-56769000D01*
X169738523Y-57071380D02*
X168468523Y-57071380D01*
X168468523Y-56587571D01*
X168529000Y-56466619D01*
X168589476Y-56406142D01*
X168710428Y-56345666D01*
X168891857Y-56345666D01*
X169012809Y-56406142D01*
X169073285Y-56466619D01*
X169133761Y-56587571D01*
X169133761Y-57071380D01*
X168891857Y-55257095D02*
X169738523Y-55257095D01*
X168408047Y-55559476D02*
X169315190Y-55861857D01*
X169315190Y-55075666D01*
G04 #@! TO.C,U2*
X141145380Y-78171523D02*
X141145380Y-79199619D01*
X141205857Y-79320571D01*
X141266333Y-79381047D01*
X141387285Y-79441523D01*
X141629190Y-79441523D01*
X141750142Y-79381047D01*
X141810619Y-79320571D01*
X141871095Y-79199619D01*
X141871095Y-78171523D01*
X142415380Y-78292476D02*
X142475857Y-78232000D01*
X142596809Y-78171523D01*
X142899190Y-78171523D01*
X143020142Y-78232000D01*
X143080619Y-78292476D01*
X143141095Y-78413428D01*
X143141095Y-78534380D01*
X143080619Y-78715809D01*
X142354904Y-79441523D01*
X143141095Y-79441523D01*
G04 #@! TO.C,C1*
X142028333Y-86686571D02*
X141967857Y-86747047D01*
X141786428Y-86807523D01*
X141665476Y-86807523D01*
X141484047Y-86747047D01*
X141363095Y-86626095D01*
X141302619Y-86505142D01*
X141242142Y-86263238D01*
X141242142Y-86081809D01*
X141302619Y-85839904D01*
X141363095Y-85718952D01*
X141484047Y-85598000D01*
X141665476Y-85537523D01*
X141786428Y-85537523D01*
X141967857Y-85598000D01*
X142028333Y-85658476D01*
X143237857Y-86807523D02*
X142512142Y-86807523D01*
X142875000Y-86807523D02*
X142875000Y-85537523D01*
X142754047Y-85718952D01*
X142633095Y-85839904D01*
X142512142Y-85900380D01*
G04 #@! TO.C,C2*
X149394333Y-89861571D02*
X149333857Y-89922047D01*
X149152428Y-89982523D01*
X149031476Y-89982523D01*
X148850047Y-89922047D01*
X148729095Y-89801095D01*
X148668619Y-89680142D01*
X148608142Y-89438238D01*
X148608142Y-89256809D01*
X148668619Y-89014904D01*
X148729095Y-88893952D01*
X148850047Y-88773000D01*
X149031476Y-88712523D01*
X149152428Y-88712523D01*
X149333857Y-88773000D01*
X149394333Y-88833476D01*
X149878142Y-88833476D02*
X149938619Y-88773000D01*
X150059571Y-88712523D01*
X150361952Y-88712523D01*
X150482904Y-88773000D01*
X150543380Y-88833476D01*
X150603857Y-88954428D01*
X150603857Y-89075380D01*
X150543380Y-89256809D01*
X149817666Y-89982523D01*
X150603857Y-89982523D01*
G04 #@! TO.C,R1*
X145457333Y-86807523D02*
X145034000Y-86202761D01*
X144731619Y-86807523D02*
X144731619Y-85537523D01*
X145215428Y-85537523D01*
X145336380Y-85598000D01*
X145396857Y-85658476D01*
X145457333Y-85779428D01*
X145457333Y-85960857D01*
X145396857Y-86081809D01*
X145336380Y-86142285D01*
X145215428Y-86202761D01*
X144731619Y-86202761D01*
X146666857Y-86807523D02*
X145941142Y-86807523D01*
X146304000Y-86807523D02*
X146304000Y-85537523D01*
X146183047Y-85718952D01*
X146062095Y-85839904D01*
X145941142Y-85900380D01*
G04 #@! TO.C,R2*
D22*
X145569000Y-80281428D02*
X145369000Y-79995714D01*
X145226142Y-80281428D02*
X145226142Y-79681428D01*
X145454714Y-79681428D01*
X145511857Y-79710000D01*
X145540428Y-79738571D01*
X145569000Y-79795714D01*
X145569000Y-79881428D01*
X145540428Y-79938571D01*
X145511857Y-79967142D01*
X145454714Y-79995714D01*
X145226142Y-79995714D01*
X145797571Y-79738571D02*
X145826142Y-79710000D01*
X145883285Y-79681428D01*
X146026142Y-79681428D01*
X146083285Y-79710000D01*
X146111857Y-79738571D01*
X146140428Y-79795714D01*
X146140428Y-79852857D01*
X146111857Y-79938571D01*
X145769000Y-80281428D01*
X146140428Y-80281428D01*
G04 #@! TO.C,J4*
D15*
X116760666Y-35647380D02*
X116760666Y-36361666D01*
X116713047Y-36504523D01*
X116617809Y-36599761D01*
X116474952Y-36647380D01*
X116379714Y-36647380D01*
X117665428Y-35980714D02*
X117665428Y-36647380D01*
X117427333Y-35599761D02*
X117189238Y-36314047D01*
X117808285Y-36314047D01*
G04 #@! TO.C,F1*
D14*
X165961785Y-73575333D02*
X165961785Y-73998666D01*
X166627023Y-73998666D02*
X165357023Y-73998666D01*
X165357023Y-73393904D01*
X166627023Y-72244857D02*
X166627023Y-72970571D01*
X166627023Y-72607714D02*
X165357023Y-72607714D01*
X165538452Y-72728666D01*
X165659404Y-72849619D01*
X165719880Y-72970571D01*
G04 #@! TO.C,L3*
X135805333Y-86807523D02*
X135200571Y-86807523D01*
X135200571Y-85537523D01*
X136107714Y-85537523D02*
X136893904Y-85537523D01*
X136470571Y-86021333D01*
X136652000Y-86021333D01*
X136772952Y-86081809D01*
X136833428Y-86142285D01*
X136893904Y-86263238D01*
X136893904Y-86565619D01*
X136833428Y-86686571D01*
X136772952Y-86747047D01*
X136652000Y-86807523D01*
X136289142Y-86807523D01*
X136168190Y-86747047D01*
X136107714Y-86686571D01*
G04 #@! TO.C,CAN IN*
X169490571Y-38335857D02*
X169551047Y-38396333D01*
X169611523Y-38577761D01*
X169611523Y-38698714D01*
X169551047Y-38880142D01*
X169430095Y-39001095D01*
X169309142Y-39061571D01*
X169067238Y-39122047D01*
X168885809Y-39122047D01*
X168643904Y-39061571D01*
X168522952Y-39001095D01*
X168402000Y-38880142D01*
X168341523Y-38698714D01*
X168341523Y-38577761D01*
X168402000Y-38396333D01*
X168462476Y-38335857D01*
X169248666Y-37852047D02*
X169248666Y-37247285D01*
X169611523Y-37973000D02*
X168341523Y-37549666D01*
X169611523Y-37126333D01*
X169611523Y-36703000D02*
X168341523Y-36703000D01*
X169611523Y-35977285D01*
X168341523Y-35977285D01*
X169611523Y-34404904D02*
X168341523Y-34404904D01*
X169611523Y-33800142D02*
X168341523Y-33800142D01*
X169611523Y-33074428D01*
X168341523Y-33074428D01*
G04 #@! TO.C,Q1*
X150247047Y-61909476D02*
X150126095Y-61849000D01*
X150005142Y-61728047D01*
X149823714Y-61546619D01*
X149702761Y-61486142D01*
X149581809Y-61486142D01*
X149642285Y-61788523D02*
X149521333Y-61728047D01*
X149400380Y-61607095D01*
X149339904Y-61365190D01*
X149339904Y-60941857D01*
X149400380Y-60699952D01*
X149521333Y-60579000D01*
X149642285Y-60518523D01*
X149884190Y-60518523D01*
X150005142Y-60579000D01*
X150126095Y-60699952D01*
X150186571Y-60941857D01*
X150186571Y-61365190D01*
X150126095Y-61607095D01*
X150005142Y-61728047D01*
X149884190Y-61788523D01*
X149642285Y-61788523D01*
X151396095Y-61788523D02*
X150670380Y-61788523D01*
X151033238Y-61788523D02*
X151033238Y-60518523D01*
X150912285Y-60699952D01*
X150791333Y-60820904D01*
X150670380Y-60881380D01*
G04 #@! TO.C,Q2*
X137420047Y-61909476D02*
X137299095Y-61849000D01*
X137178142Y-61728047D01*
X136996714Y-61546619D01*
X136875761Y-61486142D01*
X136754809Y-61486142D01*
X136815285Y-61788523D02*
X136694333Y-61728047D01*
X136573380Y-61607095D01*
X136512904Y-61365190D01*
X136512904Y-60941857D01*
X136573380Y-60699952D01*
X136694333Y-60579000D01*
X136815285Y-60518523D01*
X137057190Y-60518523D01*
X137178142Y-60579000D01*
X137299095Y-60699952D01*
X137359571Y-60941857D01*
X137359571Y-61365190D01*
X137299095Y-61607095D01*
X137178142Y-61728047D01*
X137057190Y-61788523D01*
X136815285Y-61788523D01*
X137843380Y-60639476D02*
X137903857Y-60579000D01*
X138024809Y-60518523D01*
X138327190Y-60518523D01*
X138448142Y-60579000D01*
X138508619Y-60639476D01*
X138569095Y-60760428D01*
X138569095Y-60881380D01*
X138508619Y-61062809D01*
X137782904Y-61788523D01*
X138569095Y-61788523D01*
G04 #@! TO.C,R5*
X154474333Y-61788523D02*
X154051000Y-61183761D01*
X153748619Y-61788523D02*
X153748619Y-60518523D01*
X154232428Y-60518523D01*
X154353380Y-60579000D01*
X154413857Y-60639476D01*
X154474333Y-60760428D01*
X154474333Y-60941857D01*
X154413857Y-61062809D01*
X154353380Y-61123285D01*
X154232428Y-61183761D01*
X153748619Y-61183761D01*
X155623380Y-60518523D02*
X155018619Y-60518523D01*
X154958142Y-61123285D01*
X155018619Y-61062809D01*
X155139571Y-61002333D01*
X155441952Y-61002333D01*
X155562904Y-61062809D01*
X155623380Y-61123285D01*
X155683857Y-61244238D01*
X155683857Y-61546619D01*
X155623380Y-61667571D01*
X155562904Y-61728047D01*
X155441952Y-61788523D01*
X155139571Y-61788523D01*
X155018619Y-61728047D01*
X154958142Y-61667571D01*
G04 #@! TO.C,R6*
X145584333Y-61788523D02*
X145161000Y-61183761D01*
X144858619Y-61788523D02*
X144858619Y-60518523D01*
X145342428Y-60518523D01*
X145463380Y-60579000D01*
X145523857Y-60639476D01*
X145584333Y-60760428D01*
X145584333Y-60941857D01*
X145523857Y-61062809D01*
X145463380Y-61123285D01*
X145342428Y-61183761D01*
X144858619Y-61183761D01*
X146672904Y-60518523D02*
X146431000Y-60518523D01*
X146310047Y-60579000D01*
X146249571Y-60639476D01*
X146128619Y-60820904D01*
X146068142Y-61062809D01*
X146068142Y-61546619D01*
X146128619Y-61667571D01*
X146189095Y-61728047D01*
X146310047Y-61788523D01*
X146551952Y-61788523D01*
X146672904Y-61728047D01*
X146733380Y-61667571D01*
X146793857Y-61546619D01*
X146793857Y-61244238D01*
X146733380Y-61123285D01*
X146672904Y-61062809D01*
X146551952Y-61002333D01*
X146310047Y-61002333D01*
X146189095Y-61062809D01*
X146128619Y-61123285D01*
X146068142Y-61244238D01*
G04 #@! TO.C,R7*
X141774333Y-61788523D02*
X141351000Y-61183761D01*
X141048619Y-61788523D02*
X141048619Y-60518523D01*
X141532428Y-60518523D01*
X141653380Y-60579000D01*
X141713857Y-60639476D01*
X141774333Y-60760428D01*
X141774333Y-60941857D01*
X141713857Y-61062809D01*
X141653380Y-61123285D01*
X141532428Y-61183761D01*
X141048619Y-61183761D01*
X142197666Y-60518523D02*
X143044333Y-60518523D01*
X142500047Y-61788523D01*
G04 #@! TO.C,R8*
X132884333Y-61788523D02*
X132461000Y-61183761D01*
X132158619Y-61788523D02*
X132158619Y-60518523D01*
X132642428Y-60518523D01*
X132763380Y-60579000D01*
X132823857Y-60639476D01*
X132884333Y-60760428D01*
X132884333Y-60941857D01*
X132823857Y-61062809D01*
X132763380Y-61123285D01*
X132642428Y-61183761D01*
X132158619Y-61183761D01*
X133610047Y-61062809D02*
X133489095Y-61002333D01*
X133428619Y-60941857D01*
X133368142Y-60820904D01*
X133368142Y-60760428D01*
X133428619Y-60639476D01*
X133489095Y-60579000D01*
X133610047Y-60518523D01*
X133851952Y-60518523D01*
X133972904Y-60579000D01*
X134033380Y-60639476D01*
X134093857Y-60760428D01*
X134093857Y-60820904D01*
X134033380Y-60941857D01*
X133972904Y-61002333D01*
X133851952Y-61062809D01*
X133610047Y-61062809D01*
X133489095Y-61123285D01*
X133428619Y-61183761D01*
X133368142Y-61304714D01*
X133368142Y-61546619D01*
X133428619Y-61667571D01*
X133489095Y-61728047D01*
X133610047Y-61788523D01*
X133851952Y-61788523D01*
X133972904Y-61728047D01*
X134033380Y-61667571D01*
X134093857Y-61546619D01*
X134093857Y-61304714D01*
X134033380Y-61183761D01*
X133972904Y-61123285D01*
X133851952Y-61062809D01*
G04 #@! TD*
M02*
