G04 #@! TF.GenerationSoftware,KiCad,Pcbnew,5.0.2-bee76a0~70~ubuntu18.04.1*
G04 #@! TF.CreationDate,2019-11-25T15:04:39+01:00*
G04 #@! TF.ProjectId,RS232CInterface.kicad_pcb,52533233-3243-4496-9e74-657266616365,rev?*
G04 #@! TF.SameCoordinates,Original*
G04 #@! TF.FileFunction,Copper,L1,Top*
G04 #@! TF.FilePolarity,Positive*
%FSLAX46Y46*%
G04 Gerber Fmt 4.6, Leading zero omitted, Abs format (unit mm)*
G04 Created by KiCad (PCBNEW 5.0.2-bee76a0~70~ubuntu18.04.1) date Mon 25 Nov 2019 03:04:39 PM CET*
%MOMM*%
%LPD*%
G01*
G04 APERTURE LIST*
G04 #@! TA.AperFunction,ComponentPad*
%ADD10C,1.650000*%
G04 #@! TD*
G04 #@! TA.AperFunction,ComponentPad*
%ADD11R,2.250000X1.727200*%
G04 #@! TD*
G04 #@! TA.AperFunction,ComponentPad*
%ADD12O,2.250000X1.727200*%
G04 #@! TD*
G04 #@! TA.AperFunction,ComponentPad*
%ADD13O,1.727200X1.727200*%
G04 #@! TD*
G04 #@! TA.AperFunction,SMDPad,CuDef*
%ADD14R,2.250000X2.150000*%
G04 #@! TD*
G04 #@! TA.AperFunction,ComponentPad*
%ADD15R,1.500000X1.500000*%
G04 #@! TD*
G04 #@! TA.AperFunction,ComponentPad*
%ADD16C,1.500000*%
G04 #@! TD*
G04 #@! TA.AperFunction,SMDPad,CuDef*
%ADD17R,1.525000X0.700000*%
G04 #@! TD*
G04 #@! TA.AperFunction,SMDPad,CuDef*
%ADD18R,1.925000X0.650000*%
G04 #@! TD*
G04 #@! TA.AperFunction,ComponentPad*
%ADD19C,1.950000*%
G04 #@! TD*
G04 #@! TA.AperFunction,ComponentPad*
%ADD20R,1.950000X1.950000*%
G04 #@! TD*
G04 #@! TA.AperFunction,SMDPad,CuDef*
%ADD21R,1.020000X1.470000*%
G04 #@! TD*
G04 #@! TA.AperFunction,SMDPad,CuDef*
%ADD22R,1.470000X1.020000*%
G04 #@! TD*
G04 #@! TA.AperFunction,SMDPad,CuDef*
%ADD23R,3.000000X1.500000*%
G04 #@! TD*
G04 #@! TA.AperFunction,SMDPad,CuDef*
%ADD24R,2.150000X2.250000*%
G04 #@! TD*
G04 #@! TA.AperFunction,SMDPad,CuDef*
%ADD25R,1.500000X2.100000*%
G04 #@! TD*
G04 #@! TA.AperFunction,SMDPad,CuDef*
%ADD26R,0.950000X0.420000*%
G04 #@! TD*
G04 #@! TA.AperFunction,SMDPad,CuDef*
%ADD27R,2.050000X2.000000*%
G04 #@! TD*
G04 #@! TA.AperFunction,ComponentPad*
%ADD28C,4.800000*%
G04 #@! TD*
G04 #@! TA.AperFunction,SMDPad,CuDef*
%ADD29R,1.450000X1.150000*%
G04 #@! TD*
G04 #@! TA.AperFunction,SMDPad,CuDef*
%ADD30R,1.750000X1.050000*%
G04 #@! TD*
G04 #@! TA.AperFunction,SMDPad,CuDef*
%ADD31R,1.400000X0.600000*%
G04 #@! TD*
G04 #@! TA.AperFunction,SMDPad,CuDef*
%ADD32R,0.950000X1.400000*%
G04 #@! TD*
G04 #@! TA.AperFunction,Conductor*
%ADD33C,0.100000*%
G04 #@! TD*
G04 #@! TA.AperFunction,ComponentPad*
%ADD34C,1.740000*%
G04 #@! TD*
G04 #@! TA.AperFunction,ComponentPad*
%ADD35O,1.740000X2.200000*%
G04 #@! TD*
G04 #@! TA.AperFunction,ComponentPad*
%ADD36C,2.400000*%
G04 #@! TD*
G04 #@! TA.AperFunction,SMDPad,CuDef*
%ADD37R,1.400000X3.560000*%
G04 #@! TD*
G04 #@! TA.AperFunction,ComponentPad*
%ADD38R,1.050000X1.500000*%
G04 #@! TD*
G04 #@! TA.AperFunction,ComponentPad*
%ADD39O,1.050000X1.500000*%
G04 #@! TD*
G04 #@! TA.AperFunction,SMDPad,CuDef*
%ADD40R,1.400000X0.950000*%
G04 #@! TD*
G04 #@! TA.AperFunction,ViaPad*
%ADD41C,0.800000*%
G04 #@! TD*
G04 #@! TA.AperFunction,Conductor*
%ADD42C,1.000000*%
G04 #@! TD*
G04 #@! TA.AperFunction,Conductor*
%ADD43C,0.250000*%
G04 #@! TD*
G04 #@! TA.AperFunction,Conductor*
%ADD44C,0.254000*%
G04 #@! TD*
G04 APERTURE END LIST*
D10*
G04 #@! TO.P,.1,1*
G04 #@! TO.N,/PDM/CANL*
X158750000Y-44831000D03*
G04 #@! TO.P,.1,2*
G04 #@! TO.N,Net-(.1-Pad2)*
X161290000Y-44831000D03*
G04 #@! TO.P,.1,3*
G04 #@! TO.N,/PDM/CANH*
X158750000Y-47371000D03*
G04 #@! TO.P,.1,4*
G04 #@! TO.N,Net-(.1-Pad2)*
X161290000Y-47371000D03*
G04 #@! TO.P,.1,5*
G04 #@! TO.N,/PDM/CANH*
X158750000Y-49911000D03*
G04 #@! TO.P,.1,6*
G04 #@! TO.N,Net-(.1-Pad6)*
X161290000Y-49911000D03*
G04 #@! TO.P,.1,7*
G04 #@! TO.N,/PDM/CANL*
X158750000Y-52451000D03*
G04 #@! TO.P,.1,8*
G04 #@! TO.N,Net-(.1-Pad6)*
X161290000Y-52451000D03*
G04 #@! TD*
D11*
G04 #@! TO.P,U3,1*
G04 #@! TO.N,Net-(U3-Pad1)*
X110490000Y-51765200D03*
D12*
G04 #@! TO.P,U3,2*
G04 #@! TO.N,Net-(U3-Pad2)*
X110490000Y-54305200D03*
G04 #@! TO.P,U3,3*
G04 #@! TO.N,Net-(U3-Pad3)*
X110490000Y-56845200D03*
G04 #@! TO.P,U3,4*
G04 #@! TO.N,Net-(U3-Pad4)*
X110490000Y-59385200D03*
G04 #@! TO.P,U3,5*
G04 #@! TO.N,Net-(U3-Pad5)*
X110490000Y-61925200D03*
G04 #@! TO.P,U3,6*
G04 #@! TO.N,Net-(U3-Pad6)*
X110490000Y-64465200D03*
G04 #@! TO.P,U3,7*
G04 #@! TO.N,Net-(U3-Pad7)*
X110490000Y-67005200D03*
G04 #@! TO.P,U3,8*
G04 #@! TO.N,Net-(U3-Pad8)*
X110490000Y-69545200D03*
G04 #@! TO.P,U3,9*
G04 #@! TO.N,Net-(U3-Pad9)*
X110490000Y-72085200D03*
G04 #@! TO.P,U3,10*
G04 #@! TO.N,Net-(U3-Pad10)*
X110490000Y-74625200D03*
G04 #@! TO.P,U3,11*
G04 #@! TO.N,Net-(U3-Pad11)*
X110490000Y-77165200D03*
G04 #@! TO.P,U3,12*
G04 #@! TO.N,Net-(U3-Pad12)*
X110490000Y-79705200D03*
G04 #@! TO.P,U3,13*
G04 #@! TO.N,Net-(U3-Pad13)*
X110490000Y-82245200D03*
G04 #@! TO.P,U3,14*
G04 #@! TO.N,Net-(U3-Pad14)*
X110490000Y-84785200D03*
G04 #@! TO.P,U3,15*
G04 #@! TO.N,Net-(U3-Pad15)*
X110490000Y-87325200D03*
G04 #@! TO.P,U3,16*
G04 #@! TO.N,Net-(U3-Pad16)*
X110490000Y-89865200D03*
G04 #@! TO.P,U3,17*
G04 #@! TO.N,Net-(U3-Pad17)*
X110490000Y-92405200D03*
G04 #@! TO.P,U3,18*
G04 #@! TO.N,+3V3*
X110490000Y-94945200D03*
G04 #@! TO.P,U3,19*
G04 #@! TO.N,GND*
X110490000Y-97485200D03*
G04 #@! TO.P,U3,20*
X110490000Y-100025200D03*
G04 #@! TO.P,U3,21*
G04 #@! TO.N,Net-(U3-Pad21)*
X125730000Y-100025200D03*
G04 #@! TO.P,U3,22*
G04 #@! TO.N,Net-(U3-Pad22)*
X125730000Y-97485200D03*
G04 #@! TO.P,U3,23*
G04 #@! TO.N,Net-(U3-Pad23)*
X125730000Y-94945200D03*
G04 #@! TO.P,U3,24*
G04 #@! TO.N,Net-(U3-Pad24)*
X125730000Y-92405200D03*
G04 #@! TO.P,U3,25*
G04 #@! TO.N,Net-(U3-Pad25)*
X125730000Y-89865200D03*
G04 #@! TO.P,U3,26*
G04 #@! TO.N,Net-(J4-Pad3)*
X125730000Y-87325200D03*
G04 #@! TO.P,U3,27*
G04 #@! TO.N,Net-(J4-Pad2)*
X125730000Y-84785200D03*
G04 #@! TO.P,U3,28*
G04 #@! TO.N,Net-(U3-Pad28)*
X125730000Y-82245200D03*
G04 #@! TO.P,U3,29*
G04 #@! TO.N,Net-(U3-Pad29)*
X125730000Y-79705200D03*
G04 #@! TO.P,U3,30*
G04 #@! TO.N,Net-(U3-Pad30)*
X125730000Y-77165200D03*
G04 #@! TO.P,U3,31*
G04 #@! TO.N,Net-(U3-Pad31)*
X125730000Y-74625200D03*
G04 #@! TO.P,U3,32*
G04 #@! TO.N,Net-(U3-Pad32)*
X125730000Y-72085200D03*
G04 #@! TO.P,U3,33*
G04 #@! TO.N,Net-(U3-Pad33)*
X125730000Y-69545200D03*
G04 #@! TO.P,U3,34*
G04 #@! TO.N,Net-(Q2-Pad1)*
X125730000Y-67005200D03*
G04 #@! TO.P,U3,35*
G04 #@! TO.N,Net-(Q1-Pad1)*
X125730000Y-64465200D03*
G04 #@! TO.P,U3,36*
G04 #@! TO.N,/CANRX_BP*
X125730000Y-61925200D03*
G04 #@! TO.P,U3,37*
G04 #@! TO.N,/CANTX_BP*
X125730000Y-59385200D03*
G04 #@! TO.P,U3,38*
G04 #@! TO.N,+5V*
X125730000Y-56845200D03*
G04 #@! TO.P,U3,39*
G04 #@! TO.N,GND*
X125730000Y-54305200D03*
G04 #@! TO.P,U3,40*
G04 #@! TO.N,+3V3*
X125730000Y-51714400D03*
D13*
G04 #@! TO.P,U3,41*
G04 #@! TO.N,Net-(U3-Pad41)*
X119390000Y-55575200D03*
G04 #@! TO.P,U3,42*
G04 #@! TO.N,Net-(U3-Pad42)*
X116850000Y-55575200D03*
G04 #@! TD*
D14*
G04 #@! TO.P,D2,2*
G04 #@! TO.N,GNDS*
X159344000Y-111252000D03*
G04 #@! TO.P,D2,1*
G04 #@! TO.N,Net-(D2-Pad1)*
X163744000Y-111252000D03*
G04 #@! TD*
D15*
G04 #@! TO.P,CAN OUT,1*
G04 #@! TO.N,/PDM/CANH*
X174625000Y-63246000D03*
D16*
G04 #@! TO.P,CAN OUT,2*
G04 #@! TO.N,Net-(.1-Pad6)*
X172085000Y-61976000D03*
G04 #@! TO.P,CAN OUT,3*
G04 #@! TO.N,Net-(BP_CAN_OUT1-Pad3)*
X174625000Y-60706000D03*
G04 #@! TO.P,CAN OUT,4*
G04 #@! TO.N,+24V*
X172085000Y-59436000D03*
G04 #@! TO.P,CAN OUT,5*
G04 #@! TO.N,GND*
X174625000Y-58166000D03*
G04 #@! TO.P,CAN OUT,6*
G04 #@! TO.N,Net-(BP_CAN_OUT1-Pad6)*
X172085000Y-56896000D03*
G04 #@! TO.P,CAN OUT,7*
G04 #@! TO.N,GND*
X174625000Y-55626000D03*
G04 #@! TO.P,CAN OUT,8*
G04 #@! TO.N,+24V*
X172085000Y-54356000D03*
G04 #@! TD*
D17*
G04 #@! TO.P,U1,1*
G04 #@! TO.N,/CANTX_BP*
X172167000Y-75057000D03*
G04 #@! TO.P,U1,2*
G04 #@! TO.N,GND*
X172167000Y-76327000D03*
G04 #@! TO.P,U1,3*
G04 #@! TO.N,+5V*
X172167000Y-77597000D03*
G04 #@! TO.P,U1,4*
G04 #@! TO.N,/CANRX_BP*
X172167000Y-78867000D03*
G04 #@! TO.P,U1,5*
G04 #@! TO.N,Net-(U1-Pad5)*
X177591000Y-78867000D03*
G04 #@! TO.P,U1,6*
G04 #@! TO.N,/PDM/CANL*
X177591000Y-77597000D03*
G04 #@! TO.P,U1,7*
G04 #@! TO.N,/PDM/CANH*
X177591000Y-76327000D03*
G04 #@! TO.P,U1,8*
G04 #@! TO.N,GND*
X177591000Y-75057000D03*
G04 #@! TD*
D18*
G04 #@! TO.P,IC1,1*
G04 #@! TO.N,Net-(IC1-Pad1)*
X150975212Y-95197174D03*
G04 #@! TO.P,IC1,2*
G04 #@! TO.N,+5V*
X150975212Y-96467174D03*
G04 #@! TO.P,IC1,3*
X150975212Y-97737174D03*
G04 #@! TO.P,IC1,4*
G04 #@! TO.N,GND*
X150975212Y-99007174D03*
G04 #@! TO.P,IC1,5*
X150975212Y-100277174D03*
G04 #@! TO.P,IC1,6*
X150975212Y-101547174D03*
G04 #@! TO.P,IC1,7*
X150975212Y-102817174D03*
G04 #@! TO.P,IC1,8*
G04 #@! TO.N,Net-(IC1-Pad8)*
X150975212Y-104087174D03*
G04 #@! TO.P,IC1,9*
G04 #@! TO.N,Net-(IC1-Pad9)*
X150975212Y-105357174D03*
G04 #@! TO.P,IC1,10*
G04 #@! TO.N,GND*
X150975212Y-106627174D03*
G04 #@! TO.P,IC1,11*
G04 #@! TO.N,GNDS*
X160399212Y-106627174D03*
G04 #@! TO.P,IC1,12*
G04 #@! TO.N,Net-(C7-Pad1)*
X160399212Y-105357174D03*
G04 #@! TO.P,IC1,13*
G04 #@! TO.N,Net-(C6-Pad2)*
X160399212Y-104087174D03*
G04 #@! TO.P,IC1,14*
G04 #@! TO.N,Net-(C6-Pad1)*
X160399212Y-102817174D03*
G04 #@! TO.P,IC1,15*
G04 #@! TO.N,Net-(IC1-Pad15)*
X160399212Y-101547174D03*
G04 #@! TO.P,IC1,16*
G04 #@! TO.N,Net-(IC1-Pad16)*
X160399212Y-100277174D03*
G04 #@! TO.P,IC1,17*
G04 #@! TO.N,Net-(C5-Pad2)*
X160399212Y-99007174D03*
G04 #@! TO.P,IC1,18*
G04 #@! TO.N,Net-(C5-Pad1)*
X160399212Y-97737174D03*
G04 #@! TO.P,IC1,19*
G04 #@! TO.N,Net-(C3-Pad2)*
X160399212Y-96467174D03*
G04 #@! TO.P,IC1,20*
G04 #@! TO.N,Net-(C2-Pad2)*
X160399212Y-95197174D03*
G04 #@! TD*
D19*
G04 #@! TO.P,Power,2*
G04 #@! TO.N,GND*
X184150000Y-74041000D03*
D20*
G04 #@! TO.P,Power,1*
G04 #@! TO.N,Net-(BP_Power1-Pad1)*
X184150000Y-71501000D03*
G04 #@! TD*
D21*
G04 #@! TO.P,C3,2*
G04 #@! TO.N,Net-(C3-Pad2)*
X153322212Y-92022174D03*
G04 #@! TO.P,C3,1*
G04 #@! TO.N,Net-(C2-Pad2)*
X151702212Y-92022174D03*
G04 #@! TD*
D22*
G04 #@! TO.P,C4,2*
G04 #@! TO.N,GND*
X169037000Y-76152000D03*
G04 #@! TO.P,C4,1*
G04 #@! TO.N,+5V*
X169037000Y-77772000D03*
G04 #@! TD*
G04 #@! TO.P,C5,1*
G04 #@! TO.N,Net-(C5-Pad1)*
X164191931Y-96147490D03*
G04 #@! TO.P,C5,2*
G04 #@! TO.N,Net-(C5-Pad2)*
X164191931Y-97767490D03*
G04 #@! TD*
D21*
G04 #@! TO.P,C6,1*
G04 #@! TO.N,Net-(C6-Pad1)*
X151702212Y-109802174D03*
G04 #@! TO.P,C6,2*
G04 #@! TO.N,Net-(C6-Pad2)*
X153322212Y-109802174D03*
G04 #@! TD*
G04 #@! TO.P,C7,1*
G04 #@! TO.N,Net-(C7-Pad1)*
X151702212Y-112342174D03*
G04 #@! TO.P,C7,2*
G04 #@! TO.N,GNDS*
X153322212Y-112342174D03*
G04 #@! TD*
G04 #@! TO.P,C8,1*
G04 #@! TO.N,+24V*
X173942000Y-72517000D03*
G04 #@! TO.P,C8,2*
G04 #@! TO.N,GND*
X175562000Y-72517000D03*
G04 #@! TD*
G04 #@! TO.P,C9,1*
G04 #@! TO.N,Net-(C9-Pad1)*
X146590192Y-74359985D03*
G04 #@! TO.P,C9,2*
G04 #@! TO.N,Net-(C9-Pad2)*
X144970192Y-74359985D03*
G04 #@! TD*
D23*
G04 #@! TO.P,C10,1*
G04 #@! TO.N,+5V*
X150685192Y-84064985D03*
G04 #@! TO.P,C10,2*
G04 #@! TO.N,GND*
X150685192Y-81164985D03*
G04 #@! TD*
D22*
G04 #@! TO.P,C11,2*
G04 #@! TO.N,GND*
X154495192Y-78979985D03*
G04 #@! TO.P,C11,1*
G04 #@! TO.N,Net-(C11-Pad1)*
X154495192Y-77359985D03*
G04 #@! TD*
G04 #@! TO.P,C12,1*
G04 #@! TO.N,Net-(C11-Pad1)*
X154495192Y-82439985D03*
G04 #@! TO.P,C12,2*
G04 #@! TO.N,GND*
X154495192Y-84059985D03*
G04 #@! TD*
G04 #@! TO.P,C13,2*
G04 #@! TO.N,+24V*
X167044634Y-45337719D03*
G04 #@! TO.P,C13,1*
G04 #@! TO.N,GND*
X167044634Y-46957719D03*
G04 #@! TD*
G04 #@! TO.P,C14,2*
G04 #@! TO.N,+24V*
X167005000Y-50069000D03*
G04 #@! TO.P,C14,1*
G04 #@! TO.N,GND*
X167005000Y-51689000D03*
G04 #@! TD*
D14*
G04 #@! TO.P,D1,1*
G04 #@! TO.N,GNDS*
X163490000Y-90678000D03*
G04 #@! TO.P,D1,2*
G04 #@! TO.N,Net-(D1-Pad2)*
X159090000Y-90678000D03*
G04 #@! TD*
D24*
G04 #@! TO.P,D3,1*
G04 #@! TO.N,GND*
X134175192Y-72159985D03*
G04 #@! TO.P,D3,2*
G04 #@! TO.N,+24V*
X134175192Y-76559985D03*
G04 #@! TD*
D25*
G04 #@! TO.P,D4,1*
G04 #@! TO.N,Net-(D4-Pad1)*
X150685192Y-76459985D03*
G04 #@! TO.P,D4,2*
G04 #@! TO.N,+24V*
X150685192Y-72259985D03*
G04 #@! TD*
D26*
G04 #@! TO.P,D5,1*
G04 #@! TO.N,Net-(C9-Pad2)*
X144530192Y-71819985D03*
G04 #@! TO.P,D5,2*
G04 #@! TO.N,+5V*
X146680192Y-71819985D03*
G04 #@! TD*
D27*
G04 #@! TO.P,D6,1*
G04 #@! TO.N,Net-(C9-Pad1)*
X139890192Y-72059985D03*
G04 #@! TO.P,D6,2*
G04 #@! TO.N,GND*
X139890192Y-76659985D03*
G04 #@! TD*
D19*
G04 #@! TO.P,J1,2*
G04 #@! TO.N,/PDM/CANH*
X184150000Y-82296000D03*
D20*
G04 #@! TO.P,J1,1*
G04 #@! TO.N,/PDM/CANL*
X184150000Y-79756000D03*
G04 #@! TD*
D16*
G04 #@! TO.P,J2,1*
G04 #@! TO.N,Net-(J2-Pad1)*
X170688000Y-95504000D03*
G04 #@! TO.P,J2,2*
G04 #@! TO.N,Net-(D1-Pad2)*
X170688000Y-98274000D03*
G04 #@! TO.P,J2,3*
G04 #@! TO.N,Net-(D2-Pad1)*
X170688000Y-101044000D03*
G04 #@! TO.P,J2,4*
G04 #@! TO.N,Net-(J2-Pad1)*
X170688000Y-103814000D03*
G04 #@! TO.P,J2,5*
G04 #@! TO.N,GNDS*
X170688000Y-106584000D03*
G04 #@! TO.P,J2,6*
G04 #@! TO.N,Net-(J2-Pad1)*
X173528000Y-96889000D03*
G04 #@! TO.P,J2,7*
G04 #@! TO.N,Net-(J2-Pad7)*
X173528000Y-99659000D03*
G04 #@! TO.P,J2,8*
X173528000Y-102429000D03*
G04 #@! TO.P,J2,9*
G04 #@! TO.N,Net-(J2-Pad9)*
X173528000Y-105199000D03*
D28*
G04 #@! TO.P,J2,MH1*
G04 #@! TO.N,N/C*
X172108000Y-113544000D03*
G04 #@! TO.P,J2,MH2*
X172108000Y-88544000D03*
G04 #@! TD*
D29*
G04 #@! TO.P,L1,1*
G04 #@! TO.N,Net-(IC1-Pad16)*
X164191931Y-99867490D03*
G04 #@! TO.P,L1,2*
G04 #@! TO.N,Net-(D1-Pad2)*
X164191931Y-101667490D03*
G04 #@! TD*
G04 #@! TO.P,L2,2*
G04 #@! TO.N,Net-(D2-Pad1)*
X164191931Y-103942490D03*
G04 #@! TO.P,L2,1*
G04 #@! TO.N,Net-(IC1-Pad15)*
X164191931Y-105742490D03*
G04 #@! TD*
G04 #@! TO.P,L4,1*
G04 #@! TO.N,Net-(D4-Pad1)*
X154495192Y-73989985D03*
G04 #@! TO.P,L4,2*
G04 #@! TO.N,Net-(C11-Pad1)*
X154495192Y-72189985D03*
G04 #@! TD*
D30*
G04 #@! TO.P,R3,2*
G04 #@! TO.N,Net-(.1-Pad2)*
X167044634Y-42872719D03*
G04 #@! TO.P,R3,1*
G04 #@! TO.N,/PDM/CANL*
X167044634Y-39972719D03*
G04 #@! TD*
G04 #@! TO.P,R4,1*
G04 #@! TO.N,/PDM/CANL*
X167044634Y-57297719D03*
G04 #@! TO.P,R4,2*
G04 #@! TO.N,Net-(.1-Pad6)*
X167044634Y-54397719D03*
G04 #@! TD*
D31*
G04 #@! TO.P,U2,1*
G04 #@! TO.N,Net-(C9-Pad2)*
X144355192Y-76774000D03*
G04 #@! TO.P,U2,2*
G04 #@! TO.N,GND*
X144355192Y-77724000D03*
G04 #@! TO.P,U2,3*
G04 #@! TO.N,Net-(R1-Pad1)*
X144355192Y-78674000D03*
G04 #@! TO.P,U2,4*
G04 #@! TO.N,Net-(C11-Pad1)*
X146855192Y-78674000D03*
G04 #@! TO.P,U2,5*
X146855192Y-77724000D03*
G04 #@! TO.P,U2,6*
G04 #@! TO.N,Net-(C9-Pad1)*
X146855192Y-76774000D03*
G04 #@! TD*
D22*
G04 #@! TO.P,C1,2*
G04 #@! TO.N,+5V*
X142240000Y-83662000D03*
G04 #@! TO.P,C1,1*
G04 #@! TO.N,GND*
X142240000Y-82042000D03*
G04 #@! TD*
D21*
G04 #@! TO.P,C2,1*
G04 #@! TO.N,GNDS*
X153322212Y-89482174D03*
G04 #@! TO.P,C2,2*
G04 #@! TO.N,Net-(C2-Pad2)*
X151702212Y-89482174D03*
G04 #@! TD*
D32*
G04 #@! TO.P,R1,2*
G04 #@! TO.N,+5V*
X146555192Y-83884985D03*
G04 #@! TO.P,R1,1*
G04 #@! TO.N,Net-(R1-Pad1)*
X144655192Y-83884985D03*
G04 #@! TD*
G04 #@! TO.P,R2,1*
G04 #@! TO.N,Net-(R1-Pad1)*
X144655192Y-81344985D03*
G04 #@! TO.P,R2,2*
G04 #@! TO.N,GND*
X146555192Y-81344985D03*
G04 #@! TD*
D33*
G04 #@! TO.N,GND*
G04 #@! TO.C,J4*
G36*
X122056505Y-40557204D02*
X122080773Y-40560804D01*
X122104572Y-40566765D01*
X122127671Y-40575030D01*
X122149850Y-40585520D01*
X122170893Y-40598132D01*
X122190599Y-40612747D01*
X122208777Y-40629223D01*
X122225253Y-40647401D01*
X122239868Y-40667107D01*
X122252480Y-40688150D01*
X122262970Y-40710329D01*
X122271235Y-40733428D01*
X122277196Y-40757227D01*
X122280796Y-40781495D01*
X122282000Y-40805999D01*
X122282000Y-42506001D01*
X122280796Y-42530505D01*
X122277196Y-42554773D01*
X122271235Y-42578572D01*
X122262970Y-42601671D01*
X122252480Y-42623850D01*
X122239868Y-42644893D01*
X122225253Y-42664599D01*
X122208777Y-42682777D01*
X122190599Y-42699253D01*
X122170893Y-42713868D01*
X122149850Y-42726480D01*
X122127671Y-42736970D01*
X122104572Y-42745235D01*
X122080773Y-42751196D01*
X122056505Y-42754796D01*
X122032001Y-42756000D01*
X120791999Y-42756000D01*
X120767495Y-42754796D01*
X120743227Y-42751196D01*
X120719428Y-42745235D01*
X120696329Y-42736970D01*
X120674150Y-42726480D01*
X120653107Y-42713868D01*
X120633401Y-42699253D01*
X120615223Y-42682777D01*
X120598747Y-42664599D01*
X120584132Y-42644893D01*
X120571520Y-42623850D01*
X120561030Y-42601671D01*
X120552765Y-42578572D01*
X120546804Y-42554773D01*
X120543204Y-42530505D01*
X120542000Y-42506001D01*
X120542000Y-40805999D01*
X120543204Y-40781495D01*
X120546804Y-40757227D01*
X120552765Y-40733428D01*
X120561030Y-40710329D01*
X120571520Y-40688150D01*
X120584132Y-40667107D01*
X120598747Y-40647401D01*
X120615223Y-40629223D01*
X120633401Y-40612747D01*
X120653107Y-40598132D01*
X120674150Y-40585520D01*
X120696329Y-40575030D01*
X120719428Y-40566765D01*
X120743227Y-40560804D01*
X120767495Y-40557204D01*
X120791999Y-40556000D01*
X122032001Y-40556000D01*
X122056505Y-40557204D01*
X122056505Y-40557204D01*
G37*
D34*
G04 #@! TD*
G04 #@! TO.P,J4,1*
G04 #@! TO.N,GND*
X121412000Y-41656000D03*
D35*
G04 #@! TO.P,J4,2*
G04 #@! TO.N,Net-(J4-Pad2)*
X118872000Y-41656000D03*
G04 #@! TO.P,J4,3*
G04 #@! TO.N,Net-(J4-Pad3)*
X116332000Y-41656000D03*
G04 #@! TO.P,J4,4*
G04 #@! TO.N,+5V*
X113792000Y-41656000D03*
G04 #@! TD*
D36*
G04 #@! TO.P,F1,1*
G04 #@! TO.N,+24V*
X161036000Y-84452000D03*
G04 #@! TO.P,F1,2*
G04 #@! TO.N,Net-(BP_Power1-Pad1)*
X161036000Y-61852000D03*
G04 #@! TD*
D37*
G04 #@! TO.P,L3,1*
G04 #@! TO.N,+5V*
X139064192Y-81979985D03*
G04 #@! TO.P,L3,2*
G04 #@! TO.N,Net-(C9-Pad1)*
X133604192Y-81979985D03*
G04 #@! TD*
D16*
G04 #@! TO.P,CAN IN,8*
G04 #@! TO.N,+24V*
X172085000Y-36576000D03*
G04 #@! TO.P,CAN IN,7*
G04 #@! TO.N,GND*
X174625000Y-37846000D03*
G04 #@! TO.P,CAN IN,6*
G04 #@! TO.N,Net-(BP_CAN_IN1-Pad6)*
X172085000Y-39116000D03*
G04 #@! TO.P,CAN IN,5*
G04 #@! TO.N,GND*
X174625000Y-40386000D03*
G04 #@! TO.P,CAN IN,4*
G04 #@! TO.N,+24V*
X172085000Y-41656000D03*
G04 #@! TO.P,CAN IN,3*
G04 #@! TO.N,Net-(BP_CAN_IN1-Pad3)*
X174625000Y-42926000D03*
G04 #@! TO.P,CAN IN,2*
G04 #@! TO.N,Net-(.1-Pad2)*
X172085000Y-44196000D03*
D15*
G04 #@! TO.P,CAN IN,1*
G04 #@! TO.N,/PDM/CANH*
X174625000Y-45466000D03*
G04 #@! TD*
D38*
G04 #@! TO.P,Q1,1*
G04 #@! TO.N,Net-(Q1-Pad1)*
X151511000Y-64008000D03*
D39*
G04 #@! TO.P,Q1,3*
G04 #@! TO.N,Net-(IC1-Pad8)*
X148971000Y-64008000D03*
G04 #@! TO.P,Q1,2*
G04 #@! TO.N,+3V3*
X150241000Y-64008000D03*
G04 #@! TD*
G04 #@! TO.P,Q2,2*
G04 #@! TO.N,+3V3*
X137541000Y-64008000D03*
G04 #@! TO.P,Q2,3*
G04 #@! TO.N,Net-(IC1-Pad9)*
X136271000Y-64008000D03*
D38*
G04 #@! TO.P,Q2,1*
G04 #@! TO.N,Net-(Q2-Pad1)*
X138811000Y-64008000D03*
G04 #@! TD*
D40*
G04 #@! TO.P,R5,2*
G04 #@! TO.N,Net-(Q1-Pad1)*
X154686000Y-63378000D03*
G04 #@! TO.P,R5,1*
G04 #@! TO.N,+3V3*
X154686000Y-65278000D03*
G04 #@! TD*
G04 #@! TO.P,R6,1*
G04 #@! TO.N,+5V*
X145796000Y-65278000D03*
G04 #@! TO.P,R6,2*
G04 #@! TO.N,Net-(IC1-Pad8)*
X145796000Y-63378000D03*
G04 #@! TD*
G04 #@! TO.P,R7,2*
G04 #@! TO.N,Net-(Q2-Pad1)*
X141986000Y-63378000D03*
G04 #@! TO.P,R7,1*
G04 #@! TO.N,+3V3*
X141986000Y-65278000D03*
G04 #@! TD*
G04 #@! TO.P,R8,1*
G04 #@! TO.N,+5V*
X133096000Y-65593000D03*
G04 #@! TO.P,R8,2*
G04 #@! TO.N,Net-(IC1-Pad9)*
X133096000Y-63693000D03*
G04 #@! TD*
D41*
G04 #@! TO.N,+24V*
X172593000Y-70993000D03*
X152781000Y-69864177D03*
G04 #@! TO.N,GND*
X152781000Y-86106000D03*
X149098000Y-97028000D03*
X174752000Y-77216000D03*
X166116000Y-80137000D03*
G04 #@! TO.N,+5V*
X147955000Y-71270177D03*
X143891000Y-66167000D03*
X135255000Y-67310000D03*
G04 #@! TD*
D42*
G04 #@! TO.N,/PDM/CANL*
X167044634Y-39972719D02*
X163608281Y-39972719D01*
X163608281Y-39972719D02*
X158750000Y-44831000D01*
X167044634Y-59081636D02*
X176923998Y-68961000D01*
X167044634Y-57297719D02*
X167044634Y-59081636D01*
X185825001Y-69965999D02*
X185825001Y-78715999D01*
X176923998Y-68961000D02*
X184820002Y-68961000D01*
X184820002Y-68961000D02*
X185825001Y-69965999D01*
X185825001Y-78715999D02*
X184785000Y-79756000D01*
X184785000Y-79756000D02*
X184150000Y-79756000D01*
D43*
X177591000Y-77597000D02*
X177178500Y-77597000D01*
X184150000Y-80391000D02*
X184150000Y-79756000D01*
X177591000Y-77597000D02*
X177038000Y-77597000D01*
X176503499Y-78272001D02*
X176503499Y-79983499D01*
X177178500Y-77597000D02*
X176503499Y-78272001D01*
X176503499Y-79983499D02*
X176911000Y-80391000D01*
X177201001Y-80681001D02*
X183097999Y-80681001D01*
X176911000Y-80391000D02*
X177201001Y-80681001D01*
X183097999Y-80681001D02*
X184150000Y-79629000D01*
D42*
X167044634Y-57297719D02*
X167025719Y-57297719D01*
X167044634Y-57297719D02*
X167044634Y-56808634D01*
X167044634Y-56808634D02*
X166370000Y-56134000D01*
X166370000Y-56134000D02*
X165608000Y-56134000D01*
X165608000Y-56134000D02*
X162687000Y-56134000D01*
X162687000Y-56134000D02*
X162433000Y-56134000D01*
X162433000Y-56134000D02*
X158877000Y-52578000D01*
G04 #@! TO.N,Net-(.1-Pad2)*
X161290000Y-44831000D02*
X161290000Y-47371000D01*
X167044634Y-42872719D02*
X163248281Y-42872719D01*
X163248281Y-42872719D02*
X161290000Y-44831000D01*
X172085000Y-44196000D02*
X171335001Y-43446001D01*
X171335001Y-43446001D02*
X170815000Y-42926000D01*
X170815000Y-42926000D02*
X167005000Y-42926000D01*
G04 #@! TO.N,/PDM/CANH*
X176075001Y-61795999D02*
X176075001Y-46281001D01*
X174625000Y-63246000D02*
X176075001Y-61795999D01*
X176075001Y-46281001D02*
X175260000Y-45466000D01*
X175260000Y-45466000D02*
X174625000Y-45466000D01*
X176075001Y-44015999D02*
X176075001Y-36121001D01*
X174625000Y-45466000D02*
X176075001Y-44015999D01*
X175079999Y-35125999D02*
X165915001Y-35125999D01*
X176075001Y-36121001D02*
X175079999Y-35125999D01*
X157224999Y-45845999D02*
X157925001Y-46546001D01*
X165915001Y-35125999D02*
X157224999Y-43816001D01*
X157224999Y-43816001D02*
X157224999Y-45845999D01*
X157925001Y-46546001D02*
X158750000Y-47371000D01*
X158750000Y-47371000D02*
X158750000Y-49911000D01*
X187025010Y-80799848D02*
X185528858Y-82296000D01*
X187025010Y-69468938D02*
X187025010Y-80799848D01*
X185247072Y-67691000D02*
X187025010Y-69468938D01*
X185528858Y-82296000D02*
X184150000Y-82296000D01*
X185247072Y-67691000D02*
X180820000Y-67691000D01*
X180820000Y-67691000D02*
X179070000Y-67691000D01*
X179070000Y-67691000D02*
X174625000Y-63246000D01*
D43*
X177591000Y-76327000D02*
X178003500Y-76327000D01*
X176053490Y-80169900D02*
X177014601Y-81131011D01*
X176053489Y-77452011D02*
X176053490Y-80169900D01*
X177591000Y-76327000D02*
X177178500Y-76327000D01*
X177178500Y-76327000D02*
X176053489Y-77452011D01*
X177014601Y-81131011D02*
X182626000Y-81131011D01*
X182626000Y-81131011D02*
X182985011Y-81131011D01*
X182985011Y-81131011D02*
X184023000Y-82169000D01*
D42*
G04 #@! TO.N,Net-(.1-Pad6)*
X161290000Y-49911000D02*
X161290000Y-52451000D01*
X161290000Y-52451000D02*
X163195000Y-54356000D01*
X163195000Y-54356000D02*
X167005000Y-54356000D01*
X168631720Y-58522720D02*
X168631720Y-55347720D01*
X172085000Y-61976000D02*
X168631720Y-58522720D01*
X168631720Y-55347720D02*
X167640000Y-54356000D01*
G04 #@! TO.N,+24V*
X134175192Y-76559985D02*
X134175192Y-76509985D01*
X150685192Y-72259985D02*
X150685192Y-72072192D01*
X134620000Y-76581000D02*
X134366000Y-76581000D01*
X166528000Y-50069000D02*
X165735000Y-49276000D01*
X165609633Y-45887718D02*
X166158351Y-45339000D01*
X165735000Y-49276000D02*
X165609633Y-49150633D01*
X165609633Y-49150633D02*
X165609633Y-48133000D01*
X166158351Y-45339000D02*
X166751000Y-45339000D01*
X165609633Y-48133000D02*
X165609633Y-45887718D01*
X173942000Y-72517000D02*
X173942000Y-72342000D01*
X173942000Y-72342000D02*
X172593000Y-70993000D01*
X172085000Y-54356000D02*
X167894000Y-50165000D01*
X167894000Y-50165000D02*
X166751000Y-50165000D01*
X134175192Y-76559985D02*
X133709985Y-76559985D01*
X133709985Y-76559985D02*
X132207000Y-75057000D01*
X132207000Y-75057000D02*
X131191000Y-74041000D01*
X131191000Y-74041000D02*
X131191000Y-72390000D01*
X131191000Y-71684175D02*
X132771175Y-70104000D01*
X131191000Y-72390000D02*
X131191000Y-71684175D01*
X132790174Y-70085001D02*
X148825001Y-70085001D01*
X132771175Y-70104000D02*
X132790174Y-70085001D01*
X148825001Y-70085001D02*
X150622000Y-71882000D01*
X150685192Y-71959985D02*
X152781000Y-69864177D01*
X150685192Y-72259985D02*
X150685192Y-71959985D01*
X152781000Y-69864177D02*
X152781000Y-69864177D01*
D43*
G04 #@! TO.N,GND*
X152262713Y-103502173D02*
X151630540Y-102870000D01*
X152262713Y-105942175D02*
X152262713Y-103502173D01*
X150975212Y-106627174D02*
X151577714Y-106627174D01*
X151577714Y-106627174D02*
X152262713Y-105942175D01*
X151630540Y-102870000D02*
X150749000Y-102870000D01*
X150975212Y-102817174D02*
X150975212Y-99062388D01*
X150975212Y-99062388D02*
X150977600Y-99060000D01*
X173160001Y-44712001D02*
X170882002Y-46990000D01*
X173160001Y-36000001D02*
X173160001Y-44712001D01*
X174625000Y-40386000D02*
X174625000Y-37465000D01*
X174625000Y-37465000D02*
X173160001Y-36000001D01*
X170882002Y-46990000D02*
X167132000Y-46990000D01*
X146555192Y-81344985D02*
X146555192Y-81340692D01*
X146555192Y-81340692D02*
X145796000Y-80581500D01*
X145796000Y-78529806D02*
X144926694Y-77660500D01*
X145796000Y-80581500D02*
X145796000Y-78529806D01*
X144926694Y-77660500D02*
X144399000Y-77660500D01*
X125730000Y-54305200D02*
X125730000Y-54292500D01*
X125730000Y-54292500D02*
X124079000Y-52641500D01*
X124079000Y-52641500D02*
X124079000Y-44196000D01*
X124079000Y-44196000D02*
X121539000Y-41656000D01*
X135575193Y-74934986D02*
X135575193Y-78038807D01*
X134175192Y-72159985D02*
X134175192Y-73534985D01*
X134175192Y-73534985D02*
X135575193Y-74934986D01*
X135575193Y-78038807D02*
X133985000Y-79629000D01*
X133985000Y-79629000D02*
X132969000Y-79629000D01*
X132969000Y-79629000D02*
X131953000Y-80645000D01*
X131572000Y-81026000D02*
X131572000Y-83691590D01*
X131953000Y-80645000D02*
X131572000Y-81026000D01*
X131572000Y-83691590D02*
X132266400Y-84385990D01*
X132266400Y-84385990D02*
X136594010Y-84385990D01*
X137287000Y-83693000D02*
X137287000Y-79248000D01*
X136594010Y-84385990D02*
X137287000Y-83693000D01*
X137287000Y-79248000D02*
X140081000Y-76454000D01*
X152781000Y-85549177D02*
X152781000Y-86106000D01*
X154270192Y-84059985D02*
X152781000Y-85549177D01*
X154495192Y-84059985D02*
X154270192Y-84059985D01*
X175151999Y-76816001D02*
X174752000Y-77216000D01*
X176911000Y-75057000D02*
X175151999Y-76816001D01*
X177591000Y-75057000D02*
X176911000Y-75057000D01*
X173863000Y-76327000D02*
X174752000Y-77216000D01*
X172167000Y-76327000D02*
X173863000Y-76327000D01*
X168052000Y-76152000D02*
X169037000Y-76152000D01*
X166116000Y-80137000D02*
X166116000Y-78088000D01*
X166116000Y-78088000D02*
X168052000Y-76152000D01*
G04 #@! TO.N,+5V*
X150975212Y-96467174D02*
X150975212Y-97436788D01*
X150975212Y-97436788D02*
X150876000Y-97536000D01*
X169037000Y-77772000D02*
X169262000Y-77772000D01*
X169291000Y-77597000D02*
X169164000Y-77724000D01*
X141854207Y-83820000D02*
X142240000Y-83820000D01*
X143329986Y-84909986D02*
X145722014Y-84909986D01*
X142240000Y-83820000D02*
X143329986Y-84909986D01*
X145722014Y-84909986D02*
X146812000Y-83820000D01*
X169037000Y-77772000D02*
X168812000Y-77772000D01*
X113792000Y-41426000D02*
X113792000Y-41656000D01*
X125991400Y-56845200D02*
X127508000Y-55328600D01*
X125730000Y-56845200D02*
X125991400Y-56845200D01*
X115086000Y-40132000D02*
X113792000Y-41426000D01*
X141351000Y-84963000D02*
X142367000Y-83947000D01*
X133395205Y-84836000D02*
X137795000Y-84836000D01*
X137795000Y-84836000D02*
X139065000Y-83566000D01*
X141351000Y-84963000D02*
X140716000Y-84963000D01*
X140716000Y-84963000D02*
X139065000Y-83312000D01*
X133395205Y-84836000D02*
X132080000Y-84836000D01*
X132080000Y-84836000D02*
X130556000Y-83312000D01*
X130365990Y-83121990D02*
X130365990Y-68135010D01*
X130556000Y-83312000D02*
X130365990Y-83121990D01*
X130365990Y-68135010D02*
X132842000Y-65659000D01*
X124279990Y-58600010D02*
X125984000Y-56896000D01*
X124279990Y-67497538D02*
X124279990Y-58600010D01*
X133030000Y-65593000D02*
X131699000Y-64262000D01*
X133096000Y-65593000D02*
X133030000Y-65593000D01*
X126492000Y-68199000D02*
X124981452Y-68199000D01*
X131699000Y-64262000D02*
X130429000Y-64262000D01*
X130429000Y-64262000D02*
X126492000Y-68199000D01*
X124279990Y-67497538D02*
X124981452Y-68199000D01*
X127508000Y-55328600D02*
X127508000Y-42037000D01*
X125603000Y-40132000D02*
X115086000Y-40132000D01*
X127508000Y-42037000D02*
X125603000Y-40132000D01*
X146555192Y-83884985D02*
X146555192Y-83944192D01*
X146555192Y-83944192D02*
X147256500Y-84645500D01*
X147256500Y-84645500D02*
X147447000Y-84836000D01*
X147447000Y-84836000D02*
X147510500Y-84899500D01*
X147510500Y-84899500D02*
X148463000Y-84899500D01*
X148463000Y-84899500D02*
X149479000Y-84899500D01*
X149479000Y-84899500D02*
X150304500Y-84074000D01*
X172167000Y-77597000D02*
X172402500Y-77597000D01*
X172167000Y-77597000D02*
X172579500Y-77597000D01*
X169037000Y-77772000D02*
X168989000Y-77772000D01*
X150337712Y-96467174D02*
X148780500Y-94909962D01*
X150975212Y-96467174D02*
X150337712Y-96467174D01*
X148780500Y-94909962D02*
X148780500Y-89471500D01*
X148780500Y-89471500D02*
X149796500Y-88455500D01*
X149917990Y-88334010D02*
X164078490Y-88334010D01*
X149796500Y-88455500D02*
X149917990Y-88334010D01*
X164078490Y-88334010D02*
X164084000Y-88328500D01*
X164084000Y-88328500D02*
X164782500Y-88328500D01*
X164782500Y-88328500D02*
X165544500Y-87566500D01*
X165544500Y-87566500D02*
X166624000Y-86487000D01*
X166624000Y-86487000D02*
X167068500Y-86042500D01*
X167068500Y-86042500D02*
X167449500Y-85661500D01*
X167449500Y-85661500D02*
X167449500Y-80137000D01*
X167449500Y-80137000D02*
X167449500Y-79438500D01*
X167449500Y-79438500D02*
X168973500Y-77914500D01*
X150685192Y-84064985D02*
X149935192Y-84064985D01*
X151567040Y-97726500D02*
X150939500Y-97726500D01*
X152712723Y-98872183D02*
X151567040Y-97726500D01*
X152712723Y-106762165D02*
X152712723Y-98872183D01*
X152197713Y-107277175D02*
X152712723Y-106762165D01*
X149752711Y-107277175D02*
X152197713Y-107277175D01*
X146996990Y-104521454D02*
X149752711Y-107277175D01*
X149350590Y-86233000D02*
X146685000Y-88898590D01*
X149350590Y-86233000D02*
X149352000Y-86233000D01*
X150622000Y-84963000D02*
X151193500Y-84391500D01*
X150622000Y-84963000D02*
X150749000Y-84836000D01*
X149352000Y-86233000D02*
X150622000Y-84963000D01*
X152712723Y-98872183D02*
X151503540Y-97663000D01*
X146685000Y-88898590D02*
X146685000Y-104209464D01*
X146685000Y-104209464D02*
X149752711Y-107277175D01*
X151503540Y-97663000D02*
X150939500Y-97663000D01*
X147405192Y-71819985D02*
X147955000Y-71270177D01*
X146680192Y-71819985D02*
X147405192Y-71819985D01*
X147955000Y-71270177D02*
X147955000Y-71270177D01*
X135255000Y-67310000D02*
X134855001Y-66910001D01*
X134855001Y-66910001D02*
X133604000Y-65659000D01*
X133604000Y-65659000D02*
X133223000Y-65659000D01*
X144780000Y-65278000D02*
X143891000Y-66167000D01*
X145796000Y-65278000D02*
X144780000Y-65278000D01*
X172579500Y-77597000D02*
X173482000Y-78499500D01*
X173482000Y-78499500D02*
X173482000Y-79502000D01*
X173482000Y-79502000D02*
X172974000Y-80010000D01*
X172974000Y-80010000D02*
X170688000Y-80010000D01*
X170688000Y-80010000D02*
X168910000Y-78232000D01*
G04 #@! TO.N,Net-(C2-Pad2)*
X151702212Y-91758212D02*
X151892000Y-91948000D01*
X160399212Y-94622174D02*
X159249038Y-93472000D01*
X160399212Y-95197174D02*
X160399212Y-94622174D01*
X159249038Y-93472000D02*
X155448000Y-93472000D01*
X154157213Y-91027173D02*
X153672215Y-90542175D01*
X154157213Y-92181213D02*
X154157213Y-91027173D01*
X155448000Y-93472000D02*
X154157213Y-92181213D01*
X152552211Y-90542175D02*
X151926036Y-89916000D01*
X153672215Y-90542175D02*
X152552211Y-90542175D01*
X151926036Y-89916000D02*
X151892000Y-89916000D01*
X151702212Y-92022174D02*
X151702212Y-92012212D01*
X151702212Y-92012212D02*
X151003000Y-91313000D01*
X151003000Y-91313000D02*
X151003000Y-90297000D01*
X151003000Y-90297000D02*
X151638000Y-89662000D01*
G04 #@! TO.N,Net-(C3-Pad2)*
X160399212Y-96467174D02*
X159761712Y-96467174D01*
X153416000Y-92076410D02*
X153416000Y-91948000D01*
X159761712Y-96467174D02*
X159004000Y-95709462D01*
X159004000Y-95709462D02*
X159004000Y-95123000D01*
X159004000Y-95123000D02*
X159004000Y-94488000D01*
X159004000Y-94488000D02*
X158623000Y-94107000D01*
X158623000Y-94107000D02*
X158438010Y-93922010D01*
X155261599Y-93922009D02*
X153416000Y-92076410D01*
X158438010Y-93922010D02*
X155261599Y-93922009D01*
X153416000Y-92076410D02*
X153416000Y-91694000D01*
G04 #@! TO.N,Net-(C5-Pad1)*
X161036712Y-97737174D02*
X162761886Y-96012000D01*
X160399212Y-97737174D02*
X161036712Y-97737174D01*
X162761886Y-96012000D02*
X164592000Y-96012000D01*
G04 #@! TO.N,Net-(C5-Pad2)*
X161611712Y-99007174D02*
X163082886Y-97536000D01*
X160399212Y-99007174D02*
X161611712Y-99007174D01*
X163082886Y-97536000D02*
X164084000Y-97536000D01*
G04 #@! TO.N,Net-(C6-Pad2)*
X160399212Y-104087174D02*
X159761712Y-104087174D01*
X157912416Y-104087174D02*
X153416000Y-108583590D01*
X160399212Y-104087174D02*
X157912416Y-104087174D01*
X153416000Y-108583590D02*
X153416000Y-109728000D01*
G04 #@! TO.N,Net-(C6-Pad1)*
X160399212Y-102817174D02*
X160399212Y-102744788D01*
X160399212Y-102817174D02*
X157685226Y-102817174D01*
X157685226Y-102817174D02*
X151739600Y-108762800D01*
X151739600Y-108762800D02*
X151739600Y-109880400D01*
G04 #@! TO.N,Net-(C7-Pad1)*
X151702212Y-112342174D02*
X151702212Y-112117174D01*
X151892000Y-111942384D02*
X151892000Y-112268000D01*
X151702212Y-112342174D02*
X151702212Y-112586212D01*
X159743884Y-105410000D02*
X160528000Y-105410000D01*
X151702212Y-112117174D02*
X152567386Y-111252000D01*
X152567386Y-111252000D02*
X153416000Y-111252000D01*
X153702388Y-111252000D02*
X159544388Y-105410000D01*
X153416000Y-111252000D02*
X153702388Y-111252000D01*
X159544388Y-105410000D02*
X160274000Y-105410000D01*
G04 #@! TO.N,Net-(C9-Pad1)*
X139890192Y-72059985D02*
X139903015Y-72059985D01*
X146590192Y-74359985D02*
X146622985Y-74359985D01*
X146622985Y-74359985D02*
X147193000Y-74930000D01*
X147193000Y-74930000D02*
X147383500Y-75120500D01*
X147383500Y-75120500D02*
X147383500Y-75882500D01*
X147383500Y-75882500D02*
X147383500Y-76136500D01*
X147383500Y-76136500D02*
X146812000Y-76708000D01*
X139890192Y-72072808D02*
X139890192Y-72059985D01*
X136588500Y-75374500D02*
X139890192Y-72072808D01*
X136588500Y-77915677D02*
X136588500Y-75374500D01*
X133604192Y-81979985D02*
X133604192Y-80899985D01*
X133604192Y-80899985D02*
X136588500Y-77915677D01*
X146590192Y-74359985D02*
X146590192Y-74327192D01*
X146590192Y-74134985D02*
X145669000Y-73213793D01*
X146590192Y-74359985D02*
X146590192Y-74134985D01*
X145669000Y-73213793D02*
X145669000Y-72898000D01*
X145669000Y-71688791D02*
X145100209Y-71120000D01*
X145669000Y-72898000D02*
X145669000Y-71688791D01*
X145100209Y-71120000D02*
X141097000Y-71120000D01*
X141097000Y-71120000D02*
X140843000Y-71120000D01*
X140843000Y-71120000D02*
X139700000Y-72263000D01*
G04 #@! TO.N,Net-(C9-Pad2)*
X144970192Y-74359985D02*
X144970192Y-74584985D01*
X144970192Y-74359985D02*
X144970192Y-74358808D01*
X144970192Y-74359985D02*
X144969015Y-74359985D01*
X144969015Y-74359985D02*
X144208500Y-75120500D01*
X144208500Y-75120500D02*
X144018000Y-75311000D01*
X144018000Y-75311000D02*
X144018000Y-76454000D01*
X144018000Y-76454000D02*
X144335500Y-76771500D01*
X144970192Y-74359985D02*
X144970192Y-74358192D01*
X144970192Y-74358192D02*
X144145000Y-73533000D01*
X144145000Y-73533000D02*
X143764000Y-73152000D01*
X143764000Y-73152000D02*
X143764000Y-72517000D01*
X143764000Y-72517000D02*
X144399000Y-71882000D01*
G04 #@! TO.N,Net-(C11-Pad1)*
X155555193Y-81604984D02*
X155555193Y-77958193D01*
X154495192Y-82439985D02*
X154720192Y-82439985D01*
X154720192Y-82439985D02*
X155555193Y-81604984D01*
X155555193Y-77958193D02*
X154686000Y-77089000D01*
X154720192Y-77359985D02*
X155321000Y-76759177D01*
X154495192Y-77359985D02*
X154720192Y-77359985D01*
X155545193Y-76534984D02*
X155545193Y-72868193D01*
X155321000Y-76759177D02*
X155545193Y-76534984D01*
X155545193Y-72868193D02*
X154686000Y-72009000D01*
X146855192Y-77724000D02*
X146855192Y-78592692D01*
X146855192Y-78592692D02*
X147066000Y-78803500D01*
X154478515Y-77359985D02*
X154495192Y-77359985D01*
X153860500Y-77978000D02*
X154478515Y-77359985D01*
X148059192Y-77978000D02*
X153860500Y-77978000D01*
X148059192Y-77978000D02*
X147320000Y-77978000D01*
X147320000Y-77978000D02*
X147002500Y-77660500D01*
G04 #@! TO.N,Net-(D1-Pad2)*
X164191931Y-101667490D02*
X167064510Y-101667490D01*
X167064510Y-101667490D02*
X170688000Y-98044000D01*
X166624000Y-94996000D02*
X170180000Y-98552000D01*
X166624000Y-94996000D02*
X164592000Y-92964000D01*
X160274000Y-92964000D02*
X159258000Y-91948000D01*
X164592000Y-92964000D02*
X160274000Y-92964000D01*
X159258000Y-91948000D02*
X159258000Y-90678000D01*
G04 #@! TO.N,Net-(D2-Pad1)*
X164191931Y-103942490D02*
X164191931Y-103905069D01*
X164191931Y-103905069D02*
X164973000Y-103124000D01*
X164973000Y-103124000D02*
X165100000Y-102997000D01*
X165100000Y-102997000D02*
X166751000Y-102997000D01*
X166751000Y-102997000D02*
X168656000Y-102997000D01*
X168656000Y-102997000D02*
X170688000Y-100965000D01*
X165354000Y-105019557D02*
X164283943Y-103949500D01*
X164283943Y-103949500D02*
X164274500Y-103949500D01*
X165354000Y-105019557D02*
X165354000Y-109728000D01*
X165354000Y-109728000D02*
X163830000Y-111252000D01*
X163744000Y-111252000D02*
X163830000Y-111252000D01*
G04 #@! TO.N,Net-(D4-Pad1)*
X154231177Y-73914000D02*
X154686000Y-73914000D01*
X154495192Y-73989985D02*
X154483015Y-73989985D01*
X154495192Y-73989985D02*
X151625515Y-73989985D01*
X151625515Y-73989985D02*
X150812500Y-74803000D01*
X150812500Y-74803000D02*
X150685500Y-74930000D01*
X150685500Y-74930000D02*
X150685500Y-76390500D01*
G04 #@! TO.N,Net-(IC1-Pad8)*
X150975212Y-104087174D02*
X150337712Y-104087174D01*
X148971000Y-64008000D02*
X148209000Y-63246000D01*
X148209000Y-63246000D02*
X145859500Y-63246000D01*
X150975212Y-104087174D02*
X149762712Y-104087174D01*
X148082000Y-102406462D02*
X148336000Y-102660462D01*
X156464000Y-87376000D02*
X155956000Y-87884000D01*
X156464000Y-68072000D02*
X156464000Y-87376000D01*
X149762712Y-104087174D02*
X148336000Y-102660462D01*
X155956000Y-87884000D02*
X149161500Y-87884000D01*
X148844000Y-64008000D02*
X148844000Y-64247410D01*
X148844000Y-64247410D02*
X151144590Y-66548000D01*
X149161500Y-87884000D02*
X148082000Y-88963500D01*
X154940000Y-66548000D02*
X156464000Y-68072000D01*
X148082000Y-88963500D02*
X148082000Y-102406462D01*
X151144590Y-66548000D02*
X154940000Y-66548000D01*
G04 #@! TO.N,Net-(IC1-Pad9)*
X150975212Y-105357174D02*
X150337712Y-105357174D01*
X132920998Y-64008000D02*
X133096000Y-64008000D01*
X150372710Y-105357174D02*
X150975212Y-105357174D01*
X138952590Y-67056000D02*
X154432000Y-67056000D01*
X154432000Y-67056000D02*
X156005203Y-68629203D01*
X136144000Y-64247410D02*
X138952590Y-67056000D01*
X136144000Y-64008000D02*
X136144000Y-64247410D01*
X156005203Y-68629203D02*
X156005203Y-86691797D01*
X156005203Y-86691797D02*
X155321000Y-87376000D01*
X136271000Y-64008000D02*
X135572500Y-63309500D01*
X135572500Y-63309500D02*
X135197010Y-62934010D01*
X135197010Y-62934010D02*
X133852490Y-62934010D01*
X133852490Y-62934010D02*
X133096000Y-63690500D01*
X148844000Y-87376000D02*
X151574500Y-87376000D01*
X151574500Y-87376000D02*
X151341974Y-87376000D01*
X150975212Y-105357174D02*
X149762712Y-105357174D01*
X155321000Y-87376000D02*
X151574500Y-87376000D01*
X147447000Y-88773000D02*
X148844000Y-87376000D01*
X149762712Y-105357174D02*
X147447000Y-103041462D01*
X147447000Y-103041462D02*
X147447000Y-88773000D01*
G04 #@! TO.N,Net-(IC1-Pad15)*
X160399212Y-101547174D02*
X161036712Y-101547174D01*
X164191931Y-105742490D02*
X164162490Y-105742490D01*
X164191931Y-105742490D02*
X164041931Y-105742490D01*
X161054540Y-101600000D02*
X160401000Y-101600000D01*
X160927540Y-101473000D02*
X160464500Y-101473000D01*
X161686713Y-102232173D02*
X161054540Y-101600000D01*
X164041931Y-105742490D02*
X161686713Y-103387272D01*
X161686713Y-103387272D02*
X161686713Y-102232173D01*
X161054540Y-101600000D02*
X160528000Y-101600000D01*
G04 #@! TO.N,Net-(IC1-Pad16)*
X160399212Y-100277174D02*
X163374826Y-100277174D01*
X163374826Y-100277174D02*
X164084000Y-99568000D01*
G04 #@! TO.N,Net-(J2-Pad1)*
X170688000Y-103814000D02*
X172212000Y-102290000D01*
X172212000Y-102290000D02*
X172212000Y-98552000D01*
X172212000Y-98552000D02*
X173736000Y-97028000D01*
X172778001Y-96139001D02*
X172778001Y-96133501D01*
X173528000Y-96889000D02*
X172778001Y-96139001D01*
X172778001Y-96133501D02*
X172212000Y-95567500D01*
X172212000Y-95567500D02*
X172148500Y-95504000D01*
X172148500Y-95504000D02*
X170688000Y-95504000D01*
G04 #@! TO.N,Net-(J2-Pad7)*
X173528000Y-102429000D02*
X173528000Y-99776000D01*
X173528000Y-99776000D02*
X173736000Y-99568000D01*
G04 #@! TO.N,Net-(R1-Pad1)*
X144655192Y-83884985D02*
X144655192Y-81663192D01*
X144655192Y-81663192D02*
X144526000Y-81534000D01*
X144655192Y-80394985D02*
X144653000Y-80392793D01*
X144655192Y-81344985D02*
X144655192Y-80394985D01*
X144653000Y-80392793D02*
X144653000Y-79121000D01*
X144653000Y-79121000D02*
X144272000Y-78740000D01*
G04 #@! TO.N,Net-(J4-Pad2)*
X118872000Y-41656000D02*
X118872000Y-41886000D01*
G04 #@! TO.N,/CANTX_BP*
X172167000Y-75057000D02*
X172339000Y-75057000D01*
X172167000Y-75057000D02*
X171577000Y-75057000D01*
X171196000Y-70991590D02*
X171138009Y-70933599D01*
X171138009Y-70933599D02*
X165164205Y-64959795D01*
X163762401Y-63557991D02*
X163633991Y-63557991D01*
X165164205Y-64959795D02*
X163762401Y-63557991D01*
X163633991Y-63557991D02*
X159061991Y-63557991D01*
X159061991Y-63557991D02*
X153924000Y-58420000D01*
X153924000Y-58420000D02*
X130048000Y-58420000D01*
X130048000Y-58420000D02*
X129032000Y-58420000D01*
X129032000Y-58420000D02*
X129032000Y-58420000D01*
X129032000Y-58420000D02*
X126809500Y-58420000D01*
X126809500Y-58420000D02*
X125793500Y-59436000D01*
X171196000Y-70991590D02*
X171196000Y-74422000D01*
X171196000Y-74422000D02*
X171958000Y-75184000D01*
G04 #@! TO.N,/CANRX_BP*
X172167000Y-78867000D02*
X172579500Y-78867000D01*
X170688000Y-71120000D02*
X164592000Y-65024000D01*
X164592000Y-65024000D02*
X163576000Y-64008000D01*
X163576000Y-64008000D02*
X159512000Y-64008000D01*
X158875590Y-64008000D02*
X153795590Y-58928000D01*
X159512000Y-64008000D02*
X158875590Y-64008000D01*
X153795590Y-58928000D02*
X153416000Y-58928000D01*
X153416000Y-58928000D02*
X130556000Y-58928000D01*
X130556000Y-58928000D02*
X130048000Y-58928000D01*
X125730000Y-61925200D02*
X126599802Y-61925200D01*
X129597002Y-58928000D02*
X126549002Y-61976000D01*
X130048000Y-58928000D02*
X129597002Y-58928000D01*
X126549002Y-61976000D02*
X125476000Y-61976000D01*
X171739498Y-78867000D02*
X172339000Y-78867000D01*
X170688000Y-77800500D02*
X170688000Y-71882000D01*
X171754500Y-78867000D02*
X170688000Y-77800500D01*
X172167000Y-78867000D02*
X171754500Y-78867000D01*
X170688000Y-72136000D02*
X170688000Y-71882000D01*
X170688000Y-71882000D02*
X170688000Y-71120000D01*
G04 #@! TO.N,+3V3*
X141986000Y-65278000D02*
X142240000Y-65532000D01*
X154686000Y-65278000D02*
X154911000Y-65278000D01*
X150241000Y-63783000D02*
X148434000Y-61976000D01*
X150241000Y-64008000D02*
X150241000Y-63783000D01*
X148434000Y-61976000D02*
X145437998Y-61976000D01*
X142100002Y-65024000D02*
X141732000Y-65024000D01*
X150920998Y-65278000D02*
X150241000Y-64598002D01*
X154686000Y-65278000D02*
X150920998Y-65278000D01*
X150241000Y-64598002D02*
X150241000Y-64071500D01*
X145437998Y-61976000D02*
X145351500Y-61976000D01*
X145351500Y-61976000D02*
X141986000Y-65341500D01*
X138220998Y-65278000D02*
X137541000Y-64598002D01*
X141986000Y-65278000D02*
X138220998Y-65278000D01*
X137541000Y-64598002D02*
X137541000Y-63817500D01*
D42*
G04 #@! TO.N,Net-(BP_Power1-Pad1)*
X182849999Y-70200999D02*
X174655001Y-70200999D01*
X184150000Y-71501000D02*
X182849999Y-70200999D01*
X174655001Y-70200999D02*
X174340999Y-70200999D01*
X174340999Y-70200999D02*
X166116000Y-61976000D01*
X166116000Y-61976000D02*
X161036000Y-61976000D01*
D43*
G04 #@! TO.N,Net-(J4-Pad3)*
X125476000Y-87376000D02*
X125984000Y-87376000D01*
X125730000Y-87325200D02*
X125468600Y-87325200D01*
X116332000Y-41886000D02*
X116332000Y-41656000D01*
G04 #@! TO.N,Net-(Q1-Pad1)*
X128974009Y-61525991D02*
X125984000Y-64516000D01*
X128974009Y-61525991D02*
X149282991Y-61525991D01*
X149282991Y-61525991D02*
X151574500Y-63817500D01*
X154051000Y-64008000D02*
X153106000Y-64008000D01*
X154686000Y-63378000D02*
X154681000Y-63378000D01*
X153106000Y-64008000D02*
X151447500Y-64008000D01*
X154681000Y-63378000D02*
X154051000Y-64008000D01*
G04 #@! TO.N,Net-(Q2-Pad1)*
X138811000Y-63850905D02*
X137444095Y-62484000D01*
X138811000Y-64008000D02*
X138811000Y-63850905D01*
X137444095Y-62484000D02*
X130048000Y-62484000D01*
X130048000Y-62484000D02*
X125476000Y-67056000D01*
X138811000Y-64008000D02*
X139573000Y-64770000D01*
X139573000Y-64770000D02*
X140716000Y-64770000D01*
X140716000Y-64770000D02*
X140843000Y-64770000D01*
X140843000Y-64770000D02*
X142240000Y-63373000D01*
G04 #@! TO.N,GNDS*
X163983212Y-91006174D02*
X162608212Y-91006174D01*
X153370227Y-89352173D02*
X153365200Y-89357200D01*
X153322212Y-112342174D02*
X153322212Y-112567174D01*
X153322212Y-112342174D02*
X153322212Y-112117174D01*
X160714999Y-89277999D02*
X153419001Y-89277999D01*
X163490000Y-90678000D02*
X162115000Y-90678000D01*
X162115000Y-90678000D02*
X160714999Y-89277999D01*
X153419001Y-89277999D02*
X153416000Y-89281000D01*
G04 #@! TD*
D44*
G04 #@! TO.N,GND*
G36*
X189155001Y-86614000D02*
X174470138Y-86614000D01*
X173827189Y-85971051D01*
X172711699Y-85509000D01*
X171504301Y-85509000D01*
X170388811Y-85971051D01*
X169745862Y-86614000D01*
X167571801Y-86614000D01*
X167658829Y-86526972D01*
X167933973Y-86251829D01*
X167997429Y-86209429D01*
X168165404Y-85958037D01*
X168209500Y-85736352D01*
X168209500Y-85736348D01*
X168224388Y-85661501D01*
X168209500Y-85586654D01*
X168209500Y-79753301D01*
X168783000Y-79179802D01*
X170097671Y-80494473D01*
X170140071Y-80557929D01*
X170203527Y-80600329D01*
X170391462Y-80725904D01*
X170417082Y-80731000D01*
X170613148Y-80770000D01*
X170613152Y-80770000D01*
X170688000Y-80784888D01*
X170762848Y-80770000D01*
X172899153Y-80770000D01*
X172974000Y-80784888D01*
X173048847Y-80770000D01*
X173048852Y-80770000D01*
X173270537Y-80725904D01*
X173521929Y-80557929D01*
X173564330Y-80494471D01*
X173966475Y-80092328D01*
X174029929Y-80049929D01*
X174072327Y-79986476D01*
X174072329Y-79986474D01*
X174169890Y-79840463D01*
X174197904Y-79798537D01*
X174242000Y-79576852D01*
X174242000Y-79576848D01*
X174256888Y-79502001D01*
X174242000Y-79427154D01*
X174242000Y-78574348D01*
X174256888Y-78499500D01*
X174242000Y-78424652D01*
X174242000Y-78424648D01*
X174202665Y-78226899D01*
X174197904Y-78202962D01*
X174072329Y-78015027D01*
X174029929Y-77951571D01*
X173966473Y-77909171D01*
X173576940Y-77519638D01*
X173576940Y-77247000D01*
X173527657Y-76999235D01*
X173500302Y-76958296D01*
X173564500Y-76803309D01*
X173564500Y-76612750D01*
X173405750Y-76454000D01*
X172294000Y-76454000D01*
X172294000Y-76474000D01*
X172040000Y-76474000D01*
X172040000Y-76454000D01*
X172020000Y-76454000D01*
X172020000Y-76200000D01*
X172040000Y-76200000D01*
X172040000Y-76180000D01*
X172294000Y-76180000D01*
X172294000Y-76200000D01*
X173405750Y-76200000D01*
X173564500Y-76041250D01*
X173564500Y-75850691D01*
X173500302Y-75695704D01*
X173527657Y-75654765D01*
X173576940Y-75407000D01*
X173576940Y-74707000D01*
X173551816Y-74580691D01*
X176193500Y-74580691D01*
X176193500Y-74771250D01*
X176352250Y-74930000D01*
X177464000Y-74930000D01*
X177464000Y-74230750D01*
X177718000Y-74230750D01*
X177718000Y-74930000D01*
X178829750Y-74930000D01*
X178988500Y-74771250D01*
X178988500Y-74580691D01*
X178891827Y-74347302D01*
X178713199Y-74168673D01*
X178479810Y-74072000D01*
X177876750Y-74072000D01*
X177718000Y-74230750D01*
X177464000Y-74230750D01*
X177305250Y-74072000D01*
X176702190Y-74072000D01*
X176468801Y-74168673D01*
X176290173Y-74347302D01*
X176193500Y-74580691D01*
X173551816Y-74580691D01*
X173527657Y-74459235D01*
X173387309Y-74249191D01*
X173177265Y-74108843D01*
X172929500Y-74059560D01*
X171956000Y-74059560D01*
X171956000Y-71961131D01*
X172784560Y-72789692D01*
X172784560Y-73252000D01*
X172833843Y-73499765D01*
X172974191Y-73709809D01*
X173184235Y-73850157D01*
X173432000Y-73899440D01*
X174452000Y-73899440D01*
X174699765Y-73850157D01*
X174752184Y-73815131D01*
X174925691Y-73887000D01*
X175276250Y-73887000D01*
X175435000Y-73728250D01*
X175435000Y-72644000D01*
X175689000Y-72644000D01*
X175689000Y-73728250D01*
X175847750Y-73887000D01*
X176198309Y-73887000D01*
X176431698Y-73790327D01*
X176610327Y-73611699D01*
X176707000Y-73378310D01*
X176707000Y-72802750D01*
X176548250Y-72644000D01*
X175689000Y-72644000D01*
X175435000Y-72644000D01*
X175415000Y-72644000D01*
X175415000Y-72390000D01*
X175435000Y-72390000D01*
X175435000Y-72370000D01*
X175689000Y-72370000D01*
X175689000Y-72390000D01*
X176548250Y-72390000D01*
X176707000Y-72231250D01*
X176707000Y-71655690D01*
X176610327Y-71422301D01*
X176524025Y-71335999D01*
X180375000Y-71335999D01*
X180375000Y-71746657D01*
X180563018Y-72200571D01*
X180910429Y-72547982D01*
X181364343Y-72736000D01*
X181855657Y-72736000D01*
X182309571Y-72547982D01*
X182527560Y-72329993D01*
X182527560Y-72476000D01*
X182576843Y-72723765D01*
X182717191Y-72933809D01*
X182927235Y-73074157D01*
X183005637Y-73089752D01*
X182751296Y-73181763D01*
X182675576Y-73386320D01*
X182656982Y-73341429D01*
X182309571Y-72994018D01*
X181855657Y-72806000D01*
X181364343Y-72806000D01*
X180910429Y-72994018D01*
X180563018Y-73341429D01*
X180375000Y-73795343D01*
X180375000Y-74286657D01*
X180563018Y-74740571D01*
X180910429Y-75087982D01*
X181364343Y-75276000D01*
X181855657Y-75276000D01*
X182309571Y-75087982D01*
X182656982Y-74740571D01*
X182671071Y-74706557D01*
X182751296Y-74900237D01*
X183015558Y-74995837D01*
X183970395Y-74041000D01*
X183956253Y-74026858D01*
X184135858Y-73847253D01*
X184150000Y-73861395D01*
X184164143Y-73847253D01*
X184343748Y-74026858D01*
X184329605Y-74041000D01*
X184343748Y-74055143D01*
X184164143Y-74234748D01*
X184150000Y-74220605D01*
X183195163Y-75175442D01*
X183290763Y-75439704D01*
X183891429Y-75662049D01*
X184531461Y-75637605D01*
X184690002Y-75571935D01*
X184690002Y-78133560D01*
X183175000Y-78133560D01*
X182927235Y-78182843D01*
X182717191Y-78323191D01*
X182576843Y-78533235D01*
X182527560Y-78781000D01*
X182527560Y-78927007D01*
X182309571Y-78709018D01*
X181855657Y-78521000D01*
X181364343Y-78521000D01*
X180910429Y-78709018D01*
X180563018Y-79056429D01*
X180375000Y-79510343D01*
X180375000Y-79921001D01*
X177515802Y-79921001D01*
X177501330Y-79906529D01*
X177501329Y-79906527D01*
X177459242Y-79864440D01*
X178353500Y-79864440D01*
X178601265Y-79815157D01*
X178811309Y-79674809D01*
X178951657Y-79464765D01*
X179000940Y-79217000D01*
X179000940Y-78517000D01*
X178951657Y-78269235D01*
X178926777Y-78232000D01*
X178951657Y-78194765D01*
X179000940Y-77947000D01*
X179000940Y-77247000D01*
X178951657Y-76999235D01*
X178926777Y-76962000D01*
X178951657Y-76924765D01*
X179000940Y-76677000D01*
X179000940Y-75977000D01*
X178951657Y-75729235D01*
X178924302Y-75688296D01*
X178988500Y-75533309D01*
X178988500Y-75342750D01*
X178829750Y-75184000D01*
X177718000Y-75184000D01*
X177718000Y-75204000D01*
X177464000Y-75204000D01*
X177464000Y-75184000D01*
X176352250Y-75184000D01*
X176193500Y-75342750D01*
X176193500Y-75533309D01*
X176257698Y-75688296D01*
X176230343Y-75729235D01*
X176181060Y-75977000D01*
X176181060Y-76249638D01*
X175569016Y-76861683D01*
X175505560Y-76904083D01*
X175337585Y-77155475D01*
X175293489Y-77377160D01*
X175293489Y-77377164D01*
X175278601Y-77452011D01*
X175293489Y-77526858D01*
X175293491Y-80095049D01*
X175278602Y-80169900D01*
X175293491Y-80244751D01*
X175293491Y-80244752D01*
X175305781Y-80306537D01*
X175337587Y-80466437D01*
X175457927Y-80646538D01*
X175505562Y-80717829D01*
X175569018Y-80760229D01*
X176424271Y-81615483D01*
X176466672Y-81678940D01*
X176718064Y-81846915D01*
X176939749Y-81891011D01*
X176939753Y-81891011D01*
X177014600Y-81905899D01*
X177089447Y-81891011D01*
X180440998Y-81891011D01*
X180375000Y-82050343D01*
X180375000Y-82541657D01*
X180563018Y-82995571D01*
X180910429Y-83342982D01*
X181364343Y-83531000D01*
X181855657Y-83531000D01*
X182309571Y-83342982D01*
X182656982Y-82995571D01*
X182677051Y-82947120D01*
X182785108Y-83207992D01*
X183238008Y-83660892D01*
X183829751Y-83906000D01*
X184470249Y-83906000D01*
X185061992Y-83660892D01*
X185291884Y-83431000D01*
X185417075Y-83431000D01*
X185528858Y-83453235D01*
X185640641Y-83431000D01*
X185971713Y-83365146D01*
X186347147Y-83114289D01*
X186410471Y-83019518D01*
X187748531Y-81681459D01*
X187843299Y-81618137D01*
X188094156Y-81242703D01*
X188160010Y-80911631D01*
X188182245Y-80799849D01*
X188160010Y-80688067D01*
X188160010Y-69580720D01*
X188182245Y-69468937D01*
X188094156Y-69026083D01*
X188050318Y-68960475D01*
X187843299Y-68650649D01*
X187748531Y-68587327D01*
X186128685Y-66967482D01*
X186065361Y-66872711D01*
X185689927Y-66621854D01*
X185358855Y-66556000D01*
X185247072Y-66533765D01*
X185135289Y-66556000D01*
X181890340Y-66556000D01*
X182241026Y-66410741D01*
X182869741Y-65782026D01*
X183210000Y-64960569D01*
X183210000Y-64071431D01*
X182869741Y-63249974D01*
X182241026Y-62621259D01*
X181419569Y-62281000D01*
X180530431Y-62281000D01*
X179708974Y-62621259D01*
X179080259Y-63249974D01*
X178740000Y-64071431D01*
X178740000Y-64960569D01*
X179080259Y-65782026D01*
X179708974Y-66410741D01*
X180059660Y-66556000D01*
X179540132Y-66556000D01*
X176230131Y-63246000D01*
X176798522Y-62677610D01*
X176893290Y-62614288D01*
X177144147Y-62238854D01*
X177173557Y-62091000D01*
X177232236Y-61796000D01*
X177210001Y-61684217D01*
X177210001Y-52641431D01*
X178740000Y-52641431D01*
X178740000Y-53530569D01*
X179080259Y-54352026D01*
X179708974Y-54980741D01*
X180530431Y-55321000D01*
X181419569Y-55321000D01*
X182241026Y-54980741D01*
X182869741Y-54352026D01*
X183210000Y-53530569D01*
X183210000Y-52641431D01*
X182869741Y-51819974D01*
X182241026Y-51191259D01*
X181419569Y-50851000D01*
X180530431Y-50851000D01*
X179708974Y-51191259D01*
X179080259Y-51819974D01*
X178740000Y-52641431D01*
X177210001Y-52641431D01*
X177210001Y-46392782D01*
X177230161Y-46291431D01*
X178740000Y-46291431D01*
X178740000Y-47180569D01*
X179080259Y-48002026D01*
X179708974Y-48630741D01*
X180530431Y-48971000D01*
X181419569Y-48971000D01*
X182241026Y-48630741D01*
X182869741Y-48002026D01*
X183210000Y-47180569D01*
X183210000Y-46291431D01*
X182869741Y-45469974D01*
X182241026Y-44841259D01*
X181419569Y-44501000D01*
X180530431Y-44501000D01*
X179708974Y-44841259D01*
X179080259Y-45469974D01*
X178740000Y-46291431D01*
X177230161Y-46291431D01*
X177232236Y-46281000D01*
X177202851Y-46133272D01*
X177144147Y-45838146D01*
X176893290Y-45462712D01*
X176798524Y-45399391D01*
X176547632Y-45148500D01*
X176798522Y-44897610D01*
X176893290Y-44834288D01*
X177144147Y-44458854D01*
X177173557Y-44311000D01*
X177232236Y-44016000D01*
X177210001Y-43904217D01*
X177210001Y-36232782D01*
X177232236Y-36121000D01*
X177210001Y-36009218D01*
X177144147Y-35678146D01*
X176893290Y-35302712D01*
X176798522Y-35239390D01*
X176420563Y-34861431D01*
X178740000Y-34861431D01*
X178740000Y-35750569D01*
X179080259Y-36572026D01*
X179708974Y-37200741D01*
X180530431Y-37541000D01*
X181419569Y-37541000D01*
X182241026Y-37200741D01*
X182869741Y-36572026D01*
X183210000Y-35750569D01*
X183210000Y-34861431D01*
X182869741Y-34039974D01*
X182241026Y-33411259D01*
X181419569Y-33071000D01*
X180530431Y-33071000D01*
X179708974Y-33411259D01*
X179080259Y-34039974D01*
X178740000Y-34861431D01*
X176420563Y-34861431D01*
X175961612Y-34402480D01*
X175898288Y-34307710D01*
X175522854Y-34056853D01*
X175191782Y-33990999D01*
X175079999Y-33968764D01*
X174968216Y-33990999D01*
X166026784Y-33990999D01*
X165915001Y-33968764D01*
X165803218Y-33990999D01*
X165472146Y-34056853D01*
X165096712Y-34307710D01*
X165033390Y-34402478D01*
X156501481Y-42934388D01*
X156406710Y-42997712D01*
X156158721Y-43368855D01*
X156155853Y-43373147D01*
X156067764Y-43816001D01*
X156089999Y-43927785D01*
X156090000Y-45734211D01*
X156067764Y-45845999D01*
X156155853Y-46288853D01*
X156155854Y-46288854D01*
X156406711Y-46664288D01*
X156501479Y-46727610D01*
X157290000Y-47516131D01*
X157290000Y-47661412D01*
X157512272Y-48198024D01*
X157615000Y-48300752D01*
X157615001Y-48981247D01*
X157512272Y-49083976D01*
X157290000Y-49620588D01*
X157290000Y-50201412D01*
X157512272Y-50738024D01*
X157922976Y-51148728D01*
X158000887Y-51181000D01*
X157922976Y-51213272D01*
X157512272Y-51623976D01*
X157290000Y-52160588D01*
X157290000Y-52741412D01*
X157512272Y-53278024D01*
X157922976Y-53688728D01*
X158459588Y-53911000D01*
X158604869Y-53911000D01*
X161551389Y-56857521D01*
X161614711Y-56952289D01*
X161990145Y-57203146D01*
X162321217Y-57269000D01*
X162432999Y-57291235D01*
X162544781Y-57269000D01*
X165522194Y-57269000D01*
X165522194Y-57822719D01*
X165571477Y-58070484D01*
X165711825Y-58280528D01*
X165909634Y-58412701D01*
X165909634Y-58969853D01*
X165887399Y-59081636D01*
X165975488Y-59524490D01*
X166040719Y-59622114D01*
X166226346Y-59899925D01*
X166321114Y-59963247D01*
X175423864Y-69065999D01*
X174811131Y-69065999D01*
X166997613Y-61252482D01*
X166934289Y-61157711D01*
X166558855Y-60906854D01*
X166227783Y-60841000D01*
X166116000Y-60818765D01*
X166004217Y-60841000D01*
X162603420Y-60841000D01*
X162591638Y-60812556D01*
X162075444Y-60296362D01*
X161401004Y-60017000D01*
X160670996Y-60017000D01*
X159996556Y-60296362D01*
X159480362Y-60812556D01*
X159201000Y-61486996D01*
X159201000Y-62217004D01*
X159441653Y-62797991D01*
X159376793Y-62797991D01*
X154514331Y-57935530D01*
X154471929Y-57872071D01*
X154220537Y-57704096D01*
X153998852Y-57660000D01*
X153998847Y-57660000D01*
X153924000Y-57645112D01*
X153849153Y-57660000D01*
X127249319Y-57660000D01*
X127403050Y-57429925D01*
X127519359Y-56845200D01*
X127444175Y-56467227D01*
X127992476Y-55918927D01*
X128055929Y-55876529D01*
X128098327Y-55813076D01*
X128098329Y-55813074D01*
X128223903Y-55625138D01*
X128223904Y-55625137D01*
X128268000Y-55403452D01*
X128268000Y-55403448D01*
X128282888Y-55328601D01*
X128268000Y-55253754D01*
X128268000Y-42111848D01*
X128282888Y-42037000D01*
X128268000Y-41962152D01*
X128268000Y-41962148D01*
X128223904Y-41740463D01*
X128223904Y-41740462D01*
X128098329Y-41552527D01*
X128055929Y-41489071D01*
X127992473Y-41446671D01*
X126193331Y-39647530D01*
X126150929Y-39584071D01*
X125899537Y-39416096D01*
X125677852Y-39372000D01*
X125677847Y-39372000D01*
X125603000Y-39357112D01*
X125528153Y-39372000D01*
X115160846Y-39372000D01*
X115085999Y-39357112D01*
X115011152Y-39372000D01*
X115011148Y-39372000D01*
X114789463Y-39416096D01*
X114789461Y-39416097D01*
X114789462Y-39416097D01*
X114601526Y-39541671D01*
X114601524Y-39541673D01*
X114538071Y-39584071D01*
X114495673Y-39647524D01*
X114175415Y-39967782D01*
X113792000Y-39891516D01*
X113204779Y-40008322D01*
X112706956Y-40340956D01*
X112374322Y-40838778D01*
X112287000Y-41277774D01*
X112287000Y-42034225D01*
X112374322Y-42473221D01*
X112706956Y-42971044D01*
X113204778Y-43303678D01*
X113792000Y-43420484D01*
X114379221Y-43303678D01*
X114877044Y-42971044D01*
X115062000Y-42694237D01*
X115246956Y-42971044D01*
X115744778Y-43303678D01*
X116332000Y-43420484D01*
X116919221Y-43303678D01*
X117417044Y-42971044D01*
X117602000Y-42694237D01*
X117786956Y-42971044D01*
X118284778Y-43303678D01*
X118872000Y-43420484D01*
X119459221Y-43303678D01*
X119946636Y-42977999D01*
X120003673Y-43115699D01*
X120182302Y-43294327D01*
X120415691Y-43391000D01*
X121126250Y-43391000D01*
X121285000Y-43232250D01*
X121285000Y-41783000D01*
X121539000Y-41783000D01*
X121539000Y-43232250D01*
X121697750Y-43391000D01*
X122408309Y-43391000D01*
X122641698Y-43294327D01*
X122820327Y-43115699D01*
X122917000Y-42882310D01*
X122917000Y-41941750D01*
X122758250Y-41783000D01*
X121539000Y-41783000D01*
X121285000Y-41783000D01*
X121265000Y-41783000D01*
X121265000Y-41529000D01*
X121285000Y-41529000D01*
X121285000Y-41509000D01*
X121539000Y-41509000D01*
X121539000Y-41529000D01*
X122758250Y-41529000D01*
X122917000Y-41370250D01*
X122917000Y-40892000D01*
X125288199Y-40892000D01*
X126748001Y-42351803D01*
X126748000Y-50417594D01*
X126576125Y-50302750D01*
X126138998Y-50215800D01*
X125321002Y-50215800D01*
X124883875Y-50302750D01*
X124388170Y-50633970D01*
X124056950Y-51129675D01*
X123940641Y-51714400D01*
X124056950Y-52299125D01*
X124388170Y-52794830D01*
X124719207Y-53016022D01*
X124319127Y-53335332D01*
X124035473Y-53849043D01*
X124013642Y-53946174D01*
X124134783Y-54178200D01*
X125603000Y-54178200D01*
X125603000Y-54158200D01*
X125857000Y-54158200D01*
X125857000Y-54178200D01*
X125877000Y-54178200D01*
X125877000Y-54432200D01*
X125857000Y-54432200D01*
X125857000Y-54452200D01*
X125603000Y-54452200D01*
X125603000Y-54432200D01*
X124134783Y-54432200D01*
X124013642Y-54664226D01*
X124035473Y-54761357D01*
X124319127Y-55275068D01*
X124684561Y-55566727D01*
X124388170Y-55764770D01*
X124056950Y-56260475D01*
X123940641Y-56845200D01*
X124056950Y-57429925D01*
X124184453Y-57620746D01*
X123795518Y-58009681D01*
X123732062Y-58052081D01*
X123689662Y-58115537D01*
X123689661Y-58115538D01*
X123564087Y-58303473D01*
X123505102Y-58600010D01*
X123519991Y-58674862D01*
X123519990Y-67422691D01*
X123505102Y-67497538D01*
X123519990Y-67572385D01*
X123519990Y-67572389D01*
X123564086Y-67794074D01*
X123732061Y-68045467D01*
X123795520Y-68087869D01*
X124301753Y-68594102D01*
X124056950Y-68960475D01*
X123940641Y-69545200D01*
X124056950Y-70129925D01*
X124388170Y-70625630D01*
X124671881Y-70815200D01*
X124388170Y-71004770D01*
X124056950Y-71500475D01*
X123940641Y-72085200D01*
X124056950Y-72669925D01*
X124388170Y-73165630D01*
X124671881Y-73355200D01*
X124388170Y-73544770D01*
X124056950Y-74040475D01*
X123940641Y-74625200D01*
X124056950Y-75209925D01*
X124388170Y-75705630D01*
X124671881Y-75895200D01*
X124388170Y-76084770D01*
X124056950Y-76580475D01*
X123940641Y-77165200D01*
X124056950Y-77749925D01*
X124388170Y-78245630D01*
X124671881Y-78435200D01*
X124388170Y-78624770D01*
X124056950Y-79120475D01*
X123940641Y-79705200D01*
X124056950Y-80289925D01*
X124388170Y-80785630D01*
X124671881Y-80975200D01*
X124388170Y-81164770D01*
X124056950Y-81660475D01*
X123940641Y-82245200D01*
X124056950Y-82829925D01*
X124388170Y-83325630D01*
X124671881Y-83515200D01*
X124388170Y-83704770D01*
X124056950Y-84200475D01*
X123940641Y-84785200D01*
X124056950Y-85369925D01*
X124388170Y-85865630D01*
X124671881Y-86055200D01*
X124388170Y-86244770D01*
X124056950Y-86740475D01*
X123940641Y-87325200D01*
X124056950Y-87909925D01*
X124388170Y-88405630D01*
X124671881Y-88595200D01*
X124388170Y-88784770D01*
X124056950Y-89280475D01*
X123940641Y-89865200D01*
X124056950Y-90449925D01*
X124388170Y-90945630D01*
X124671881Y-91135200D01*
X124388170Y-91324770D01*
X124056950Y-91820475D01*
X123940641Y-92405200D01*
X124056950Y-92989925D01*
X124388170Y-93485630D01*
X124671881Y-93675200D01*
X124388170Y-93864770D01*
X124056950Y-94360475D01*
X123940641Y-94945200D01*
X124056950Y-95529925D01*
X124388170Y-96025630D01*
X124671881Y-96215200D01*
X124388170Y-96404770D01*
X124056950Y-96900475D01*
X123940641Y-97485200D01*
X124056950Y-98069925D01*
X124388170Y-98565630D01*
X124671881Y-98755200D01*
X124388170Y-98944770D01*
X124056950Y-99440475D01*
X123940641Y-100025200D01*
X124056950Y-100609925D01*
X124388170Y-101105630D01*
X124883875Y-101436850D01*
X125321002Y-101523800D01*
X126138998Y-101523800D01*
X126576125Y-101436850D01*
X127071830Y-101105630D01*
X127403050Y-100609925D01*
X127519359Y-100025200D01*
X127403050Y-99440475D01*
X127071830Y-98944770D01*
X126788119Y-98755200D01*
X127071830Y-98565630D01*
X127403050Y-98069925D01*
X127519359Y-97485200D01*
X127403050Y-96900475D01*
X127071830Y-96404770D01*
X126788119Y-96215200D01*
X127071830Y-96025630D01*
X127403050Y-95529925D01*
X127519359Y-94945200D01*
X127403050Y-94360475D01*
X127071830Y-93864770D01*
X126788119Y-93675200D01*
X127071830Y-93485630D01*
X127403050Y-92989925D01*
X127519359Y-92405200D01*
X127403050Y-91820475D01*
X127071830Y-91324770D01*
X126788119Y-91135200D01*
X127071830Y-90945630D01*
X127403050Y-90449925D01*
X127519359Y-89865200D01*
X127403050Y-89280475D01*
X127071830Y-88784770D01*
X126788119Y-88595200D01*
X127071830Y-88405630D01*
X127403050Y-87909925D01*
X127519359Y-87325200D01*
X127403050Y-86740475D01*
X127071830Y-86244770D01*
X126788119Y-86055200D01*
X127071830Y-85865630D01*
X127403050Y-85369925D01*
X127519359Y-84785200D01*
X127403050Y-84200475D01*
X127071830Y-83704770D01*
X126788119Y-83515200D01*
X127071830Y-83325630D01*
X127403050Y-82829925D01*
X127519359Y-82245200D01*
X127403050Y-81660475D01*
X127071830Y-81164770D01*
X126788119Y-80975200D01*
X127071830Y-80785630D01*
X127403050Y-80289925D01*
X127519359Y-79705200D01*
X127403050Y-79120475D01*
X127071830Y-78624770D01*
X126788119Y-78435200D01*
X127071830Y-78245630D01*
X127403050Y-77749925D01*
X127519359Y-77165200D01*
X127403050Y-76580475D01*
X127071830Y-76084770D01*
X126788119Y-75895200D01*
X127071830Y-75705630D01*
X127403050Y-75209925D01*
X127519359Y-74625200D01*
X127403050Y-74040475D01*
X127071830Y-73544770D01*
X126788119Y-73355200D01*
X127071830Y-73165630D01*
X127403050Y-72669925D01*
X127519359Y-72085200D01*
X127403050Y-71500475D01*
X127071830Y-71004770D01*
X126788119Y-70815200D01*
X127071830Y-70625630D01*
X127403050Y-70129925D01*
X127519359Y-69545200D01*
X127403050Y-68960475D01*
X127163635Y-68602166D01*
X130743802Y-65022000D01*
X131384199Y-65022000D01*
X131748560Y-65386361D01*
X131748560Y-65677638D01*
X129881518Y-67544681D01*
X129818062Y-67587081D01*
X129775662Y-67650537D01*
X129775661Y-67650538D01*
X129650087Y-67838473D01*
X129591102Y-68135010D01*
X129605991Y-68209862D01*
X129605990Y-83047143D01*
X129591102Y-83121990D01*
X129605990Y-83196837D01*
X129605990Y-83196841D01*
X129650086Y-83418526D01*
X129818061Y-83669919D01*
X129881520Y-83712321D01*
X129965671Y-83796472D01*
X131489673Y-85320476D01*
X131532071Y-85383929D01*
X131595524Y-85426327D01*
X131595526Y-85426329D01*
X131649548Y-85462425D01*
X131783463Y-85551904D01*
X132005148Y-85596000D01*
X132005152Y-85596000D01*
X132079999Y-85610888D01*
X132154846Y-85596000D01*
X137720153Y-85596000D01*
X137795000Y-85610888D01*
X137869847Y-85596000D01*
X137869852Y-85596000D01*
X138091537Y-85551904D01*
X138342929Y-85383929D01*
X138385331Y-85320470D01*
X139192000Y-84513802D01*
X140125671Y-85447473D01*
X140168071Y-85510929D01*
X140419463Y-85678904D01*
X140641148Y-85723000D01*
X140641152Y-85723000D01*
X140716000Y-85737888D01*
X140790848Y-85723000D01*
X141276153Y-85723000D01*
X141351000Y-85737888D01*
X141425847Y-85723000D01*
X141425852Y-85723000D01*
X141647537Y-85678904D01*
X141898929Y-85510929D01*
X141941331Y-85447470D01*
X142367000Y-85021802D01*
X142739657Y-85394459D01*
X142782057Y-85457915D01*
X143033449Y-85625890D01*
X143255134Y-85669986D01*
X143255139Y-85669986D01*
X143329986Y-85684874D01*
X143404833Y-85669986D01*
X145647167Y-85669986D01*
X145722014Y-85684874D01*
X145796861Y-85669986D01*
X145796866Y-85669986D01*
X146018551Y-85625890D01*
X146269943Y-85457915D01*
X146312345Y-85394456D01*
X146474376Y-85232425D01*
X146768623Y-85232425D01*
X146772027Y-85235829D01*
X146772030Y-85235831D01*
X146920169Y-85383970D01*
X146962571Y-85447429D01*
X147213963Y-85615404D01*
X147435648Y-85659500D01*
X147435652Y-85659500D01*
X147510500Y-85674388D01*
X147585348Y-85659500D01*
X148840931Y-85659500D01*
X148802661Y-85685071D01*
X148760261Y-85748527D01*
X146200530Y-88308259D01*
X146137071Y-88350661D01*
X145969096Y-88602054D01*
X145925000Y-88823739D01*
X145925000Y-88823743D01*
X145910112Y-88898590D01*
X145925000Y-88973437D01*
X145925001Y-104134612D01*
X145910112Y-104209464D01*
X145969097Y-104506001D01*
X146055360Y-104635102D01*
X146137072Y-104757393D01*
X146200528Y-104799793D01*
X149162382Y-107761648D01*
X149204782Y-107825104D01*
X149456174Y-107993079D01*
X149677859Y-108037175D01*
X149677863Y-108037175D01*
X149752710Y-108052063D01*
X149752711Y-108052063D01*
X149827559Y-108037175D01*
X151390424Y-108037175D01*
X151255130Y-108172469D01*
X151191671Y-108214871D01*
X151033722Y-108451259D01*
X150944447Y-108469017D01*
X150734403Y-108609365D01*
X150594055Y-108819409D01*
X150544772Y-109067174D01*
X150544772Y-110537174D01*
X150594055Y-110784939D01*
X150734403Y-110994983D01*
X150849927Y-111072174D01*
X150734403Y-111149365D01*
X150594055Y-111359409D01*
X150544772Y-111607174D01*
X150544772Y-113077174D01*
X150594055Y-113324939D01*
X150734403Y-113534983D01*
X150944447Y-113675331D01*
X151192212Y-113724614D01*
X152014240Y-113724614D01*
X152018753Y-124385000D01*
X105790907Y-124385000D01*
X105787041Y-100384226D01*
X108773642Y-100384226D01*
X108795473Y-100481357D01*
X109079127Y-100995068D01*
X109537778Y-101361125D01*
X110101600Y-101523800D01*
X110363000Y-101523800D01*
X110363000Y-100152200D01*
X110617000Y-100152200D01*
X110617000Y-101523800D01*
X110878400Y-101523800D01*
X111442222Y-101361125D01*
X111900873Y-100995068D01*
X112184527Y-100481357D01*
X112206358Y-100384226D01*
X112085217Y-100152200D01*
X110617000Y-100152200D01*
X110363000Y-100152200D01*
X108894783Y-100152200D01*
X108773642Y-100384226D01*
X105787041Y-100384226D01*
X105786632Y-97844226D01*
X108773642Y-97844226D01*
X108795473Y-97941357D01*
X109079127Y-98455068D01*
X109455177Y-98755200D01*
X109079127Y-99055332D01*
X108795473Y-99569043D01*
X108773642Y-99666174D01*
X108894783Y-99898200D01*
X110363000Y-99898200D01*
X110363000Y-97612200D01*
X110617000Y-97612200D01*
X110617000Y-99898200D01*
X112085217Y-99898200D01*
X112206358Y-99666174D01*
X112184527Y-99569043D01*
X111900873Y-99055332D01*
X111524823Y-98755200D01*
X111900873Y-98455068D01*
X112184527Y-97941357D01*
X112206358Y-97844226D01*
X112085217Y-97612200D01*
X110617000Y-97612200D01*
X110363000Y-97612200D01*
X108894783Y-97612200D01*
X108773642Y-97844226D01*
X105786632Y-97844226D01*
X105779617Y-54305200D01*
X108700641Y-54305200D01*
X108816950Y-54889925D01*
X109148170Y-55385630D01*
X109431881Y-55575200D01*
X109148170Y-55764770D01*
X108816950Y-56260475D01*
X108700641Y-56845200D01*
X108816950Y-57429925D01*
X109148170Y-57925630D01*
X109431881Y-58115200D01*
X109148170Y-58304770D01*
X108816950Y-58800475D01*
X108700641Y-59385200D01*
X108816950Y-59969925D01*
X109148170Y-60465630D01*
X109431881Y-60655200D01*
X109148170Y-60844770D01*
X108816950Y-61340475D01*
X108700641Y-61925200D01*
X108816950Y-62509925D01*
X109148170Y-63005630D01*
X109431881Y-63195200D01*
X109148170Y-63384770D01*
X108816950Y-63880475D01*
X108700641Y-64465200D01*
X108816950Y-65049925D01*
X109148170Y-65545630D01*
X109431881Y-65735200D01*
X109148170Y-65924770D01*
X108816950Y-66420475D01*
X108700641Y-67005200D01*
X108816950Y-67589925D01*
X109148170Y-68085630D01*
X109431881Y-68275200D01*
X109148170Y-68464770D01*
X108816950Y-68960475D01*
X108700641Y-69545200D01*
X108816950Y-70129925D01*
X109148170Y-70625630D01*
X109431881Y-70815200D01*
X109148170Y-71004770D01*
X108816950Y-71500475D01*
X108700641Y-72085200D01*
X108816950Y-72669925D01*
X109148170Y-73165630D01*
X109431881Y-73355200D01*
X109148170Y-73544770D01*
X108816950Y-74040475D01*
X108700641Y-74625200D01*
X108816950Y-75209925D01*
X109148170Y-75705630D01*
X109431881Y-75895200D01*
X109148170Y-76084770D01*
X108816950Y-76580475D01*
X108700641Y-77165200D01*
X108816950Y-77749925D01*
X109148170Y-78245630D01*
X109431881Y-78435200D01*
X109148170Y-78624770D01*
X108816950Y-79120475D01*
X108700641Y-79705200D01*
X108816950Y-80289925D01*
X109148170Y-80785630D01*
X109431881Y-80975200D01*
X109148170Y-81164770D01*
X108816950Y-81660475D01*
X108700641Y-82245200D01*
X108816950Y-82829925D01*
X109148170Y-83325630D01*
X109431881Y-83515200D01*
X109148170Y-83704770D01*
X108816950Y-84200475D01*
X108700641Y-84785200D01*
X108816950Y-85369925D01*
X109148170Y-85865630D01*
X109431881Y-86055200D01*
X109148170Y-86244770D01*
X108816950Y-86740475D01*
X108700641Y-87325200D01*
X108816950Y-87909925D01*
X109148170Y-88405630D01*
X109431881Y-88595200D01*
X109148170Y-88784770D01*
X108816950Y-89280475D01*
X108700641Y-89865200D01*
X108816950Y-90449925D01*
X109148170Y-90945630D01*
X109431881Y-91135200D01*
X109148170Y-91324770D01*
X108816950Y-91820475D01*
X108700641Y-92405200D01*
X108816950Y-92989925D01*
X109148170Y-93485630D01*
X109431881Y-93675200D01*
X109148170Y-93864770D01*
X108816950Y-94360475D01*
X108700641Y-94945200D01*
X108816950Y-95529925D01*
X109148170Y-96025630D01*
X109444561Y-96223673D01*
X109079127Y-96515332D01*
X108795473Y-97029043D01*
X108773642Y-97126174D01*
X108894783Y-97358200D01*
X110363000Y-97358200D01*
X110363000Y-97338200D01*
X110617000Y-97338200D01*
X110617000Y-97358200D01*
X112085217Y-97358200D01*
X112206358Y-97126174D01*
X112184527Y-97029043D01*
X111900873Y-96515332D01*
X111535439Y-96223673D01*
X111831830Y-96025630D01*
X112163050Y-95529925D01*
X112279359Y-94945200D01*
X112163050Y-94360475D01*
X111831830Y-93864770D01*
X111548119Y-93675200D01*
X111831830Y-93485630D01*
X112163050Y-92989925D01*
X112279359Y-92405200D01*
X112163050Y-91820475D01*
X111831830Y-91324770D01*
X111548119Y-91135200D01*
X111831830Y-90945630D01*
X112163050Y-90449925D01*
X112279359Y-89865200D01*
X112163050Y-89280475D01*
X111831830Y-88784770D01*
X111548119Y-88595200D01*
X111831830Y-88405630D01*
X112163050Y-87909925D01*
X112279359Y-87325200D01*
X112163050Y-86740475D01*
X111831830Y-86244770D01*
X111548119Y-86055200D01*
X111831830Y-85865630D01*
X112163050Y-85369925D01*
X112279359Y-84785200D01*
X112163050Y-84200475D01*
X111831830Y-83704770D01*
X111548119Y-83515200D01*
X111831830Y-83325630D01*
X112163050Y-82829925D01*
X112279359Y-82245200D01*
X112163050Y-81660475D01*
X111831830Y-81164770D01*
X111548119Y-80975200D01*
X111831830Y-80785630D01*
X112163050Y-80289925D01*
X112279359Y-79705200D01*
X112163050Y-79120475D01*
X111831830Y-78624770D01*
X111548119Y-78435200D01*
X111831830Y-78245630D01*
X112163050Y-77749925D01*
X112279359Y-77165200D01*
X112163050Y-76580475D01*
X111831830Y-76084770D01*
X111548119Y-75895200D01*
X111831830Y-75705630D01*
X112163050Y-75209925D01*
X112279359Y-74625200D01*
X112163050Y-74040475D01*
X111831830Y-73544770D01*
X111548119Y-73355200D01*
X111831830Y-73165630D01*
X112163050Y-72669925D01*
X112279359Y-72085200D01*
X112163050Y-71500475D01*
X111831830Y-71004770D01*
X111548119Y-70815200D01*
X111831830Y-70625630D01*
X112163050Y-70129925D01*
X112279359Y-69545200D01*
X112163050Y-68960475D01*
X111831830Y-68464770D01*
X111548119Y-68275200D01*
X111831830Y-68085630D01*
X112163050Y-67589925D01*
X112279359Y-67005200D01*
X112163050Y-66420475D01*
X111831830Y-65924770D01*
X111548119Y-65735200D01*
X111831830Y-65545630D01*
X112163050Y-65049925D01*
X112279359Y-64465200D01*
X112163050Y-63880475D01*
X111831830Y-63384770D01*
X111548119Y-63195200D01*
X111831830Y-63005630D01*
X112163050Y-62509925D01*
X112279359Y-61925200D01*
X112163050Y-61340475D01*
X111831830Y-60844770D01*
X111548119Y-60655200D01*
X111831830Y-60465630D01*
X112163050Y-59969925D01*
X112279359Y-59385200D01*
X112163050Y-58800475D01*
X111831830Y-58304770D01*
X111548119Y-58115200D01*
X111831830Y-57925630D01*
X112163050Y-57429925D01*
X112279359Y-56845200D01*
X112163050Y-56260475D01*
X111831830Y-55764770D01*
X111548119Y-55575200D01*
X115322041Y-55575200D01*
X115438350Y-56159925D01*
X115769570Y-56655630D01*
X116265275Y-56986850D01*
X116702402Y-57073800D01*
X116997598Y-57073800D01*
X117434725Y-56986850D01*
X117930430Y-56655630D01*
X118120000Y-56371919D01*
X118309570Y-56655630D01*
X118805275Y-56986850D01*
X119242402Y-57073800D01*
X119537598Y-57073800D01*
X119974725Y-56986850D01*
X120470430Y-56655630D01*
X120801650Y-56159925D01*
X120917959Y-55575200D01*
X120801650Y-54990475D01*
X120470430Y-54494770D01*
X119974725Y-54163550D01*
X119537598Y-54076600D01*
X119242402Y-54076600D01*
X118805275Y-54163550D01*
X118309570Y-54494770D01*
X118120000Y-54778481D01*
X117930430Y-54494770D01*
X117434725Y-54163550D01*
X116997598Y-54076600D01*
X116702402Y-54076600D01*
X116265275Y-54163550D01*
X115769570Y-54494770D01*
X115438350Y-54990475D01*
X115322041Y-55575200D01*
X111548119Y-55575200D01*
X111831830Y-55385630D01*
X112163050Y-54889925D01*
X112279359Y-54305200D01*
X112163050Y-53720475D01*
X111836749Y-53232132D01*
X111862765Y-53226957D01*
X112072809Y-53086609D01*
X112213157Y-52876565D01*
X112262440Y-52628800D01*
X112262440Y-50901600D01*
X112213157Y-50653835D01*
X112072809Y-50443791D01*
X111862765Y-50303443D01*
X111615000Y-50254160D01*
X109365000Y-50254160D01*
X109117235Y-50303443D01*
X108907191Y-50443791D01*
X108766843Y-50653835D01*
X108717560Y-50901600D01*
X108717560Y-52628800D01*
X108766843Y-52876565D01*
X108907191Y-53086609D01*
X109117235Y-53226957D01*
X109143251Y-53232132D01*
X108816950Y-53720475D01*
X108700641Y-54305200D01*
X105779617Y-54305200D01*
X105775726Y-30154616D01*
X183870608Y-30154616D01*
X183875973Y-30837613D01*
X184102282Y-31482048D01*
X184525134Y-32018433D01*
X185098932Y-32388930D01*
X185761805Y-32553588D01*
X186442275Y-32494653D01*
X187066967Y-32218479D01*
X187568522Y-31754847D01*
X187892858Y-31153748D01*
X188005000Y-30480000D01*
X188004743Y-30447329D01*
X187882032Y-29775425D01*
X187548295Y-29179495D01*
X187039520Y-28723798D01*
X186410566Y-28457471D01*
X185729255Y-28409231D01*
X185069050Y-28584281D01*
X184501142Y-28963745D01*
X184086767Y-29506706D01*
X183870608Y-30154616D01*
X105775726Y-30154616D01*
X105774972Y-25475000D01*
X189155000Y-25475000D01*
X189155001Y-86614000D01*
X189155001Y-86614000D01*
G37*
X189155001Y-86614000D02*
X174470138Y-86614000D01*
X173827189Y-85971051D01*
X172711699Y-85509000D01*
X171504301Y-85509000D01*
X170388811Y-85971051D01*
X169745862Y-86614000D01*
X167571801Y-86614000D01*
X167658829Y-86526972D01*
X167933973Y-86251829D01*
X167997429Y-86209429D01*
X168165404Y-85958037D01*
X168209500Y-85736352D01*
X168209500Y-85736348D01*
X168224388Y-85661501D01*
X168209500Y-85586654D01*
X168209500Y-79753301D01*
X168783000Y-79179802D01*
X170097671Y-80494473D01*
X170140071Y-80557929D01*
X170203527Y-80600329D01*
X170391462Y-80725904D01*
X170417082Y-80731000D01*
X170613148Y-80770000D01*
X170613152Y-80770000D01*
X170688000Y-80784888D01*
X170762848Y-80770000D01*
X172899153Y-80770000D01*
X172974000Y-80784888D01*
X173048847Y-80770000D01*
X173048852Y-80770000D01*
X173270537Y-80725904D01*
X173521929Y-80557929D01*
X173564330Y-80494471D01*
X173966475Y-80092328D01*
X174029929Y-80049929D01*
X174072327Y-79986476D01*
X174072329Y-79986474D01*
X174169890Y-79840463D01*
X174197904Y-79798537D01*
X174242000Y-79576852D01*
X174242000Y-79576848D01*
X174256888Y-79502001D01*
X174242000Y-79427154D01*
X174242000Y-78574348D01*
X174256888Y-78499500D01*
X174242000Y-78424652D01*
X174242000Y-78424648D01*
X174202665Y-78226899D01*
X174197904Y-78202962D01*
X174072329Y-78015027D01*
X174029929Y-77951571D01*
X173966473Y-77909171D01*
X173576940Y-77519638D01*
X173576940Y-77247000D01*
X173527657Y-76999235D01*
X173500302Y-76958296D01*
X173564500Y-76803309D01*
X173564500Y-76612750D01*
X173405750Y-76454000D01*
X172294000Y-76454000D01*
X172294000Y-76474000D01*
X172040000Y-76474000D01*
X172040000Y-76454000D01*
X172020000Y-76454000D01*
X172020000Y-76200000D01*
X172040000Y-76200000D01*
X172040000Y-76180000D01*
X172294000Y-76180000D01*
X172294000Y-76200000D01*
X173405750Y-76200000D01*
X173564500Y-76041250D01*
X173564500Y-75850691D01*
X173500302Y-75695704D01*
X173527657Y-75654765D01*
X173576940Y-75407000D01*
X173576940Y-74707000D01*
X173551816Y-74580691D01*
X176193500Y-74580691D01*
X176193500Y-74771250D01*
X176352250Y-74930000D01*
X177464000Y-74930000D01*
X177464000Y-74230750D01*
X177718000Y-74230750D01*
X177718000Y-74930000D01*
X178829750Y-74930000D01*
X178988500Y-74771250D01*
X178988500Y-74580691D01*
X178891827Y-74347302D01*
X178713199Y-74168673D01*
X178479810Y-74072000D01*
X177876750Y-74072000D01*
X177718000Y-74230750D01*
X177464000Y-74230750D01*
X177305250Y-74072000D01*
X176702190Y-74072000D01*
X176468801Y-74168673D01*
X176290173Y-74347302D01*
X176193500Y-74580691D01*
X173551816Y-74580691D01*
X173527657Y-74459235D01*
X173387309Y-74249191D01*
X173177265Y-74108843D01*
X172929500Y-74059560D01*
X171956000Y-74059560D01*
X171956000Y-71961131D01*
X172784560Y-72789692D01*
X172784560Y-73252000D01*
X172833843Y-73499765D01*
X172974191Y-73709809D01*
X173184235Y-73850157D01*
X173432000Y-73899440D01*
X174452000Y-73899440D01*
X174699765Y-73850157D01*
X174752184Y-73815131D01*
X174925691Y-73887000D01*
X175276250Y-73887000D01*
X175435000Y-73728250D01*
X175435000Y-72644000D01*
X175689000Y-72644000D01*
X175689000Y-73728250D01*
X175847750Y-73887000D01*
X176198309Y-73887000D01*
X176431698Y-73790327D01*
X176610327Y-73611699D01*
X176707000Y-73378310D01*
X176707000Y-72802750D01*
X176548250Y-72644000D01*
X175689000Y-72644000D01*
X175435000Y-72644000D01*
X175415000Y-72644000D01*
X175415000Y-72390000D01*
X175435000Y-72390000D01*
X175435000Y-72370000D01*
X175689000Y-72370000D01*
X175689000Y-72390000D01*
X176548250Y-72390000D01*
X176707000Y-72231250D01*
X176707000Y-71655690D01*
X176610327Y-71422301D01*
X176524025Y-71335999D01*
X180375000Y-71335999D01*
X180375000Y-71746657D01*
X180563018Y-72200571D01*
X180910429Y-72547982D01*
X181364343Y-72736000D01*
X181855657Y-72736000D01*
X182309571Y-72547982D01*
X182527560Y-72329993D01*
X182527560Y-72476000D01*
X182576843Y-72723765D01*
X182717191Y-72933809D01*
X182927235Y-73074157D01*
X183005637Y-73089752D01*
X182751296Y-73181763D01*
X182675576Y-73386320D01*
X182656982Y-73341429D01*
X182309571Y-72994018D01*
X181855657Y-72806000D01*
X181364343Y-72806000D01*
X180910429Y-72994018D01*
X180563018Y-73341429D01*
X180375000Y-73795343D01*
X180375000Y-74286657D01*
X180563018Y-74740571D01*
X180910429Y-75087982D01*
X181364343Y-75276000D01*
X181855657Y-75276000D01*
X182309571Y-75087982D01*
X182656982Y-74740571D01*
X182671071Y-74706557D01*
X182751296Y-74900237D01*
X183015558Y-74995837D01*
X183970395Y-74041000D01*
X183956253Y-74026858D01*
X184135858Y-73847253D01*
X184150000Y-73861395D01*
X184164143Y-73847253D01*
X184343748Y-74026858D01*
X184329605Y-74041000D01*
X184343748Y-74055143D01*
X184164143Y-74234748D01*
X184150000Y-74220605D01*
X183195163Y-75175442D01*
X183290763Y-75439704D01*
X183891429Y-75662049D01*
X184531461Y-75637605D01*
X184690002Y-75571935D01*
X184690002Y-78133560D01*
X183175000Y-78133560D01*
X182927235Y-78182843D01*
X182717191Y-78323191D01*
X182576843Y-78533235D01*
X182527560Y-78781000D01*
X182527560Y-78927007D01*
X182309571Y-78709018D01*
X181855657Y-78521000D01*
X181364343Y-78521000D01*
X180910429Y-78709018D01*
X180563018Y-79056429D01*
X180375000Y-79510343D01*
X180375000Y-79921001D01*
X177515802Y-79921001D01*
X177501330Y-79906529D01*
X177501329Y-79906527D01*
X177459242Y-79864440D01*
X178353500Y-79864440D01*
X178601265Y-79815157D01*
X178811309Y-79674809D01*
X178951657Y-79464765D01*
X179000940Y-79217000D01*
X179000940Y-78517000D01*
X178951657Y-78269235D01*
X178926777Y-78232000D01*
X178951657Y-78194765D01*
X179000940Y-77947000D01*
X179000940Y-77247000D01*
X178951657Y-76999235D01*
X178926777Y-76962000D01*
X178951657Y-76924765D01*
X179000940Y-76677000D01*
X179000940Y-75977000D01*
X178951657Y-75729235D01*
X178924302Y-75688296D01*
X178988500Y-75533309D01*
X178988500Y-75342750D01*
X178829750Y-75184000D01*
X177718000Y-75184000D01*
X177718000Y-75204000D01*
X177464000Y-75204000D01*
X177464000Y-75184000D01*
X176352250Y-75184000D01*
X176193500Y-75342750D01*
X176193500Y-75533309D01*
X176257698Y-75688296D01*
X176230343Y-75729235D01*
X176181060Y-75977000D01*
X176181060Y-76249638D01*
X175569016Y-76861683D01*
X175505560Y-76904083D01*
X175337585Y-77155475D01*
X175293489Y-77377160D01*
X175293489Y-77377164D01*
X175278601Y-77452011D01*
X175293489Y-77526858D01*
X175293491Y-80095049D01*
X175278602Y-80169900D01*
X175293491Y-80244751D01*
X175293491Y-80244752D01*
X175305781Y-80306537D01*
X175337587Y-80466437D01*
X175457927Y-80646538D01*
X175505562Y-80717829D01*
X175569018Y-80760229D01*
X176424271Y-81615483D01*
X176466672Y-81678940D01*
X176718064Y-81846915D01*
X176939749Y-81891011D01*
X176939753Y-81891011D01*
X177014600Y-81905899D01*
X177089447Y-81891011D01*
X180440998Y-81891011D01*
X180375000Y-82050343D01*
X180375000Y-82541657D01*
X180563018Y-82995571D01*
X180910429Y-83342982D01*
X181364343Y-83531000D01*
X181855657Y-83531000D01*
X182309571Y-83342982D01*
X182656982Y-82995571D01*
X182677051Y-82947120D01*
X182785108Y-83207992D01*
X183238008Y-83660892D01*
X183829751Y-83906000D01*
X184470249Y-83906000D01*
X185061992Y-83660892D01*
X185291884Y-83431000D01*
X185417075Y-83431000D01*
X185528858Y-83453235D01*
X185640641Y-83431000D01*
X185971713Y-83365146D01*
X186347147Y-83114289D01*
X186410471Y-83019518D01*
X187748531Y-81681459D01*
X187843299Y-81618137D01*
X188094156Y-81242703D01*
X188160010Y-80911631D01*
X188182245Y-80799849D01*
X188160010Y-80688067D01*
X188160010Y-69580720D01*
X188182245Y-69468937D01*
X188094156Y-69026083D01*
X188050318Y-68960475D01*
X187843299Y-68650649D01*
X187748531Y-68587327D01*
X186128685Y-66967482D01*
X186065361Y-66872711D01*
X185689927Y-66621854D01*
X185358855Y-66556000D01*
X185247072Y-66533765D01*
X185135289Y-66556000D01*
X181890340Y-66556000D01*
X182241026Y-66410741D01*
X182869741Y-65782026D01*
X183210000Y-64960569D01*
X183210000Y-64071431D01*
X182869741Y-63249974D01*
X182241026Y-62621259D01*
X181419569Y-62281000D01*
X180530431Y-62281000D01*
X179708974Y-62621259D01*
X179080259Y-63249974D01*
X178740000Y-64071431D01*
X178740000Y-64960569D01*
X179080259Y-65782026D01*
X179708974Y-66410741D01*
X180059660Y-66556000D01*
X179540132Y-66556000D01*
X176230131Y-63246000D01*
X176798522Y-62677610D01*
X176893290Y-62614288D01*
X177144147Y-62238854D01*
X177173557Y-62091000D01*
X177232236Y-61796000D01*
X177210001Y-61684217D01*
X177210001Y-52641431D01*
X178740000Y-52641431D01*
X178740000Y-53530569D01*
X179080259Y-54352026D01*
X179708974Y-54980741D01*
X180530431Y-55321000D01*
X181419569Y-55321000D01*
X182241026Y-54980741D01*
X182869741Y-54352026D01*
X183210000Y-53530569D01*
X183210000Y-52641431D01*
X182869741Y-51819974D01*
X182241026Y-51191259D01*
X181419569Y-50851000D01*
X180530431Y-50851000D01*
X179708974Y-51191259D01*
X179080259Y-51819974D01*
X178740000Y-52641431D01*
X177210001Y-52641431D01*
X177210001Y-46392782D01*
X177230161Y-46291431D01*
X178740000Y-46291431D01*
X178740000Y-47180569D01*
X179080259Y-48002026D01*
X179708974Y-48630741D01*
X180530431Y-48971000D01*
X181419569Y-48971000D01*
X182241026Y-48630741D01*
X182869741Y-48002026D01*
X183210000Y-47180569D01*
X183210000Y-46291431D01*
X182869741Y-45469974D01*
X182241026Y-44841259D01*
X181419569Y-44501000D01*
X180530431Y-44501000D01*
X179708974Y-44841259D01*
X179080259Y-45469974D01*
X178740000Y-46291431D01*
X177230161Y-46291431D01*
X177232236Y-46281000D01*
X177202851Y-46133272D01*
X177144147Y-45838146D01*
X176893290Y-45462712D01*
X176798524Y-45399391D01*
X176547632Y-45148500D01*
X176798522Y-44897610D01*
X176893290Y-44834288D01*
X177144147Y-44458854D01*
X177173557Y-44311000D01*
X177232236Y-44016000D01*
X177210001Y-43904217D01*
X177210001Y-36232782D01*
X177232236Y-36121000D01*
X177210001Y-36009218D01*
X177144147Y-35678146D01*
X176893290Y-35302712D01*
X176798522Y-35239390D01*
X176420563Y-34861431D01*
X178740000Y-34861431D01*
X178740000Y-35750569D01*
X179080259Y-36572026D01*
X179708974Y-37200741D01*
X180530431Y-37541000D01*
X181419569Y-37541000D01*
X182241026Y-37200741D01*
X182869741Y-36572026D01*
X183210000Y-35750569D01*
X183210000Y-34861431D01*
X182869741Y-34039974D01*
X182241026Y-33411259D01*
X181419569Y-33071000D01*
X180530431Y-33071000D01*
X179708974Y-33411259D01*
X179080259Y-34039974D01*
X178740000Y-34861431D01*
X176420563Y-34861431D01*
X175961612Y-34402480D01*
X175898288Y-34307710D01*
X175522854Y-34056853D01*
X175191782Y-33990999D01*
X175079999Y-33968764D01*
X174968216Y-33990999D01*
X166026784Y-33990999D01*
X165915001Y-33968764D01*
X165803218Y-33990999D01*
X165472146Y-34056853D01*
X165096712Y-34307710D01*
X165033390Y-34402478D01*
X156501481Y-42934388D01*
X156406710Y-42997712D01*
X156158721Y-43368855D01*
X156155853Y-43373147D01*
X156067764Y-43816001D01*
X156089999Y-43927785D01*
X156090000Y-45734211D01*
X156067764Y-45845999D01*
X156155853Y-46288853D01*
X156155854Y-46288854D01*
X156406711Y-46664288D01*
X156501479Y-46727610D01*
X157290000Y-47516131D01*
X157290000Y-47661412D01*
X157512272Y-48198024D01*
X157615000Y-48300752D01*
X157615001Y-48981247D01*
X157512272Y-49083976D01*
X157290000Y-49620588D01*
X157290000Y-50201412D01*
X157512272Y-50738024D01*
X157922976Y-51148728D01*
X158000887Y-51181000D01*
X157922976Y-51213272D01*
X157512272Y-51623976D01*
X157290000Y-52160588D01*
X157290000Y-52741412D01*
X157512272Y-53278024D01*
X157922976Y-53688728D01*
X158459588Y-53911000D01*
X158604869Y-53911000D01*
X161551389Y-56857521D01*
X161614711Y-56952289D01*
X161990145Y-57203146D01*
X162321217Y-57269000D01*
X162432999Y-57291235D01*
X162544781Y-57269000D01*
X165522194Y-57269000D01*
X165522194Y-57822719D01*
X165571477Y-58070484D01*
X165711825Y-58280528D01*
X165909634Y-58412701D01*
X165909634Y-58969853D01*
X165887399Y-59081636D01*
X165975488Y-59524490D01*
X166040719Y-59622114D01*
X166226346Y-59899925D01*
X166321114Y-59963247D01*
X175423864Y-69065999D01*
X174811131Y-69065999D01*
X166997613Y-61252482D01*
X166934289Y-61157711D01*
X166558855Y-60906854D01*
X166227783Y-60841000D01*
X166116000Y-60818765D01*
X166004217Y-60841000D01*
X162603420Y-60841000D01*
X162591638Y-60812556D01*
X162075444Y-60296362D01*
X161401004Y-60017000D01*
X160670996Y-60017000D01*
X159996556Y-60296362D01*
X159480362Y-60812556D01*
X159201000Y-61486996D01*
X159201000Y-62217004D01*
X159441653Y-62797991D01*
X159376793Y-62797991D01*
X154514331Y-57935530D01*
X154471929Y-57872071D01*
X154220537Y-57704096D01*
X153998852Y-57660000D01*
X153998847Y-57660000D01*
X153924000Y-57645112D01*
X153849153Y-57660000D01*
X127249319Y-57660000D01*
X127403050Y-57429925D01*
X127519359Y-56845200D01*
X127444175Y-56467227D01*
X127992476Y-55918927D01*
X128055929Y-55876529D01*
X128098327Y-55813076D01*
X128098329Y-55813074D01*
X128223903Y-55625138D01*
X128223904Y-55625137D01*
X128268000Y-55403452D01*
X128268000Y-55403448D01*
X128282888Y-55328601D01*
X128268000Y-55253754D01*
X128268000Y-42111848D01*
X128282888Y-42037000D01*
X128268000Y-41962152D01*
X128268000Y-41962148D01*
X128223904Y-41740463D01*
X128223904Y-41740462D01*
X128098329Y-41552527D01*
X128055929Y-41489071D01*
X127992473Y-41446671D01*
X126193331Y-39647530D01*
X126150929Y-39584071D01*
X125899537Y-39416096D01*
X125677852Y-39372000D01*
X125677847Y-39372000D01*
X125603000Y-39357112D01*
X125528153Y-39372000D01*
X115160846Y-39372000D01*
X115085999Y-39357112D01*
X115011152Y-39372000D01*
X115011148Y-39372000D01*
X114789463Y-39416096D01*
X114789461Y-39416097D01*
X114789462Y-39416097D01*
X114601526Y-39541671D01*
X114601524Y-39541673D01*
X114538071Y-39584071D01*
X114495673Y-39647524D01*
X114175415Y-39967782D01*
X113792000Y-39891516D01*
X113204779Y-40008322D01*
X112706956Y-40340956D01*
X112374322Y-40838778D01*
X112287000Y-41277774D01*
X112287000Y-42034225D01*
X112374322Y-42473221D01*
X112706956Y-42971044D01*
X113204778Y-43303678D01*
X113792000Y-43420484D01*
X114379221Y-43303678D01*
X114877044Y-42971044D01*
X115062000Y-42694237D01*
X115246956Y-42971044D01*
X115744778Y-43303678D01*
X116332000Y-43420484D01*
X116919221Y-43303678D01*
X117417044Y-42971044D01*
X117602000Y-42694237D01*
X117786956Y-42971044D01*
X118284778Y-43303678D01*
X118872000Y-43420484D01*
X119459221Y-43303678D01*
X119946636Y-42977999D01*
X120003673Y-43115699D01*
X120182302Y-43294327D01*
X120415691Y-43391000D01*
X121126250Y-43391000D01*
X121285000Y-43232250D01*
X121285000Y-41783000D01*
X121539000Y-41783000D01*
X121539000Y-43232250D01*
X121697750Y-43391000D01*
X122408309Y-43391000D01*
X122641698Y-43294327D01*
X122820327Y-43115699D01*
X122917000Y-42882310D01*
X122917000Y-41941750D01*
X122758250Y-41783000D01*
X121539000Y-41783000D01*
X121285000Y-41783000D01*
X121265000Y-41783000D01*
X121265000Y-41529000D01*
X121285000Y-41529000D01*
X121285000Y-41509000D01*
X121539000Y-41509000D01*
X121539000Y-41529000D01*
X122758250Y-41529000D01*
X122917000Y-41370250D01*
X122917000Y-40892000D01*
X125288199Y-40892000D01*
X126748001Y-42351803D01*
X126748000Y-50417594D01*
X126576125Y-50302750D01*
X126138998Y-50215800D01*
X125321002Y-50215800D01*
X124883875Y-50302750D01*
X124388170Y-50633970D01*
X124056950Y-51129675D01*
X123940641Y-51714400D01*
X124056950Y-52299125D01*
X124388170Y-52794830D01*
X124719207Y-53016022D01*
X124319127Y-53335332D01*
X124035473Y-53849043D01*
X124013642Y-53946174D01*
X124134783Y-54178200D01*
X125603000Y-54178200D01*
X125603000Y-54158200D01*
X125857000Y-54158200D01*
X125857000Y-54178200D01*
X125877000Y-54178200D01*
X125877000Y-54432200D01*
X125857000Y-54432200D01*
X125857000Y-54452200D01*
X125603000Y-54452200D01*
X125603000Y-54432200D01*
X124134783Y-54432200D01*
X124013642Y-54664226D01*
X124035473Y-54761357D01*
X124319127Y-55275068D01*
X124684561Y-55566727D01*
X124388170Y-55764770D01*
X124056950Y-56260475D01*
X123940641Y-56845200D01*
X124056950Y-57429925D01*
X124184453Y-57620746D01*
X123795518Y-58009681D01*
X123732062Y-58052081D01*
X123689662Y-58115537D01*
X123689661Y-58115538D01*
X123564087Y-58303473D01*
X123505102Y-58600010D01*
X123519991Y-58674862D01*
X123519990Y-67422691D01*
X123505102Y-67497538D01*
X123519990Y-67572385D01*
X123519990Y-67572389D01*
X123564086Y-67794074D01*
X123732061Y-68045467D01*
X123795520Y-68087869D01*
X124301753Y-68594102D01*
X124056950Y-68960475D01*
X123940641Y-69545200D01*
X124056950Y-70129925D01*
X124388170Y-70625630D01*
X124671881Y-70815200D01*
X124388170Y-71004770D01*
X124056950Y-71500475D01*
X123940641Y-72085200D01*
X124056950Y-72669925D01*
X124388170Y-73165630D01*
X124671881Y-73355200D01*
X124388170Y-73544770D01*
X124056950Y-74040475D01*
X123940641Y-74625200D01*
X124056950Y-75209925D01*
X124388170Y-75705630D01*
X124671881Y-75895200D01*
X124388170Y-76084770D01*
X124056950Y-76580475D01*
X123940641Y-77165200D01*
X124056950Y-77749925D01*
X124388170Y-78245630D01*
X124671881Y-78435200D01*
X124388170Y-78624770D01*
X124056950Y-79120475D01*
X123940641Y-79705200D01*
X124056950Y-80289925D01*
X124388170Y-80785630D01*
X124671881Y-80975200D01*
X124388170Y-81164770D01*
X124056950Y-81660475D01*
X123940641Y-82245200D01*
X124056950Y-82829925D01*
X124388170Y-83325630D01*
X124671881Y-83515200D01*
X124388170Y-83704770D01*
X124056950Y-84200475D01*
X123940641Y-84785200D01*
X124056950Y-85369925D01*
X124388170Y-85865630D01*
X124671881Y-86055200D01*
X124388170Y-86244770D01*
X124056950Y-86740475D01*
X123940641Y-87325200D01*
X124056950Y-87909925D01*
X124388170Y-88405630D01*
X124671881Y-88595200D01*
X124388170Y-88784770D01*
X124056950Y-89280475D01*
X123940641Y-89865200D01*
X124056950Y-90449925D01*
X124388170Y-90945630D01*
X124671881Y-91135200D01*
X124388170Y-91324770D01*
X124056950Y-91820475D01*
X123940641Y-92405200D01*
X124056950Y-92989925D01*
X124388170Y-93485630D01*
X124671881Y-93675200D01*
X124388170Y-93864770D01*
X124056950Y-94360475D01*
X123940641Y-94945200D01*
X124056950Y-95529925D01*
X124388170Y-96025630D01*
X124671881Y-96215200D01*
X124388170Y-96404770D01*
X124056950Y-96900475D01*
X123940641Y-97485200D01*
X124056950Y-98069925D01*
X124388170Y-98565630D01*
X124671881Y-98755200D01*
X124388170Y-98944770D01*
X124056950Y-99440475D01*
X123940641Y-100025200D01*
X124056950Y-100609925D01*
X124388170Y-101105630D01*
X124883875Y-101436850D01*
X125321002Y-101523800D01*
X126138998Y-101523800D01*
X126576125Y-101436850D01*
X127071830Y-101105630D01*
X127403050Y-100609925D01*
X127519359Y-100025200D01*
X127403050Y-99440475D01*
X127071830Y-98944770D01*
X126788119Y-98755200D01*
X127071830Y-98565630D01*
X127403050Y-98069925D01*
X127519359Y-97485200D01*
X127403050Y-96900475D01*
X127071830Y-96404770D01*
X126788119Y-96215200D01*
X127071830Y-96025630D01*
X127403050Y-95529925D01*
X127519359Y-94945200D01*
X127403050Y-94360475D01*
X127071830Y-93864770D01*
X126788119Y-93675200D01*
X127071830Y-93485630D01*
X127403050Y-92989925D01*
X127519359Y-92405200D01*
X127403050Y-91820475D01*
X127071830Y-91324770D01*
X126788119Y-91135200D01*
X127071830Y-90945630D01*
X127403050Y-90449925D01*
X127519359Y-89865200D01*
X127403050Y-89280475D01*
X127071830Y-88784770D01*
X126788119Y-88595200D01*
X127071830Y-88405630D01*
X127403050Y-87909925D01*
X127519359Y-87325200D01*
X127403050Y-86740475D01*
X127071830Y-86244770D01*
X126788119Y-86055200D01*
X127071830Y-85865630D01*
X127403050Y-85369925D01*
X127519359Y-84785200D01*
X127403050Y-84200475D01*
X127071830Y-83704770D01*
X126788119Y-83515200D01*
X127071830Y-83325630D01*
X127403050Y-82829925D01*
X127519359Y-82245200D01*
X127403050Y-81660475D01*
X127071830Y-81164770D01*
X126788119Y-80975200D01*
X127071830Y-80785630D01*
X127403050Y-80289925D01*
X127519359Y-79705200D01*
X127403050Y-79120475D01*
X127071830Y-78624770D01*
X126788119Y-78435200D01*
X127071830Y-78245630D01*
X127403050Y-77749925D01*
X127519359Y-77165200D01*
X127403050Y-76580475D01*
X127071830Y-76084770D01*
X126788119Y-75895200D01*
X127071830Y-75705630D01*
X127403050Y-75209925D01*
X127519359Y-74625200D01*
X127403050Y-74040475D01*
X127071830Y-73544770D01*
X126788119Y-73355200D01*
X127071830Y-73165630D01*
X127403050Y-72669925D01*
X127519359Y-72085200D01*
X127403050Y-71500475D01*
X127071830Y-71004770D01*
X126788119Y-70815200D01*
X127071830Y-70625630D01*
X127403050Y-70129925D01*
X127519359Y-69545200D01*
X127403050Y-68960475D01*
X127163635Y-68602166D01*
X130743802Y-65022000D01*
X131384199Y-65022000D01*
X131748560Y-65386361D01*
X131748560Y-65677638D01*
X129881518Y-67544681D01*
X129818062Y-67587081D01*
X129775662Y-67650537D01*
X129775661Y-67650538D01*
X129650087Y-67838473D01*
X129591102Y-68135010D01*
X129605991Y-68209862D01*
X129605990Y-83047143D01*
X129591102Y-83121990D01*
X129605990Y-83196837D01*
X129605990Y-83196841D01*
X129650086Y-83418526D01*
X129818061Y-83669919D01*
X129881520Y-83712321D01*
X129965671Y-83796472D01*
X131489673Y-85320476D01*
X131532071Y-85383929D01*
X131595524Y-85426327D01*
X131595526Y-85426329D01*
X131649548Y-85462425D01*
X131783463Y-85551904D01*
X132005148Y-85596000D01*
X132005152Y-85596000D01*
X132079999Y-85610888D01*
X132154846Y-85596000D01*
X137720153Y-85596000D01*
X137795000Y-85610888D01*
X137869847Y-85596000D01*
X137869852Y-85596000D01*
X138091537Y-85551904D01*
X138342929Y-85383929D01*
X138385331Y-85320470D01*
X139192000Y-84513802D01*
X140125671Y-85447473D01*
X140168071Y-85510929D01*
X140419463Y-85678904D01*
X140641148Y-85723000D01*
X140641152Y-85723000D01*
X140716000Y-85737888D01*
X140790848Y-85723000D01*
X141276153Y-85723000D01*
X141351000Y-85737888D01*
X141425847Y-85723000D01*
X141425852Y-85723000D01*
X141647537Y-85678904D01*
X141898929Y-85510929D01*
X141941331Y-85447470D01*
X142367000Y-85021802D01*
X142739657Y-85394459D01*
X142782057Y-85457915D01*
X143033449Y-85625890D01*
X143255134Y-85669986D01*
X143255139Y-85669986D01*
X143329986Y-85684874D01*
X143404833Y-85669986D01*
X145647167Y-85669986D01*
X145722014Y-85684874D01*
X145796861Y-85669986D01*
X145796866Y-85669986D01*
X146018551Y-85625890D01*
X146269943Y-85457915D01*
X146312345Y-85394456D01*
X146474376Y-85232425D01*
X146768623Y-85232425D01*
X146772027Y-85235829D01*
X146772030Y-85235831D01*
X146920169Y-85383970D01*
X146962571Y-85447429D01*
X147213963Y-85615404D01*
X147435648Y-85659500D01*
X147435652Y-85659500D01*
X147510500Y-85674388D01*
X147585348Y-85659500D01*
X148840931Y-85659500D01*
X148802661Y-85685071D01*
X148760261Y-85748527D01*
X146200530Y-88308259D01*
X146137071Y-88350661D01*
X145969096Y-88602054D01*
X145925000Y-88823739D01*
X145925000Y-88823743D01*
X145910112Y-88898590D01*
X145925000Y-88973437D01*
X145925001Y-104134612D01*
X145910112Y-104209464D01*
X145969097Y-104506001D01*
X146055360Y-104635102D01*
X146137072Y-104757393D01*
X146200528Y-104799793D01*
X149162382Y-107761648D01*
X149204782Y-107825104D01*
X149456174Y-107993079D01*
X149677859Y-108037175D01*
X149677863Y-108037175D01*
X149752710Y-108052063D01*
X149752711Y-108052063D01*
X149827559Y-108037175D01*
X151390424Y-108037175D01*
X151255130Y-108172469D01*
X151191671Y-108214871D01*
X151033722Y-108451259D01*
X150944447Y-108469017D01*
X150734403Y-108609365D01*
X150594055Y-108819409D01*
X150544772Y-109067174D01*
X150544772Y-110537174D01*
X150594055Y-110784939D01*
X150734403Y-110994983D01*
X150849927Y-111072174D01*
X150734403Y-111149365D01*
X150594055Y-111359409D01*
X150544772Y-111607174D01*
X150544772Y-113077174D01*
X150594055Y-113324939D01*
X150734403Y-113534983D01*
X150944447Y-113675331D01*
X151192212Y-113724614D01*
X152014240Y-113724614D01*
X152018753Y-124385000D01*
X105790907Y-124385000D01*
X105787041Y-100384226D01*
X108773642Y-100384226D01*
X108795473Y-100481357D01*
X109079127Y-100995068D01*
X109537778Y-101361125D01*
X110101600Y-101523800D01*
X110363000Y-101523800D01*
X110363000Y-100152200D01*
X110617000Y-100152200D01*
X110617000Y-101523800D01*
X110878400Y-101523800D01*
X111442222Y-101361125D01*
X111900873Y-100995068D01*
X112184527Y-100481357D01*
X112206358Y-100384226D01*
X112085217Y-100152200D01*
X110617000Y-100152200D01*
X110363000Y-100152200D01*
X108894783Y-100152200D01*
X108773642Y-100384226D01*
X105787041Y-100384226D01*
X105786632Y-97844226D01*
X108773642Y-97844226D01*
X108795473Y-97941357D01*
X109079127Y-98455068D01*
X109455177Y-98755200D01*
X109079127Y-99055332D01*
X108795473Y-99569043D01*
X108773642Y-99666174D01*
X108894783Y-99898200D01*
X110363000Y-99898200D01*
X110363000Y-97612200D01*
X110617000Y-97612200D01*
X110617000Y-99898200D01*
X112085217Y-99898200D01*
X112206358Y-99666174D01*
X112184527Y-99569043D01*
X111900873Y-99055332D01*
X111524823Y-98755200D01*
X111900873Y-98455068D01*
X112184527Y-97941357D01*
X112206358Y-97844226D01*
X112085217Y-97612200D01*
X110617000Y-97612200D01*
X110363000Y-97612200D01*
X108894783Y-97612200D01*
X108773642Y-97844226D01*
X105786632Y-97844226D01*
X105779617Y-54305200D01*
X108700641Y-54305200D01*
X108816950Y-54889925D01*
X109148170Y-55385630D01*
X109431881Y-55575200D01*
X109148170Y-55764770D01*
X108816950Y-56260475D01*
X108700641Y-56845200D01*
X108816950Y-57429925D01*
X109148170Y-57925630D01*
X109431881Y-58115200D01*
X109148170Y-58304770D01*
X108816950Y-58800475D01*
X108700641Y-59385200D01*
X108816950Y-59969925D01*
X109148170Y-60465630D01*
X109431881Y-60655200D01*
X109148170Y-60844770D01*
X108816950Y-61340475D01*
X108700641Y-61925200D01*
X108816950Y-62509925D01*
X109148170Y-63005630D01*
X109431881Y-63195200D01*
X109148170Y-63384770D01*
X108816950Y-63880475D01*
X108700641Y-64465200D01*
X108816950Y-65049925D01*
X109148170Y-65545630D01*
X109431881Y-65735200D01*
X109148170Y-65924770D01*
X108816950Y-66420475D01*
X108700641Y-67005200D01*
X108816950Y-67589925D01*
X109148170Y-68085630D01*
X109431881Y-68275200D01*
X109148170Y-68464770D01*
X108816950Y-68960475D01*
X108700641Y-69545200D01*
X108816950Y-70129925D01*
X109148170Y-70625630D01*
X109431881Y-70815200D01*
X109148170Y-71004770D01*
X108816950Y-71500475D01*
X108700641Y-72085200D01*
X108816950Y-72669925D01*
X109148170Y-73165630D01*
X109431881Y-73355200D01*
X109148170Y-73544770D01*
X108816950Y-74040475D01*
X108700641Y-74625200D01*
X108816950Y-75209925D01*
X109148170Y-75705630D01*
X109431881Y-75895200D01*
X109148170Y-76084770D01*
X108816950Y-76580475D01*
X108700641Y-77165200D01*
X108816950Y-77749925D01*
X109148170Y-78245630D01*
X109431881Y-78435200D01*
X109148170Y-78624770D01*
X108816950Y-79120475D01*
X108700641Y-79705200D01*
X108816950Y-80289925D01*
X109148170Y-80785630D01*
X109431881Y-80975200D01*
X109148170Y-81164770D01*
X108816950Y-81660475D01*
X108700641Y-82245200D01*
X108816950Y-82829925D01*
X109148170Y-83325630D01*
X109431881Y-83515200D01*
X109148170Y-83704770D01*
X108816950Y-84200475D01*
X108700641Y-84785200D01*
X108816950Y-85369925D01*
X109148170Y-85865630D01*
X109431881Y-86055200D01*
X109148170Y-86244770D01*
X108816950Y-86740475D01*
X108700641Y-87325200D01*
X108816950Y-87909925D01*
X109148170Y-88405630D01*
X109431881Y-88595200D01*
X109148170Y-88784770D01*
X108816950Y-89280475D01*
X108700641Y-89865200D01*
X108816950Y-90449925D01*
X109148170Y-90945630D01*
X109431881Y-91135200D01*
X109148170Y-91324770D01*
X108816950Y-91820475D01*
X108700641Y-92405200D01*
X108816950Y-92989925D01*
X109148170Y-93485630D01*
X109431881Y-93675200D01*
X109148170Y-93864770D01*
X108816950Y-94360475D01*
X108700641Y-94945200D01*
X108816950Y-95529925D01*
X109148170Y-96025630D01*
X109444561Y-96223673D01*
X109079127Y-96515332D01*
X108795473Y-97029043D01*
X108773642Y-97126174D01*
X108894783Y-97358200D01*
X110363000Y-97358200D01*
X110363000Y-97338200D01*
X110617000Y-97338200D01*
X110617000Y-97358200D01*
X112085217Y-97358200D01*
X112206358Y-97126174D01*
X112184527Y-97029043D01*
X111900873Y-96515332D01*
X111535439Y-96223673D01*
X111831830Y-96025630D01*
X112163050Y-95529925D01*
X112279359Y-94945200D01*
X112163050Y-94360475D01*
X111831830Y-93864770D01*
X111548119Y-93675200D01*
X111831830Y-93485630D01*
X112163050Y-92989925D01*
X112279359Y-92405200D01*
X112163050Y-91820475D01*
X111831830Y-91324770D01*
X111548119Y-91135200D01*
X111831830Y-90945630D01*
X112163050Y-90449925D01*
X112279359Y-89865200D01*
X112163050Y-89280475D01*
X111831830Y-88784770D01*
X111548119Y-88595200D01*
X111831830Y-88405630D01*
X112163050Y-87909925D01*
X112279359Y-87325200D01*
X112163050Y-86740475D01*
X111831830Y-86244770D01*
X111548119Y-86055200D01*
X111831830Y-85865630D01*
X112163050Y-85369925D01*
X112279359Y-84785200D01*
X112163050Y-84200475D01*
X111831830Y-83704770D01*
X111548119Y-83515200D01*
X111831830Y-83325630D01*
X112163050Y-82829925D01*
X112279359Y-82245200D01*
X112163050Y-81660475D01*
X111831830Y-81164770D01*
X111548119Y-80975200D01*
X111831830Y-80785630D01*
X112163050Y-80289925D01*
X112279359Y-79705200D01*
X112163050Y-79120475D01*
X111831830Y-78624770D01*
X111548119Y-78435200D01*
X111831830Y-78245630D01*
X112163050Y-77749925D01*
X112279359Y-77165200D01*
X112163050Y-76580475D01*
X111831830Y-76084770D01*
X111548119Y-75895200D01*
X111831830Y-75705630D01*
X112163050Y-75209925D01*
X112279359Y-74625200D01*
X112163050Y-74040475D01*
X111831830Y-73544770D01*
X111548119Y-73355200D01*
X111831830Y-73165630D01*
X112163050Y-72669925D01*
X112279359Y-72085200D01*
X112163050Y-71500475D01*
X111831830Y-71004770D01*
X111548119Y-70815200D01*
X111831830Y-70625630D01*
X112163050Y-70129925D01*
X112279359Y-69545200D01*
X112163050Y-68960475D01*
X111831830Y-68464770D01*
X111548119Y-68275200D01*
X111831830Y-68085630D01*
X112163050Y-67589925D01*
X112279359Y-67005200D01*
X112163050Y-66420475D01*
X111831830Y-65924770D01*
X111548119Y-65735200D01*
X111831830Y-65545630D01*
X112163050Y-65049925D01*
X112279359Y-64465200D01*
X112163050Y-63880475D01*
X111831830Y-63384770D01*
X111548119Y-63195200D01*
X111831830Y-63005630D01*
X112163050Y-62509925D01*
X112279359Y-61925200D01*
X112163050Y-61340475D01*
X111831830Y-60844770D01*
X111548119Y-60655200D01*
X111831830Y-60465630D01*
X112163050Y-59969925D01*
X112279359Y-59385200D01*
X112163050Y-58800475D01*
X111831830Y-58304770D01*
X111548119Y-58115200D01*
X111831830Y-57925630D01*
X112163050Y-57429925D01*
X112279359Y-56845200D01*
X112163050Y-56260475D01*
X111831830Y-55764770D01*
X111548119Y-55575200D01*
X115322041Y-55575200D01*
X115438350Y-56159925D01*
X115769570Y-56655630D01*
X116265275Y-56986850D01*
X116702402Y-57073800D01*
X116997598Y-57073800D01*
X117434725Y-56986850D01*
X117930430Y-56655630D01*
X118120000Y-56371919D01*
X118309570Y-56655630D01*
X118805275Y-56986850D01*
X119242402Y-57073800D01*
X119537598Y-57073800D01*
X119974725Y-56986850D01*
X120470430Y-56655630D01*
X120801650Y-56159925D01*
X120917959Y-55575200D01*
X120801650Y-54990475D01*
X120470430Y-54494770D01*
X119974725Y-54163550D01*
X119537598Y-54076600D01*
X119242402Y-54076600D01*
X118805275Y-54163550D01*
X118309570Y-54494770D01*
X118120000Y-54778481D01*
X117930430Y-54494770D01*
X117434725Y-54163550D01*
X116997598Y-54076600D01*
X116702402Y-54076600D01*
X116265275Y-54163550D01*
X115769570Y-54494770D01*
X115438350Y-54990475D01*
X115322041Y-55575200D01*
X111548119Y-55575200D01*
X111831830Y-55385630D01*
X112163050Y-54889925D01*
X112279359Y-54305200D01*
X112163050Y-53720475D01*
X111836749Y-53232132D01*
X111862765Y-53226957D01*
X112072809Y-53086609D01*
X112213157Y-52876565D01*
X112262440Y-52628800D01*
X112262440Y-50901600D01*
X112213157Y-50653835D01*
X112072809Y-50443791D01*
X111862765Y-50303443D01*
X111615000Y-50254160D01*
X109365000Y-50254160D01*
X109117235Y-50303443D01*
X108907191Y-50443791D01*
X108766843Y-50653835D01*
X108717560Y-50901600D01*
X108717560Y-52628800D01*
X108766843Y-52876565D01*
X108907191Y-53086609D01*
X109117235Y-53226957D01*
X109143251Y-53232132D01*
X108816950Y-53720475D01*
X108700641Y-54305200D01*
X105779617Y-54305200D01*
X105775726Y-30154616D01*
X183870608Y-30154616D01*
X183875973Y-30837613D01*
X184102282Y-31482048D01*
X184525134Y-32018433D01*
X185098932Y-32388930D01*
X185761805Y-32553588D01*
X186442275Y-32494653D01*
X187066967Y-32218479D01*
X187568522Y-31754847D01*
X187892858Y-31153748D01*
X188005000Y-30480000D01*
X188004743Y-30447329D01*
X187882032Y-29775425D01*
X187548295Y-29179495D01*
X187039520Y-28723798D01*
X186410566Y-28457471D01*
X185729255Y-28409231D01*
X185069050Y-28584281D01*
X184501142Y-28963745D01*
X184086767Y-29506706D01*
X183870608Y-30154616D01*
X105775726Y-30154616D01*
X105774972Y-25475000D01*
X189155000Y-25475000D01*
X189155001Y-86614000D01*
G36*
X151102212Y-106500174D02*
X151122212Y-106500174D01*
X151122212Y-106517175D01*
X150828212Y-106517175D01*
X150828212Y-106500174D01*
X150848212Y-106500174D01*
X150848212Y-106480174D01*
X151102212Y-106480174D01*
X151102212Y-106500174D01*
X151102212Y-106500174D01*
G37*
X151102212Y-106500174D02*
X151122212Y-106500174D01*
X151122212Y-106517175D01*
X150828212Y-106517175D01*
X150828212Y-106500174D01*
X150848212Y-106500174D01*
X150848212Y-106480174D01*
X151102212Y-106480174D01*
X151102212Y-106500174D01*
G36*
X149365272Y-96569536D02*
X149365272Y-96792174D01*
X149414555Y-97039939D01*
X149456139Y-97102174D01*
X149414555Y-97164409D01*
X149365272Y-97412174D01*
X149365272Y-98062174D01*
X149414555Y-98309939D01*
X149454695Y-98370012D01*
X149377712Y-98555865D01*
X149377712Y-98721424D01*
X149536462Y-98880174D01*
X150848212Y-98880174D01*
X150848212Y-98860174D01*
X151102212Y-98860174D01*
X151102212Y-98880174D01*
X151122212Y-98880174D01*
X151122212Y-99134174D01*
X151102212Y-99134174D01*
X151102212Y-100150174D01*
X151122212Y-100150174D01*
X151122212Y-100404174D01*
X151102212Y-100404174D01*
X151102212Y-101420174D01*
X151122212Y-101420174D01*
X151122212Y-101674174D01*
X151102212Y-101674174D01*
X151102212Y-102690174D01*
X151122212Y-102690174D01*
X151122212Y-102944174D01*
X151102212Y-102944174D01*
X151102212Y-102964174D01*
X150848212Y-102964174D01*
X150848212Y-102944174D01*
X150828212Y-102944174D01*
X150828212Y-102690174D01*
X150848212Y-102690174D01*
X150848212Y-101674174D01*
X149536462Y-101674174D01*
X149377712Y-101832924D01*
X149377712Y-101998483D01*
X149453799Y-102182174D01*
X149377712Y-102365865D01*
X149377712Y-102531424D01*
X149536460Y-102690172D01*
X149440512Y-102690172D01*
X148842000Y-102091661D01*
X148842000Y-100562924D01*
X149377712Y-100562924D01*
X149377712Y-100728483D01*
X149453799Y-100912174D01*
X149377712Y-101095865D01*
X149377712Y-101261424D01*
X149536462Y-101420174D01*
X150848212Y-101420174D01*
X150848212Y-100404174D01*
X149536462Y-100404174D01*
X149377712Y-100562924D01*
X148842000Y-100562924D01*
X148842000Y-99292924D01*
X149377712Y-99292924D01*
X149377712Y-99458483D01*
X149453799Y-99642174D01*
X149377712Y-99825865D01*
X149377712Y-99991424D01*
X149536462Y-100150174D01*
X150848212Y-100150174D01*
X150848212Y-99134174D01*
X149536462Y-99134174D01*
X149377712Y-99292924D01*
X148842000Y-99292924D01*
X148842000Y-96046264D01*
X149365272Y-96569536D01*
X149365272Y-96569536D01*
G37*
X149365272Y-96569536D02*
X149365272Y-96792174D01*
X149414555Y-97039939D01*
X149456139Y-97102174D01*
X149414555Y-97164409D01*
X149365272Y-97412174D01*
X149365272Y-98062174D01*
X149414555Y-98309939D01*
X149454695Y-98370012D01*
X149377712Y-98555865D01*
X149377712Y-98721424D01*
X149536462Y-98880174D01*
X150848212Y-98880174D01*
X150848212Y-98860174D01*
X151102212Y-98860174D01*
X151102212Y-98880174D01*
X151122212Y-98880174D01*
X151122212Y-99134174D01*
X151102212Y-99134174D01*
X151102212Y-100150174D01*
X151122212Y-100150174D01*
X151122212Y-100404174D01*
X151102212Y-100404174D01*
X151102212Y-101420174D01*
X151122212Y-101420174D01*
X151122212Y-101674174D01*
X151102212Y-101674174D01*
X151102212Y-102690174D01*
X151122212Y-102690174D01*
X151122212Y-102944174D01*
X151102212Y-102944174D01*
X151102212Y-102964174D01*
X150848212Y-102964174D01*
X150848212Y-102944174D01*
X150828212Y-102944174D01*
X150828212Y-102690174D01*
X150848212Y-102690174D01*
X150848212Y-101674174D01*
X149536462Y-101674174D01*
X149377712Y-101832924D01*
X149377712Y-101998483D01*
X149453799Y-102182174D01*
X149377712Y-102365865D01*
X149377712Y-102531424D01*
X149536460Y-102690172D01*
X149440512Y-102690172D01*
X148842000Y-102091661D01*
X148842000Y-100562924D01*
X149377712Y-100562924D01*
X149377712Y-100728483D01*
X149453799Y-100912174D01*
X149377712Y-101095865D01*
X149377712Y-101261424D01*
X149536462Y-101420174D01*
X150848212Y-101420174D01*
X150848212Y-100404174D01*
X149536462Y-100404174D01*
X149377712Y-100562924D01*
X148842000Y-100562924D01*
X148842000Y-99292924D01*
X149377712Y-99292924D01*
X149377712Y-99458483D01*
X149453799Y-99642174D01*
X149377712Y-99825865D01*
X149377712Y-99991424D01*
X149536462Y-100150174D01*
X150848212Y-100150174D01*
X150848212Y-99134174D01*
X149536462Y-99134174D01*
X149377712Y-99292924D01*
X148842000Y-99292924D01*
X148842000Y-96046264D01*
X149365272Y-96569536D01*
G36*
X153283942Y-78852985D02*
X154368192Y-78852985D01*
X154368192Y-78832985D01*
X154622192Y-78832985D01*
X154622192Y-78852985D01*
X154642192Y-78852985D01*
X154642192Y-79106985D01*
X154622192Y-79106985D01*
X154622192Y-79966235D01*
X154780942Y-80124985D01*
X154795193Y-80124985D01*
X154795193Y-81282545D01*
X153760192Y-81282545D01*
X153512427Y-81331828D01*
X153302383Y-81472176D01*
X153162035Y-81682220D01*
X153112752Y-81929985D01*
X153112752Y-82949985D01*
X153162035Y-83197750D01*
X153197061Y-83250169D01*
X153125192Y-83423676D01*
X153125192Y-83774235D01*
X153283942Y-83932985D01*
X154368192Y-83932985D01*
X154368192Y-83912985D01*
X154622192Y-83912985D01*
X154622192Y-83932985D01*
X154642192Y-83932985D01*
X154642192Y-84186985D01*
X154622192Y-84186985D01*
X154622192Y-85046235D01*
X154780942Y-85204985D01*
X155245204Y-85204985D01*
X155245204Y-86376994D01*
X155008199Y-86614000D01*
X152129817Y-86614000D01*
X152119762Y-86616000D01*
X150043801Y-86616000D01*
X151197377Y-85462425D01*
X152185192Y-85462425D01*
X152432957Y-85413142D01*
X152643001Y-85272794D01*
X152783349Y-85062750D01*
X152832632Y-84814985D01*
X152832632Y-84345735D01*
X153125192Y-84345735D01*
X153125192Y-84696294D01*
X153221865Y-84929683D01*
X153400493Y-85108312D01*
X153633882Y-85204985D01*
X154209442Y-85204985D01*
X154368192Y-85046235D01*
X154368192Y-84186985D01*
X153283942Y-84186985D01*
X153125192Y-84345735D01*
X152832632Y-84345735D01*
X152832632Y-83314985D01*
X152783349Y-83067220D01*
X152643001Y-82857176D01*
X152432957Y-82716828D01*
X152185192Y-82667545D01*
X149185192Y-82667545D01*
X148937427Y-82716828D01*
X148727383Y-82857176D01*
X148587035Y-83067220D01*
X148537752Y-83314985D01*
X148537752Y-84139500D01*
X147825302Y-84139500D01*
X147677632Y-83991830D01*
X147677632Y-83184985D01*
X147628349Y-82937220D01*
X147488001Y-82727176D01*
X147317543Y-82613279D01*
X147389890Y-82583312D01*
X147568519Y-82404684D01*
X147665192Y-82171295D01*
X147665192Y-81630735D01*
X147506442Y-81471985D01*
X146682192Y-81471985D01*
X146682192Y-81491985D01*
X146428192Y-81491985D01*
X146428192Y-81471985D01*
X146408192Y-81471985D01*
X146408192Y-81450735D01*
X148550192Y-81450735D01*
X148550192Y-82041294D01*
X148646865Y-82274683D01*
X148825493Y-82453312D01*
X149058882Y-82549985D01*
X150399442Y-82549985D01*
X150558192Y-82391235D01*
X150558192Y-81291985D01*
X150812192Y-81291985D01*
X150812192Y-82391235D01*
X150970942Y-82549985D01*
X152311502Y-82549985D01*
X152544891Y-82453312D01*
X152723519Y-82274683D01*
X152820192Y-82041294D01*
X152820192Y-81450735D01*
X152661442Y-81291985D01*
X150812192Y-81291985D01*
X150558192Y-81291985D01*
X148708942Y-81291985D01*
X148550192Y-81450735D01*
X146408192Y-81450735D01*
X146408192Y-81217985D01*
X146428192Y-81217985D01*
X146428192Y-80168735D01*
X146682192Y-80168735D01*
X146682192Y-81217985D01*
X147506442Y-81217985D01*
X147665192Y-81059235D01*
X147665192Y-80518675D01*
X147569924Y-80288676D01*
X148550192Y-80288676D01*
X148550192Y-80879235D01*
X148708942Y-81037985D01*
X150558192Y-81037985D01*
X150558192Y-79938735D01*
X150812192Y-79938735D01*
X150812192Y-81037985D01*
X152661442Y-81037985D01*
X152820192Y-80879235D01*
X152820192Y-80288676D01*
X152723519Y-80055287D01*
X152544891Y-79876658D01*
X152311502Y-79779985D01*
X150970942Y-79779985D01*
X150812192Y-79938735D01*
X150558192Y-79938735D01*
X150399442Y-79779985D01*
X149058882Y-79779985D01*
X148825493Y-79876658D01*
X148646865Y-80055287D01*
X148550192Y-80288676D01*
X147569924Y-80288676D01*
X147568519Y-80285286D01*
X147389890Y-80106658D01*
X147156501Y-80009985D01*
X146840942Y-80009985D01*
X146682192Y-80168735D01*
X146428192Y-80168735D01*
X146269442Y-80009985D01*
X145953883Y-80009985D01*
X145720494Y-80106658D01*
X145608819Y-80218332D01*
X145588001Y-80187176D01*
X145413000Y-80070243D01*
X145413000Y-79498628D01*
X145513001Y-79431809D01*
X145605192Y-79293836D01*
X145697383Y-79431809D01*
X145907427Y-79572157D01*
X146155192Y-79621440D01*
X147555192Y-79621440D01*
X147802957Y-79572157D01*
X148013001Y-79431809D01*
X148123968Y-79265735D01*
X153125192Y-79265735D01*
X153125192Y-79616294D01*
X153221865Y-79849683D01*
X153400493Y-80028312D01*
X153633882Y-80124985D01*
X154209442Y-80124985D01*
X154368192Y-79966235D01*
X154368192Y-79106985D01*
X153283942Y-79106985D01*
X153125192Y-79265735D01*
X148123968Y-79265735D01*
X148153349Y-79221765D01*
X148202632Y-78974000D01*
X148202632Y-78738000D01*
X153168957Y-78738000D01*
X153283942Y-78852985D01*
X153283942Y-78852985D01*
G37*
X153283942Y-78852985D02*
X154368192Y-78852985D01*
X154368192Y-78832985D01*
X154622192Y-78832985D01*
X154622192Y-78852985D01*
X154642192Y-78852985D01*
X154642192Y-79106985D01*
X154622192Y-79106985D01*
X154622192Y-79966235D01*
X154780942Y-80124985D01*
X154795193Y-80124985D01*
X154795193Y-81282545D01*
X153760192Y-81282545D01*
X153512427Y-81331828D01*
X153302383Y-81472176D01*
X153162035Y-81682220D01*
X153112752Y-81929985D01*
X153112752Y-82949985D01*
X153162035Y-83197750D01*
X153197061Y-83250169D01*
X153125192Y-83423676D01*
X153125192Y-83774235D01*
X153283942Y-83932985D01*
X154368192Y-83932985D01*
X154368192Y-83912985D01*
X154622192Y-83912985D01*
X154622192Y-83932985D01*
X154642192Y-83932985D01*
X154642192Y-84186985D01*
X154622192Y-84186985D01*
X154622192Y-85046235D01*
X154780942Y-85204985D01*
X155245204Y-85204985D01*
X155245204Y-86376994D01*
X155008199Y-86614000D01*
X152129817Y-86614000D01*
X152119762Y-86616000D01*
X150043801Y-86616000D01*
X151197377Y-85462425D01*
X152185192Y-85462425D01*
X152432957Y-85413142D01*
X152643001Y-85272794D01*
X152783349Y-85062750D01*
X152832632Y-84814985D01*
X152832632Y-84345735D01*
X153125192Y-84345735D01*
X153125192Y-84696294D01*
X153221865Y-84929683D01*
X153400493Y-85108312D01*
X153633882Y-85204985D01*
X154209442Y-85204985D01*
X154368192Y-85046235D01*
X154368192Y-84186985D01*
X153283942Y-84186985D01*
X153125192Y-84345735D01*
X152832632Y-84345735D01*
X152832632Y-83314985D01*
X152783349Y-83067220D01*
X152643001Y-82857176D01*
X152432957Y-82716828D01*
X152185192Y-82667545D01*
X149185192Y-82667545D01*
X148937427Y-82716828D01*
X148727383Y-82857176D01*
X148587035Y-83067220D01*
X148537752Y-83314985D01*
X148537752Y-84139500D01*
X147825302Y-84139500D01*
X147677632Y-83991830D01*
X147677632Y-83184985D01*
X147628349Y-82937220D01*
X147488001Y-82727176D01*
X147317543Y-82613279D01*
X147389890Y-82583312D01*
X147568519Y-82404684D01*
X147665192Y-82171295D01*
X147665192Y-81630735D01*
X147506442Y-81471985D01*
X146682192Y-81471985D01*
X146682192Y-81491985D01*
X146428192Y-81491985D01*
X146428192Y-81471985D01*
X146408192Y-81471985D01*
X146408192Y-81450735D01*
X148550192Y-81450735D01*
X148550192Y-82041294D01*
X148646865Y-82274683D01*
X148825493Y-82453312D01*
X149058882Y-82549985D01*
X150399442Y-82549985D01*
X150558192Y-82391235D01*
X150558192Y-81291985D01*
X150812192Y-81291985D01*
X150812192Y-82391235D01*
X150970942Y-82549985D01*
X152311502Y-82549985D01*
X152544891Y-82453312D01*
X152723519Y-82274683D01*
X152820192Y-82041294D01*
X152820192Y-81450735D01*
X152661442Y-81291985D01*
X150812192Y-81291985D01*
X150558192Y-81291985D01*
X148708942Y-81291985D01*
X148550192Y-81450735D01*
X146408192Y-81450735D01*
X146408192Y-81217985D01*
X146428192Y-81217985D01*
X146428192Y-80168735D01*
X146682192Y-80168735D01*
X146682192Y-81217985D01*
X147506442Y-81217985D01*
X147665192Y-81059235D01*
X147665192Y-80518675D01*
X147569924Y-80288676D01*
X148550192Y-80288676D01*
X148550192Y-80879235D01*
X148708942Y-81037985D01*
X150558192Y-81037985D01*
X150558192Y-79938735D01*
X150812192Y-79938735D01*
X150812192Y-81037985D01*
X152661442Y-81037985D01*
X152820192Y-80879235D01*
X152820192Y-80288676D01*
X152723519Y-80055287D01*
X152544891Y-79876658D01*
X152311502Y-79779985D01*
X150970942Y-79779985D01*
X150812192Y-79938735D01*
X150558192Y-79938735D01*
X150399442Y-79779985D01*
X149058882Y-79779985D01*
X148825493Y-79876658D01*
X148646865Y-80055287D01*
X148550192Y-80288676D01*
X147569924Y-80288676D01*
X147568519Y-80285286D01*
X147389890Y-80106658D01*
X147156501Y-80009985D01*
X146840942Y-80009985D01*
X146682192Y-80168735D01*
X146428192Y-80168735D01*
X146269442Y-80009985D01*
X145953883Y-80009985D01*
X145720494Y-80106658D01*
X145608819Y-80218332D01*
X145588001Y-80187176D01*
X145413000Y-80070243D01*
X145413000Y-79498628D01*
X145513001Y-79431809D01*
X145605192Y-79293836D01*
X145697383Y-79431809D01*
X145907427Y-79572157D01*
X146155192Y-79621440D01*
X147555192Y-79621440D01*
X147802957Y-79572157D01*
X148013001Y-79431809D01*
X148123968Y-79265735D01*
X153125192Y-79265735D01*
X153125192Y-79616294D01*
X153221865Y-79849683D01*
X153400493Y-80028312D01*
X153633882Y-80124985D01*
X154209442Y-80124985D01*
X154368192Y-79966235D01*
X154368192Y-79106985D01*
X153283942Y-79106985D01*
X153125192Y-79265735D01*
X148123968Y-79265735D01*
X148153349Y-79221765D01*
X148202632Y-78974000D01*
X148202632Y-78738000D01*
X153168957Y-78738000D01*
X153283942Y-78852985D01*
G36*
X158285260Y-64492472D02*
X158327661Y-64555929D01*
X158579053Y-64723904D01*
X158800738Y-64768000D01*
X158800743Y-64768000D01*
X158875590Y-64782888D01*
X158950437Y-64768000D01*
X163261199Y-64768000D01*
X164107527Y-65614329D01*
X164107530Y-65614331D01*
X169928000Y-71434802D01*
X169928000Y-72210851D01*
X169928001Y-72210856D01*
X169928000Y-75019298D01*
X169898310Y-75007000D01*
X169322750Y-75007000D01*
X169164000Y-75165750D01*
X169164000Y-76025000D01*
X169184000Y-76025000D01*
X169184000Y-76279000D01*
X169164000Y-76279000D01*
X169164000Y-76299000D01*
X168910000Y-76299000D01*
X168910000Y-76279000D01*
X167825750Y-76279000D01*
X167667000Y-76437750D01*
X167667000Y-76788309D01*
X167738869Y-76961816D01*
X167703843Y-77014235D01*
X167654560Y-77262000D01*
X167654560Y-78158638D01*
X166965028Y-78848171D01*
X166901572Y-78890571D01*
X166859172Y-78954027D01*
X166859171Y-78954028D01*
X166796763Y-79047429D01*
X166733597Y-79141963D01*
X166689500Y-79363648D01*
X166689500Y-79363653D01*
X166674612Y-79438500D01*
X166689500Y-79513347D01*
X166689500Y-80211851D01*
X166689501Y-80211856D01*
X166689500Y-85346698D01*
X166584027Y-85452171D01*
X166584028Y-85452171D01*
X166139530Y-85896669D01*
X166139527Y-85896671D01*
X165422199Y-86614000D01*
X157224000Y-86614000D01*
X157224000Y-84086996D01*
X159201000Y-84086996D01*
X159201000Y-84817004D01*
X159480362Y-85491444D01*
X159996556Y-86007638D01*
X160670996Y-86287000D01*
X161401004Y-86287000D01*
X162075444Y-86007638D01*
X162591638Y-85491444D01*
X162871000Y-84817004D01*
X162871000Y-84086996D01*
X162591638Y-83412556D01*
X162075444Y-82896362D01*
X161401004Y-82617000D01*
X160670996Y-82617000D01*
X159996556Y-82896362D01*
X159480362Y-83412556D01*
X159201000Y-84086996D01*
X157224000Y-84086996D01*
X157224000Y-75515691D01*
X167667000Y-75515691D01*
X167667000Y-75866250D01*
X167825750Y-76025000D01*
X168910000Y-76025000D01*
X168910000Y-75165750D01*
X168751250Y-75007000D01*
X168175690Y-75007000D01*
X167942301Y-75103673D01*
X167763673Y-75282302D01*
X167667000Y-75515691D01*
X157224000Y-75515691D01*
X157224000Y-68146846D01*
X157238888Y-68071999D01*
X157224000Y-67997152D01*
X157224000Y-67997148D01*
X157179904Y-67775463D01*
X157096432Y-67650538D01*
X157054329Y-67587526D01*
X157054327Y-67587524D01*
X157011929Y-67524071D01*
X156948476Y-67481673D01*
X155744181Y-66277379D01*
X155843809Y-66210809D01*
X155984157Y-66000765D01*
X156033440Y-65753000D01*
X156033440Y-64803000D01*
X155984157Y-64555235D01*
X155843809Y-64345191D01*
X155818081Y-64328000D01*
X155843809Y-64310809D01*
X155984157Y-64100765D01*
X156033440Y-63853000D01*
X156033440Y-62903000D01*
X155984157Y-62655235D01*
X155843809Y-62445191D01*
X155633765Y-62304843D01*
X155386000Y-62255560D01*
X153986000Y-62255560D01*
X153738235Y-62304843D01*
X153528191Y-62445191D01*
X153387843Y-62655235D01*
X153338560Y-62903000D01*
X153338560Y-63248000D01*
X152681451Y-63248000D01*
X152634157Y-63010235D01*
X152493809Y-62800191D01*
X152283765Y-62659843D01*
X152036000Y-62610560D01*
X151442362Y-62610560D01*
X149873322Y-61041521D01*
X149830920Y-60978062D01*
X149579528Y-60810087D01*
X149357843Y-60765991D01*
X149357838Y-60765991D01*
X149282991Y-60751103D01*
X149208144Y-60765991D01*
X129048855Y-60765991D01*
X128974008Y-60751103D01*
X128899161Y-60765991D01*
X128899157Y-60765991D01*
X128817587Y-60782216D01*
X129911804Y-59688000D01*
X153480789Y-59688000D01*
X158285260Y-64492472D01*
X158285260Y-64492472D01*
G37*
X158285260Y-64492472D02*
X158327661Y-64555929D01*
X158579053Y-64723904D01*
X158800738Y-64768000D01*
X158800743Y-64768000D01*
X158875590Y-64782888D01*
X158950437Y-64768000D01*
X163261199Y-64768000D01*
X164107527Y-65614329D01*
X164107530Y-65614331D01*
X169928000Y-71434802D01*
X169928000Y-72210851D01*
X169928001Y-72210856D01*
X169928000Y-75019298D01*
X169898310Y-75007000D01*
X169322750Y-75007000D01*
X169164000Y-75165750D01*
X169164000Y-76025000D01*
X169184000Y-76025000D01*
X169184000Y-76279000D01*
X169164000Y-76279000D01*
X169164000Y-76299000D01*
X168910000Y-76299000D01*
X168910000Y-76279000D01*
X167825750Y-76279000D01*
X167667000Y-76437750D01*
X167667000Y-76788309D01*
X167738869Y-76961816D01*
X167703843Y-77014235D01*
X167654560Y-77262000D01*
X167654560Y-78158638D01*
X166965028Y-78848171D01*
X166901572Y-78890571D01*
X166859172Y-78954027D01*
X166859171Y-78954028D01*
X166796763Y-79047429D01*
X166733597Y-79141963D01*
X166689500Y-79363648D01*
X166689500Y-79363653D01*
X166674612Y-79438500D01*
X166689500Y-79513347D01*
X166689500Y-80211851D01*
X166689501Y-80211856D01*
X166689500Y-85346698D01*
X166584027Y-85452171D01*
X166584028Y-85452171D01*
X166139530Y-85896669D01*
X166139527Y-85896671D01*
X165422199Y-86614000D01*
X157224000Y-86614000D01*
X157224000Y-84086996D01*
X159201000Y-84086996D01*
X159201000Y-84817004D01*
X159480362Y-85491444D01*
X159996556Y-86007638D01*
X160670996Y-86287000D01*
X161401004Y-86287000D01*
X162075444Y-86007638D01*
X162591638Y-85491444D01*
X162871000Y-84817004D01*
X162871000Y-84086996D01*
X162591638Y-83412556D01*
X162075444Y-82896362D01*
X161401004Y-82617000D01*
X160670996Y-82617000D01*
X159996556Y-82896362D01*
X159480362Y-83412556D01*
X159201000Y-84086996D01*
X157224000Y-84086996D01*
X157224000Y-75515691D01*
X167667000Y-75515691D01*
X167667000Y-75866250D01*
X167825750Y-76025000D01*
X168910000Y-76025000D01*
X168910000Y-75165750D01*
X168751250Y-75007000D01*
X168175690Y-75007000D01*
X167942301Y-75103673D01*
X167763673Y-75282302D01*
X167667000Y-75515691D01*
X157224000Y-75515691D01*
X157224000Y-68146846D01*
X157238888Y-68071999D01*
X157224000Y-67997152D01*
X157224000Y-67997148D01*
X157179904Y-67775463D01*
X157096432Y-67650538D01*
X157054329Y-67587526D01*
X157054327Y-67587524D01*
X157011929Y-67524071D01*
X156948476Y-67481673D01*
X155744181Y-66277379D01*
X155843809Y-66210809D01*
X155984157Y-66000765D01*
X156033440Y-65753000D01*
X156033440Y-64803000D01*
X155984157Y-64555235D01*
X155843809Y-64345191D01*
X155818081Y-64328000D01*
X155843809Y-64310809D01*
X155984157Y-64100765D01*
X156033440Y-63853000D01*
X156033440Y-62903000D01*
X155984157Y-62655235D01*
X155843809Y-62445191D01*
X155633765Y-62304843D01*
X155386000Y-62255560D01*
X153986000Y-62255560D01*
X153738235Y-62304843D01*
X153528191Y-62445191D01*
X153387843Y-62655235D01*
X153338560Y-62903000D01*
X153338560Y-63248000D01*
X152681451Y-63248000D01*
X152634157Y-63010235D01*
X152493809Y-62800191D01*
X152283765Y-62659843D01*
X152036000Y-62610560D01*
X151442362Y-62610560D01*
X149873322Y-61041521D01*
X149830920Y-60978062D01*
X149579528Y-60810087D01*
X149357843Y-60765991D01*
X149357838Y-60765991D01*
X149282991Y-60751103D01*
X149208144Y-60765991D01*
X129048855Y-60765991D01*
X128974008Y-60751103D01*
X128899161Y-60765991D01*
X128899157Y-60765991D01*
X128817587Y-60782216D01*
X129911804Y-59688000D01*
X153480789Y-59688000D01*
X158285260Y-64492472D01*
G36*
X143279528Y-71926671D02*
X143216072Y-71969071D01*
X143048096Y-72220463D01*
X143004000Y-72442148D01*
X143004000Y-72442153D01*
X142989112Y-72517000D01*
X143004000Y-72591847D01*
X143004000Y-73077153D01*
X142989112Y-73152000D01*
X143004000Y-73226847D01*
X143004000Y-73226851D01*
X143048096Y-73448536D01*
X143216071Y-73699929D01*
X143279529Y-73742331D01*
X143660527Y-74123329D01*
X143660530Y-74123331D01*
X143812752Y-74275553D01*
X143812752Y-74441447D01*
X143533530Y-74720669D01*
X143470071Y-74763071D01*
X143302096Y-75014464D01*
X143258000Y-75236149D01*
X143258000Y-75236153D01*
X143243112Y-75311000D01*
X143258000Y-75385847D01*
X143258001Y-75975687D01*
X143197383Y-76016191D01*
X143057035Y-76226235D01*
X143007752Y-76474000D01*
X143007752Y-77074000D01*
X143041847Y-77245411D01*
X143020192Y-77297691D01*
X143020192Y-77438250D01*
X143178942Y-77597000D01*
X143294947Y-77597000D01*
X143407427Y-77672157D01*
X143655192Y-77721440D01*
X144502192Y-77721440D01*
X144502192Y-77726560D01*
X143655192Y-77726560D01*
X143407427Y-77775843D01*
X143294947Y-77851000D01*
X143178942Y-77851000D01*
X143020192Y-78009750D01*
X143020192Y-78150309D01*
X143041847Y-78202589D01*
X143007752Y-78374000D01*
X143007752Y-78974000D01*
X143057035Y-79221765D01*
X143197383Y-79431809D01*
X143407427Y-79572157D01*
X143655192Y-79621440D01*
X143893001Y-79621440D01*
X143893000Y-80073172D01*
X143722383Y-80187176D01*
X143582035Y-80397220D01*
X143532752Y-80644985D01*
X143532752Y-81219198D01*
X143513327Y-81172302D01*
X143334699Y-80993673D01*
X143101310Y-80897000D01*
X142525750Y-80897000D01*
X142367000Y-81055750D01*
X142367000Y-81915000D01*
X142387000Y-81915000D01*
X142387000Y-82169000D01*
X142367000Y-82169000D01*
X142367000Y-82189000D01*
X142113000Y-82189000D01*
X142113000Y-82169000D01*
X141028750Y-82169000D01*
X140870000Y-82327750D01*
X140870000Y-82678309D01*
X140941869Y-82851816D01*
X140906843Y-82904235D01*
X140857560Y-83152000D01*
X140857560Y-84029758D01*
X140411632Y-83583831D01*
X140411632Y-81405691D01*
X140870000Y-81405691D01*
X140870000Y-81756250D01*
X141028750Y-81915000D01*
X142113000Y-81915000D01*
X142113000Y-81055750D01*
X141954250Y-80897000D01*
X141378690Y-80897000D01*
X141145301Y-80993673D01*
X140966673Y-81172302D01*
X140870000Y-81405691D01*
X140411632Y-81405691D01*
X140411632Y-80199985D01*
X140362349Y-79952220D01*
X140222001Y-79742176D01*
X140011957Y-79601828D01*
X139764192Y-79552545D01*
X138364192Y-79552545D01*
X138116427Y-79601828D01*
X137906383Y-79742176D01*
X137766035Y-79952220D01*
X137716752Y-80199985D01*
X137716752Y-83759985D01*
X137729935Y-83826263D01*
X137480199Y-84076000D01*
X134856745Y-84076000D01*
X134902349Y-84007750D01*
X134951632Y-83759985D01*
X134951632Y-80627346D01*
X137072973Y-78506006D01*
X137136429Y-78463606D01*
X137216564Y-78343676D01*
X137304404Y-78212215D01*
X137317788Y-78144929D01*
X137348500Y-77990529D01*
X137348500Y-77990525D01*
X137363388Y-77915677D01*
X137348500Y-77840829D01*
X137348500Y-76945735D01*
X138230192Y-76945735D01*
X138230192Y-77786294D01*
X138326865Y-78019683D01*
X138505493Y-78198312D01*
X138738882Y-78294985D01*
X139604442Y-78294985D01*
X139763192Y-78136235D01*
X139763192Y-76786985D01*
X140017192Y-76786985D01*
X140017192Y-78136235D01*
X140175942Y-78294985D01*
X141041502Y-78294985D01*
X141274891Y-78198312D01*
X141453519Y-78019683D01*
X141550192Y-77786294D01*
X141550192Y-76945735D01*
X141391442Y-76786985D01*
X140017192Y-76786985D01*
X139763192Y-76786985D01*
X138388942Y-76786985D01*
X138230192Y-76945735D01*
X137348500Y-76945735D01*
X137348500Y-75689301D01*
X137504125Y-75533676D01*
X138230192Y-75533676D01*
X138230192Y-76374235D01*
X138388942Y-76532985D01*
X139763192Y-76532985D01*
X139763192Y-75183735D01*
X140017192Y-75183735D01*
X140017192Y-76532985D01*
X141391442Y-76532985D01*
X141550192Y-76374235D01*
X141550192Y-75533676D01*
X141453519Y-75300287D01*
X141274891Y-75121658D01*
X141041502Y-75024985D01*
X140175942Y-75024985D01*
X140017192Y-75183735D01*
X139763192Y-75183735D01*
X139604442Y-75024985D01*
X138738882Y-75024985D01*
X138505493Y-75121658D01*
X138326865Y-75300287D01*
X138230192Y-75533676D01*
X137504125Y-75533676D01*
X139330377Y-73707425D01*
X140915192Y-73707425D01*
X141162957Y-73658142D01*
X141373001Y-73517794D01*
X141513349Y-73307750D01*
X141562632Y-73059985D01*
X141562632Y-71880000D01*
X143326199Y-71880000D01*
X143279528Y-71926671D01*
X143279528Y-71926671D01*
G37*
X143279528Y-71926671D02*
X143216072Y-71969071D01*
X143048096Y-72220463D01*
X143004000Y-72442148D01*
X143004000Y-72442153D01*
X142989112Y-72517000D01*
X143004000Y-72591847D01*
X143004000Y-73077153D01*
X142989112Y-73152000D01*
X143004000Y-73226847D01*
X143004000Y-73226851D01*
X143048096Y-73448536D01*
X143216071Y-73699929D01*
X143279529Y-73742331D01*
X143660527Y-74123329D01*
X143660530Y-74123331D01*
X143812752Y-74275553D01*
X143812752Y-74441447D01*
X143533530Y-74720669D01*
X143470071Y-74763071D01*
X143302096Y-75014464D01*
X143258000Y-75236149D01*
X143258000Y-75236153D01*
X143243112Y-75311000D01*
X143258000Y-75385847D01*
X143258001Y-75975687D01*
X143197383Y-76016191D01*
X143057035Y-76226235D01*
X143007752Y-76474000D01*
X143007752Y-77074000D01*
X143041847Y-77245411D01*
X143020192Y-77297691D01*
X143020192Y-77438250D01*
X143178942Y-77597000D01*
X143294947Y-77597000D01*
X143407427Y-77672157D01*
X143655192Y-77721440D01*
X144502192Y-77721440D01*
X144502192Y-77726560D01*
X143655192Y-77726560D01*
X143407427Y-77775843D01*
X143294947Y-77851000D01*
X143178942Y-77851000D01*
X143020192Y-78009750D01*
X143020192Y-78150309D01*
X143041847Y-78202589D01*
X143007752Y-78374000D01*
X143007752Y-78974000D01*
X143057035Y-79221765D01*
X143197383Y-79431809D01*
X143407427Y-79572157D01*
X143655192Y-79621440D01*
X143893001Y-79621440D01*
X143893000Y-80073172D01*
X143722383Y-80187176D01*
X143582035Y-80397220D01*
X143532752Y-80644985D01*
X143532752Y-81219198D01*
X143513327Y-81172302D01*
X143334699Y-80993673D01*
X143101310Y-80897000D01*
X142525750Y-80897000D01*
X142367000Y-81055750D01*
X142367000Y-81915000D01*
X142387000Y-81915000D01*
X142387000Y-82169000D01*
X142367000Y-82169000D01*
X142367000Y-82189000D01*
X142113000Y-82189000D01*
X142113000Y-82169000D01*
X141028750Y-82169000D01*
X140870000Y-82327750D01*
X140870000Y-82678309D01*
X140941869Y-82851816D01*
X140906843Y-82904235D01*
X140857560Y-83152000D01*
X140857560Y-84029758D01*
X140411632Y-83583831D01*
X140411632Y-81405691D01*
X140870000Y-81405691D01*
X140870000Y-81756250D01*
X141028750Y-81915000D01*
X142113000Y-81915000D01*
X142113000Y-81055750D01*
X141954250Y-80897000D01*
X141378690Y-80897000D01*
X141145301Y-80993673D01*
X140966673Y-81172302D01*
X140870000Y-81405691D01*
X140411632Y-81405691D01*
X140411632Y-80199985D01*
X140362349Y-79952220D01*
X140222001Y-79742176D01*
X140011957Y-79601828D01*
X139764192Y-79552545D01*
X138364192Y-79552545D01*
X138116427Y-79601828D01*
X137906383Y-79742176D01*
X137766035Y-79952220D01*
X137716752Y-80199985D01*
X137716752Y-83759985D01*
X137729935Y-83826263D01*
X137480199Y-84076000D01*
X134856745Y-84076000D01*
X134902349Y-84007750D01*
X134951632Y-83759985D01*
X134951632Y-80627346D01*
X137072973Y-78506006D01*
X137136429Y-78463606D01*
X137216564Y-78343676D01*
X137304404Y-78212215D01*
X137317788Y-78144929D01*
X137348500Y-77990529D01*
X137348500Y-77990525D01*
X137363388Y-77915677D01*
X137348500Y-77840829D01*
X137348500Y-76945735D01*
X138230192Y-76945735D01*
X138230192Y-77786294D01*
X138326865Y-78019683D01*
X138505493Y-78198312D01*
X138738882Y-78294985D01*
X139604442Y-78294985D01*
X139763192Y-78136235D01*
X139763192Y-76786985D01*
X140017192Y-76786985D01*
X140017192Y-78136235D01*
X140175942Y-78294985D01*
X141041502Y-78294985D01*
X141274891Y-78198312D01*
X141453519Y-78019683D01*
X141550192Y-77786294D01*
X141550192Y-76945735D01*
X141391442Y-76786985D01*
X140017192Y-76786985D01*
X139763192Y-76786985D01*
X138388942Y-76786985D01*
X138230192Y-76945735D01*
X137348500Y-76945735D01*
X137348500Y-75689301D01*
X137504125Y-75533676D01*
X138230192Y-75533676D01*
X138230192Y-76374235D01*
X138388942Y-76532985D01*
X139763192Y-76532985D01*
X139763192Y-75183735D01*
X140017192Y-75183735D01*
X140017192Y-76532985D01*
X141391442Y-76532985D01*
X141550192Y-76374235D01*
X141550192Y-75533676D01*
X141453519Y-75300287D01*
X141274891Y-75121658D01*
X141041502Y-75024985D01*
X140175942Y-75024985D01*
X140017192Y-75183735D01*
X139763192Y-75183735D01*
X139604442Y-75024985D01*
X138738882Y-75024985D01*
X138505493Y-75121658D01*
X138326865Y-75300287D01*
X138230192Y-75533676D01*
X137504125Y-75533676D01*
X139330377Y-73707425D01*
X140915192Y-73707425D01*
X141162957Y-73658142D01*
X141373001Y-73517794D01*
X141513349Y-73307750D01*
X141562632Y-73059985D01*
X141562632Y-71880000D01*
X143326199Y-71880000D01*
X143279528Y-71926671D01*
G36*
X131483476Y-75938608D02*
X131483479Y-75938610D01*
X132452752Y-76907884D01*
X132452752Y-77684985D01*
X132502035Y-77932750D01*
X132642383Y-78142794D01*
X132852427Y-78283142D01*
X133100192Y-78332425D01*
X135096950Y-78332425D01*
X133876831Y-79552545D01*
X132904192Y-79552545D01*
X132656427Y-79601828D01*
X132446383Y-79742176D01*
X132306035Y-79952220D01*
X132256752Y-80199985D01*
X132256752Y-83759985D01*
X132300941Y-83982138D01*
X131125990Y-82807189D01*
X131125990Y-75581122D01*
X131483476Y-75938608D01*
X131483476Y-75938608D01*
G37*
X131483476Y-75938608D02*
X131483479Y-75938610D01*
X132452752Y-76907884D01*
X132452752Y-77684985D01*
X132502035Y-77932750D01*
X132642383Y-78142794D01*
X132852427Y-78283142D01*
X133100192Y-78332425D01*
X135096950Y-78332425D01*
X133876831Y-79552545D01*
X132904192Y-79552545D01*
X132656427Y-79601828D01*
X132446383Y-79742176D01*
X132306035Y-79952220D01*
X132256752Y-80199985D01*
X132256752Y-83759985D01*
X132300941Y-83982138D01*
X131125990Y-82807189D01*
X131125990Y-75581122D01*
X131483476Y-75938608D01*
G36*
X138217752Y-72670446D02*
X136104028Y-74784171D01*
X136040572Y-74826571D01*
X135998172Y-74890027D01*
X135998171Y-74890028D01*
X135872597Y-75077963D01*
X135849607Y-75193543D01*
X135848349Y-75187220D01*
X135708001Y-74977176D01*
X135497957Y-74836828D01*
X135250192Y-74787545D01*
X133542676Y-74787545D01*
X133088610Y-74333479D01*
X133088608Y-74333476D01*
X132326000Y-73570869D01*
X132326000Y-72445735D01*
X132465192Y-72445735D01*
X132465192Y-73411295D01*
X132561865Y-73644684D01*
X132740494Y-73823312D01*
X132973883Y-73919985D01*
X133889442Y-73919985D01*
X134048192Y-73761235D01*
X134048192Y-72286985D01*
X134302192Y-72286985D01*
X134302192Y-73761235D01*
X134460942Y-73919985D01*
X135376501Y-73919985D01*
X135609890Y-73823312D01*
X135788519Y-73644684D01*
X135885192Y-73411295D01*
X135885192Y-72445735D01*
X135726442Y-72286985D01*
X134302192Y-72286985D01*
X134048192Y-72286985D01*
X132623942Y-72286985D01*
X132465192Y-72445735D01*
X132326000Y-72445735D01*
X132326000Y-72154306D01*
X132535632Y-71944675D01*
X132623942Y-72032985D01*
X134048192Y-72032985D01*
X134048192Y-72012985D01*
X134302192Y-72012985D01*
X134302192Y-72032985D01*
X135726442Y-72032985D01*
X135885192Y-71874235D01*
X135885192Y-71220001D01*
X138217752Y-71220001D01*
X138217752Y-72670446D01*
X138217752Y-72670446D01*
G37*
X138217752Y-72670446D02*
X136104028Y-74784171D01*
X136040572Y-74826571D01*
X135998172Y-74890027D01*
X135998171Y-74890028D01*
X135872597Y-75077963D01*
X135849607Y-75193543D01*
X135848349Y-75187220D01*
X135708001Y-74977176D01*
X135497957Y-74836828D01*
X135250192Y-74787545D01*
X133542676Y-74787545D01*
X133088610Y-74333479D01*
X133088608Y-74333476D01*
X132326000Y-73570869D01*
X132326000Y-72445735D01*
X132465192Y-72445735D01*
X132465192Y-73411295D01*
X132561865Y-73644684D01*
X132740494Y-73823312D01*
X132973883Y-73919985D01*
X133889442Y-73919985D01*
X134048192Y-73761235D01*
X134048192Y-72286985D01*
X134302192Y-72286985D01*
X134302192Y-73761235D01*
X134460942Y-73919985D01*
X135376501Y-73919985D01*
X135609890Y-73823312D01*
X135788519Y-73644684D01*
X135885192Y-73411295D01*
X135885192Y-72445735D01*
X135726442Y-72286985D01*
X134302192Y-72286985D01*
X134048192Y-72286985D01*
X132623942Y-72286985D01*
X132465192Y-72445735D01*
X132326000Y-72445735D01*
X132326000Y-72154306D01*
X132535632Y-71944675D01*
X132623942Y-72032985D01*
X134048192Y-72032985D01*
X134048192Y-72012985D01*
X134302192Y-72012985D01*
X134302192Y-72032985D01*
X135726442Y-72032985D01*
X135885192Y-71874235D01*
X135885192Y-71220001D01*
X138217752Y-71220001D01*
X138217752Y-72670446D01*
G36*
X166169634Y-44045159D02*
X166813579Y-44045159D01*
X166893217Y-44061000D01*
X170344868Y-44061000D01*
X170611479Y-44327611D01*
X170700000Y-44416131D01*
X170700000Y-44471494D01*
X170910853Y-44980540D01*
X171300460Y-45370147D01*
X171809506Y-45581000D01*
X172360494Y-45581000D01*
X172869540Y-45370147D01*
X173227560Y-45012127D01*
X173227560Y-46216000D01*
X173276843Y-46463765D01*
X173417191Y-46673809D01*
X173627235Y-46814157D01*
X173875000Y-46863440D01*
X174940002Y-46863440D01*
X174940001Y-54268008D01*
X174829829Y-54228799D01*
X174279552Y-54256770D01*
X173901077Y-54413540D01*
X173833088Y-54654483D01*
X174625000Y-55446395D01*
X174639143Y-55432253D01*
X174818748Y-55611858D01*
X174804605Y-55626000D01*
X174818748Y-55640143D01*
X174639143Y-55819748D01*
X174625000Y-55805605D01*
X173833088Y-56597517D01*
X173901077Y-56838460D01*
X174050511Y-56891642D01*
X173901077Y-56953540D01*
X173833088Y-57194483D01*
X174625000Y-57986395D01*
X174639143Y-57972253D01*
X174818748Y-58151858D01*
X174804605Y-58166000D01*
X174818748Y-58180143D01*
X174639143Y-58359748D01*
X174625000Y-58345605D01*
X173833088Y-59137517D01*
X173901077Y-59378460D01*
X174067658Y-59437745D01*
X173840460Y-59531853D01*
X173450853Y-59921460D01*
X173240000Y-60430506D01*
X173240000Y-60981494D01*
X173450853Y-61490540D01*
X173819844Y-61859531D01*
X173627235Y-61897843D01*
X173470000Y-62002905D01*
X173470000Y-61700506D01*
X173259147Y-61191460D01*
X172869540Y-60801853D01*
X172638130Y-60706000D01*
X172869540Y-60610147D01*
X173259147Y-60220540D01*
X173470000Y-59711494D01*
X173470000Y-59160506D01*
X173259147Y-58651460D01*
X172869540Y-58261853D01*
X172638130Y-58166000D01*
X172869540Y-58070147D01*
X172978516Y-57961171D01*
X173227799Y-57961171D01*
X173255770Y-58511448D01*
X173412540Y-58889923D01*
X173653483Y-58957912D01*
X174445395Y-58166000D01*
X173653483Y-57374088D01*
X173412540Y-57442077D01*
X173227799Y-57961171D01*
X172978516Y-57961171D01*
X173259147Y-57680540D01*
X173470000Y-57171494D01*
X173470000Y-56620506D01*
X173259147Y-56111460D01*
X172869540Y-55721853D01*
X172638130Y-55626000D01*
X172869540Y-55530147D01*
X172978516Y-55421171D01*
X173227799Y-55421171D01*
X173255770Y-55971448D01*
X173412540Y-56349923D01*
X173653483Y-56417912D01*
X174445395Y-55626000D01*
X173653483Y-54834088D01*
X173412540Y-54902077D01*
X173227799Y-55421171D01*
X172978516Y-55421171D01*
X173259147Y-55140540D01*
X173470000Y-54631494D01*
X173470000Y-54080506D01*
X173259147Y-53571460D01*
X172869540Y-53181853D01*
X172360494Y-52971000D01*
X172305132Y-52971000D01*
X168775613Y-49441482D01*
X168712289Y-49346711D01*
X168336855Y-49095854D01*
X168127498Y-49054211D01*
X167987765Y-48960843D01*
X167740000Y-48911560D01*
X166975692Y-48911560D01*
X166744633Y-48680502D01*
X166744633Y-48102719D01*
X166758884Y-48102719D01*
X166917634Y-47943969D01*
X166917634Y-47084719D01*
X167171634Y-47084719D01*
X167171634Y-47943969D01*
X167330384Y-48102719D01*
X167905944Y-48102719D01*
X168139333Y-48006046D01*
X168317961Y-47827417D01*
X168414634Y-47594028D01*
X168414634Y-47243469D01*
X168255884Y-47084719D01*
X167171634Y-47084719D01*
X166917634Y-47084719D01*
X166897634Y-47084719D01*
X166897634Y-46830719D01*
X166917634Y-46830719D01*
X166917634Y-46810719D01*
X167171634Y-46810719D01*
X167171634Y-46830719D01*
X168255884Y-46830719D01*
X168414634Y-46671969D01*
X168414634Y-46321410D01*
X168342765Y-46147903D01*
X168377791Y-46095484D01*
X168427074Y-45847719D01*
X168427074Y-44827719D01*
X168377791Y-44579954D01*
X168237443Y-44369910D01*
X168027399Y-44229562D01*
X167779634Y-44180279D01*
X166309634Y-44180279D01*
X166230256Y-44196068D01*
X166158350Y-44181765D01*
X166046568Y-44204000D01*
X165715496Y-44269854D01*
X165340062Y-44520711D01*
X165276738Y-44615482D01*
X164886113Y-45006107D01*
X164791345Y-45069429D01*
X164721985Y-45173234D01*
X164540487Y-45444864D01*
X164452398Y-45887718D01*
X164474634Y-45999506D01*
X164474633Y-48021217D01*
X164474633Y-49038850D01*
X164452398Y-49150633D01*
X164515555Y-49468145D01*
X164540487Y-49593487D01*
X164791344Y-49968922D01*
X164886115Y-50032246D01*
X165669660Y-50815792D01*
X165671843Y-50826765D01*
X165706869Y-50879184D01*
X165635000Y-51052691D01*
X165635000Y-51403250D01*
X165793750Y-51562000D01*
X166878000Y-51562000D01*
X166878000Y-51542000D01*
X167132000Y-51542000D01*
X167132000Y-51562000D01*
X167152000Y-51562000D01*
X167152000Y-51816000D01*
X167132000Y-51816000D01*
X167132000Y-52675250D01*
X167290750Y-52834000D01*
X167866310Y-52834000D01*
X168099699Y-52737327D01*
X168278327Y-52558698D01*
X168375000Y-52325309D01*
X168375000Y-52251131D01*
X170700000Y-54576132D01*
X170700000Y-54631494D01*
X170910853Y-55140540D01*
X171300460Y-55530147D01*
X171531870Y-55626000D01*
X171300460Y-55721853D01*
X170910853Y-56111460D01*
X170700000Y-56620506D01*
X170700000Y-57171494D01*
X170910853Y-57680540D01*
X171300460Y-58070147D01*
X171531870Y-58166000D01*
X171300460Y-58261853D01*
X170910853Y-58651460D01*
X170751150Y-59037019D01*
X169766720Y-58052589D01*
X169766720Y-55459503D01*
X169788955Y-55347720D01*
X169700866Y-54904865D01*
X169630032Y-54798855D01*
X169450009Y-54529431D01*
X169355241Y-54466109D01*
X168518711Y-53629580D01*
X168517791Y-53624954D01*
X168377443Y-53414910D01*
X168167399Y-53274562D01*
X167919634Y-53225279D01*
X167773295Y-53225279D01*
X167640000Y-53198765D01*
X167506705Y-53225279D01*
X167138295Y-53225279D01*
X167116783Y-53221000D01*
X163665132Y-53221000D01*
X162750000Y-52305869D01*
X162750000Y-52160588D01*
X162673024Y-51974750D01*
X165635000Y-51974750D01*
X165635000Y-52325309D01*
X165731673Y-52558698D01*
X165910301Y-52737327D01*
X166143690Y-52834000D01*
X166719250Y-52834000D01*
X166878000Y-52675250D01*
X166878000Y-51816000D01*
X165793750Y-51816000D01*
X165635000Y-51974750D01*
X162673024Y-51974750D01*
X162527728Y-51623976D01*
X162425000Y-51521248D01*
X162425000Y-50840752D01*
X162527728Y-50738024D01*
X162750000Y-50201412D01*
X162750000Y-49620588D01*
X162527728Y-49083976D01*
X162117024Y-48673272D01*
X162039113Y-48641000D01*
X162117024Y-48608728D01*
X162527728Y-48198024D01*
X162750000Y-47661412D01*
X162750000Y-47080588D01*
X162527728Y-46543976D01*
X162425000Y-46441248D01*
X162425000Y-45760752D01*
X162527728Y-45658024D01*
X162750000Y-45121412D01*
X162750000Y-44976132D01*
X163718414Y-44007719D01*
X165981408Y-44007719D01*
X166169634Y-44045159D01*
X166169634Y-44045159D01*
G37*
X166169634Y-44045159D02*
X166813579Y-44045159D01*
X166893217Y-44061000D01*
X170344868Y-44061000D01*
X170611479Y-44327611D01*
X170700000Y-44416131D01*
X170700000Y-44471494D01*
X170910853Y-44980540D01*
X171300460Y-45370147D01*
X171809506Y-45581000D01*
X172360494Y-45581000D01*
X172869540Y-45370147D01*
X173227560Y-45012127D01*
X173227560Y-46216000D01*
X173276843Y-46463765D01*
X173417191Y-46673809D01*
X173627235Y-46814157D01*
X173875000Y-46863440D01*
X174940002Y-46863440D01*
X174940001Y-54268008D01*
X174829829Y-54228799D01*
X174279552Y-54256770D01*
X173901077Y-54413540D01*
X173833088Y-54654483D01*
X174625000Y-55446395D01*
X174639143Y-55432253D01*
X174818748Y-55611858D01*
X174804605Y-55626000D01*
X174818748Y-55640143D01*
X174639143Y-55819748D01*
X174625000Y-55805605D01*
X173833088Y-56597517D01*
X173901077Y-56838460D01*
X174050511Y-56891642D01*
X173901077Y-56953540D01*
X173833088Y-57194483D01*
X174625000Y-57986395D01*
X174639143Y-57972253D01*
X174818748Y-58151858D01*
X174804605Y-58166000D01*
X174818748Y-58180143D01*
X174639143Y-58359748D01*
X174625000Y-58345605D01*
X173833088Y-59137517D01*
X173901077Y-59378460D01*
X174067658Y-59437745D01*
X173840460Y-59531853D01*
X173450853Y-59921460D01*
X173240000Y-60430506D01*
X173240000Y-60981494D01*
X173450853Y-61490540D01*
X173819844Y-61859531D01*
X173627235Y-61897843D01*
X173470000Y-62002905D01*
X173470000Y-61700506D01*
X173259147Y-61191460D01*
X172869540Y-60801853D01*
X172638130Y-60706000D01*
X172869540Y-60610147D01*
X173259147Y-60220540D01*
X173470000Y-59711494D01*
X173470000Y-59160506D01*
X173259147Y-58651460D01*
X172869540Y-58261853D01*
X172638130Y-58166000D01*
X172869540Y-58070147D01*
X172978516Y-57961171D01*
X173227799Y-57961171D01*
X173255770Y-58511448D01*
X173412540Y-58889923D01*
X173653483Y-58957912D01*
X174445395Y-58166000D01*
X173653483Y-57374088D01*
X173412540Y-57442077D01*
X173227799Y-57961171D01*
X172978516Y-57961171D01*
X173259147Y-57680540D01*
X173470000Y-57171494D01*
X173470000Y-56620506D01*
X173259147Y-56111460D01*
X172869540Y-55721853D01*
X172638130Y-55626000D01*
X172869540Y-55530147D01*
X172978516Y-55421171D01*
X173227799Y-55421171D01*
X173255770Y-55971448D01*
X173412540Y-56349923D01*
X173653483Y-56417912D01*
X174445395Y-55626000D01*
X173653483Y-54834088D01*
X173412540Y-54902077D01*
X173227799Y-55421171D01*
X172978516Y-55421171D01*
X173259147Y-55140540D01*
X173470000Y-54631494D01*
X173470000Y-54080506D01*
X173259147Y-53571460D01*
X172869540Y-53181853D01*
X172360494Y-52971000D01*
X172305132Y-52971000D01*
X168775613Y-49441482D01*
X168712289Y-49346711D01*
X168336855Y-49095854D01*
X168127498Y-49054211D01*
X167987765Y-48960843D01*
X167740000Y-48911560D01*
X166975692Y-48911560D01*
X166744633Y-48680502D01*
X166744633Y-48102719D01*
X166758884Y-48102719D01*
X166917634Y-47943969D01*
X166917634Y-47084719D01*
X167171634Y-47084719D01*
X167171634Y-47943969D01*
X167330384Y-48102719D01*
X167905944Y-48102719D01*
X168139333Y-48006046D01*
X168317961Y-47827417D01*
X168414634Y-47594028D01*
X168414634Y-47243469D01*
X168255884Y-47084719D01*
X167171634Y-47084719D01*
X166917634Y-47084719D01*
X166897634Y-47084719D01*
X166897634Y-46830719D01*
X166917634Y-46830719D01*
X166917634Y-46810719D01*
X167171634Y-46810719D01*
X167171634Y-46830719D01*
X168255884Y-46830719D01*
X168414634Y-46671969D01*
X168414634Y-46321410D01*
X168342765Y-46147903D01*
X168377791Y-46095484D01*
X168427074Y-45847719D01*
X168427074Y-44827719D01*
X168377791Y-44579954D01*
X168237443Y-44369910D01*
X168027399Y-44229562D01*
X167779634Y-44180279D01*
X166309634Y-44180279D01*
X166230256Y-44196068D01*
X166158350Y-44181765D01*
X166046568Y-44204000D01*
X165715496Y-44269854D01*
X165340062Y-44520711D01*
X165276738Y-44615482D01*
X164886113Y-45006107D01*
X164791345Y-45069429D01*
X164721985Y-45173234D01*
X164540487Y-45444864D01*
X164452398Y-45887718D01*
X164474634Y-45999506D01*
X164474633Y-48021217D01*
X164474633Y-49038850D01*
X164452398Y-49150633D01*
X164515555Y-49468145D01*
X164540487Y-49593487D01*
X164791344Y-49968922D01*
X164886115Y-50032246D01*
X165669660Y-50815792D01*
X165671843Y-50826765D01*
X165706869Y-50879184D01*
X165635000Y-51052691D01*
X165635000Y-51403250D01*
X165793750Y-51562000D01*
X166878000Y-51562000D01*
X166878000Y-51542000D01*
X167132000Y-51542000D01*
X167132000Y-51562000D01*
X167152000Y-51562000D01*
X167152000Y-51816000D01*
X167132000Y-51816000D01*
X167132000Y-52675250D01*
X167290750Y-52834000D01*
X167866310Y-52834000D01*
X168099699Y-52737327D01*
X168278327Y-52558698D01*
X168375000Y-52325309D01*
X168375000Y-52251131D01*
X170700000Y-54576132D01*
X170700000Y-54631494D01*
X170910853Y-55140540D01*
X171300460Y-55530147D01*
X171531870Y-55626000D01*
X171300460Y-55721853D01*
X170910853Y-56111460D01*
X170700000Y-56620506D01*
X170700000Y-57171494D01*
X170910853Y-57680540D01*
X171300460Y-58070147D01*
X171531870Y-58166000D01*
X171300460Y-58261853D01*
X170910853Y-58651460D01*
X170751150Y-59037019D01*
X169766720Y-58052589D01*
X169766720Y-55459503D01*
X169788955Y-55347720D01*
X169700866Y-54904865D01*
X169630032Y-54798855D01*
X169450009Y-54529431D01*
X169355241Y-54466109D01*
X168518711Y-53629580D01*
X168517791Y-53624954D01*
X168377443Y-53414910D01*
X168167399Y-53274562D01*
X167919634Y-53225279D01*
X167773295Y-53225279D01*
X167640000Y-53198765D01*
X167506705Y-53225279D01*
X167138295Y-53225279D01*
X167116783Y-53221000D01*
X163665132Y-53221000D01*
X162750000Y-52305869D01*
X162750000Y-52160588D01*
X162673024Y-51974750D01*
X165635000Y-51974750D01*
X165635000Y-52325309D01*
X165731673Y-52558698D01*
X165910301Y-52737327D01*
X166143690Y-52834000D01*
X166719250Y-52834000D01*
X166878000Y-52675250D01*
X166878000Y-51816000D01*
X165793750Y-51816000D01*
X165635000Y-51974750D01*
X162673024Y-51974750D01*
X162527728Y-51623976D01*
X162425000Y-51521248D01*
X162425000Y-50840752D01*
X162527728Y-50738024D01*
X162750000Y-50201412D01*
X162750000Y-49620588D01*
X162527728Y-49083976D01*
X162117024Y-48673272D01*
X162039113Y-48641000D01*
X162117024Y-48608728D01*
X162527728Y-48198024D01*
X162750000Y-47661412D01*
X162750000Y-47080588D01*
X162527728Y-46543976D01*
X162425000Y-46441248D01*
X162425000Y-45760752D01*
X162527728Y-45658024D01*
X162750000Y-45121412D01*
X162750000Y-44976132D01*
X163718414Y-44007719D01*
X165981408Y-44007719D01*
X166169634Y-44045159D01*
G36*
X174799223Y-36450355D02*
X174279552Y-36476770D01*
X173901077Y-36633540D01*
X173833088Y-36874483D01*
X174625000Y-37666395D01*
X174639143Y-37652253D01*
X174818748Y-37831858D01*
X174804605Y-37846000D01*
X174818748Y-37860143D01*
X174639143Y-38039748D01*
X174625000Y-38025605D01*
X173833088Y-38817517D01*
X173901077Y-39058460D01*
X174050511Y-39111642D01*
X173901077Y-39173540D01*
X173833088Y-39414483D01*
X174625000Y-40206395D01*
X174639143Y-40192253D01*
X174818748Y-40371858D01*
X174804605Y-40386000D01*
X174818748Y-40400143D01*
X174639143Y-40579748D01*
X174625000Y-40565605D01*
X173833088Y-41357517D01*
X173901077Y-41598460D01*
X174067658Y-41657745D01*
X173840460Y-41751853D01*
X173450853Y-42141460D01*
X173240000Y-42650506D01*
X173240000Y-43201494D01*
X173450853Y-43710540D01*
X173819844Y-44079531D01*
X173627235Y-44117843D01*
X173470000Y-44222905D01*
X173470000Y-43920506D01*
X173259147Y-43411460D01*
X172869540Y-43021853D01*
X172638130Y-42926000D01*
X172869540Y-42830147D01*
X173259147Y-42440540D01*
X173470000Y-41931494D01*
X173470000Y-41380506D01*
X173259147Y-40871460D01*
X172869540Y-40481853D01*
X172638130Y-40386000D01*
X172869540Y-40290147D01*
X172978516Y-40181171D01*
X173227799Y-40181171D01*
X173255770Y-40731448D01*
X173412540Y-41109923D01*
X173653483Y-41177912D01*
X174445395Y-40386000D01*
X173653483Y-39594088D01*
X173412540Y-39662077D01*
X173227799Y-40181171D01*
X172978516Y-40181171D01*
X173259147Y-39900540D01*
X173470000Y-39391494D01*
X173470000Y-38840506D01*
X173259147Y-38331460D01*
X172869540Y-37941853D01*
X172638130Y-37846000D01*
X172869540Y-37750147D01*
X172978516Y-37641171D01*
X173227799Y-37641171D01*
X173255770Y-38191448D01*
X173412540Y-38569923D01*
X173653483Y-38637912D01*
X174445395Y-37846000D01*
X173653483Y-37054088D01*
X173412540Y-37122077D01*
X173227799Y-37641171D01*
X172978516Y-37641171D01*
X173259147Y-37360540D01*
X173470000Y-36851494D01*
X173470000Y-36300506D01*
X173453636Y-36260999D01*
X174609868Y-36260999D01*
X174799223Y-36450355D01*
X174799223Y-36450355D01*
G37*
X174799223Y-36450355D02*
X174279552Y-36476770D01*
X173901077Y-36633540D01*
X173833088Y-36874483D01*
X174625000Y-37666395D01*
X174639143Y-37652253D01*
X174818748Y-37831858D01*
X174804605Y-37846000D01*
X174818748Y-37860143D01*
X174639143Y-38039748D01*
X174625000Y-38025605D01*
X173833088Y-38817517D01*
X173901077Y-39058460D01*
X174050511Y-39111642D01*
X173901077Y-39173540D01*
X173833088Y-39414483D01*
X174625000Y-40206395D01*
X174639143Y-40192253D01*
X174818748Y-40371858D01*
X174804605Y-40386000D01*
X174818748Y-40400143D01*
X174639143Y-40579748D01*
X174625000Y-40565605D01*
X173833088Y-41357517D01*
X173901077Y-41598460D01*
X174067658Y-41657745D01*
X173840460Y-41751853D01*
X173450853Y-42141460D01*
X173240000Y-42650506D01*
X173240000Y-43201494D01*
X173450853Y-43710540D01*
X173819844Y-44079531D01*
X173627235Y-44117843D01*
X173470000Y-44222905D01*
X173470000Y-43920506D01*
X173259147Y-43411460D01*
X172869540Y-43021853D01*
X172638130Y-42926000D01*
X172869540Y-42830147D01*
X173259147Y-42440540D01*
X173470000Y-41931494D01*
X173470000Y-41380506D01*
X173259147Y-40871460D01*
X172869540Y-40481853D01*
X172638130Y-40386000D01*
X172869540Y-40290147D01*
X172978516Y-40181171D01*
X173227799Y-40181171D01*
X173255770Y-40731448D01*
X173412540Y-41109923D01*
X173653483Y-41177912D01*
X174445395Y-40386000D01*
X173653483Y-39594088D01*
X173412540Y-39662077D01*
X173227799Y-40181171D01*
X172978516Y-40181171D01*
X173259147Y-39900540D01*
X173470000Y-39391494D01*
X173470000Y-38840506D01*
X173259147Y-38331460D01*
X172869540Y-37941853D01*
X172638130Y-37846000D01*
X172869540Y-37750147D01*
X172978516Y-37641171D01*
X173227799Y-37641171D01*
X173255770Y-38191448D01*
X173412540Y-38569923D01*
X173653483Y-38637912D01*
X174445395Y-37846000D01*
X173653483Y-37054088D01*
X173412540Y-37122077D01*
X173227799Y-37641171D01*
X172978516Y-37641171D01*
X173259147Y-37360540D01*
X173470000Y-36851494D01*
X173470000Y-36300506D01*
X173453636Y-36260999D01*
X174609868Y-36260999D01*
X174799223Y-36450355D01*
G04 #@! TO.N,GNDS*
G36*
X169073000Y-89147699D02*
X169535051Y-90263189D01*
X170388811Y-91116949D01*
X171504301Y-91579000D01*
X172711699Y-91579000D01*
X173827189Y-91116949D01*
X174680949Y-90263189D01*
X175143000Y-89147699D01*
X175143000Y-88265000D01*
X189155001Y-88265000D01*
X189155001Y-124385000D01*
X153033393Y-124385000D01*
X153018689Y-119054616D01*
X184000608Y-119054616D01*
X184005973Y-119737613D01*
X184232282Y-120382048D01*
X184655134Y-120918433D01*
X185228932Y-121288930D01*
X185891805Y-121453588D01*
X186572275Y-121394653D01*
X187196967Y-121118479D01*
X187698522Y-120654847D01*
X188022858Y-120053748D01*
X188135000Y-119380000D01*
X188134743Y-119347329D01*
X188012032Y-118675425D01*
X187678295Y-118079495D01*
X187169520Y-117623798D01*
X186540566Y-117357471D01*
X185859255Y-117309231D01*
X185199050Y-117484281D01*
X184631142Y-117863745D01*
X184216767Y-118406706D01*
X184000608Y-119054616D01*
X153018689Y-119054616D01*
X153003951Y-113712174D01*
X153036462Y-113712174D01*
X153195212Y-113553424D01*
X153195212Y-112469174D01*
X153449212Y-112469174D01*
X153449212Y-113553424D01*
X153607962Y-113712174D01*
X153958521Y-113712174D01*
X154191910Y-113615501D01*
X154370539Y-113436873D01*
X154467212Y-113203484D01*
X154467212Y-112627924D01*
X154308462Y-112469174D01*
X153449212Y-112469174D01*
X153195212Y-112469174D01*
X153175212Y-112469174D01*
X153175212Y-112215174D01*
X153195212Y-112215174D01*
X153195212Y-112195174D01*
X153449212Y-112195174D01*
X153449212Y-112215174D01*
X154308462Y-112215174D01*
X154467212Y-112056424D01*
X154467212Y-111561977D01*
X154491439Y-111537750D01*
X157584000Y-111537750D01*
X157584000Y-112453309D01*
X157680673Y-112686698D01*
X157859301Y-112865327D01*
X158092690Y-112962000D01*
X159058250Y-112962000D01*
X159217000Y-112803250D01*
X159217000Y-111379000D01*
X159471000Y-111379000D01*
X159471000Y-112803250D01*
X159629750Y-112962000D01*
X160595310Y-112962000D01*
X160828699Y-112865327D01*
X161007327Y-112686698D01*
X161104000Y-112453309D01*
X161104000Y-111537750D01*
X160945250Y-111379000D01*
X159471000Y-111379000D01*
X159217000Y-111379000D01*
X157742750Y-111379000D01*
X157584000Y-111537750D01*
X154491439Y-111537750D01*
X155978498Y-110050691D01*
X157584000Y-110050691D01*
X157584000Y-110966250D01*
X157742750Y-111125000D01*
X159217000Y-111125000D01*
X159217000Y-109700750D01*
X159471000Y-109700750D01*
X159471000Y-111125000D01*
X160945250Y-111125000D01*
X161104000Y-110966250D01*
X161104000Y-110050691D01*
X161007327Y-109817302D01*
X160828699Y-109638673D01*
X160595310Y-109542000D01*
X159629750Y-109542000D01*
X159471000Y-109700750D01*
X159217000Y-109700750D01*
X159058250Y-109542000D01*
X158092690Y-109542000D01*
X157859301Y-109638673D01*
X157680673Y-109817302D01*
X157584000Y-110050691D01*
X155978498Y-110050691D01*
X158845352Y-107183838D01*
X158898385Y-107311872D01*
X159077013Y-107490501D01*
X159310402Y-107587174D01*
X160113462Y-107587174D01*
X160272212Y-107428424D01*
X160272212Y-106754174D01*
X160526212Y-106754174D01*
X160526212Y-107428424D01*
X160684962Y-107587174D01*
X161488022Y-107587174D01*
X161721411Y-107490501D01*
X161900039Y-107311872D01*
X161996712Y-107078483D01*
X161996712Y-106912924D01*
X161837962Y-106754174D01*
X160526212Y-106754174D01*
X160272212Y-106754174D01*
X160252212Y-106754174D01*
X160252212Y-106500174D01*
X160272212Y-106500174D01*
X160272212Y-106480174D01*
X160526212Y-106480174D01*
X160526212Y-106500174D01*
X161837962Y-106500174D01*
X161996712Y-106341424D01*
X161996712Y-106175865D01*
X161919729Y-105990012D01*
X161959869Y-105929939D01*
X162009152Y-105682174D01*
X162009152Y-105032174D01*
X161959869Y-104784409D01*
X161918285Y-104722174D01*
X161929712Y-104705072D01*
X162819491Y-105594852D01*
X162819491Y-106317490D01*
X162868774Y-106565255D01*
X163009122Y-106775299D01*
X163219166Y-106915647D01*
X163466931Y-106964930D01*
X164594000Y-106964930D01*
X164594001Y-109413196D01*
X164477637Y-109529560D01*
X162619000Y-109529560D01*
X162371235Y-109578843D01*
X162161191Y-109719191D01*
X162020843Y-109929235D01*
X161971560Y-110177000D01*
X161971560Y-112327000D01*
X162020843Y-112574765D01*
X162161191Y-112784809D01*
X162371235Y-112925157D01*
X162619000Y-112974440D01*
X164869000Y-112974440D01*
X165040630Y-112940301D01*
X169073000Y-112940301D01*
X169073000Y-114147699D01*
X169535051Y-115263189D01*
X170388811Y-116116949D01*
X171504301Y-116579000D01*
X172711699Y-116579000D01*
X173827189Y-116116949D01*
X174680949Y-115263189D01*
X175143000Y-114147699D01*
X175143000Y-112940301D01*
X174680949Y-111824811D01*
X173827189Y-110971051D01*
X172711699Y-110509000D01*
X171504301Y-110509000D01*
X170388811Y-110971051D01*
X169535051Y-111824811D01*
X169073000Y-112940301D01*
X165040630Y-112940301D01*
X165116765Y-112925157D01*
X165326809Y-112784809D01*
X165467157Y-112574765D01*
X165516440Y-112327000D01*
X165516440Y-110640362D01*
X165838476Y-110318327D01*
X165901929Y-110275929D01*
X165944327Y-110212476D01*
X165944329Y-110212474D01*
X166069903Y-110024538D01*
X166069904Y-110024537D01*
X166114000Y-109802852D01*
X166114000Y-109802848D01*
X166128888Y-109728001D01*
X166114000Y-109653154D01*
X166114000Y-107555517D01*
X169896088Y-107555517D01*
X169964077Y-107796460D01*
X170483171Y-107981201D01*
X171033448Y-107953230D01*
X171411923Y-107796460D01*
X171479912Y-107555517D01*
X170688000Y-106763605D01*
X169896088Y-107555517D01*
X166114000Y-107555517D01*
X166114000Y-106379171D01*
X169290799Y-106379171D01*
X169318770Y-106929448D01*
X169475540Y-107307923D01*
X169716483Y-107375912D01*
X170508395Y-106584000D01*
X170867605Y-106584000D01*
X171659517Y-107375912D01*
X171900460Y-107307923D01*
X172085201Y-106788829D01*
X172057230Y-106238552D01*
X171900460Y-105860077D01*
X171659517Y-105792088D01*
X170867605Y-106584000D01*
X170508395Y-106584000D01*
X169716483Y-105792088D01*
X169475540Y-105860077D01*
X169290799Y-106379171D01*
X166114000Y-106379171D01*
X166114000Y-105094403D01*
X166128888Y-105019556D01*
X166114000Y-104944709D01*
X166114000Y-104944705D01*
X166069904Y-104723020D01*
X165901929Y-104471628D01*
X165838473Y-104429228D01*
X165564371Y-104155126D01*
X165564371Y-103757000D01*
X168581153Y-103757000D01*
X168656000Y-103771888D01*
X168730847Y-103757000D01*
X168730852Y-103757000D01*
X168952537Y-103712904D01*
X169203929Y-103544929D01*
X169246331Y-103481470D01*
X169383401Y-103344400D01*
X169303000Y-103538506D01*
X169303000Y-104089494D01*
X169513853Y-104598540D01*
X169903460Y-104988147D01*
X170412506Y-105199000D01*
X170652797Y-105199000D01*
X170342552Y-105214770D01*
X169964077Y-105371540D01*
X169896088Y-105612483D01*
X170688000Y-106404395D01*
X171479912Y-105612483D01*
X171411923Y-105371540D01*
X170927112Y-105199000D01*
X170963494Y-105199000D01*
X171472540Y-104988147D01*
X171862147Y-104598540D01*
X172073000Y-104089494D01*
X172073000Y-103538506D01*
X172062835Y-103513967D01*
X172358558Y-103218245D01*
X172743460Y-103603147D01*
X173252506Y-103814000D01*
X172743460Y-104024853D01*
X172353853Y-104414460D01*
X172143000Y-104923506D01*
X172143000Y-105474494D01*
X172353853Y-105983540D01*
X172743460Y-106373147D01*
X173252506Y-106584000D01*
X173803494Y-106584000D01*
X174312540Y-106373147D01*
X174702147Y-105983540D01*
X174913000Y-105474494D01*
X174913000Y-104923506D01*
X174702147Y-104414460D01*
X174312540Y-104024853D01*
X173803494Y-103814000D01*
X174312540Y-103603147D01*
X174702147Y-103213540D01*
X174913000Y-102704494D01*
X174913000Y-102153506D01*
X174702147Y-101644460D01*
X174312540Y-101254853D01*
X174288000Y-101244688D01*
X174288000Y-100843312D01*
X174312540Y-100833147D01*
X174702147Y-100443540D01*
X174913000Y-99934494D01*
X174913000Y-99383506D01*
X174702147Y-98874460D01*
X174312540Y-98484853D01*
X173803494Y-98274000D01*
X174312540Y-98063147D01*
X174702147Y-97673540D01*
X174913000Y-97164494D01*
X174913000Y-96613506D01*
X174702147Y-96104460D01*
X174312540Y-95714853D01*
X173803494Y-95504000D01*
X173252506Y-95504000D01*
X173231856Y-95512553D01*
X172738831Y-95019530D01*
X172696429Y-94956071D01*
X172445037Y-94788096D01*
X172223352Y-94744000D01*
X172223347Y-94744000D01*
X172148500Y-94729112D01*
X172073653Y-94744000D01*
X171872312Y-94744000D01*
X171862147Y-94719460D01*
X171472540Y-94329853D01*
X170963494Y-94119000D01*
X170412506Y-94119000D01*
X169903460Y-94329853D01*
X169513853Y-94719460D01*
X169303000Y-95228506D01*
X169303000Y-95779494D01*
X169513853Y-96288540D01*
X169903460Y-96678147D01*
X170412506Y-96889000D01*
X169903460Y-97099853D01*
X169853058Y-97150255D01*
X167214331Y-94511530D01*
X167214329Y-94511527D01*
X165182331Y-92479530D01*
X165139929Y-92416071D01*
X164961450Y-92296815D01*
X164974699Y-92291327D01*
X165153327Y-92112698D01*
X165250000Y-91879309D01*
X165250000Y-90963750D01*
X165091250Y-90805000D01*
X163617000Y-90805000D01*
X163617000Y-90825000D01*
X163363000Y-90825000D01*
X163363000Y-90805000D01*
X161888750Y-90805000D01*
X161730000Y-90963750D01*
X161730000Y-91879309D01*
X161826673Y-92112698D01*
X161917974Y-92204000D01*
X160677359Y-92204000D01*
X160813157Y-92000765D01*
X160862440Y-91753000D01*
X160862440Y-89603000D01*
X160813157Y-89355235D01*
X160672809Y-89145191D01*
X160596212Y-89094010D01*
X161975964Y-89094010D01*
X161826673Y-89243302D01*
X161730000Y-89476691D01*
X161730000Y-90392250D01*
X161888750Y-90551000D01*
X163363000Y-90551000D01*
X163363000Y-90531000D01*
X163617000Y-90531000D01*
X163617000Y-90551000D01*
X165091250Y-90551000D01*
X165250000Y-90392250D01*
X165250000Y-89476691D01*
X165153327Y-89243302D01*
X164975104Y-89065078D01*
X165079037Y-89044404D01*
X165330429Y-88876429D01*
X165372831Y-88812970D01*
X165920802Y-88265000D01*
X169073000Y-88265000D01*
X169073000Y-89147699D01*
X169073000Y-89147699D01*
G37*
X169073000Y-89147699D02*
X169535051Y-90263189D01*
X170388811Y-91116949D01*
X171504301Y-91579000D01*
X172711699Y-91579000D01*
X173827189Y-91116949D01*
X174680949Y-90263189D01*
X175143000Y-89147699D01*
X175143000Y-88265000D01*
X189155001Y-88265000D01*
X189155001Y-124385000D01*
X153033393Y-124385000D01*
X153018689Y-119054616D01*
X184000608Y-119054616D01*
X184005973Y-119737613D01*
X184232282Y-120382048D01*
X184655134Y-120918433D01*
X185228932Y-121288930D01*
X185891805Y-121453588D01*
X186572275Y-121394653D01*
X187196967Y-121118479D01*
X187698522Y-120654847D01*
X188022858Y-120053748D01*
X188135000Y-119380000D01*
X188134743Y-119347329D01*
X188012032Y-118675425D01*
X187678295Y-118079495D01*
X187169520Y-117623798D01*
X186540566Y-117357471D01*
X185859255Y-117309231D01*
X185199050Y-117484281D01*
X184631142Y-117863745D01*
X184216767Y-118406706D01*
X184000608Y-119054616D01*
X153018689Y-119054616D01*
X153003951Y-113712174D01*
X153036462Y-113712174D01*
X153195212Y-113553424D01*
X153195212Y-112469174D01*
X153449212Y-112469174D01*
X153449212Y-113553424D01*
X153607962Y-113712174D01*
X153958521Y-113712174D01*
X154191910Y-113615501D01*
X154370539Y-113436873D01*
X154467212Y-113203484D01*
X154467212Y-112627924D01*
X154308462Y-112469174D01*
X153449212Y-112469174D01*
X153195212Y-112469174D01*
X153175212Y-112469174D01*
X153175212Y-112215174D01*
X153195212Y-112215174D01*
X153195212Y-112195174D01*
X153449212Y-112195174D01*
X153449212Y-112215174D01*
X154308462Y-112215174D01*
X154467212Y-112056424D01*
X154467212Y-111561977D01*
X154491439Y-111537750D01*
X157584000Y-111537750D01*
X157584000Y-112453309D01*
X157680673Y-112686698D01*
X157859301Y-112865327D01*
X158092690Y-112962000D01*
X159058250Y-112962000D01*
X159217000Y-112803250D01*
X159217000Y-111379000D01*
X159471000Y-111379000D01*
X159471000Y-112803250D01*
X159629750Y-112962000D01*
X160595310Y-112962000D01*
X160828699Y-112865327D01*
X161007327Y-112686698D01*
X161104000Y-112453309D01*
X161104000Y-111537750D01*
X160945250Y-111379000D01*
X159471000Y-111379000D01*
X159217000Y-111379000D01*
X157742750Y-111379000D01*
X157584000Y-111537750D01*
X154491439Y-111537750D01*
X155978498Y-110050691D01*
X157584000Y-110050691D01*
X157584000Y-110966250D01*
X157742750Y-111125000D01*
X159217000Y-111125000D01*
X159217000Y-109700750D01*
X159471000Y-109700750D01*
X159471000Y-111125000D01*
X160945250Y-111125000D01*
X161104000Y-110966250D01*
X161104000Y-110050691D01*
X161007327Y-109817302D01*
X160828699Y-109638673D01*
X160595310Y-109542000D01*
X159629750Y-109542000D01*
X159471000Y-109700750D01*
X159217000Y-109700750D01*
X159058250Y-109542000D01*
X158092690Y-109542000D01*
X157859301Y-109638673D01*
X157680673Y-109817302D01*
X157584000Y-110050691D01*
X155978498Y-110050691D01*
X158845352Y-107183838D01*
X158898385Y-107311872D01*
X159077013Y-107490501D01*
X159310402Y-107587174D01*
X160113462Y-107587174D01*
X160272212Y-107428424D01*
X160272212Y-106754174D01*
X160526212Y-106754174D01*
X160526212Y-107428424D01*
X160684962Y-107587174D01*
X161488022Y-107587174D01*
X161721411Y-107490501D01*
X161900039Y-107311872D01*
X161996712Y-107078483D01*
X161996712Y-106912924D01*
X161837962Y-106754174D01*
X160526212Y-106754174D01*
X160272212Y-106754174D01*
X160252212Y-106754174D01*
X160252212Y-106500174D01*
X160272212Y-106500174D01*
X160272212Y-106480174D01*
X160526212Y-106480174D01*
X160526212Y-106500174D01*
X161837962Y-106500174D01*
X161996712Y-106341424D01*
X161996712Y-106175865D01*
X161919729Y-105990012D01*
X161959869Y-105929939D01*
X162009152Y-105682174D01*
X162009152Y-105032174D01*
X161959869Y-104784409D01*
X161918285Y-104722174D01*
X161929712Y-104705072D01*
X162819491Y-105594852D01*
X162819491Y-106317490D01*
X162868774Y-106565255D01*
X163009122Y-106775299D01*
X163219166Y-106915647D01*
X163466931Y-106964930D01*
X164594000Y-106964930D01*
X164594001Y-109413196D01*
X164477637Y-109529560D01*
X162619000Y-109529560D01*
X162371235Y-109578843D01*
X162161191Y-109719191D01*
X162020843Y-109929235D01*
X161971560Y-110177000D01*
X161971560Y-112327000D01*
X162020843Y-112574765D01*
X162161191Y-112784809D01*
X162371235Y-112925157D01*
X162619000Y-112974440D01*
X164869000Y-112974440D01*
X165040630Y-112940301D01*
X169073000Y-112940301D01*
X169073000Y-114147699D01*
X169535051Y-115263189D01*
X170388811Y-116116949D01*
X171504301Y-116579000D01*
X172711699Y-116579000D01*
X173827189Y-116116949D01*
X174680949Y-115263189D01*
X175143000Y-114147699D01*
X175143000Y-112940301D01*
X174680949Y-111824811D01*
X173827189Y-110971051D01*
X172711699Y-110509000D01*
X171504301Y-110509000D01*
X170388811Y-110971051D01*
X169535051Y-111824811D01*
X169073000Y-112940301D01*
X165040630Y-112940301D01*
X165116765Y-112925157D01*
X165326809Y-112784809D01*
X165467157Y-112574765D01*
X165516440Y-112327000D01*
X165516440Y-110640362D01*
X165838476Y-110318327D01*
X165901929Y-110275929D01*
X165944327Y-110212476D01*
X165944329Y-110212474D01*
X166069903Y-110024538D01*
X166069904Y-110024537D01*
X166114000Y-109802852D01*
X166114000Y-109802848D01*
X166128888Y-109728001D01*
X166114000Y-109653154D01*
X166114000Y-107555517D01*
X169896088Y-107555517D01*
X169964077Y-107796460D01*
X170483171Y-107981201D01*
X171033448Y-107953230D01*
X171411923Y-107796460D01*
X171479912Y-107555517D01*
X170688000Y-106763605D01*
X169896088Y-107555517D01*
X166114000Y-107555517D01*
X166114000Y-106379171D01*
X169290799Y-106379171D01*
X169318770Y-106929448D01*
X169475540Y-107307923D01*
X169716483Y-107375912D01*
X170508395Y-106584000D01*
X170867605Y-106584000D01*
X171659517Y-107375912D01*
X171900460Y-107307923D01*
X172085201Y-106788829D01*
X172057230Y-106238552D01*
X171900460Y-105860077D01*
X171659517Y-105792088D01*
X170867605Y-106584000D01*
X170508395Y-106584000D01*
X169716483Y-105792088D01*
X169475540Y-105860077D01*
X169290799Y-106379171D01*
X166114000Y-106379171D01*
X166114000Y-105094403D01*
X166128888Y-105019556D01*
X166114000Y-104944709D01*
X166114000Y-104944705D01*
X166069904Y-104723020D01*
X165901929Y-104471628D01*
X165838473Y-104429228D01*
X165564371Y-104155126D01*
X165564371Y-103757000D01*
X168581153Y-103757000D01*
X168656000Y-103771888D01*
X168730847Y-103757000D01*
X168730852Y-103757000D01*
X168952537Y-103712904D01*
X169203929Y-103544929D01*
X169246331Y-103481470D01*
X169383401Y-103344400D01*
X169303000Y-103538506D01*
X169303000Y-104089494D01*
X169513853Y-104598540D01*
X169903460Y-104988147D01*
X170412506Y-105199000D01*
X170652797Y-105199000D01*
X170342552Y-105214770D01*
X169964077Y-105371540D01*
X169896088Y-105612483D01*
X170688000Y-106404395D01*
X171479912Y-105612483D01*
X171411923Y-105371540D01*
X170927112Y-105199000D01*
X170963494Y-105199000D01*
X171472540Y-104988147D01*
X171862147Y-104598540D01*
X172073000Y-104089494D01*
X172073000Y-103538506D01*
X172062835Y-103513967D01*
X172358558Y-103218245D01*
X172743460Y-103603147D01*
X173252506Y-103814000D01*
X172743460Y-104024853D01*
X172353853Y-104414460D01*
X172143000Y-104923506D01*
X172143000Y-105474494D01*
X172353853Y-105983540D01*
X172743460Y-106373147D01*
X173252506Y-106584000D01*
X173803494Y-106584000D01*
X174312540Y-106373147D01*
X174702147Y-105983540D01*
X174913000Y-105474494D01*
X174913000Y-104923506D01*
X174702147Y-104414460D01*
X174312540Y-104024853D01*
X173803494Y-103814000D01*
X174312540Y-103603147D01*
X174702147Y-103213540D01*
X174913000Y-102704494D01*
X174913000Y-102153506D01*
X174702147Y-101644460D01*
X174312540Y-101254853D01*
X174288000Y-101244688D01*
X174288000Y-100843312D01*
X174312540Y-100833147D01*
X174702147Y-100443540D01*
X174913000Y-99934494D01*
X174913000Y-99383506D01*
X174702147Y-98874460D01*
X174312540Y-98484853D01*
X173803494Y-98274000D01*
X174312540Y-98063147D01*
X174702147Y-97673540D01*
X174913000Y-97164494D01*
X174913000Y-96613506D01*
X174702147Y-96104460D01*
X174312540Y-95714853D01*
X173803494Y-95504000D01*
X173252506Y-95504000D01*
X173231856Y-95512553D01*
X172738831Y-95019530D01*
X172696429Y-94956071D01*
X172445037Y-94788096D01*
X172223352Y-94744000D01*
X172223347Y-94744000D01*
X172148500Y-94729112D01*
X172073653Y-94744000D01*
X171872312Y-94744000D01*
X171862147Y-94719460D01*
X171472540Y-94329853D01*
X170963494Y-94119000D01*
X170412506Y-94119000D01*
X169903460Y-94329853D01*
X169513853Y-94719460D01*
X169303000Y-95228506D01*
X169303000Y-95779494D01*
X169513853Y-96288540D01*
X169903460Y-96678147D01*
X170412506Y-96889000D01*
X169903460Y-97099853D01*
X169853058Y-97150255D01*
X167214331Y-94511530D01*
X167214329Y-94511527D01*
X165182331Y-92479530D01*
X165139929Y-92416071D01*
X164961450Y-92296815D01*
X164974699Y-92291327D01*
X165153327Y-92112698D01*
X165250000Y-91879309D01*
X165250000Y-90963750D01*
X165091250Y-90805000D01*
X163617000Y-90805000D01*
X163617000Y-90825000D01*
X163363000Y-90825000D01*
X163363000Y-90805000D01*
X161888750Y-90805000D01*
X161730000Y-90963750D01*
X161730000Y-91879309D01*
X161826673Y-92112698D01*
X161917974Y-92204000D01*
X160677359Y-92204000D01*
X160813157Y-92000765D01*
X160862440Y-91753000D01*
X160862440Y-89603000D01*
X160813157Y-89355235D01*
X160672809Y-89145191D01*
X160596212Y-89094010D01*
X161975964Y-89094010D01*
X161826673Y-89243302D01*
X161730000Y-89476691D01*
X161730000Y-90392250D01*
X161888750Y-90551000D01*
X163363000Y-90551000D01*
X163363000Y-90531000D01*
X163617000Y-90531000D01*
X163617000Y-90551000D01*
X165091250Y-90551000D01*
X165250000Y-90392250D01*
X165250000Y-89476691D01*
X165153327Y-89243302D01*
X164975104Y-89065078D01*
X165079037Y-89044404D01*
X165330429Y-88876429D01*
X165372831Y-88812970D01*
X165920802Y-88265000D01*
X169073000Y-88265000D01*
X169073000Y-89147699D01*
G36*
X157507191Y-89145191D02*
X157366843Y-89355235D01*
X157317560Y-89603000D01*
X157317560Y-91753000D01*
X157366843Y-92000765D01*
X157507191Y-92210809D01*
X157717235Y-92351157D01*
X157965000Y-92400440D01*
X158646267Y-92400440D01*
X158710071Y-92495929D01*
X158773530Y-92538331D01*
X158947199Y-92712000D01*
X155762803Y-92712000D01*
X154917213Y-91866412D01*
X154917213Y-91102021D01*
X154932101Y-91027173D01*
X154917213Y-90952325D01*
X154917213Y-90952321D01*
X154873117Y-90730636D01*
X154873117Y-90730635D01*
X154747542Y-90542700D01*
X154705142Y-90479244D01*
X154641685Y-90436844D01*
X154467212Y-90262370D01*
X154467212Y-89767924D01*
X154308462Y-89609174D01*
X153449212Y-89609174D01*
X153449212Y-89629174D01*
X153195212Y-89629174D01*
X153195212Y-89609174D01*
X153175212Y-89609174D01*
X153175212Y-89355174D01*
X153195212Y-89355174D01*
X153195212Y-89335174D01*
X153449212Y-89335174D01*
X153449212Y-89355174D01*
X154308462Y-89355174D01*
X154467212Y-89196424D01*
X154467212Y-89094010D01*
X157583788Y-89094010D01*
X157507191Y-89145191D01*
X157507191Y-89145191D01*
G37*
X157507191Y-89145191D02*
X157366843Y-89355235D01*
X157317560Y-89603000D01*
X157317560Y-91753000D01*
X157366843Y-92000765D01*
X157507191Y-92210809D01*
X157717235Y-92351157D01*
X157965000Y-92400440D01*
X158646267Y-92400440D01*
X158710071Y-92495929D01*
X158773530Y-92538331D01*
X158947199Y-92712000D01*
X155762803Y-92712000D01*
X154917213Y-91866412D01*
X154917213Y-91102021D01*
X154932101Y-91027173D01*
X154917213Y-90952325D01*
X154917213Y-90952321D01*
X154873117Y-90730636D01*
X154873117Y-90730635D01*
X154747542Y-90542700D01*
X154705142Y-90479244D01*
X154641685Y-90436844D01*
X154467212Y-90262370D01*
X154467212Y-89767924D01*
X154308462Y-89609174D01*
X153449212Y-89609174D01*
X153449212Y-89629174D01*
X153195212Y-89629174D01*
X153195212Y-89609174D01*
X153175212Y-89609174D01*
X153175212Y-89355174D01*
X153195212Y-89355174D01*
X153195212Y-89335174D01*
X153449212Y-89335174D01*
X153449212Y-89355174D01*
X154308462Y-89355174D01*
X154467212Y-89196424D01*
X154467212Y-89094010D01*
X157583788Y-89094010D01*
X157507191Y-89145191D01*
G04 #@! TD*
M02*
