M48
; DRILL file {KiCad 5.1.2} date Fr 28 Jun 2019 01:11:15 CEST
; FORMAT={-:-/ absolute / inch / decimal}
; #@! TF.CreationDate,2019-06-28T01:11:15+02:00
; #@! TF.GenerationSoftware,Kicad,Pcbnew,5.1.2
; #@! TF.FileFunction,Plated,1,2,PTH
FMAT,2
INCH
T1C0.0157
T2C0.0287
T3C0.0315
T4C0.0335
T5C0.0472
T6C0.0512
T7C0.0630
%
G90
G05
T1
X3.3366Y-6.3583
X3.376Y-6.3583
X3.4154Y-6.3583
X3.9469Y-6.8898
X3.9961Y-6.8898
X4.0453Y-6.8898
X4.458Y-3.9301
X4.5728Y-6.9341
X4.6555Y-3.9301
X4.7688Y-6.9378
X4.856Y-3.9301
X4.9525Y-6.9496
X5.0572Y-3.9301
X5.2014Y-7.0101
X5.9687Y-5.2342
X5.9829Y-5.1879
X5.9983Y-5.1327
X6.038Y-5.097
X6.9017Y-5.3925
X7.1937Y-5.3013
X7.739Y-5.5838
X7.806Y-3.9201
X7.8855Y-7.0859
X8.006Y-3.9197
X8.063Y-7.0838
X8.2066Y-3.9179
X8.2527Y-7.0777
X8.4062Y-3.9169
X8.4268Y-5.2882
X8.4537Y-7.0797
X10.8181Y-3.5703
X10.8388Y-3.7648
X10.8445Y-4.2194
X10.8514Y-7.1818
X10.8514Y-7.3792
X10.8523Y-3.9584
X10.8566Y-6.9977
X10.9232Y-6.7528
T2
X9.0136Y-5.082
X9.0136Y-5.182
X9.0136Y-5.282
X9.0136Y-5.382
X9.0136Y-5.482
X9.0136Y-5.582
X9.0136Y-5.682
X9.0136Y-5.782
X9.3262Y-5.082
X9.3262Y-5.182
X9.3262Y-5.282
X9.3262Y-5.382
X9.3262Y-5.482
X9.3262Y-5.582
X9.3262Y-5.682
X9.3262Y-5.782
X6.1262Y-5.077
X6.1262Y-5.3896
X6.2262Y-5.077
X6.2262Y-5.3896
X6.3262Y-5.077
X6.3262Y-5.3896
X6.4262Y-5.077
X6.4262Y-5.3896
X6.5262Y-5.077
X6.5262Y-5.3896
X6.6262Y-5.077
X6.6262Y-5.3896
X6.7262Y-5.077
X6.7262Y-5.3896
X6.8262Y-5.077
X6.8262Y-5.3896
X7.7305Y-5.6753
X7.7305Y-5.9878
X7.8305Y-5.6753
X7.8305Y-5.9878
X7.9305Y-5.6753
X7.9305Y-5.9878
X8.0305Y-5.6753
X8.0305Y-5.9878
X8.1305Y-5.6753
X8.1305Y-5.9878
X8.2305Y-5.6753
X8.2305Y-5.9878
X8.3305Y-5.6753
X8.3305Y-5.9878
X8.4305Y-5.6753
X8.4305Y-5.9878
T3
X9.6752Y-4.7933
X9.872Y-4.7933
X8.9791Y-7.0025
X9.0775Y-7.0025
X3.8681Y-3.9764
X3.9665Y-3.9764
X10.8661Y-8.3465
X10.9646Y-8.3465
X8.9091Y-3.93
X9.0075Y-3.93
X3.252Y-5.811
X3.3504Y-5.811
X7.4339Y-5.1115
X7.4339Y-5.3083
X3.7795Y-7.0571
X3.878Y-7.0571
X10.8898Y-2.563
X10.9882Y-2.563
X9.2791Y-4.8175
X9.3775Y-4.8175
X7.5582Y-5.6834
X7.5582Y-5.8803
X7.0669Y-5.1496
X7.1654Y-5.1496
X7.1614Y-5.8268
X7.2598Y-5.8268
T4
X6.0762Y-5.6797
X6.0762Y-5.9868
X6.1762Y-5.6797
X6.1762Y-5.9868
X6.2762Y-5.6797
X6.2762Y-5.9868
X6.3762Y-5.6797
X6.3762Y-5.9868
X6.4762Y-5.6797
X6.4762Y-5.9868
X6.5762Y-5.6797
X6.5762Y-5.9868
X6.6762Y-5.6797
X6.6762Y-5.9868
X6.7762Y-5.6797
X6.7762Y-5.9868
X6.8762Y-5.6797
X6.8762Y-5.9868
X6.0512Y-6.7047
X6.0512Y-7.0118
X6.1512Y-6.7047
X6.1512Y-7.0118
X6.2512Y-6.7047
X6.2512Y-7.0118
X6.3512Y-6.7047
X6.3512Y-7.0118
X6.4512Y-6.7047
X6.4512Y-7.0118
X6.5512Y-6.7047
X6.5512Y-7.0118
X6.6512Y-6.7047
X6.6512Y-7.0118
X6.7512Y-6.7047
X6.7512Y-7.0118
X6.8512Y-6.7047
X6.8512Y-7.0118
X9.6163Y-5.032
X9.6163Y-5.132
X9.6163Y-5.232
X9.6163Y-5.332
X9.6163Y-5.432
X9.6163Y-5.532
X9.6163Y-5.632
X9.6163Y-5.732
X9.6163Y-5.832
X9.9234Y-5.032
X9.9234Y-5.132
X9.9234Y-5.232
X9.9234Y-5.332
X9.9234Y-5.432
X9.9234Y-5.532
X9.9234Y-5.632
X9.9234Y-5.732
X9.9234Y-5.832
X6.0805Y-3.978
X6.0805Y-4.2851
X6.1805Y-3.978
X6.1805Y-4.2851
X6.2805Y-3.978
X6.2805Y-4.2851
X6.3805Y-3.978
X6.3805Y-4.2851
X6.4805Y-3.978
X6.4805Y-4.2851
X6.5805Y-3.978
X6.5805Y-4.2851
X6.6805Y-3.978
X6.6805Y-4.2851
X6.7805Y-3.978
X6.7805Y-4.2851
X6.8805Y-3.978
X6.8805Y-4.2851
X10.6163Y-5.107
X10.6163Y-5.207
X10.6163Y-5.307
X10.6163Y-5.407
X10.6163Y-5.507
X10.6163Y-5.607
X10.6163Y-5.707
X10.6163Y-5.807
X10.6163Y-5.907
X10.9234Y-5.107
X10.9234Y-5.207
X10.9234Y-5.307
X10.9234Y-5.407
X10.9234Y-5.507
X10.9234Y-5.607
X10.9234Y-5.707
X10.9234Y-5.807
X10.9234Y-5.907
X7.6805Y-5.078
X7.6805Y-5.3851
X7.7805Y-5.078
X7.7805Y-5.3851
X7.8805Y-5.078
X7.8805Y-5.3851
X7.9805Y-5.078
X7.9805Y-5.3851
X8.0805Y-5.078
X8.0805Y-5.3851
X8.1805Y-5.078
X8.1805Y-5.3851
X8.2805Y-5.078
X8.2805Y-5.3851
X8.3805Y-5.078
X8.3805Y-5.3851
X8.4805Y-5.078
X8.4805Y-5.3851
T5
X9.01Y-4.365
X9.11Y-4.365
X9.21Y-4.365
X9.31Y-4.365
X9.41Y-4.365
X9.51Y-4.365
X9.61Y-4.365
X9.71Y-4.365
X8.9775Y-6.06
X8.9775Y-6.16
X8.9775Y-6.26
X8.9775Y-6.36
X8.9775Y-6.46
X4.9975Y-5.69
X5.0975Y-5.69
X5.1975Y-5.69
X5.2975Y-5.69
X5.3975Y-5.69
X5.4975Y-5.69
X5.5975Y-5.69
X5.6975Y-5.69
X3.2797Y-5.0531
X3.2797Y-5.1531
X3.2797Y-5.2531
X3.2797Y-5.3531
X9.5825Y-6.16
X9.5825Y-6.26
X9.5825Y-6.36
X9.5825Y-6.46
X9.5825Y-6.56
X9.5825Y-6.66
X9.5825Y-6.76
X9.5825Y-6.86
T6
X11.2773Y-5.082
X11.3561Y-4.8458
X11.3561Y-5.3182
X11.8364Y-4.8458
X11.8364Y-5.3182
X3.3443Y-3.065
X3.3443Y-3.5453
X3.5805Y-3.6241
X3.8167Y-3.065
X3.8167Y-3.5453
X11.2773Y-6.732
X11.3561Y-6.4958
X11.3561Y-6.9682
X11.8364Y-6.4958
X11.8364Y-6.9682
X5.8193Y-3.065
X5.8193Y-3.5453
X6.0555Y-3.6241
X6.2917Y-3.065
X6.2917Y-3.5453
X11.2773Y-4.257
X11.3561Y-4.0208
X11.3561Y-4.4932
X11.8364Y-4.0208
X11.8364Y-4.4932
X4.9943Y-3.065
X4.9943Y-3.5453
X5.2305Y-3.6241
X5.4667Y-3.065
X5.4667Y-3.5453
X9.1193Y-3.065
X9.1193Y-3.5453
X9.3555Y-3.6241
X9.5917Y-3.065
X9.5917Y-3.5453
X4.99Y-7.4445
X4.99Y-7.9248
X5.2262Y-7.3657
X5.4624Y-7.4445
X5.4624Y-7.9248
X3.2512Y-4.8083
X3.252Y-4.7083
X6.64Y-7.4445
X6.64Y-7.9248
X6.8762Y-7.3657
X7.1124Y-7.4445
X7.1124Y-7.9248
X11.2773Y-5.907
X11.3561Y-5.6708
X11.3561Y-6.1432
X11.8364Y-5.6708
X11.8364Y-6.1432
X11.2773Y-8.382
X11.3561Y-8.1458
X11.3561Y-8.6182
X11.8364Y-8.1458
X11.8364Y-8.6182
X4.165Y-7.4445
X4.165Y-7.9248
X4.4012Y-7.3657
X4.6374Y-7.4445
X4.6374Y-7.9248
X7.465Y-7.4445
X7.465Y-7.9248
X7.7012Y-7.3657
X7.9374Y-7.4445
X7.9374Y-7.9248
X3.34Y-7.4445
X3.34Y-7.9248
X3.5762Y-7.3657
X3.8124Y-7.4445
X3.8124Y-7.9248
X11.2773Y-2.607
X11.3561Y-2.3708
X11.3561Y-2.8432
X11.8364Y-2.3708
X11.8364Y-2.8432
X9.115Y-7.4445
X9.115Y-7.9248
X9.3512Y-7.3657
X9.5874Y-7.4445
X9.5874Y-7.9248
X4.1693Y-3.065
X4.1693Y-3.5453
X4.4055Y-3.6241
X4.6417Y-3.065
X4.6417Y-3.5453
X8.2943Y-3.065
X8.2943Y-3.5453
X8.5305Y-3.6241
X8.7667Y-3.065
X8.7667Y-3.5453
X11.2773Y-7.557
X11.3561Y-7.3208
X11.3561Y-7.7932
X11.8364Y-7.3208
X11.8364Y-7.7932
X8.29Y-7.4445
X8.29Y-7.9248
X8.5262Y-7.3657
X8.7624Y-7.4445
X8.7624Y-7.9248
X6.6443Y-3.065
X6.6443Y-3.5453
X6.8805Y-3.6241
X7.1167Y-3.065
X7.1167Y-3.5453
X5.815Y-7.4445
X5.815Y-7.9248
X6.0512Y-7.3657
X6.2874Y-7.4445
X6.2874Y-7.9248
X11.2773Y-3.432
X11.3561Y-3.1958
X11.3561Y-3.6682
X11.8364Y-3.1958
X11.8364Y-3.6682
X7.4693Y-3.065
X7.4693Y-3.5453
X7.7055Y-3.6241
X7.9417Y-3.065
X7.9417Y-3.5453
X3.252Y-6.1662
X3.2531Y-6.2662
T7
X12.3236Y-7.3531
X12.3236Y-7.5531
X12.3236Y-7.7531
X9.1555Y-2.5778
X9.3555Y-2.5778
X9.5555Y-2.5778
X12.3236Y-8.1781
X12.3236Y-8.3781
X12.3236Y-8.5781
X7.5055Y-2.5778
X7.7055Y-2.5778
X7.9055Y-2.5778
X3.7469Y-5.6312
X3.7469Y-6.5209
X6.6762Y-8.412
X6.8762Y-8.412
X7.0762Y-8.412
X5.0262Y-8.412
X5.2262Y-8.412
X5.4262Y-8.412
X5.0305Y-2.5778
X5.2305Y-2.5778
X5.4305Y-2.5778
X12.3236Y-3.2281
X12.3236Y-3.4281
X12.3236Y-3.6281
X5.8555Y-2.5778
X6.0555Y-2.5778
X6.2555Y-2.5778
X4.2055Y-2.5778
X4.4055Y-2.5778
X4.6055Y-2.5778
X12.3236Y-4.0531
X12.3236Y-4.2531
X12.3236Y-4.4531
X3.3805Y-2.5787
X3.5805Y-2.5787
X3.7805Y-2.5787
X7.5012Y-8.412
X7.7012Y-8.412
X7.9012Y-8.412
X9.1512Y-8.412
X9.3512Y-8.412
X9.5512Y-8.412
X3.3762Y-8.412
X3.5762Y-8.412
X3.7762Y-8.412
X5.8512Y-8.412
X6.0512Y-8.412
X6.2512Y-8.412
X12.3236Y-5.7031
X12.3236Y-5.9031
X12.3236Y-6.1031
X12.3236Y-2.4031
X12.3236Y-2.6031
X12.3236Y-2.8031
X4.2012Y-8.412
X4.4012Y-8.412
X4.6012Y-8.412
X12.3236Y-4.8781
X12.3236Y-5.0781
X12.3236Y-5.2781
X8.3305Y-2.5778
X8.5305Y-2.5778
X8.7305Y-2.5778
X8.3262Y-8.412
X8.5262Y-8.412
X8.7262Y-8.412
X12.3236Y-6.5281
X12.3236Y-6.7281
X12.3236Y-6.9281
X6.6805Y-2.5778
X6.8805Y-2.5778
X7.0805Y-2.5778
T0
M30
