M48
; DRILL file {KiCad 5.1.2} date Di 23 Jul 2019 05:15:14 CEST
; FORMAT={-:-/ absolute / inch / decimal}
; #@! TF.CreationDate,2019-07-23T05:15:14+02:00
; #@! TF.GenerationSoftware,Kicad,Pcbnew,5.1.2
; #@! TF.FileFunction,Plated,1,2,PTH
FMAT,2
INCH
T1C0.0157
T2C0.0299
T3C0.0315
T4C0.0394
T5C0.0400
T6C0.0433
T7C0.0472
T8C0.0512
%
G90
G05
T1
X2.7753Y-3.9397
X2.8708Y-2.4227
X2.8723Y-4.1167
X3.0188Y-4.1872
X3.0753Y-4.0197
X3.1383Y-3.6622
X3.2183Y-4.1322
X3.3073Y-4.0452
X3.3413Y-3.9842
X3.4278Y-4.1132
X3.4938Y-2.4397
X3.7888Y-4.2047
X4.0708Y-3.9177
X4.1338Y-2.3417
X4.1458Y-2.1127
X4.4468Y-4.0677
X4.4548Y-3.8707
X4.4568Y-3.9427
X4.4628Y-4.0217
X4.5668Y-3.9777
X4.5668Y-4.0567
X4.5728Y-4.2007
X4.5728Y-4.8347
X4.5738Y-4.9257
X4.6018Y-4.1607
X4.6158Y-4.8357
X4.6178Y-4.9277
X4.6348Y-5.1187
X4.6688Y-4.9187
X4.6748Y-4.8337
X4.7238Y-4.9187
X4.7248Y-4.4637
X4.7348Y-4.7517
X4.7488Y-5.3377
X4.7903Y-3.0622
X4.7918Y-4.0657
X4.7943Y-3.8897
X4.8183Y-3.0287
X4.8603Y-3.1302
X4.8893Y-3.0997
X4.9203Y-2.9307
X4.9893Y-3.0012
X5.1688Y-3.4237
X5.1719Y-3.4891
X5.1782Y-3.5484
X5.2028Y-3.5177
X5.285Y-4.6645
X5.2895Y-4.212
X5.3404Y-4.83
X5.3408Y-5.1433
X5.3424Y-4.9334
X5.3444Y-5.2397
X5.4584Y-4.6876
X5.5483Y-4.2147
X5.5503Y-3.6422
X5.8148Y-3.4267
X5.8574Y-4.6616
X5.9074Y-4.308
X5.9585Y-4.6613
X5.9587Y-4.2896
X6.0193Y-4.4487
X6.0403Y-2.5832
X6.0498Y-4.3957
X6.1028Y-2.9317
X6.1138Y-4.8407
X6.1251Y-3.3445
X6.1938Y-3.4257
X6.2173Y-2.9337
X6.2878Y-3.3292
X6.2893Y-2.8727
X6.3559Y-4.9505
X6.4048Y-5.0137
X6.4788Y-2.6767
X6.4868Y-3.1317
X6.5068Y-2.2687
X6.5428Y-2.7637
X6.5808Y-3.0977
X6.5829Y-4.8223
X6.7218Y-5.1377
X6.7218Y-5.177
X6.7218Y-5.2164
X6.7228Y-4.6027
X6.7228Y-4.642
X6.7228Y-4.6814
X6.7383Y-2.1832
X6.7612Y-5.1377
X6.7612Y-5.177
X6.7612Y-5.2164
X6.7622Y-4.6027
X6.7622Y-4.642
X6.7622Y-4.6814
X6.8005Y-5.1377
X6.8005Y-5.177
X6.8005Y-5.2164
X6.8015Y-4.6027
X6.8015Y-4.642
X6.8015Y-4.6814
X6.8399Y-5.1377
X6.8399Y-5.177
X6.8399Y-5.2164
X6.8409Y-4.6027
X6.8409Y-4.642
X6.8409Y-4.6814
X6.8453Y-3.3312
X6.8708Y-4.9817
X6.8793Y-5.1377
X6.8793Y-5.177
X6.8793Y-5.2164
X6.8803Y-4.6027
X6.8803Y-4.642
X6.8803Y-4.6814
X6.8816Y-3.1075
X6.9187Y-5.1377
X6.9187Y-5.177
X6.9187Y-5.2164
X6.9197Y-4.6027
X6.9197Y-4.642
X6.9197Y-4.6814
X6.9493Y-2.1737
X6.9522Y-3.0371
X6.9534Y-2.9429
X6.958Y-5.1377
X6.958Y-5.177
X6.958Y-5.2164
X6.959Y-4.6027
X6.959Y-4.642
X6.959Y-4.6814
X6.9974Y-5.1377
X6.9974Y-5.177
X6.9974Y-5.2164
X6.9984Y-4.6027
X6.9984Y-4.642
X6.9984Y-4.6814
X7.0053Y-4.1355
X7.0053Y-4.1749
X7.0447Y-4.1355
X7.0447Y-4.1749
X7.0841Y-4.1355
X7.0841Y-4.1749
X7.1038Y-4.0167
X7.1038Y-4.056
X7.1038Y-4.0954
X7.1432Y-4.0167
X7.1432Y-4.056
X7.1432Y-4.0954
T2
X7.1835Y-3.009
X7.1835Y-3.109
X7.1835Y-3.209
X7.1835Y-3.309
X7.2835Y-3.059
X7.2835Y-3.159
X7.2835Y-3.259
X7.2835Y-3.359
X7.1835Y-2.2974
X7.1835Y-2.3974
X7.1835Y-2.4974
X7.1835Y-2.5974
X7.2835Y-2.3474
X7.2835Y-2.4474
X7.2835Y-2.5474
X7.2835Y-2.6474
T3
X5.5421Y-2.0617
X5.6208Y-2.0617
X6.1338Y-2.0562
X6.2125Y-2.0562
X1.9948Y-2.3962
X1.9948Y-2.4962
X1.9948Y-2.5962
X1.9948Y-2.6962
X1.9948Y-2.7962
X1.9948Y-2.8962
X1.9948Y-2.9962
X1.9948Y-3.0962
X1.9948Y-3.1962
X2.2948Y-2.3962
X2.2948Y-2.4962
X2.2948Y-2.5962
X2.2948Y-2.6962
X2.2948Y-2.7962
X2.2948Y-2.8962
X2.2948Y-2.9962
X2.2948Y-3.0962
X2.2948Y-3.1962
T4
X6.147Y-4.5667
X6.3438Y-4.5667
X5.7795Y-4.8432
X5.7795Y-4.9432
X5.7795Y-5.0432
X5.7795Y-5.1432
X5.7795Y-5.2432
X5.7795Y-5.3432
X1.8988Y-3.6402
X1.8988Y-3.7402
X1.9988Y-3.6402
X1.9988Y-3.7402
X2.0988Y-3.6402
X2.0988Y-3.7402
X2.1988Y-3.6402
X2.1988Y-3.7402
X2.2988Y-3.6402
X2.2988Y-3.7402
X2.3988Y-3.6402
X2.3988Y-3.7402
X2.9559Y-4.7413
X3.0559Y-4.7413
X3.1559Y-4.7413
X3.2559Y-4.7413
X3.3559Y-4.7413
X3.4559Y-4.7413
X3.5559Y-4.7413
X3.6559Y-4.7413
T5
X2.8098Y-2.8237
X2.8098Y-3.4237
X2.9098Y-2.8237
X2.9098Y-3.4237
X3.0098Y-2.8237
X3.0098Y-3.4237
X3.1098Y-2.8237
X3.1098Y-3.4237
X3.2098Y-2.8237
X3.2098Y-3.4237
X3.3098Y-2.8237
X3.3098Y-3.4237
X3.4098Y-2.8237
X3.4098Y-3.4237
X3.5098Y-2.8237
X3.5098Y-3.4237
X3.6098Y-2.8237
X3.6098Y-3.4237
X3.7098Y-2.8237
X3.7098Y-3.4237
X3.8098Y-2.8237
X3.8098Y-3.4237
X3.9098Y-2.8237
X3.9098Y-3.4237
X4.0098Y-2.8237
X4.0098Y-3.4237
X4.1098Y-2.8237
X4.1098Y-3.4237
X4.2098Y-2.8237
X4.2098Y-3.4237
X4.3098Y-2.8237
X4.3098Y-3.4237
X4.4098Y-2.8237
X4.4098Y-3.4237
X4.5098Y-2.8237
X4.5098Y-3.4237
X4.5598Y-3.0741
X4.5598Y-3.1741
X4.6098Y-2.8237
X4.6098Y-3.4237
X4.7098Y-2.8237
X4.7118Y-3.4237
T6
X6.7598Y-1.9712
X6.8598Y-1.9712
T7
X3.8838Y-2.3277
X3.9838Y-2.3277
X6.0581Y-4.091
X6.0581Y-4.191
X4.1018Y-4.0387
X4.1018Y-4.1387
X4.1018Y-4.2387
X4.1018Y-4.3387
X4.2438Y-2.3277
X4.3438Y-2.3277
X4.4438Y-2.3277
X3.2678Y-2.3277
X3.3678Y-2.3277
T8
X7.6088Y-4.7938
X7.6088Y-4.9907
X7.6075Y-3.701
X7.6075Y-3.8978
X7.6075Y-4.0947
T0
M30
