G04 #@! TF.GenerationSoftware,KiCad,Pcbnew,5.1.2*
G04 #@! TF.CreationDate,2019-07-21T16:23:33+02:00*
G04 #@! TF.ProjectId,Motor,4d6f746f-722e-46b6-9963-61645f706362,rev?*
G04 #@! TF.SameCoordinates,Original*
G04 #@! TF.FileFunction,Paste,Top*
G04 #@! TF.FilePolarity,Positive*
%FSLAX46Y46*%
G04 Gerber Fmt 4.6, Leading zero omitted, Abs format (unit mm)*
G04 Created by KiCad (PCBNEW 5.1.2) date 2019-07-21 16:23:33*
%MOMM*%
%LPD*%
G04 APERTURE LIST*
%ADD10R,1.310000X0.650000*%
%ADD11R,1.310000X0.600000*%
%ADD12R,0.800000X0.900000*%
%ADD13R,2.300000X3.500000*%
%ADD14R,1.800000X3.500000*%
%ADD15R,0.700000X0.600000*%
%ADD16R,2.450000X5.900000*%
%ADD17C,0.100000*%
%ADD18C,0.950000*%
%ADD19R,0.900000X0.800000*%
%ADD20R,2.200000X1.200000*%
%ADD21R,3.050000X2.750000*%
%ADD22C,1.425000*%
%ADD23R,2.000000X0.600000*%
%ADD24R,2.000000X0.640000*%
%ADD25R,1.550000X0.600000*%
%ADD26R,1.500000X0.600000*%
%ADD27R,0.600000X1.500000*%
%ADD28R,1.560000X0.650000*%
%ADD29R,0.600000X1.550000*%
G04 APERTURE END LIST*
D10*
X168625800Y-79214000D03*
X162935800Y-80484000D03*
X162935800Y-79214000D03*
D11*
X162935800Y-81754000D03*
D10*
X162935800Y-77944000D03*
X168625800Y-77944000D03*
X168625800Y-80484000D03*
X168625800Y-81754000D03*
D12*
X177566440Y-71447440D03*
X175666440Y-71447440D03*
X176616440Y-73447440D03*
D13*
X176525000Y-58218400D03*
X176525000Y-63618400D03*
D14*
X171191000Y-69166400D03*
X171191000Y-64166400D03*
D15*
X152547400Y-63056600D03*
X152547400Y-64456600D03*
D14*
X162720100Y-57615100D03*
X162720100Y-62615100D03*
D16*
X152191800Y-58665400D03*
X146641800Y-58665400D03*
D17*
G36*
X163091779Y-66027444D02*
G01*
X163114834Y-66030863D01*
X163137443Y-66036527D01*
X163159387Y-66044379D01*
X163180457Y-66054344D01*
X163200448Y-66066326D01*
X163219168Y-66080210D01*
X163236438Y-66095862D01*
X163252090Y-66113132D01*
X163265974Y-66131852D01*
X163277956Y-66151843D01*
X163287921Y-66172913D01*
X163295773Y-66194857D01*
X163301437Y-66217466D01*
X163304856Y-66240521D01*
X163306000Y-66263800D01*
X163306000Y-66738800D01*
X163304856Y-66762079D01*
X163301437Y-66785134D01*
X163295773Y-66807743D01*
X163287921Y-66829687D01*
X163277956Y-66850757D01*
X163265974Y-66870748D01*
X163252090Y-66889468D01*
X163236438Y-66906738D01*
X163219168Y-66922390D01*
X163200448Y-66936274D01*
X163180457Y-66948256D01*
X163159387Y-66958221D01*
X163137443Y-66966073D01*
X163114834Y-66971737D01*
X163091779Y-66975156D01*
X163068500Y-66976300D01*
X162493500Y-66976300D01*
X162470221Y-66975156D01*
X162447166Y-66971737D01*
X162424557Y-66966073D01*
X162402613Y-66958221D01*
X162381543Y-66948256D01*
X162361552Y-66936274D01*
X162342832Y-66922390D01*
X162325562Y-66906738D01*
X162309910Y-66889468D01*
X162296026Y-66870748D01*
X162284044Y-66850757D01*
X162274079Y-66829687D01*
X162266227Y-66807743D01*
X162260563Y-66785134D01*
X162257144Y-66762079D01*
X162256000Y-66738800D01*
X162256000Y-66263800D01*
X162257144Y-66240521D01*
X162260563Y-66217466D01*
X162266227Y-66194857D01*
X162274079Y-66172913D01*
X162284044Y-66151843D01*
X162296026Y-66131852D01*
X162309910Y-66113132D01*
X162325562Y-66095862D01*
X162342832Y-66080210D01*
X162361552Y-66066326D01*
X162381543Y-66054344D01*
X162402613Y-66044379D01*
X162424557Y-66036527D01*
X162447166Y-66030863D01*
X162470221Y-66027444D01*
X162493500Y-66026300D01*
X163068500Y-66026300D01*
X163091779Y-66027444D01*
X163091779Y-66027444D01*
G37*
D18*
X162781000Y-66501300D03*
D17*
G36*
X161341779Y-66027444D02*
G01*
X161364834Y-66030863D01*
X161387443Y-66036527D01*
X161409387Y-66044379D01*
X161430457Y-66054344D01*
X161450448Y-66066326D01*
X161469168Y-66080210D01*
X161486438Y-66095862D01*
X161502090Y-66113132D01*
X161515974Y-66131852D01*
X161527956Y-66151843D01*
X161537921Y-66172913D01*
X161545773Y-66194857D01*
X161551437Y-66217466D01*
X161554856Y-66240521D01*
X161556000Y-66263800D01*
X161556000Y-66738800D01*
X161554856Y-66762079D01*
X161551437Y-66785134D01*
X161545773Y-66807743D01*
X161537921Y-66829687D01*
X161527956Y-66850757D01*
X161515974Y-66870748D01*
X161502090Y-66889468D01*
X161486438Y-66906738D01*
X161469168Y-66922390D01*
X161450448Y-66936274D01*
X161430457Y-66948256D01*
X161409387Y-66958221D01*
X161387443Y-66966073D01*
X161364834Y-66971737D01*
X161341779Y-66975156D01*
X161318500Y-66976300D01*
X160743500Y-66976300D01*
X160720221Y-66975156D01*
X160697166Y-66971737D01*
X160674557Y-66966073D01*
X160652613Y-66958221D01*
X160631543Y-66948256D01*
X160611552Y-66936274D01*
X160592832Y-66922390D01*
X160575562Y-66906738D01*
X160559910Y-66889468D01*
X160546026Y-66870748D01*
X160534044Y-66850757D01*
X160524079Y-66829687D01*
X160516227Y-66807743D01*
X160510563Y-66785134D01*
X160507144Y-66762079D01*
X160506000Y-66738800D01*
X160506000Y-66263800D01*
X160507144Y-66240521D01*
X160510563Y-66217466D01*
X160516227Y-66194857D01*
X160524079Y-66172913D01*
X160534044Y-66151843D01*
X160546026Y-66131852D01*
X160559910Y-66113132D01*
X160575562Y-66095862D01*
X160592832Y-66080210D01*
X160611552Y-66066326D01*
X160631543Y-66054344D01*
X160652613Y-66044379D01*
X160674557Y-66036527D01*
X160697166Y-66030863D01*
X160720221Y-66027444D01*
X160743500Y-66026300D01*
X161318500Y-66026300D01*
X161341779Y-66027444D01*
X161341779Y-66027444D01*
G37*
D18*
X161031000Y-66501300D03*
D19*
X140654360Y-116752660D03*
X138654360Y-117702660D03*
X138654360Y-115802660D03*
D20*
X178489800Y-103541200D03*
X178489800Y-98981200D03*
D21*
X170514800Y-99736200D03*
X173864800Y-102786200D03*
X170514800Y-102786200D03*
X173864800Y-99736200D03*
D17*
G36*
X94776904Y-57853804D02*
G01*
X94801173Y-57857404D01*
X94824971Y-57863365D01*
X94848071Y-57871630D01*
X94870249Y-57882120D01*
X94891293Y-57894733D01*
X94910998Y-57909347D01*
X94929177Y-57925823D01*
X94945653Y-57944002D01*
X94960267Y-57963707D01*
X94972880Y-57984751D01*
X94983370Y-58006929D01*
X94991635Y-58030029D01*
X94997596Y-58053827D01*
X95001196Y-58078096D01*
X95002400Y-58102600D01*
X95002400Y-59027600D01*
X95001196Y-59052104D01*
X94997596Y-59076373D01*
X94991635Y-59100171D01*
X94983370Y-59123271D01*
X94972880Y-59145449D01*
X94960267Y-59166493D01*
X94945653Y-59186198D01*
X94929177Y-59204377D01*
X94910998Y-59220853D01*
X94891293Y-59235467D01*
X94870249Y-59248080D01*
X94848071Y-59258570D01*
X94824971Y-59266835D01*
X94801173Y-59272796D01*
X94776904Y-59276396D01*
X94752400Y-59277600D01*
X93502400Y-59277600D01*
X93477896Y-59276396D01*
X93453627Y-59272796D01*
X93429829Y-59266835D01*
X93406729Y-59258570D01*
X93384551Y-59248080D01*
X93363507Y-59235467D01*
X93343802Y-59220853D01*
X93325623Y-59204377D01*
X93309147Y-59186198D01*
X93294533Y-59166493D01*
X93281920Y-59145449D01*
X93271430Y-59123271D01*
X93263165Y-59100171D01*
X93257204Y-59076373D01*
X93253604Y-59052104D01*
X93252400Y-59027600D01*
X93252400Y-58102600D01*
X93253604Y-58078096D01*
X93257204Y-58053827D01*
X93263165Y-58030029D01*
X93271430Y-58006929D01*
X93281920Y-57984751D01*
X93294533Y-57963707D01*
X93309147Y-57944002D01*
X93325623Y-57925823D01*
X93343802Y-57909347D01*
X93363507Y-57894733D01*
X93384551Y-57882120D01*
X93406729Y-57871630D01*
X93429829Y-57863365D01*
X93453627Y-57857404D01*
X93477896Y-57853804D01*
X93502400Y-57852600D01*
X94752400Y-57852600D01*
X94776904Y-57853804D01*
X94776904Y-57853804D01*
G37*
D22*
X94127400Y-58565100D03*
D17*
G36*
X94776904Y-60828804D02*
G01*
X94801173Y-60832404D01*
X94824971Y-60838365D01*
X94848071Y-60846630D01*
X94870249Y-60857120D01*
X94891293Y-60869733D01*
X94910998Y-60884347D01*
X94929177Y-60900823D01*
X94945653Y-60919002D01*
X94960267Y-60938707D01*
X94972880Y-60959751D01*
X94983370Y-60981929D01*
X94991635Y-61005029D01*
X94997596Y-61028827D01*
X95001196Y-61053096D01*
X95002400Y-61077600D01*
X95002400Y-62002600D01*
X95001196Y-62027104D01*
X94997596Y-62051373D01*
X94991635Y-62075171D01*
X94983370Y-62098271D01*
X94972880Y-62120449D01*
X94960267Y-62141493D01*
X94945653Y-62161198D01*
X94929177Y-62179377D01*
X94910998Y-62195853D01*
X94891293Y-62210467D01*
X94870249Y-62223080D01*
X94848071Y-62233570D01*
X94824971Y-62241835D01*
X94801173Y-62247796D01*
X94776904Y-62251396D01*
X94752400Y-62252600D01*
X93502400Y-62252600D01*
X93477896Y-62251396D01*
X93453627Y-62247796D01*
X93429829Y-62241835D01*
X93406729Y-62233570D01*
X93384551Y-62223080D01*
X93363507Y-62210467D01*
X93343802Y-62195853D01*
X93325623Y-62179377D01*
X93309147Y-62161198D01*
X93294533Y-62141493D01*
X93281920Y-62120449D01*
X93271430Y-62098271D01*
X93263165Y-62075171D01*
X93257204Y-62051373D01*
X93253604Y-62027104D01*
X93252400Y-62002600D01*
X93252400Y-61077600D01*
X93253604Y-61053096D01*
X93257204Y-61028827D01*
X93263165Y-61005029D01*
X93271430Y-60981929D01*
X93281920Y-60959751D01*
X93294533Y-60938707D01*
X93309147Y-60919002D01*
X93325623Y-60900823D01*
X93343802Y-60884347D01*
X93363507Y-60869733D01*
X93384551Y-60857120D01*
X93406729Y-60846630D01*
X93429829Y-60838365D01*
X93453627Y-60832404D01*
X93477896Y-60828804D01*
X93502400Y-60827600D01*
X94752400Y-60827600D01*
X94776904Y-60828804D01*
X94776904Y-60828804D01*
G37*
D22*
X94127400Y-61540100D03*
D17*
G36*
X91373304Y-60828804D02*
G01*
X91397573Y-60832404D01*
X91421371Y-60838365D01*
X91444471Y-60846630D01*
X91466649Y-60857120D01*
X91487693Y-60869733D01*
X91507398Y-60884347D01*
X91525577Y-60900823D01*
X91542053Y-60919002D01*
X91556667Y-60938707D01*
X91569280Y-60959751D01*
X91579770Y-60981929D01*
X91588035Y-61005029D01*
X91593996Y-61028827D01*
X91597596Y-61053096D01*
X91598800Y-61077600D01*
X91598800Y-62002600D01*
X91597596Y-62027104D01*
X91593996Y-62051373D01*
X91588035Y-62075171D01*
X91579770Y-62098271D01*
X91569280Y-62120449D01*
X91556667Y-62141493D01*
X91542053Y-62161198D01*
X91525577Y-62179377D01*
X91507398Y-62195853D01*
X91487693Y-62210467D01*
X91466649Y-62223080D01*
X91444471Y-62233570D01*
X91421371Y-62241835D01*
X91397573Y-62247796D01*
X91373304Y-62251396D01*
X91348800Y-62252600D01*
X90098800Y-62252600D01*
X90074296Y-62251396D01*
X90050027Y-62247796D01*
X90026229Y-62241835D01*
X90003129Y-62233570D01*
X89980951Y-62223080D01*
X89959907Y-62210467D01*
X89940202Y-62195853D01*
X89922023Y-62179377D01*
X89905547Y-62161198D01*
X89890933Y-62141493D01*
X89878320Y-62120449D01*
X89867830Y-62098271D01*
X89859565Y-62075171D01*
X89853604Y-62051373D01*
X89850004Y-62027104D01*
X89848800Y-62002600D01*
X89848800Y-61077600D01*
X89850004Y-61053096D01*
X89853604Y-61028827D01*
X89859565Y-61005029D01*
X89867830Y-60981929D01*
X89878320Y-60959751D01*
X89890933Y-60938707D01*
X89905547Y-60919002D01*
X89922023Y-60900823D01*
X89940202Y-60884347D01*
X89959907Y-60869733D01*
X89980951Y-60857120D01*
X90003129Y-60846630D01*
X90026229Y-60838365D01*
X90050027Y-60832404D01*
X90074296Y-60828804D01*
X90098800Y-60827600D01*
X91348800Y-60827600D01*
X91373304Y-60828804D01*
X91373304Y-60828804D01*
G37*
D22*
X90723800Y-61540100D03*
D17*
G36*
X91373304Y-57853804D02*
G01*
X91397573Y-57857404D01*
X91421371Y-57863365D01*
X91444471Y-57871630D01*
X91466649Y-57882120D01*
X91487693Y-57894733D01*
X91507398Y-57909347D01*
X91525577Y-57925823D01*
X91542053Y-57944002D01*
X91556667Y-57963707D01*
X91569280Y-57984751D01*
X91579770Y-58006929D01*
X91588035Y-58030029D01*
X91593996Y-58053827D01*
X91597596Y-58078096D01*
X91598800Y-58102600D01*
X91598800Y-59027600D01*
X91597596Y-59052104D01*
X91593996Y-59076373D01*
X91588035Y-59100171D01*
X91579770Y-59123271D01*
X91569280Y-59145449D01*
X91556667Y-59166493D01*
X91542053Y-59186198D01*
X91525577Y-59204377D01*
X91507398Y-59220853D01*
X91487693Y-59235467D01*
X91466649Y-59248080D01*
X91444471Y-59258570D01*
X91421371Y-59266835D01*
X91397573Y-59272796D01*
X91373304Y-59276396D01*
X91348800Y-59277600D01*
X90098800Y-59277600D01*
X90074296Y-59276396D01*
X90050027Y-59272796D01*
X90026229Y-59266835D01*
X90003129Y-59258570D01*
X89980951Y-59248080D01*
X89959907Y-59235467D01*
X89940202Y-59220853D01*
X89922023Y-59204377D01*
X89905547Y-59186198D01*
X89890933Y-59166493D01*
X89878320Y-59145449D01*
X89867830Y-59123271D01*
X89859565Y-59100171D01*
X89853604Y-59076373D01*
X89850004Y-59052104D01*
X89848800Y-59027600D01*
X89848800Y-58102600D01*
X89850004Y-58078096D01*
X89853604Y-58053827D01*
X89859565Y-58030029D01*
X89867830Y-58006929D01*
X89878320Y-57984751D01*
X89890933Y-57963707D01*
X89905547Y-57944002D01*
X89922023Y-57925823D01*
X89940202Y-57909347D01*
X89959907Y-57894733D01*
X89980951Y-57882120D01*
X90003129Y-57871630D01*
X90026229Y-57863365D01*
X90050027Y-57857404D01*
X90074296Y-57853804D01*
X90098800Y-57852600D01*
X91348800Y-57852600D01*
X91373304Y-57853804D01*
X91373304Y-57853804D01*
G37*
D22*
X90723800Y-58565100D03*
D17*
G36*
X62913584Y-105115024D02*
G01*
X62937853Y-105118624D01*
X62961651Y-105124585D01*
X62984751Y-105132850D01*
X63006929Y-105143340D01*
X63027973Y-105155953D01*
X63047678Y-105170567D01*
X63065857Y-105187043D01*
X63082333Y-105205222D01*
X63096947Y-105224927D01*
X63109560Y-105245971D01*
X63120050Y-105268149D01*
X63128315Y-105291249D01*
X63134276Y-105315047D01*
X63137876Y-105339316D01*
X63139080Y-105363820D01*
X63139080Y-106288820D01*
X63137876Y-106313324D01*
X63134276Y-106337593D01*
X63128315Y-106361391D01*
X63120050Y-106384491D01*
X63109560Y-106406669D01*
X63096947Y-106427713D01*
X63082333Y-106447418D01*
X63065857Y-106465597D01*
X63047678Y-106482073D01*
X63027973Y-106496687D01*
X63006929Y-106509300D01*
X62984751Y-106519790D01*
X62961651Y-106528055D01*
X62937853Y-106534016D01*
X62913584Y-106537616D01*
X62889080Y-106538820D01*
X61639080Y-106538820D01*
X61614576Y-106537616D01*
X61590307Y-106534016D01*
X61566509Y-106528055D01*
X61543409Y-106519790D01*
X61521231Y-106509300D01*
X61500187Y-106496687D01*
X61480482Y-106482073D01*
X61462303Y-106465597D01*
X61445827Y-106447418D01*
X61431213Y-106427713D01*
X61418600Y-106406669D01*
X61408110Y-106384491D01*
X61399845Y-106361391D01*
X61393884Y-106337593D01*
X61390284Y-106313324D01*
X61389080Y-106288820D01*
X61389080Y-105363820D01*
X61390284Y-105339316D01*
X61393884Y-105315047D01*
X61399845Y-105291249D01*
X61408110Y-105268149D01*
X61418600Y-105245971D01*
X61431213Y-105224927D01*
X61445827Y-105205222D01*
X61462303Y-105187043D01*
X61480482Y-105170567D01*
X61500187Y-105155953D01*
X61521231Y-105143340D01*
X61543409Y-105132850D01*
X61566509Y-105124585D01*
X61590307Y-105118624D01*
X61614576Y-105115024D01*
X61639080Y-105113820D01*
X62889080Y-105113820D01*
X62913584Y-105115024D01*
X62913584Y-105115024D01*
G37*
D22*
X62264080Y-105826320D03*
D17*
G36*
X62913584Y-102140024D02*
G01*
X62937853Y-102143624D01*
X62961651Y-102149585D01*
X62984751Y-102157850D01*
X63006929Y-102168340D01*
X63027973Y-102180953D01*
X63047678Y-102195567D01*
X63065857Y-102212043D01*
X63082333Y-102230222D01*
X63096947Y-102249927D01*
X63109560Y-102270971D01*
X63120050Y-102293149D01*
X63128315Y-102316249D01*
X63134276Y-102340047D01*
X63137876Y-102364316D01*
X63139080Y-102388820D01*
X63139080Y-103313820D01*
X63137876Y-103338324D01*
X63134276Y-103362593D01*
X63128315Y-103386391D01*
X63120050Y-103409491D01*
X63109560Y-103431669D01*
X63096947Y-103452713D01*
X63082333Y-103472418D01*
X63065857Y-103490597D01*
X63047678Y-103507073D01*
X63027973Y-103521687D01*
X63006929Y-103534300D01*
X62984751Y-103544790D01*
X62961651Y-103553055D01*
X62937853Y-103559016D01*
X62913584Y-103562616D01*
X62889080Y-103563820D01*
X61639080Y-103563820D01*
X61614576Y-103562616D01*
X61590307Y-103559016D01*
X61566509Y-103553055D01*
X61543409Y-103544790D01*
X61521231Y-103534300D01*
X61500187Y-103521687D01*
X61480482Y-103507073D01*
X61462303Y-103490597D01*
X61445827Y-103472418D01*
X61431213Y-103452713D01*
X61418600Y-103431669D01*
X61408110Y-103409491D01*
X61399845Y-103386391D01*
X61393884Y-103362593D01*
X61390284Y-103338324D01*
X61389080Y-103313820D01*
X61389080Y-102388820D01*
X61390284Y-102364316D01*
X61393884Y-102340047D01*
X61399845Y-102316249D01*
X61408110Y-102293149D01*
X61418600Y-102270971D01*
X61431213Y-102249927D01*
X61445827Y-102230222D01*
X61462303Y-102212043D01*
X61480482Y-102195567D01*
X61500187Y-102180953D01*
X61521231Y-102168340D01*
X61543409Y-102157850D01*
X61566509Y-102149585D01*
X61590307Y-102143624D01*
X61614576Y-102140024D01*
X61639080Y-102138820D01*
X62889080Y-102138820D01*
X62913584Y-102140024D01*
X62913584Y-102140024D01*
G37*
D22*
X62264080Y-102851320D03*
D17*
G36*
X59810720Y-102140024D02*
G01*
X59834989Y-102143624D01*
X59858787Y-102149585D01*
X59881887Y-102157850D01*
X59904065Y-102168340D01*
X59925109Y-102180953D01*
X59944814Y-102195567D01*
X59962993Y-102212043D01*
X59979469Y-102230222D01*
X59994083Y-102249927D01*
X60006696Y-102270971D01*
X60017186Y-102293149D01*
X60025451Y-102316249D01*
X60031412Y-102340047D01*
X60035012Y-102364316D01*
X60036216Y-102388820D01*
X60036216Y-103313820D01*
X60035012Y-103338324D01*
X60031412Y-103362593D01*
X60025451Y-103386391D01*
X60017186Y-103409491D01*
X60006696Y-103431669D01*
X59994083Y-103452713D01*
X59979469Y-103472418D01*
X59962993Y-103490597D01*
X59944814Y-103507073D01*
X59925109Y-103521687D01*
X59904065Y-103534300D01*
X59881887Y-103544790D01*
X59858787Y-103553055D01*
X59834989Y-103559016D01*
X59810720Y-103562616D01*
X59786216Y-103563820D01*
X58536216Y-103563820D01*
X58511712Y-103562616D01*
X58487443Y-103559016D01*
X58463645Y-103553055D01*
X58440545Y-103544790D01*
X58418367Y-103534300D01*
X58397323Y-103521687D01*
X58377618Y-103507073D01*
X58359439Y-103490597D01*
X58342963Y-103472418D01*
X58328349Y-103452713D01*
X58315736Y-103431669D01*
X58305246Y-103409491D01*
X58296981Y-103386391D01*
X58291020Y-103362593D01*
X58287420Y-103338324D01*
X58286216Y-103313820D01*
X58286216Y-102388820D01*
X58287420Y-102364316D01*
X58291020Y-102340047D01*
X58296981Y-102316249D01*
X58305246Y-102293149D01*
X58315736Y-102270971D01*
X58328349Y-102249927D01*
X58342963Y-102230222D01*
X58359439Y-102212043D01*
X58377618Y-102195567D01*
X58397323Y-102180953D01*
X58418367Y-102168340D01*
X58440545Y-102157850D01*
X58463645Y-102149585D01*
X58487443Y-102143624D01*
X58511712Y-102140024D01*
X58536216Y-102138820D01*
X59786216Y-102138820D01*
X59810720Y-102140024D01*
X59810720Y-102140024D01*
G37*
D22*
X59161216Y-102851320D03*
D17*
G36*
X59810720Y-105115024D02*
G01*
X59834989Y-105118624D01*
X59858787Y-105124585D01*
X59881887Y-105132850D01*
X59904065Y-105143340D01*
X59925109Y-105155953D01*
X59944814Y-105170567D01*
X59962993Y-105187043D01*
X59979469Y-105205222D01*
X59994083Y-105224927D01*
X60006696Y-105245971D01*
X60017186Y-105268149D01*
X60025451Y-105291249D01*
X60031412Y-105315047D01*
X60035012Y-105339316D01*
X60036216Y-105363820D01*
X60036216Y-106288820D01*
X60035012Y-106313324D01*
X60031412Y-106337593D01*
X60025451Y-106361391D01*
X60017186Y-106384491D01*
X60006696Y-106406669D01*
X59994083Y-106427713D01*
X59979469Y-106447418D01*
X59962993Y-106465597D01*
X59944814Y-106482073D01*
X59925109Y-106496687D01*
X59904065Y-106509300D01*
X59881887Y-106519790D01*
X59858787Y-106528055D01*
X59834989Y-106534016D01*
X59810720Y-106537616D01*
X59786216Y-106538820D01*
X58536216Y-106538820D01*
X58511712Y-106537616D01*
X58487443Y-106534016D01*
X58463645Y-106528055D01*
X58440545Y-106519790D01*
X58418367Y-106509300D01*
X58397323Y-106496687D01*
X58377618Y-106482073D01*
X58359439Y-106465597D01*
X58342963Y-106447418D01*
X58328349Y-106427713D01*
X58315736Y-106406669D01*
X58305246Y-106384491D01*
X58296981Y-106361391D01*
X58291020Y-106337593D01*
X58287420Y-106313324D01*
X58286216Y-106288820D01*
X58286216Y-105363820D01*
X58287420Y-105339316D01*
X58291020Y-105315047D01*
X58296981Y-105291249D01*
X58305246Y-105268149D01*
X58315736Y-105245971D01*
X58328349Y-105224927D01*
X58342963Y-105205222D01*
X58359439Y-105187043D01*
X58377618Y-105170567D01*
X58397323Y-105155953D01*
X58418367Y-105143340D01*
X58440545Y-105132850D01*
X58463645Y-105124585D01*
X58487443Y-105118624D01*
X58511712Y-105115024D01*
X58536216Y-105113820D01*
X59786216Y-105113820D01*
X59810720Y-105115024D01*
X59810720Y-105115024D01*
G37*
D22*
X59161216Y-105826320D03*
D17*
G36*
X56707856Y-105115024D02*
G01*
X56732125Y-105118624D01*
X56755923Y-105124585D01*
X56779023Y-105132850D01*
X56801201Y-105143340D01*
X56822245Y-105155953D01*
X56841950Y-105170567D01*
X56860129Y-105187043D01*
X56876605Y-105205222D01*
X56891219Y-105224927D01*
X56903832Y-105245971D01*
X56914322Y-105268149D01*
X56922587Y-105291249D01*
X56928548Y-105315047D01*
X56932148Y-105339316D01*
X56933352Y-105363820D01*
X56933352Y-106288820D01*
X56932148Y-106313324D01*
X56928548Y-106337593D01*
X56922587Y-106361391D01*
X56914322Y-106384491D01*
X56903832Y-106406669D01*
X56891219Y-106427713D01*
X56876605Y-106447418D01*
X56860129Y-106465597D01*
X56841950Y-106482073D01*
X56822245Y-106496687D01*
X56801201Y-106509300D01*
X56779023Y-106519790D01*
X56755923Y-106528055D01*
X56732125Y-106534016D01*
X56707856Y-106537616D01*
X56683352Y-106538820D01*
X55433352Y-106538820D01*
X55408848Y-106537616D01*
X55384579Y-106534016D01*
X55360781Y-106528055D01*
X55337681Y-106519790D01*
X55315503Y-106509300D01*
X55294459Y-106496687D01*
X55274754Y-106482073D01*
X55256575Y-106465597D01*
X55240099Y-106447418D01*
X55225485Y-106427713D01*
X55212872Y-106406669D01*
X55202382Y-106384491D01*
X55194117Y-106361391D01*
X55188156Y-106337593D01*
X55184556Y-106313324D01*
X55183352Y-106288820D01*
X55183352Y-105363820D01*
X55184556Y-105339316D01*
X55188156Y-105315047D01*
X55194117Y-105291249D01*
X55202382Y-105268149D01*
X55212872Y-105245971D01*
X55225485Y-105224927D01*
X55240099Y-105205222D01*
X55256575Y-105187043D01*
X55274754Y-105170567D01*
X55294459Y-105155953D01*
X55315503Y-105143340D01*
X55337681Y-105132850D01*
X55360781Y-105124585D01*
X55384579Y-105118624D01*
X55408848Y-105115024D01*
X55433352Y-105113820D01*
X56683352Y-105113820D01*
X56707856Y-105115024D01*
X56707856Y-105115024D01*
G37*
D22*
X56058352Y-105826320D03*
D17*
G36*
X56707856Y-102140024D02*
G01*
X56732125Y-102143624D01*
X56755923Y-102149585D01*
X56779023Y-102157850D01*
X56801201Y-102168340D01*
X56822245Y-102180953D01*
X56841950Y-102195567D01*
X56860129Y-102212043D01*
X56876605Y-102230222D01*
X56891219Y-102249927D01*
X56903832Y-102270971D01*
X56914322Y-102293149D01*
X56922587Y-102316249D01*
X56928548Y-102340047D01*
X56932148Y-102364316D01*
X56933352Y-102388820D01*
X56933352Y-103313820D01*
X56932148Y-103338324D01*
X56928548Y-103362593D01*
X56922587Y-103386391D01*
X56914322Y-103409491D01*
X56903832Y-103431669D01*
X56891219Y-103452713D01*
X56876605Y-103472418D01*
X56860129Y-103490597D01*
X56841950Y-103507073D01*
X56822245Y-103521687D01*
X56801201Y-103534300D01*
X56779023Y-103544790D01*
X56755923Y-103553055D01*
X56732125Y-103559016D01*
X56707856Y-103562616D01*
X56683352Y-103563820D01*
X55433352Y-103563820D01*
X55408848Y-103562616D01*
X55384579Y-103559016D01*
X55360781Y-103553055D01*
X55337681Y-103544790D01*
X55315503Y-103534300D01*
X55294459Y-103521687D01*
X55274754Y-103507073D01*
X55256575Y-103490597D01*
X55240099Y-103472418D01*
X55225485Y-103452713D01*
X55212872Y-103431669D01*
X55202382Y-103409491D01*
X55194117Y-103386391D01*
X55188156Y-103362593D01*
X55184556Y-103338324D01*
X55183352Y-103313820D01*
X55183352Y-102388820D01*
X55184556Y-102364316D01*
X55188156Y-102340047D01*
X55194117Y-102316249D01*
X55202382Y-102293149D01*
X55212872Y-102270971D01*
X55225485Y-102249927D01*
X55240099Y-102230222D01*
X55256575Y-102212043D01*
X55274754Y-102195567D01*
X55294459Y-102180953D01*
X55315503Y-102168340D01*
X55337681Y-102157850D01*
X55360781Y-102149585D01*
X55384579Y-102143624D01*
X55408848Y-102140024D01*
X55433352Y-102138820D01*
X56683352Y-102138820D01*
X56707856Y-102140024D01*
X56707856Y-102140024D01*
G37*
D22*
X56058352Y-102851320D03*
D17*
G36*
X53604992Y-102140024D02*
G01*
X53629261Y-102143624D01*
X53653059Y-102149585D01*
X53676159Y-102157850D01*
X53698337Y-102168340D01*
X53719381Y-102180953D01*
X53739086Y-102195567D01*
X53757265Y-102212043D01*
X53773741Y-102230222D01*
X53788355Y-102249927D01*
X53800968Y-102270971D01*
X53811458Y-102293149D01*
X53819723Y-102316249D01*
X53825684Y-102340047D01*
X53829284Y-102364316D01*
X53830488Y-102388820D01*
X53830488Y-103313820D01*
X53829284Y-103338324D01*
X53825684Y-103362593D01*
X53819723Y-103386391D01*
X53811458Y-103409491D01*
X53800968Y-103431669D01*
X53788355Y-103452713D01*
X53773741Y-103472418D01*
X53757265Y-103490597D01*
X53739086Y-103507073D01*
X53719381Y-103521687D01*
X53698337Y-103534300D01*
X53676159Y-103544790D01*
X53653059Y-103553055D01*
X53629261Y-103559016D01*
X53604992Y-103562616D01*
X53580488Y-103563820D01*
X52330488Y-103563820D01*
X52305984Y-103562616D01*
X52281715Y-103559016D01*
X52257917Y-103553055D01*
X52234817Y-103544790D01*
X52212639Y-103534300D01*
X52191595Y-103521687D01*
X52171890Y-103507073D01*
X52153711Y-103490597D01*
X52137235Y-103472418D01*
X52122621Y-103452713D01*
X52110008Y-103431669D01*
X52099518Y-103409491D01*
X52091253Y-103386391D01*
X52085292Y-103362593D01*
X52081692Y-103338324D01*
X52080488Y-103313820D01*
X52080488Y-102388820D01*
X52081692Y-102364316D01*
X52085292Y-102340047D01*
X52091253Y-102316249D01*
X52099518Y-102293149D01*
X52110008Y-102270971D01*
X52122621Y-102249927D01*
X52137235Y-102230222D01*
X52153711Y-102212043D01*
X52171890Y-102195567D01*
X52191595Y-102180953D01*
X52212639Y-102168340D01*
X52234817Y-102157850D01*
X52257917Y-102149585D01*
X52281715Y-102143624D01*
X52305984Y-102140024D01*
X52330488Y-102138820D01*
X53580488Y-102138820D01*
X53604992Y-102140024D01*
X53604992Y-102140024D01*
G37*
D22*
X52955488Y-102851320D03*
D17*
G36*
X53604992Y-105115024D02*
G01*
X53629261Y-105118624D01*
X53653059Y-105124585D01*
X53676159Y-105132850D01*
X53698337Y-105143340D01*
X53719381Y-105155953D01*
X53739086Y-105170567D01*
X53757265Y-105187043D01*
X53773741Y-105205222D01*
X53788355Y-105224927D01*
X53800968Y-105245971D01*
X53811458Y-105268149D01*
X53819723Y-105291249D01*
X53825684Y-105315047D01*
X53829284Y-105339316D01*
X53830488Y-105363820D01*
X53830488Y-106288820D01*
X53829284Y-106313324D01*
X53825684Y-106337593D01*
X53819723Y-106361391D01*
X53811458Y-106384491D01*
X53800968Y-106406669D01*
X53788355Y-106427713D01*
X53773741Y-106447418D01*
X53757265Y-106465597D01*
X53739086Y-106482073D01*
X53719381Y-106496687D01*
X53698337Y-106509300D01*
X53676159Y-106519790D01*
X53653059Y-106528055D01*
X53629261Y-106534016D01*
X53604992Y-106537616D01*
X53580488Y-106538820D01*
X52330488Y-106538820D01*
X52305984Y-106537616D01*
X52281715Y-106534016D01*
X52257917Y-106528055D01*
X52234817Y-106519790D01*
X52212639Y-106509300D01*
X52191595Y-106496687D01*
X52171890Y-106482073D01*
X52153711Y-106465597D01*
X52137235Y-106447418D01*
X52122621Y-106427713D01*
X52110008Y-106406669D01*
X52099518Y-106384491D01*
X52091253Y-106361391D01*
X52085292Y-106337593D01*
X52081692Y-106313324D01*
X52080488Y-106288820D01*
X52080488Y-105363820D01*
X52081692Y-105339316D01*
X52085292Y-105315047D01*
X52091253Y-105291249D01*
X52099518Y-105268149D01*
X52110008Y-105245971D01*
X52122621Y-105224927D01*
X52137235Y-105205222D01*
X52153711Y-105187043D01*
X52171890Y-105170567D01*
X52191595Y-105155953D01*
X52212639Y-105143340D01*
X52234817Y-105132850D01*
X52257917Y-105124585D01*
X52281715Y-105118624D01*
X52305984Y-105115024D01*
X52330488Y-105113820D01*
X53580488Y-105113820D01*
X53604992Y-105115024D01*
X53604992Y-105115024D01*
G37*
D22*
X52955488Y-105826320D03*
D17*
G36*
X50502128Y-105115024D02*
G01*
X50526397Y-105118624D01*
X50550195Y-105124585D01*
X50573295Y-105132850D01*
X50595473Y-105143340D01*
X50616517Y-105155953D01*
X50636222Y-105170567D01*
X50654401Y-105187043D01*
X50670877Y-105205222D01*
X50685491Y-105224927D01*
X50698104Y-105245971D01*
X50708594Y-105268149D01*
X50716859Y-105291249D01*
X50722820Y-105315047D01*
X50726420Y-105339316D01*
X50727624Y-105363820D01*
X50727624Y-106288820D01*
X50726420Y-106313324D01*
X50722820Y-106337593D01*
X50716859Y-106361391D01*
X50708594Y-106384491D01*
X50698104Y-106406669D01*
X50685491Y-106427713D01*
X50670877Y-106447418D01*
X50654401Y-106465597D01*
X50636222Y-106482073D01*
X50616517Y-106496687D01*
X50595473Y-106509300D01*
X50573295Y-106519790D01*
X50550195Y-106528055D01*
X50526397Y-106534016D01*
X50502128Y-106537616D01*
X50477624Y-106538820D01*
X49227624Y-106538820D01*
X49203120Y-106537616D01*
X49178851Y-106534016D01*
X49155053Y-106528055D01*
X49131953Y-106519790D01*
X49109775Y-106509300D01*
X49088731Y-106496687D01*
X49069026Y-106482073D01*
X49050847Y-106465597D01*
X49034371Y-106447418D01*
X49019757Y-106427713D01*
X49007144Y-106406669D01*
X48996654Y-106384491D01*
X48988389Y-106361391D01*
X48982428Y-106337593D01*
X48978828Y-106313324D01*
X48977624Y-106288820D01*
X48977624Y-105363820D01*
X48978828Y-105339316D01*
X48982428Y-105315047D01*
X48988389Y-105291249D01*
X48996654Y-105268149D01*
X49007144Y-105245971D01*
X49019757Y-105224927D01*
X49034371Y-105205222D01*
X49050847Y-105187043D01*
X49069026Y-105170567D01*
X49088731Y-105155953D01*
X49109775Y-105143340D01*
X49131953Y-105132850D01*
X49155053Y-105124585D01*
X49178851Y-105118624D01*
X49203120Y-105115024D01*
X49227624Y-105113820D01*
X50477624Y-105113820D01*
X50502128Y-105115024D01*
X50502128Y-105115024D01*
G37*
D22*
X49852624Y-105826320D03*
D17*
G36*
X50502128Y-102140024D02*
G01*
X50526397Y-102143624D01*
X50550195Y-102149585D01*
X50573295Y-102157850D01*
X50595473Y-102168340D01*
X50616517Y-102180953D01*
X50636222Y-102195567D01*
X50654401Y-102212043D01*
X50670877Y-102230222D01*
X50685491Y-102249927D01*
X50698104Y-102270971D01*
X50708594Y-102293149D01*
X50716859Y-102316249D01*
X50722820Y-102340047D01*
X50726420Y-102364316D01*
X50727624Y-102388820D01*
X50727624Y-103313820D01*
X50726420Y-103338324D01*
X50722820Y-103362593D01*
X50716859Y-103386391D01*
X50708594Y-103409491D01*
X50698104Y-103431669D01*
X50685491Y-103452713D01*
X50670877Y-103472418D01*
X50654401Y-103490597D01*
X50636222Y-103507073D01*
X50616517Y-103521687D01*
X50595473Y-103534300D01*
X50573295Y-103544790D01*
X50550195Y-103553055D01*
X50526397Y-103559016D01*
X50502128Y-103562616D01*
X50477624Y-103563820D01*
X49227624Y-103563820D01*
X49203120Y-103562616D01*
X49178851Y-103559016D01*
X49155053Y-103553055D01*
X49131953Y-103544790D01*
X49109775Y-103534300D01*
X49088731Y-103521687D01*
X49069026Y-103507073D01*
X49050847Y-103490597D01*
X49034371Y-103472418D01*
X49019757Y-103452713D01*
X49007144Y-103431669D01*
X48996654Y-103409491D01*
X48988389Y-103386391D01*
X48982428Y-103362593D01*
X48978828Y-103338324D01*
X48977624Y-103313820D01*
X48977624Y-102388820D01*
X48978828Y-102364316D01*
X48982428Y-102340047D01*
X48988389Y-102316249D01*
X48996654Y-102293149D01*
X49007144Y-102270971D01*
X49019757Y-102249927D01*
X49034371Y-102230222D01*
X49050847Y-102212043D01*
X49069026Y-102195567D01*
X49088731Y-102180953D01*
X49109775Y-102168340D01*
X49131953Y-102157850D01*
X49155053Y-102149585D01*
X49178851Y-102143624D01*
X49203120Y-102140024D01*
X49227624Y-102138820D01*
X50477624Y-102138820D01*
X50502128Y-102140024D01*
X50502128Y-102140024D01*
G37*
D22*
X49852624Y-102851320D03*
D17*
G36*
X47399264Y-102140024D02*
G01*
X47423533Y-102143624D01*
X47447331Y-102149585D01*
X47470431Y-102157850D01*
X47492609Y-102168340D01*
X47513653Y-102180953D01*
X47533358Y-102195567D01*
X47551537Y-102212043D01*
X47568013Y-102230222D01*
X47582627Y-102249927D01*
X47595240Y-102270971D01*
X47605730Y-102293149D01*
X47613995Y-102316249D01*
X47619956Y-102340047D01*
X47623556Y-102364316D01*
X47624760Y-102388820D01*
X47624760Y-103313820D01*
X47623556Y-103338324D01*
X47619956Y-103362593D01*
X47613995Y-103386391D01*
X47605730Y-103409491D01*
X47595240Y-103431669D01*
X47582627Y-103452713D01*
X47568013Y-103472418D01*
X47551537Y-103490597D01*
X47533358Y-103507073D01*
X47513653Y-103521687D01*
X47492609Y-103534300D01*
X47470431Y-103544790D01*
X47447331Y-103553055D01*
X47423533Y-103559016D01*
X47399264Y-103562616D01*
X47374760Y-103563820D01*
X46124760Y-103563820D01*
X46100256Y-103562616D01*
X46075987Y-103559016D01*
X46052189Y-103553055D01*
X46029089Y-103544790D01*
X46006911Y-103534300D01*
X45985867Y-103521687D01*
X45966162Y-103507073D01*
X45947983Y-103490597D01*
X45931507Y-103472418D01*
X45916893Y-103452713D01*
X45904280Y-103431669D01*
X45893790Y-103409491D01*
X45885525Y-103386391D01*
X45879564Y-103362593D01*
X45875964Y-103338324D01*
X45874760Y-103313820D01*
X45874760Y-102388820D01*
X45875964Y-102364316D01*
X45879564Y-102340047D01*
X45885525Y-102316249D01*
X45893790Y-102293149D01*
X45904280Y-102270971D01*
X45916893Y-102249927D01*
X45931507Y-102230222D01*
X45947983Y-102212043D01*
X45966162Y-102195567D01*
X45985867Y-102180953D01*
X46006911Y-102168340D01*
X46029089Y-102157850D01*
X46052189Y-102149585D01*
X46075987Y-102143624D01*
X46100256Y-102140024D01*
X46124760Y-102138820D01*
X47374760Y-102138820D01*
X47399264Y-102140024D01*
X47399264Y-102140024D01*
G37*
D22*
X46749760Y-102851320D03*
D17*
G36*
X47399264Y-105115024D02*
G01*
X47423533Y-105118624D01*
X47447331Y-105124585D01*
X47470431Y-105132850D01*
X47492609Y-105143340D01*
X47513653Y-105155953D01*
X47533358Y-105170567D01*
X47551537Y-105187043D01*
X47568013Y-105205222D01*
X47582627Y-105224927D01*
X47595240Y-105245971D01*
X47605730Y-105268149D01*
X47613995Y-105291249D01*
X47619956Y-105315047D01*
X47623556Y-105339316D01*
X47624760Y-105363820D01*
X47624760Y-106288820D01*
X47623556Y-106313324D01*
X47619956Y-106337593D01*
X47613995Y-106361391D01*
X47605730Y-106384491D01*
X47595240Y-106406669D01*
X47582627Y-106427713D01*
X47568013Y-106447418D01*
X47551537Y-106465597D01*
X47533358Y-106482073D01*
X47513653Y-106496687D01*
X47492609Y-106509300D01*
X47470431Y-106519790D01*
X47447331Y-106528055D01*
X47423533Y-106534016D01*
X47399264Y-106537616D01*
X47374760Y-106538820D01*
X46124760Y-106538820D01*
X46100256Y-106537616D01*
X46075987Y-106534016D01*
X46052189Y-106528055D01*
X46029089Y-106519790D01*
X46006911Y-106509300D01*
X45985867Y-106496687D01*
X45966162Y-106482073D01*
X45947983Y-106465597D01*
X45931507Y-106447418D01*
X45916893Y-106427713D01*
X45904280Y-106406669D01*
X45893790Y-106384491D01*
X45885525Y-106361391D01*
X45879564Y-106337593D01*
X45875964Y-106313324D01*
X45874760Y-106288820D01*
X45874760Y-105363820D01*
X45875964Y-105339316D01*
X45879564Y-105315047D01*
X45885525Y-105291249D01*
X45893790Y-105268149D01*
X45904280Y-105245971D01*
X45916893Y-105224927D01*
X45931507Y-105205222D01*
X45947983Y-105187043D01*
X45966162Y-105170567D01*
X45985867Y-105155953D01*
X46006911Y-105143340D01*
X46029089Y-105132850D01*
X46052189Y-105124585D01*
X46075987Y-105118624D01*
X46100256Y-105115024D01*
X46124760Y-105113820D01*
X47374760Y-105113820D01*
X47399264Y-105115024D01*
X47399264Y-105115024D01*
G37*
D22*
X46749760Y-105826320D03*
D17*
G36*
X79244804Y-57853804D02*
G01*
X79269073Y-57857404D01*
X79292871Y-57863365D01*
X79315971Y-57871630D01*
X79338149Y-57882120D01*
X79359193Y-57894733D01*
X79378898Y-57909347D01*
X79397077Y-57925823D01*
X79413553Y-57944002D01*
X79428167Y-57963707D01*
X79440780Y-57984751D01*
X79451270Y-58006929D01*
X79459535Y-58030029D01*
X79465496Y-58053827D01*
X79469096Y-58078096D01*
X79470300Y-58102600D01*
X79470300Y-59027600D01*
X79469096Y-59052104D01*
X79465496Y-59076373D01*
X79459535Y-59100171D01*
X79451270Y-59123271D01*
X79440780Y-59145449D01*
X79428167Y-59166493D01*
X79413553Y-59186198D01*
X79397077Y-59204377D01*
X79378898Y-59220853D01*
X79359193Y-59235467D01*
X79338149Y-59248080D01*
X79315971Y-59258570D01*
X79292871Y-59266835D01*
X79269073Y-59272796D01*
X79244804Y-59276396D01*
X79220300Y-59277600D01*
X77970300Y-59277600D01*
X77945796Y-59276396D01*
X77921527Y-59272796D01*
X77897729Y-59266835D01*
X77874629Y-59258570D01*
X77852451Y-59248080D01*
X77831407Y-59235467D01*
X77811702Y-59220853D01*
X77793523Y-59204377D01*
X77777047Y-59186198D01*
X77762433Y-59166493D01*
X77749820Y-59145449D01*
X77739330Y-59123271D01*
X77731065Y-59100171D01*
X77725104Y-59076373D01*
X77721504Y-59052104D01*
X77720300Y-59027600D01*
X77720300Y-58102600D01*
X77721504Y-58078096D01*
X77725104Y-58053827D01*
X77731065Y-58030029D01*
X77739330Y-58006929D01*
X77749820Y-57984751D01*
X77762433Y-57963707D01*
X77777047Y-57944002D01*
X77793523Y-57925823D01*
X77811702Y-57909347D01*
X77831407Y-57894733D01*
X77852451Y-57882120D01*
X77874629Y-57871630D01*
X77897729Y-57863365D01*
X77921527Y-57857404D01*
X77945796Y-57853804D01*
X77970300Y-57852600D01*
X79220300Y-57852600D01*
X79244804Y-57853804D01*
X79244804Y-57853804D01*
G37*
D22*
X78595300Y-58565100D03*
D17*
G36*
X79244804Y-60828804D02*
G01*
X79269073Y-60832404D01*
X79292871Y-60838365D01*
X79315971Y-60846630D01*
X79338149Y-60857120D01*
X79359193Y-60869733D01*
X79378898Y-60884347D01*
X79397077Y-60900823D01*
X79413553Y-60919002D01*
X79428167Y-60938707D01*
X79440780Y-60959751D01*
X79451270Y-60981929D01*
X79459535Y-61005029D01*
X79465496Y-61028827D01*
X79469096Y-61053096D01*
X79470300Y-61077600D01*
X79470300Y-62002600D01*
X79469096Y-62027104D01*
X79465496Y-62051373D01*
X79459535Y-62075171D01*
X79451270Y-62098271D01*
X79440780Y-62120449D01*
X79428167Y-62141493D01*
X79413553Y-62161198D01*
X79397077Y-62179377D01*
X79378898Y-62195853D01*
X79359193Y-62210467D01*
X79338149Y-62223080D01*
X79315971Y-62233570D01*
X79292871Y-62241835D01*
X79269073Y-62247796D01*
X79244804Y-62251396D01*
X79220300Y-62252600D01*
X77970300Y-62252600D01*
X77945796Y-62251396D01*
X77921527Y-62247796D01*
X77897729Y-62241835D01*
X77874629Y-62233570D01*
X77852451Y-62223080D01*
X77831407Y-62210467D01*
X77811702Y-62195853D01*
X77793523Y-62179377D01*
X77777047Y-62161198D01*
X77762433Y-62141493D01*
X77749820Y-62120449D01*
X77739330Y-62098271D01*
X77731065Y-62075171D01*
X77725104Y-62051373D01*
X77721504Y-62027104D01*
X77720300Y-62002600D01*
X77720300Y-61077600D01*
X77721504Y-61053096D01*
X77725104Y-61028827D01*
X77731065Y-61005029D01*
X77739330Y-60981929D01*
X77749820Y-60959751D01*
X77762433Y-60938707D01*
X77777047Y-60919002D01*
X77793523Y-60900823D01*
X77811702Y-60884347D01*
X77831407Y-60869733D01*
X77852451Y-60857120D01*
X77874629Y-60846630D01*
X77897729Y-60838365D01*
X77921527Y-60832404D01*
X77945796Y-60828804D01*
X77970300Y-60827600D01*
X79220300Y-60827600D01*
X79244804Y-60828804D01*
X79244804Y-60828804D01*
G37*
D22*
X78595300Y-61540100D03*
D17*
G36*
X75777704Y-60828804D02*
G01*
X75801973Y-60832404D01*
X75825771Y-60838365D01*
X75848871Y-60846630D01*
X75871049Y-60857120D01*
X75892093Y-60869733D01*
X75911798Y-60884347D01*
X75929977Y-60900823D01*
X75946453Y-60919002D01*
X75961067Y-60938707D01*
X75973680Y-60959751D01*
X75984170Y-60981929D01*
X75992435Y-61005029D01*
X75998396Y-61028827D01*
X76001996Y-61053096D01*
X76003200Y-61077600D01*
X76003200Y-62002600D01*
X76001996Y-62027104D01*
X75998396Y-62051373D01*
X75992435Y-62075171D01*
X75984170Y-62098271D01*
X75973680Y-62120449D01*
X75961067Y-62141493D01*
X75946453Y-62161198D01*
X75929977Y-62179377D01*
X75911798Y-62195853D01*
X75892093Y-62210467D01*
X75871049Y-62223080D01*
X75848871Y-62233570D01*
X75825771Y-62241835D01*
X75801973Y-62247796D01*
X75777704Y-62251396D01*
X75753200Y-62252600D01*
X74503200Y-62252600D01*
X74478696Y-62251396D01*
X74454427Y-62247796D01*
X74430629Y-62241835D01*
X74407529Y-62233570D01*
X74385351Y-62223080D01*
X74364307Y-62210467D01*
X74344602Y-62195853D01*
X74326423Y-62179377D01*
X74309947Y-62161198D01*
X74295333Y-62141493D01*
X74282720Y-62120449D01*
X74272230Y-62098271D01*
X74263965Y-62075171D01*
X74258004Y-62051373D01*
X74254404Y-62027104D01*
X74253200Y-62002600D01*
X74253200Y-61077600D01*
X74254404Y-61053096D01*
X74258004Y-61028827D01*
X74263965Y-61005029D01*
X74272230Y-60981929D01*
X74282720Y-60959751D01*
X74295333Y-60938707D01*
X74309947Y-60919002D01*
X74326423Y-60900823D01*
X74344602Y-60884347D01*
X74364307Y-60869733D01*
X74385351Y-60857120D01*
X74407529Y-60846630D01*
X74430629Y-60838365D01*
X74454427Y-60832404D01*
X74478696Y-60828804D01*
X74503200Y-60827600D01*
X75753200Y-60827600D01*
X75777704Y-60828804D01*
X75777704Y-60828804D01*
G37*
D22*
X75128200Y-61540100D03*
D17*
G36*
X75777704Y-57853804D02*
G01*
X75801973Y-57857404D01*
X75825771Y-57863365D01*
X75848871Y-57871630D01*
X75871049Y-57882120D01*
X75892093Y-57894733D01*
X75911798Y-57909347D01*
X75929977Y-57925823D01*
X75946453Y-57944002D01*
X75961067Y-57963707D01*
X75973680Y-57984751D01*
X75984170Y-58006929D01*
X75992435Y-58030029D01*
X75998396Y-58053827D01*
X76001996Y-58078096D01*
X76003200Y-58102600D01*
X76003200Y-59027600D01*
X76001996Y-59052104D01*
X75998396Y-59076373D01*
X75992435Y-59100171D01*
X75984170Y-59123271D01*
X75973680Y-59145449D01*
X75961067Y-59166493D01*
X75946453Y-59186198D01*
X75929977Y-59204377D01*
X75911798Y-59220853D01*
X75892093Y-59235467D01*
X75871049Y-59248080D01*
X75848871Y-59258570D01*
X75825771Y-59266835D01*
X75801973Y-59272796D01*
X75777704Y-59276396D01*
X75753200Y-59277600D01*
X74503200Y-59277600D01*
X74478696Y-59276396D01*
X74454427Y-59272796D01*
X74430629Y-59266835D01*
X74407529Y-59258570D01*
X74385351Y-59248080D01*
X74364307Y-59235467D01*
X74344602Y-59220853D01*
X74326423Y-59204377D01*
X74309947Y-59186198D01*
X74295333Y-59166493D01*
X74282720Y-59145449D01*
X74272230Y-59123271D01*
X74263965Y-59100171D01*
X74258004Y-59076373D01*
X74254404Y-59052104D01*
X74253200Y-59027600D01*
X74253200Y-58102600D01*
X74254404Y-58078096D01*
X74258004Y-58053827D01*
X74263965Y-58030029D01*
X74272230Y-58006929D01*
X74282720Y-57984751D01*
X74295333Y-57963707D01*
X74309947Y-57944002D01*
X74326423Y-57925823D01*
X74344602Y-57909347D01*
X74364307Y-57894733D01*
X74385351Y-57882120D01*
X74407529Y-57871630D01*
X74430629Y-57863365D01*
X74454427Y-57857404D01*
X74478696Y-57853804D01*
X74503200Y-57852600D01*
X75753200Y-57852600D01*
X75777704Y-57853804D01*
X75777704Y-57853804D01*
G37*
D22*
X75128200Y-58565100D03*
D17*
G36*
X140699224Y-108182664D02*
G01*
X140723493Y-108186264D01*
X140747291Y-108192225D01*
X140770391Y-108200490D01*
X140792569Y-108210980D01*
X140813613Y-108223593D01*
X140833318Y-108238207D01*
X140851497Y-108254683D01*
X140867973Y-108272862D01*
X140882587Y-108292567D01*
X140895200Y-108313611D01*
X140905690Y-108335789D01*
X140913955Y-108358889D01*
X140919916Y-108382687D01*
X140923516Y-108406956D01*
X140924720Y-108431460D01*
X140924720Y-109681460D01*
X140923516Y-109705964D01*
X140919916Y-109730233D01*
X140913955Y-109754031D01*
X140905690Y-109777131D01*
X140895200Y-109799309D01*
X140882587Y-109820353D01*
X140867973Y-109840058D01*
X140851497Y-109858237D01*
X140833318Y-109874713D01*
X140813613Y-109889327D01*
X140792569Y-109901940D01*
X140770391Y-109912430D01*
X140747291Y-109920695D01*
X140723493Y-109926656D01*
X140699224Y-109930256D01*
X140674720Y-109931460D01*
X139749720Y-109931460D01*
X139725216Y-109930256D01*
X139700947Y-109926656D01*
X139677149Y-109920695D01*
X139654049Y-109912430D01*
X139631871Y-109901940D01*
X139610827Y-109889327D01*
X139591122Y-109874713D01*
X139572943Y-109858237D01*
X139556467Y-109840058D01*
X139541853Y-109820353D01*
X139529240Y-109799309D01*
X139518750Y-109777131D01*
X139510485Y-109754031D01*
X139504524Y-109730233D01*
X139500924Y-109705964D01*
X139499720Y-109681460D01*
X139499720Y-108431460D01*
X139500924Y-108406956D01*
X139504524Y-108382687D01*
X139510485Y-108358889D01*
X139518750Y-108335789D01*
X139529240Y-108313611D01*
X139541853Y-108292567D01*
X139556467Y-108272862D01*
X139572943Y-108254683D01*
X139591122Y-108238207D01*
X139610827Y-108223593D01*
X139631871Y-108210980D01*
X139654049Y-108200490D01*
X139677149Y-108192225D01*
X139700947Y-108186264D01*
X139725216Y-108182664D01*
X139749720Y-108181460D01*
X140674720Y-108181460D01*
X140699224Y-108182664D01*
X140699224Y-108182664D01*
G37*
D22*
X140212220Y-109056460D03*
D17*
G36*
X137724224Y-108182664D02*
G01*
X137748493Y-108186264D01*
X137772291Y-108192225D01*
X137795391Y-108200490D01*
X137817569Y-108210980D01*
X137838613Y-108223593D01*
X137858318Y-108238207D01*
X137876497Y-108254683D01*
X137892973Y-108272862D01*
X137907587Y-108292567D01*
X137920200Y-108313611D01*
X137930690Y-108335789D01*
X137938955Y-108358889D01*
X137944916Y-108382687D01*
X137948516Y-108406956D01*
X137949720Y-108431460D01*
X137949720Y-109681460D01*
X137948516Y-109705964D01*
X137944916Y-109730233D01*
X137938955Y-109754031D01*
X137930690Y-109777131D01*
X137920200Y-109799309D01*
X137907587Y-109820353D01*
X137892973Y-109840058D01*
X137876497Y-109858237D01*
X137858318Y-109874713D01*
X137838613Y-109889327D01*
X137817569Y-109901940D01*
X137795391Y-109912430D01*
X137772291Y-109920695D01*
X137748493Y-109926656D01*
X137724224Y-109930256D01*
X137699720Y-109931460D01*
X136774720Y-109931460D01*
X136750216Y-109930256D01*
X136725947Y-109926656D01*
X136702149Y-109920695D01*
X136679049Y-109912430D01*
X136656871Y-109901940D01*
X136635827Y-109889327D01*
X136616122Y-109874713D01*
X136597943Y-109858237D01*
X136581467Y-109840058D01*
X136566853Y-109820353D01*
X136554240Y-109799309D01*
X136543750Y-109777131D01*
X136535485Y-109754031D01*
X136529524Y-109730233D01*
X136525924Y-109705964D01*
X136524720Y-109681460D01*
X136524720Y-108431460D01*
X136525924Y-108406956D01*
X136529524Y-108382687D01*
X136535485Y-108358889D01*
X136543750Y-108335789D01*
X136554240Y-108313611D01*
X136566853Y-108292567D01*
X136581467Y-108272862D01*
X136597943Y-108254683D01*
X136616122Y-108238207D01*
X136635827Y-108223593D01*
X136656871Y-108210980D01*
X136679049Y-108200490D01*
X136702149Y-108192225D01*
X136725947Y-108186264D01*
X136750216Y-108182664D01*
X136774720Y-108181460D01*
X137699720Y-108181460D01*
X137724224Y-108182664D01*
X137724224Y-108182664D01*
G37*
D22*
X137237220Y-109056460D03*
D17*
G36*
X140707784Y-111281464D02*
G01*
X140732053Y-111285064D01*
X140755851Y-111291025D01*
X140778951Y-111299290D01*
X140801129Y-111309780D01*
X140822173Y-111322393D01*
X140841878Y-111337007D01*
X140860057Y-111353483D01*
X140876533Y-111371662D01*
X140891147Y-111391367D01*
X140903760Y-111412411D01*
X140914250Y-111434589D01*
X140922515Y-111457689D01*
X140928476Y-111481487D01*
X140932076Y-111505756D01*
X140933280Y-111530260D01*
X140933280Y-112780260D01*
X140932076Y-112804764D01*
X140928476Y-112829033D01*
X140922515Y-112852831D01*
X140914250Y-112875931D01*
X140903760Y-112898109D01*
X140891147Y-112919153D01*
X140876533Y-112938858D01*
X140860057Y-112957037D01*
X140841878Y-112973513D01*
X140822173Y-112988127D01*
X140801129Y-113000740D01*
X140778951Y-113011230D01*
X140755851Y-113019495D01*
X140732053Y-113025456D01*
X140707784Y-113029056D01*
X140683280Y-113030260D01*
X139758280Y-113030260D01*
X139733776Y-113029056D01*
X139709507Y-113025456D01*
X139685709Y-113019495D01*
X139662609Y-113011230D01*
X139640431Y-113000740D01*
X139619387Y-112988127D01*
X139599682Y-112973513D01*
X139581503Y-112957037D01*
X139565027Y-112938858D01*
X139550413Y-112919153D01*
X139537800Y-112898109D01*
X139527310Y-112875931D01*
X139519045Y-112852831D01*
X139513084Y-112829033D01*
X139509484Y-112804764D01*
X139508280Y-112780260D01*
X139508280Y-111530260D01*
X139509484Y-111505756D01*
X139513084Y-111481487D01*
X139519045Y-111457689D01*
X139527310Y-111434589D01*
X139537800Y-111412411D01*
X139550413Y-111391367D01*
X139565027Y-111371662D01*
X139581503Y-111353483D01*
X139599682Y-111337007D01*
X139619387Y-111322393D01*
X139640431Y-111309780D01*
X139662609Y-111299290D01*
X139685709Y-111291025D01*
X139709507Y-111285064D01*
X139733776Y-111281464D01*
X139758280Y-111280260D01*
X140683280Y-111280260D01*
X140707784Y-111281464D01*
X140707784Y-111281464D01*
G37*
D22*
X140220780Y-112155260D03*
D17*
G36*
X137732784Y-111281464D02*
G01*
X137757053Y-111285064D01*
X137780851Y-111291025D01*
X137803951Y-111299290D01*
X137826129Y-111309780D01*
X137847173Y-111322393D01*
X137866878Y-111337007D01*
X137885057Y-111353483D01*
X137901533Y-111371662D01*
X137916147Y-111391367D01*
X137928760Y-111412411D01*
X137939250Y-111434589D01*
X137947515Y-111457689D01*
X137953476Y-111481487D01*
X137957076Y-111505756D01*
X137958280Y-111530260D01*
X137958280Y-112780260D01*
X137957076Y-112804764D01*
X137953476Y-112829033D01*
X137947515Y-112852831D01*
X137939250Y-112875931D01*
X137928760Y-112898109D01*
X137916147Y-112919153D01*
X137901533Y-112938858D01*
X137885057Y-112957037D01*
X137866878Y-112973513D01*
X137847173Y-112988127D01*
X137826129Y-113000740D01*
X137803951Y-113011230D01*
X137780851Y-113019495D01*
X137757053Y-113025456D01*
X137732784Y-113029056D01*
X137708280Y-113030260D01*
X136783280Y-113030260D01*
X136758776Y-113029056D01*
X136734507Y-113025456D01*
X136710709Y-113019495D01*
X136687609Y-113011230D01*
X136665431Y-113000740D01*
X136644387Y-112988127D01*
X136624682Y-112973513D01*
X136606503Y-112957037D01*
X136590027Y-112938858D01*
X136575413Y-112919153D01*
X136562800Y-112898109D01*
X136552310Y-112875931D01*
X136544045Y-112852831D01*
X136538084Y-112829033D01*
X136534484Y-112804764D01*
X136533280Y-112780260D01*
X136533280Y-111530260D01*
X136534484Y-111505756D01*
X136538084Y-111481487D01*
X136544045Y-111457689D01*
X136552310Y-111434589D01*
X136562800Y-111412411D01*
X136575413Y-111391367D01*
X136590027Y-111371662D01*
X136606503Y-111353483D01*
X136624682Y-111337007D01*
X136644387Y-111322393D01*
X136665431Y-111309780D01*
X136687609Y-111299290D01*
X136710709Y-111291025D01*
X136734507Y-111285064D01*
X136758776Y-111281464D01*
X136783280Y-111280260D01*
X137708280Y-111280260D01*
X137732784Y-111281464D01*
X137732784Y-111281464D01*
G37*
D22*
X137245780Y-112155260D03*
D17*
G36*
X156103384Y-82218784D02*
G01*
X156127653Y-82222384D01*
X156151451Y-82228345D01*
X156174551Y-82236610D01*
X156196729Y-82247100D01*
X156217773Y-82259713D01*
X156237478Y-82274327D01*
X156255657Y-82290803D01*
X156272133Y-82308982D01*
X156286747Y-82328687D01*
X156299360Y-82349731D01*
X156309850Y-82371909D01*
X156318115Y-82395009D01*
X156324076Y-82418807D01*
X156327676Y-82443076D01*
X156328880Y-82467580D01*
X156328880Y-83717580D01*
X156327676Y-83742084D01*
X156324076Y-83766353D01*
X156318115Y-83790151D01*
X156309850Y-83813251D01*
X156299360Y-83835429D01*
X156286747Y-83856473D01*
X156272133Y-83876178D01*
X156255657Y-83894357D01*
X156237478Y-83910833D01*
X156217773Y-83925447D01*
X156196729Y-83938060D01*
X156174551Y-83948550D01*
X156151451Y-83956815D01*
X156127653Y-83962776D01*
X156103384Y-83966376D01*
X156078880Y-83967580D01*
X155153880Y-83967580D01*
X155129376Y-83966376D01*
X155105107Y-83962776D01*
X155081309Y-83956815D01*
X155058209Y-83948550D01*
X155036031Y-83938060D01*
X155014987Y-83925447D01*
X154995282Y-83910833D01*
X154977103Y-83894357D01*
X154960627Y-83876178D01*
X154946013Y-83856473D01*
X154933400Y-83835429D01*
X154922910Y-83813251D01*
X154914645Y-83790151D01*
X154908684Y-83766353D01*
X154905084Y-83742084D01*
X154903880Y-83717580D01*
X154903880Y-82467580D01*
X154905084Y-82443076D01*
X154908684Y-82418807D01*
X154914645Y-82395009D01*
X154922910Y-82371909D01*
X154933400Y-82349731D01*
X154946013Y-82328687D01*
X154960627Y-82308982D01*
X154977103Y-82290803D01*
X154995282Y-82274327D01*
X155014987Y-82259713D01*
X155036031Y-82247100D01*
X155058209Y-82236610D01*
X155081309Y-82228345D01*
X155105107Y-82222384D01*
X155129376Y-82218784D01*
X155153880Y-82217580D01*
X156078880Y-82217580D01*
X156103384Y-82218784D01*
X156103384Y-82218784D01*
G37*
D22*
X155616380Y-83092580D03*
D17*
G36*
X153128384Y-82218784D02*
G01*
X153152653Y-82222384D01*
X153176451Y-82228345D01*
X153199551Y-82236610D01*
X153221729Y-82247100D01*
X153242773Y-82259713D01*
X153262478Y-82274327D01*
X153280657Y-82290803D01*
X153297133Y-82308982D01*
X153311747Y-82328687D01*
X153324360Y-82349731D01*
X153334850Y-82371909D01*
X153343115Y-82395009D01*
X153349076Y-82418807D01*
X153352676Y-82443076D01*
X153353880Y-82467580D01*
X153353880Y-83717580D01*
X153352676Y-83742084D01*
X153349076Y-83766353D01*
X153343115Y-83790151D01*
X153334850Y-83813251D01*
X153324360Y-83835429D01*
X153311747Y-83856473D01*
X153297133Y-83876178D01*
X153280657Y-83894357D01*
X153262478Y-83910833D01*
X153242773Y-83925447D01*
X153221729Y-83938060D01*
X153199551Y-83948550D01*
X153176451Y-83956815D01*
X153152653Y-83962776D01*
X153128384Y-83966376D01*
X153103880Y-83967580D01*
X152178880Y-83967580D01*
X152154376Y-83966376D01*
X152130107Y-83962776D01*
X152106309Y-83956815D01*
X152083209Y-83948550D01*
X152061031Y-83938060D01*
X152039987Y-83925447D01*
X152020282Y-83910833D01*
X152002103Y-83894357D01*
X151985627Y-83876178D01*
X151971013Y-83856473D01*
X151958400Y-83835429D01*
X151947910Y-83813251D01*
X151939645Y-83790151D01*
X151933684Y-83766353D01*
X151930084Y-83742084D01*
X151928880Y-83717580D01*
X151928880Y-82467580D01*
X151930084Y-82443076D01*
X151933684Y-82418807D01*
X151939645Y-82395009D01*
X151947910Y-82371909D01*
X151958400Y-82349731D01*
X151971013Y-82328687D01*
X151985627Y-82308982D01*
X152002103Y-82290803D01*
X152020282Y-82274327D01*
X152039987Y-82259713D01*
X152061031Y-82247100D01*
X152083209Y-82236610D01*
X152106309Y-82228345D01*
X152130107Y-82222384D01*
X152154376Y-82218784D01*
X152178880Y-82217580D01*
X153103880Y-82217580D01*
X153128384Y-82218784D01*
X153128384Y-82218784D01*
G37*
D22*
X152641380Y-83092580D03*
D17*
G36*
X177621604Y-91827604D02*
G01*
X177645873Y-91831204D01*
X177669671Y-91837165D01*
X177692771Y-91845430D01*
X177714949Y-91855920D01*
X177735993Y-91868533D01*
X177755698Y-91883147D01*
X177773877Y-91899623D01*
X177790353Y-91917802D01*
X177804967Y-91937507D01*
X177817580Y-91958551D01*
X177828070Y-91980729D01*
X177836335Y-92003829D01*
X177842296Y-92027627D01*
X177845896Y-92051896D01*
X177847100Y-92076400D01*
X177847100Y-93326400D01*
X177845896Y-93350904D01*
X177842296Y-93375173D01*
X177836335Y-93398971D01*
X177828070Y-93422071D01*
X177817580Y-93444249D01*
X177804967Y-93465293D01*
X177790353Y-93484998D01*
X177773877Y-93503177D01*
X177755698Y-93519653D01*
X177735993Y-93534267D01*
X177714949Y-93546880D01*
X177692771Y-93557370D01*
X177669671Y-93565635D01*
X177645873Y-93571596D01*
X177621604Y-93575196D01*
X177597100Y-93576400D01*
X176672100Y-93576400D01*
X176647596Y-93575196D01*
X176623327Y-93571596D01*
X176599529Y-93565635D01*
X176576429Y-93557370D01*
X176554251Y-93546880D01*
X176533207Y-93534267D01*
X176513502Y-93519653D01*
X176495323Y-93503177D01*
X176478847Y-93484998D01*
X176464233Y-93465293D01*
X176451620Y-93444249D01*
X176441130Y-93422071D01*
X176432865Y-93398971D01*
X176426904Y-93375173D01*
X176423304Y-93350904D01*
X176422100Y-93326400D01*
X176422100Y-92076400D01*
X176423304Y-92051896D01*
X176426904Y-92027627D01*
X176432865Y-92003829D01*
X176441130Y-91980729D01*
X176451620Y-91958551D01*
X176464233Y-91937507D01*
X176478847Y-91917802D01*
X176495323Y-91899623D01*
X176513502Y-91883147D01*
X176533207Y-91868533D01*
X176554251Y-91855920D01*
X176576429Y-91845430D01*
X176599529Y-91837165D01*
X176623327Y-91831204D01*
X176647596Y-91827604D01*
X176672100Y-91826400D01*
X177597100Y-91826400D01*
X177621604Y-91827604D01*
X177621604Y-91827604D01*
G37*
D22*
X177134600Y-92701400D03*
D17*
G36*
X180596604Y-91827604D02*
G01*
X180620873Y-91831204D01*
X180644671Y-91837165D01*
X180667771Y-91845430D01*
X180689949Y-91855920D01*
X180710993Y-91868533D01*
X180730698Y-91883147D01*
X180748877Y-91899623D01*
X180765353Y-91917802D01*
X180779967Y-91937507D01*
X180792580Y-91958551D01*
X180803070Y-91980729D01*
X180811335Y-92003829D01*
X180817296Y-92027627D01*
X180820896Y-92051896D01*
X180822100Y-92076400D01*
X180822100Y-93326400D01*
X180820896Y-93350904D01*
X180817296Y-93375173D01*
X180811335Y-93398971D01*
X180803070Y-93422071D01*
X180792580Y-93444249D01*
X180779967Y-93465293D01*
X180765353Y-93484998D01*
X180748877Y-93503177D01*
X180730698Y-93519653D01*
X180710993Y-93534267D01*
X180689949Y-93546880D01*
X180667771Y-93557370D01*
X180644671Y-93565635D01*
X180620873Y-93571596D01*
X180596604Y-93575196D01*
X180572100Y-93576400D01*
X179647100Y-93576400D01*
X179622596Y-93575196D01*
X179598327Y-93571596D01*
X179574529Y-93565635D01*
X179551429Y-93557370D01*
X179529251Y-93546880D01*
X179508207Y-93534267D01*
X179488502Y-93519653D01*
X179470323Y-93503177D01*
X179453847Y-93484998D01*
X179439233Y-93465293D01*
X179426620Y-93444249D01*
X179416130Y-93422071D01*
X179407865Y-93398971D01*
X179401904Y-93375173D01*
X179398304Y-93350904D01*
X179397100Y-93326400D01*
X179397100Y-92076400D01*
X179398304Y-92051896D01*
X179401904Y-92027627D01*
X179407865Y-92003829D01*
X179416130Y-91980729D01*
X179426620Y-91958551D01*
X179439233Y-91937507D01*
X179453847Y-91917802D01*
X179470323Y-91899623D01*
X179488502Y-91883147D01*
X179508207Y-91868533D01*
X179529251Y-91855920D01*
X179551429Y-91845430D01*
X179574529Y-91837165D01*
X179598327Y-91831204D01*
X179622596Y-91827604D01*
X179647100Y-91826400D01*
X180572100Y-91826400D01*
X180596604Y-91827604D01*
X180596604Y-91827604D01*
G37*
D22*
X180109600Y-92701400D03*
D17*
G36*
X177621604Y-94977204D02*
G01*
X177645873Y-94980804D01*
X177669671Y-94986765D01*
X177692771Y-94995030D01*
X177714949Y-95005520D01*
X177735993Y-95018133D01*
X177755698Y-95032747D01*
X177773877Y-95049223D01*
X177790353Y-95067402D01*
X177804967Y-95087107D01*
X177817580Y-95108151D01*
X177828070Y-95130329D01*
X177836335Y-95153429D01*
X177842296Y-95177227D01*
X177845896Y-95201496D01*
X177847100Y-95226000D01*
X177847100Y-96476000D01*
X177845896Y-96500504D01*
X177842296Y-96524773D01*
X177836335Y-96548571D01*
X177828070Y-96571671D01*
X177817580Y-96593849D01*
X177804967Y-96614893D01*
X177790353Y-96634598D01*
X177773877Y-96652777D01*
X177755698Y-96669253D01*
X177735993Y-96683867D01*
X177714949Y-96696480D01*
X177692771Y-96706970D01*
X177669671Y-96715235D01*
X177645873Y-96721196D01*
X177621604Y-96724796D01*
X177597100Y-96726000D01*
X176672100Y-96726000D01*
X176647596Y-96724796D01*
X176623327Y-96721196D01*
X176599529Y-96715235D01*
X176576429Y-96706970D01*
X176554251Y-96696480D01*
X176533207Y-96683867D01*
X176513502Y-96669253D01*
X176495323Y-96652777D01*
X176478847Y-96634598D01*
X176464233Y-96614893D01*
X176451620Y-96593849D01*
X176441130Y-96571671D01*
X176432865Y-96548571D01*
X176426904Y-96524773D01*
X176423304Y-96500504D01*
X176422100Y-96476000D01*
X176422100Y-95226000D01*
X176423304Y-95201496D01*
X176426904Y-95177227D01*
X176432865Y-95153429D01*
X176441130Y-95130329D01*
X176451620Y-95108151D01*
X176464233Y-95087107D01*
X176478847Y-95067402D01*
X176495323Y-95049223D01*
X176513502Y-95032747D01*
X176533207Y-95018133D01*
X176554251Y-95005520D01*
X176576429Y-94995030D01*
X176599529Y-94986765D01*
X176623327Y-94980804D01*
X176647596Y-94977204D01*
X176672100Y-94976000D01*
X177597100Y-94976000D01*
X177621604Y-94977204D01*
X177621604Y-94977204D01*
G37*
D22*
X177134600Y-95851000D03*
D17*
G36*
X180596604Y-94977204D02*
G01*
X180620873Y-94980804D01*
X180644671Y-94986765D01*
X180667771Y-94995030D01*
X180689949Y-95005520D01*
X180710993Y-95018133D01*
X180730698Y-95032747D01*
X180748877Y-95049223D01*
X180765353Y-95067402D01*
X180779967Y-95087107D01*
X180792580Y-95108151D01*
X180803070Y-95130329D01*
X180811335Y-95153429D01*
X180817296Y-95177227D01*
X180820896Y-95201496D01*
X180822100Y-95226000D01*
X180822100Y-96476000D01*
X180820896Y-96500504D01*
X180817296Y-96524773D01*
X180811335Y-96548571D01*
X180803070Y-96571671D01*
X180792580Y-96593849D01*
X180779967Y-96614893D01*
X180765353Y-96634598D01*
X180748877Y-96652777D01*
X180730698Y-96669253D01*
X180710993Y-96683867D01*
X180689949Y-96696480D01*
X180667771Y-96706970D01*
X180644671Y-96715235D01*
X180620873Y-96721196D01*
X180596604Y-96724796D01*
X180572100Y-96726000D01*
X179647100Y-96726000D01*
X179622596Y-96724796D01*
X179598327Y-96721196D01*
X179574529Y-96715235D01*
X179551429Y-96706970D01*
X179529251Y-96696480D01*
X179508207Y-96683867D01*
X179488502Y-96669253D01*
X179470323Y-96652777D01*
X179453847Y-96634598D01*
X179439233Y-96614893D01*
X179426620Y-96593849D01*
X179416130Y-96571671D01*
X179407865Y-96548571D01*
X179401904Y-96524773D01*
X179398304Y-96500504D01*
X179397100Y-96476000D01*
X179397100Y-95226000D01*
X179398304Y-95201496D01*
X179401904Y-95177227D01*
X179407865Y-95153429D01*
X179416130Y-95130329D01*
X179426620Y-95108151D01*
X179439233Y-95087107D01*
X179453847Y-95067402D01*
X179470323Y-95049223D01*
X179488502Y-95032747D01*
X179508207Y-95018133D01*
X179529251Y-95005520D01*
X179551429Y-94995030D01*
X179574529Y-94986765D01*
X179598327Y-94980804D01*
X179622596Y-94977204D01*
X179647100Y-94976000D01*
X180572100Y-94976000D01*
X180596604Y-94977204D01*
X180596604Y-94977204D01*
G37*
D22*
X180109600Y-95851000D03*
D17*
G36*
X121784124Y-115632484D02*
G01*
X121808393Y-115636084D01*
X121832191Y-115642045D01*
X121855291Y-115650310D01*
X121877469Y-115660800D01*
X121898513Y-115673413D01*
X121918218Y-115688027D01*
X121936397Y-115704503D01*
X121952873Y-115722682D01*
X121967487Y-115742387D01*
X121980100Y-115763431D01*
X121990590Y-115785609D01*
X121998855Y-115808709D01*
X122004816Y-115832507D01*
X122008416Y-115856776D01*
X122009620Y-115881280D01*
X122009620Y-117131280D01*
X122008416Y-117155784D01*
X122004816Y-117180053D01*
X121998855Y-117203851D01*
X121990590Y-117226951D01*
X121980100Y-117249129D01*
X121967487Y-117270173D01*
X121952873Y-117289878D01*
X121936397Y-117308057D01*
X121918218Y-117324533D01*
X121898513Y-117339147D01*
X121877469Y-117351760D01*
X121855291Y-117362250D01*
X121832191Y-117370515D01*
X121808393Y-117376476D01*
X121784124Y-117380076D01*
X121759620Y-117381280D01*
X120834620Y-117381280D01*
X120810116Y-117380076D01*
X120785847Y-117376476D01*
X120762049Y-117370515D01*
X120738949Y-117362250D01*
X120716771Y-117351760D01*
X120695727Y-117339147D01*
X120676022Y-117324533D01*
X120657843Y-117308057D01*
X120641367Y-117289878D01*
X120626753Y-117270173D01*
X120614140Y-117249129D01*
X120603650Y-117226951D01*
X120595385Y-117203851D01*
X120589424Y-117180053D01*
X120585824Y-117155784D01*
X120584620Y-117131280D01*
X120584620Y-115881280D01*
X120585824Y-115856776D01*
X120589424Y-115832507D01*
X120595385Y-115808709D01*
X120603650Y-115785609D01*
X120614140Y-115763431D01*
X120626753Y-115742387D01*
X120641367Y-115722682D01*
X120657843Y-115704503D01*
X120676022Y-115688027D01*
X120695727Y-115673413D01*
X120716771Y-115660800D01*
X120738949Y-115650310D01*
X120762049Y-115642045D01*
X120785847Y-115636084D01*
X120810116Y-115632484D01*
X120834620Y-115631280D01*
X121759620Y-115631280D01*
X121784124Y-115632484D01*
X121784124Y-115632484D01*
G37*
D22*
X121297120Y-116506280D03*
D17*
G36*
X124759124Y-115632484D02*
G01*
X124783393Y-115636084D01*
X124807191Y-115642045D01*
X124830291Y-115650310D01*
X124852469Y-115660800D01*
X124873513Y-115673413D01*
X124893218Y-115688027D01*
X124911397Y-115704503D01*
X124927873Y-115722682D01*
X124942487Y-115742387D01*
X124955100Y-115763431D01*
X124965590Y-115785609D01*
X124973855Y-115808709D01*
X124979816Y-115832507D01*
X124983416Y-115856776D01*
X124984620Y-115881280D01*
X124984620Y-117131280D01*
X124983416Y-117155784D01*
X124979816Y-117180053D01*
X124973855Y-117203851D01*
X124965590Y-117226951D01*
X124955100Y-117249129D01*
X124942487Y-117270173D01*
X124927873Y-117289878D01*
X124911397Y-117308057D01*
X124893218Y-117324533D01*
X124873513Y-117339147D01*
X124852469Y-117351760D01*
X124830291Y-117362250D01*
X124807191Y-117370515D01*
X124783393Y-117376476D01*
X124759124Y-117380076D01*
X124734620Y-117381280D01*
X123809620Y-117381280D01*
X123785116Y-117380076D01*
X123760847Y-117376476D01*
X123737049Y-117370515D01*
X123713949Y-117362250D01*
X123691771Y-117351760D01*
X123670727Y-117339147D01*
X123651022Y-117324533D01*
X123632843Y-117308057D01*
X123616367Y-117289878D01*
X123601753Y-117270173D01*
X123589140Y-117249129D01*
X123578650Y-117226951D01*
X123570385Y-117203851D01*
X123564424Y-117180053D01*
X123560824Y-117155784D01*
X123559620Y-117131280D01*
X123559620Y-115881280D01*
X123560824Y-115856776D01*
X123564424Y-115832507D01*
X123570385Y-115808709D01*
X123578650Y-115785609D01*
X123589140Y-115763431D01*
X123601753Y-115742387D01*
X123616367Y-115722682D01*
X123632843Y-115704503D01*
X123651022Y-115688027D01*
X123670727Y-115673413D01*
X123691771Y-115660800D01*
X123713949Y-115650310D01*
X123737049Y-115642045D01*
X123760847Y-115636084D01*
X123785116Y-115632484D01*
X123809620Y-115631280D01*
X124734620Y-115631280D01*
X124759124Y-115632484D01*
X124759124Y-115632484D01*
G37*
D22*
X124272120Y-116506280D03*
D17*
G36*
X122228624Y-96135444D02*
G01*
X122252893Y-96139044D01*
X122276691Y-96145005D01*
X122299791Y-96153270D01*
X122321969Y-96163760D01*
X122343013Y-96176373D01*
X122362718Y-96190987D01*
X122380897Y-96207463D01*
X122397373Y-96225642D01*
X122411987Y-96245347D01*
X122424600Y-96266391D01*
X122435090Y-96288569D01*
X122443355Y-96311669D01*
X122449316Y-96335467D01*
X122452916Y-96359736D01*
X122454120Y-96384240D01*
X122454120Y-97634240D01*
X122452916Y-97658744D01*
X122449316Y-97683013D01*
X122443355Y-97706811D01*
X122435090Y-97729911D01*
X122424600Y-97752089D01*
X122411987Y-97773133D01*
X122397373Y-97792838D01*
X122380897Y-97811017D01*
X122362718Y-97827493D01*
X122343013Y-97842107D01*
X122321969Y-97854720D01*
X122299791Y-97865210D01*
X122276691Y-97873475D01*
X122252893Y-97879436D01*
X122228624Y-97883036D01*
X122204120Y-97884240D01*
X121279120Y-97884240D01*
X121254616Y-97883036D01*
X121230347Y-97879436D01*
X121206549Y-97873475D01*
X121183449Y-97865210D01*
X121161271Y-97854720D01*
X121140227Y-97842107D01*
X121120522Y-97827493D01*
X121102343Y-97811017D01*
X121085867Y-97792838D01*
X121071253Y-97773133D01*
X121058640Y-97752089D01*
X121048150Y-97729911D01*
X121039885Y-97706811D01*
X121033924Y-97683013D01*
X121030324Y-97658744D01*
X121029120Y-97634240D01*
X121029120Y-96384240D01*
X121030324Y-96359736D01*
X121033924Y-96335467D01*
X121039885Y-96311669D01*
X121048150Y-96288569D01*
X121058640Y-96266391D01*
X121071253Y-96245347D01*
X121085867Y-96225642D01*
X121102343Y-96207463D01*
X121120522Y-96190987D01*
X121140227Y-96176373D01*
X121161271Y-96163760D01*
X121183449Y-96153270D01*
X121206549Y-96145005D01*
X121230347Y-96139044D01*
X121254616Y-96135444D01*
X121279120Y-96134240D01*
X122204120Y-96134240D01*
X122228624Y-96135444D01*
X122228624Y-96135444D01*
G37*
D22*
X121741620Y-97009240D03*
D17*
G36*
X125203624Y-96135444D02*
G01*
X125227893Y-96139044D01*
X125251691Y-96145005D01*
X125274791Y-96153270D01*
X125296969Y-96163760D01*
X125318013Y-96176373D01*
X125337718Y-96190987D01*
X125355897Y-96207463D01*
X125372373Y-96225642D01*
X125386987Y-96245347D01*
X125399600Y-96266391D01*
X125410090Y-96288569D01*
X125418355Y-96311669D01*
X125424316Y-96335467D01*
X125427916Y-96359736D01*
X125429120Y-96384240D01*
X125429120Y-97634240D01*
X125427916Y-97658744D01*
X125424316Y-97683013D01*
X125418355Y-97706811D01*
X125410090Y-97729911D01*
X125399600Y-97752089D01*
X125386987Y-97773133D01*
X125372373Y-97792838D01*
X125355897Y-97811017D01*
X125337718Y-97827493D01*
X125318013Y-97842107D01*
X125296969Y-97854720D01*
X125274791Y-97865210D01*
X125251691Y-97873475D01*
X125227893Y-97879436D01*
X125203624Y-97883036D01*
X125179120Y-97884240D01*
X124254120Y-97884240D01*
X124229616Y-97883036D01*
X124205347Y-97879436D01*
X124181549Y-97873475D01*
X124158449Y-97865210D01*
X124136271Y-97854720D01*
X124115227Y-97842107D01*
X124095522Y-97827493D01*
X124077343Y-97811017D01*
X124060867Y-97792838D01*
X124046253Y-97773133D01*
X124033640Y-97752089D01*
X124023150Y-97729911D01*
X124014885Y-97706811D01*
X124008924Y-97683013D01*
X124005324Y-97658744D01*
X124004120Y-97634240D01*
X124004120Y-96384240D01*
X124005324Y-96359736D01*
X124008924Y-96335467D01*
X124014885Y-96311669D01*
X124023150Y-96288569D01*
X124033640Y-96266391D01*
X124046253Y-96245347D01*
X124060867Y-96225642D01*
X124077343Y-96207463D01*
X124095522Y-96190987D01*
X124115227Y-96176373D01*
X124136271Y-96163760D01*
X124158449Y-96153270D01*
X124181549Y-96145005D01*
X124205347Y-96139044D01*
X124229616Y-96135444D01*
X124254120Y-96134240D01*
X125179120Y-96134240D01*
X125203624Y-96135444D01*
X125203624Y-96135444D01*
G37*
D22*
X124716620Y-97009240D03*
D17*
G36*
X141439224Y-97058310D02*
G01*
X141463493Y-97061910D01*
X141487291Y-97067871D01*
X141510391Y-97076136D01*
X141532569Y-97086626D01*
X141553613Y-97099239D01*
X141573318Y-97113853D01*
X141591497Y-97130329D01*
X141607973Y-97148508D01*
X141622587Y-97168213D01*
X141635200Y-97189257D01*
X141645690Y-97211435D01*
X141653955Y-97234535D01*
X141659916Y-97258333D01*
X141663516Y-97282602D01*
X141664720Y-97307106D01*
X141664720Y-98557106D01*
X141663516Y-98581610D01*
X141659916Y-98605879D01*
X141653955Y-98629677D01*
X141645690Y-98652777D01*
X141635200Y-98674955D01*
X141622587Y-98695999D01*
X141607973Y-98715704D01*
X141591497Y-98733883D01*
X141573318Y-98750359D01*
X141553613Y-98764973D01*
X141532569Y-98777586D01*
X141510391Y-98788076D01*
X141487291Y-98796341D01*
X141463493Y-98802302D01*
X141439224Y-98805902D01*
X141414720Y-98807106D01*
X140489720Y-98807106D01*
X140465216Y-98805902D01*
X140440947Y-98802302D01*
X140417149Y-98796341D01*
X140394049Y-98788076D01*
X140371871Y-98777586D01*
X140350827Y-98764973D01*
X140331122Y-98750359D01*
X140312943Y-98733883D01*
X140296467Y-98715704D01*
X140281853Y-98695999D01*
X140269240Y-98674955D01*
X140258750Y-98652777D01*
X140250485Y-98629677D01*
X140244524Y-98605879D01*
X140240924Y-98581610D01*
X140239720Y-98557106D01*
X140239720Y-97307106D01*
X140240924Y-97282602D01*
X140244524Y-97258333D01*
X140250485Y-97234535D01*
X140258750Y-97211435D01*
X140269240Y-97189257D01*
X140281853Y-97168213D01*
X140296467Y-97148508D01*
X140312943Y-97130329D01*
X140331122Y-97113853D01*
X140350827Y-97099239D01*
X140371871Y-97086626D01*
X140394049Y-97076136D01*
X140417149Y-97067871D01*
X140440947Y-97061910D01*
X140465216Y-97058310D01*
X140489720Y-97057106D01*
X141414720Y-97057106D01*
X141439224Y-97058310D01*
X141439224Y-97058310D01*
G37*
D22*
X140952220Y-97932106D03*
D17*
G36*
X138464224Y-97058310D02*
G01*
X138488493Y-97061910D01*
X138512291Y-97067871D01*
X138535391Y-97076136D01*
X138557569Y-97086626D01*
X138578613Y-97099239D01*
X138598318Y-97113853D01*
X138616497Y-97130329D01*
X138632973Y-97148508D01*
X138647587Y-97168213D01*
X138660200Y-97189257D01*
X138670690Y-97211435D01*
X138678955Y-97234535D01*
X138684916Y-97258333D01*
X138688516Y-97282602D01*
X138689720Y-97307106D01*
X138689720Y-98557106D01*
X138688516Y-98581610D01*
X138684916Y-98605879D01*
X138678955Y-98629677D01*
X138670690Y-98652777D01*
X138660200Y-98674955D01*
X138647587Y-98695999D01*
X138632973Y-98715704D01*
X138616497Y-98733883D01*
X138598318Y-98750359D01*
X138578613Y-98764973D01*
X138557569Y-98777586D01*
X138535391Y-98788076D01*
X138512291Y-98796341D01*
X138488493Y-98802302D01*
X138464224Y-98805902D01*
X138439720Y-98807106D01*
X137514720Y-98807106D01*
X137490216Y-98805902D01*
X137465947Y-98802302D01*
X137442149Y-98796341D01*
X137419049Y-98788076D01*
X137396871Y-98777586D01*
X137375827Y-98764973D01*
X137356122Y-98750359D01*
X137337943Y-98733883D01*
X137321467Y-98715704D01*
X137306853Y-98695999D01*
X137294240Y-98674955D01*
X137283750Y-98652777D01*
X137275485Y-98629677D01*
X137269524Y-98605879D01*
X137265924Y-98581610D01*
X137264720Y-98557106D01*
X137264720Y-97307106D01*
X137265924Y-97282602D01*
X137269524Y-97258333D01*
X137275485Y-97234535D01*
X137283750Y-97211435D01*
X137294240Y-97189257D01*
X137306853Y-97168213D01*
X137321467Y-97148508D01*
X137337943Y-97130329D01*
X137356122Y-97113853D01*
X137375827Y-97099239D01*
X137396871Y-97086626D01*
X137419049Y-97076136D01*
X137442149Y-97067871D01*
X137465947Y-97061910D01*
X137490216Y-97058310D01*
X137514720Y-97057106D01*
X138439720Y-97057106D01*
X138464224Y-97058310D01*
X138464224Y-97058310D01*
G37*
D22*
X137977220Y-97932106D03*
D17*
G36*
X122228624Y-100370604D02*
G01*
X122252893Y-100374204D01*
X122276691Y-100380165D01*
X122299791Y-100388430D01*
X122321969Y-100398920D01*
X122343013Y-100411533D01*
X122362718Y-100426147D01*
X122380897Y-100442623D01*
X122397373Y-100460802D01*
X122411987Y-100480507D01*
X122424600Y-100501551D01*
X122435090Y-100523729D01*
X122443355Y-100546829D01*
X122449316Y-100570627D01*
X122452916Y-100594896D01*
X122454120Y-100619400D01*
X122454120Y-101869400D01*
X122452916Y-101893904D01*
X122449316Y-101918173D01*
X122443355Y-101941971D01*
X122435090Y-101965071D01*
X122424600Y-101987249D01*
X122411987Y-102008293D01*
X122397373Y-102027998D01*
X122380897Y-102046177D01*
X122362718Y-102062653D01*
X122343013Y-102077267D01*
X122321969Y-102089880D01*
X122299791Y-102100370D01*
X122276691Y-102108635D01*
X122252893Y-102114596D01*
X122228624Y-102118196D01*
X122204120Y-102119400D01*
X121279120Y-102119400D01*
X121254616Y-102118196D01*
X121230347Y-102114596D01*
X121206549Y-102108635D01*
X121183449Y-102100370D01*
X121161271Y-102089880D01*
X121140227Y-102077267D01*
X121120522Y-102062653D01*
X121102343Y-102046177D01*
X121085867Y-102027998D01*
X121071253Y-102008293D01*
X121058640Y-101987249D01*
X121048150Y-101965071D01*
X121039885Y-101941971D01*
X121033924Y-101918173D01*
X121030324Y-101893904D01*
X121029120Y-101869400D01*
X121029120Y-100619400D01*
X121030324Y-100594896D01*
X121033924Y-100570627D01*
X121039885Y-100546829D01*
X121048150Y-100523729D01*
X121058640Y-100501551D01*
X121071253Y-100480507D01*
X121085867Y-100460802D01*
X121102343Y-100442623D01*
X121120522Y-100426147D01*
X121140227Y-100411533D01*
X121161271Y-100398920D01*
X121183449Y-100388430D01*
X121206549Y-100380165D01*
X121230347Y-100374204D01*
X121254616Y-100370604D01*
X121279120Y-100369400D01*
X122204120Y-100369400D01*
X122228624Y-100370604D01*
X122228624Y-100370604D01*
G37*
D22*
X121741620Y-101244400D03*
D17*
G36*
X125203624Y-100370604D02*
G01*
X125227893Y-100374204D01*
X125251691Y-100380165D01*
X125274791Y-100388430D01*
X125296969Y-100398920D01*
X125318013Y-100411533D01*
X125337718Y-100426147D01*
X125355897Y-100442623D01*
X125372373Y-100460802D01*
X125386987Y-100480507D01*
X125399600Y-100501551D01*
X125410090Y-100523729D01*
X125418355Y-100546829D01*
X125424316Y-100570627D01*
X125427916Y-100594896D01*
X125429120Y-100619400D01*
X125429120Y-101869400D01*
X125427916Y-101893904D01*
X125424316Y-101918173D01*
X125418355Y-101941971D01*
X125410090Y-101965071D01*
X125399600Y-101987249D01*
X125386987Y-102008293D01*
X125372373Y-102027998D01*
X125355897Y-102046177D01*
X125337718Y-102062653D01*
X125318013Y-102077267D01*
X125296969Y-102089880D01*
X125274791Y-102100370D01*
X125251691Y-102108635D01*
X125227893Y-102114596D01*
X125203624Y-102118196D01*
X125179120Y-102119400D01*
X124254120Y-102119400D01*
X124229616Y-102118196D01*
X124205347Y-102114596D01*
X124181549Y-102108635D01*
X124158449Y-102100370D01*
X124136271Y-102089880D01*
X124115227Y-102077267D01*
X124095522Y-102062653D01*
X124077343Y-102046177D01*
X124060867Y-102027998D01*
X124046253Y-102008293D01*
X124033640Y-101987249D01*
X124023150Y-101965071D01*
X124014885Y-101941971D01*
X124008924Y-101918173D01*
X124005324Y-101893904D01*
X124004120Y-101869400D01*
X124004120Y-100619400D01*
X124005324Y-100594896D01*
X124008924Y-100570627D01*
X124014885Y-100546829D01*
X124023150Y-100523729D01*
X124033640Y-100501551D01*
X124046253Y-100480507D01*
X124060867Y-100460802D01*
X124077343Y-100442623D01*
X124095522Y-100426147D01*
X124115227Y-100411533D01*
X124136271Y-100398920D01*
X124158449Y-100388430D01*
X124181549Y-100380165D01*
X124205347Y-100374204D01*
X124229616Y-100370604D01*
X124254120Y-100369400D01*
X125179120Y-100369400D01*
X125203624Y-100370604D01*
X125203624Y-100370604D01*
G37*
D22*
X124716620Y-101244400D03*
D17*
G36*
X138302324Y-133446484D02*
G01*
X138326593Y-133450084D01*
X138350391Y-133456045D01*
X138373491Y-133464310D01*
X138395669Y-133474800D01*
X138416713Y-133487413D01*
X138436418Y-133502027D01*
X138454597Y-133518503D01*
X138471073Y-133536682D01*
X138485687Y-133556387D01*
X138498300Y-133577431D01*
X138508790Y-133599609D01*
X138517055Y-133622709D01*
X138523016Y-133646507D01*
X138526616Y-133670776D01*
X138527820Y-133695280D01*
X138527820Y-134945280D01*
X138526616Y-134969784D01*
X138523016Y-134994053D01*
X138517055Y-135017851D01*
X138508790Y-135040951D01*
X138498300Y-135063129D01*
X138485687Y-135084173D01*
X138471073Y-135103878D01*
X138454597Y-135122057D01*
X138436418Y-135138533D01*
X138416713Y-135153147D01*
X138395669Y-135165760D01*
X138373491Y-135176250D01*
X138350391Y-135184515D01*
X138326593Y-135190476D01*
X138302324Y-135194076D01*
X138277820Y-135195280D01*
X137352820Y-135195280D01*
X137328316Y-135194076D01*
X137304047Y-135190476D01*
X137280249Y-135184515D01*
X137257149Y-135176250D01*
X137234971Y-135165760D01*
X137213927Y-135153147D01*
X137194222Y-135138533D01*
X137176043Y-135122057D01*
X137159567Y-135103878D01*
X137144953Y-135084173D01*
X137132340Y-135063129D01*
X137121850Y-135040951D01*
X137113585Y-135017851D01*
X137107624Y-134994053D01*
X137104024Y-134969784D01*
X137102820Y-134945280D01*
X137102820Y-133695280D01*
X137104024Y-133670776D01*
X137107624Y-133646507D01*
X137113585Y-133622709D01*
X137121850Y-133599609D01*
X137132340Y-133577431D01*
X137144953Y-133556387D01*
X137159567Y-133536682D01*
X137176043Y-133518503D01*
X137194222Y-133502027D01*
X137213927Y-133487413D01*
X137234971Y-133474800D01*
X137257149Y-133464310D01*
X137280249Y-133456045D01*
X137304047Y-133450084D01*
X137328316Y-133446484D01*
X137352820Y-133445280D01*
X138277820Y-133445280D01*
X138302324Y-133446484D01*
X138302324Y-133446484D01*
G37*
D22*
X137815320Y-134320280D03*
D17*
G36*
X141277324Y-133446484D02*
G01*
X141301593Y-133450084D01*
X141325391Y-133456045D01*
X141348491Y-133464310D01*
X141370669Y-133474800D01*
X141391713Y-133487413D01*
X141411418Y-133502027D01*
X141429597Y-133518503D01*
X141446073Y-133536682D01*
X141460687Y-133556387D01*
X141473300Y-133577431D01*
X141483790Y-133599609D01*
X141492055Y-133622709D01*
X141498016Y-133646507D01*
X141501616Y-133670776D01*
X141502820Y-133695280D01*
X141502820Y-134945280D01*
X141501616Y-134969784D01*
X141498016Y-134994053D01*
X141492055Y-135017851D01*
X141483790Y-135040951D01*
X141473300Y-135063129D01*
X141460687Y-135084173D01*
X141446073Y-135103878D01*
X141429597Y-135122057D01*
X141411418Y-135138533D01*
X141391713Y-135153147D01*
X141370669Y-135165760D01*
X141348491Y-135176250D01*
X141325391Y-135184515D01*
X141301593Y-135190476D01*
X141277324Y-135194076D01*
X141252820Y-135195280D01*
X140327820Y-135195280D01*
X140303316Y-135194076D01*
X140279047Y-135190476D01*
X140255249Y-135184515D01*
X140232149Y-135176250D01*
X140209971Y-135165760D01*
X140188927Y-135153147D01*
X140169222Y-135138533D01*
X140151043Y-135122057D01*
X140134567Y-135103878D01*
X140119953Y-135084173D01*
X140107340Y-135063129D01*
X140096850Y-135040951D01*
X140088585Y-135017851D01*
X140082624Y-134994053D01*
X140079024Y-134969784D01*
X140077820Y-134945280D01*
X140077820Y-133695280D01*
X140079024Y-133670776D01*
X140082624Y-133646507D01*
X140088585Y-133622709D01*
X140096850Y-133599609D01*
X140107340Y-133577431D01*
X140119953Y-133556387D01*
X140134567Y-133536682D01*
X140151043Y-133518503D01*
X140169222Y-133502027D01*
X140188927Y-133487413D01*
X140209971Y-133474800D01*
X140232149Y-133464310D01*
X140255249Y-133456045D01*
X140279047Y-133450084D01*
X140303316Y-133446484D01*
X140327820Y-133445280D01*
X141252820Y-133445280D01*
X141277324Y-133446484D01*
X141277324Y-133446484D01*
G37*
D22*
X140790320Y-134320280D03*
D17*
G36*
X141439224Y-100698976D02*
G01*
X141463493Y-100702576D01*
X141487291Y-100708537D01*
X141510391Y-100716802D01*
X141532569Y-100727292D01*
X141553613Y-100739905D01*
X141573318Y-100754519D01*
X141591497Y-100770995D01*
X141607973Y-100789174D01*
X141622587Y-100808879D01*
X141635200Y-100829923D01*
X141645690Y-100852101D01*
X141653955Y-100875201D01*
X141659916Y-100898999D01*
X141663516Y-100923268D01*
X141664720Y-100947772D01*
X141664720Y-102197772D01*
X141663516Y-102222276D01*
X141659916Y-102246545D01*
X141653955Y-102270343D01*
X141645690Y-102293443D01*
X141635200Y-102315621D01*
X141622587Y-102336665D01*
X141607973Y-102356370D01*
X141591497Y-102374549D01*
X141573318Y-102391025D01*
X141553613Y-102405639D01*
X141532569Y-102418252D01*
X141510391Y-102428742D01*
X141487291Y-102437007D01*
X141463493Y-102442968D01*
X141439224Y-102446568D01*
X141414720Y-102447772D01*
X140489720Y-102447772D01*
X140465216Y-102446568D01*
X140440947Y-102442968D01*
X140417149Y-102437007D01*
X140394049Y-102428742D01*
X140371871Y-102418252D01*
X140350827Y-102405639D01*
X140331122Y-102391025D01*
X140312943Y-102374549D01*
X140296467Y-102356370D01*
X140281853Y-102336665D01*
X140269240Y-102315621D01*
X140258750Y-102293443D01*
X140250485Y-102270343D01*
X140244524Y-102246545D01*
X140240924Y-102222276D01*
X140239720Y-102197772D01*
X140239720Y-100947772D01*
X140240924Y-100923268D01*
X140244524Y-100898999D01*
X140250485Y-100875201D01*
X140258750Y-100852101D01*
X140269240Y-100829923D01*
X140281853Y-100808879D01*
X140296467Y-100789174D01*
X140312943Y-100770995D01*
X140331122Y-100754519D01*
X140350827Y-100739905D01*
X140371871Y-100727292D01*
X140394049Y-100716802D01*
X140417149Y-100708537D01*
X140440947Y-100702576D01*
X140465216Y-100698976D01*
X140489720Y-100697772D01*
X141414720Y-100697772D01*
X141439224Y-100698976D01*
X141439224Y-100698976D01*
G37*
D22*
X140952220Y-101572772D03*
D17*
G36*
X138464224Y-100698976D02*
G01*
X138488493Y-100702576D01*
X138512291Y-100708537D01*
X138535391Y-100716802D01*
X138557569Y-100727292D01*
X138578613Y-100739905D01*
X138598318Y-100754519D01*
X138616497Y-100770995D01*
X138632973Y-100789174D01*
X138647587Y-100808879D01*
X138660200Y-100829923D01*
X138670690Y-100852101D01*
X138678955Y-100875201D01*
X138684916Y-100898999D01*
X138688516Y-100923268D01*
X138689720Y-100947772D01*
X138689720Y-102197772D01*
X138688516Y-102222276D01*
X138684916Y-102246545D01*
X138678955Y-102270343D01*
X138670690Y-102293443D01*
X138660200Y-102315621D01*
X138647587Y-102336665D01*
X138632973Y-102356370D01*
X138616497Y-102374549D01*
X138598318Y-102391025D01*
X138578613Y-102405639D01*
X138557569Y-102418252D01*
X138535391Y-102428742D01*
X138512291Y-102437007D01*
X138488493Y-102442968D01*
X138464224Y-102446568D01*
X138439720Y-102447772D01*
X137514720Y-102447772D01*
X137490216Y-102446568D01*
X137465947Y-102442968D01*
X137442149Y-102437007D01*
X137419049Y-102428742D01*
X137396871Y-102418252D01*
X137375827Y-102405639D01*
X137356122Y-102391025D01*
X137337943Y-102374549D01*
X137321467Y-102356370D01*
X137306853Y-102336665D01*
X137294240Y-102315621D01*
X137283750Y-102293443D01*
X137275485Y-102270343D01*
X137269524Y-102246545D01*
X137265924Y-102222276D01*
X137264720Y-102197772D01*
X137264720Y-100947772D01*
X137265924Y-100923268D01*
X137269524Y-100898999D01*
X137275485Y-100875201D01*
X137283750Y-100852101D01*
X137294240Y-100829923D01*
X137306853Y-100808879D01*
X137321467Y-100789174D01*
X137337943Y-100770995D01*
X137356122Y-100754519D01*
X137375827Y-100739905D01*
X137396871Y-100727292D01*
X137419049Y-100716802D01*
X137442149Y-100708537D01*
X137465947Y-100702576D01*
X137490216Y-100698976D01*
X137514720Y-100697772D01*
X138439720Y-100697772D01*
X138464224Y-100698976D01*
X138464224Y-100698976D01*
G37*
D22*
X137977220Y-101572772D03*
D17*
G36*
X141277324Y-129501016D02*
G01*
X141301593Y-129504616D01*
X141325391Y-129510577D01*
X141348491Y-129518842D01*
X141370669Y-129529332D01*
X141391713Y-129541945D01*
X141411418Y-129556559D01*
X141429597Y-129573035D01*
X141446073Y-129591214D01*
X141460687Y-129610919D01*
X141473300Y-129631963D01*
X141483790Y-129654141D01*
X141492055Y-129677241D01*
X141498016Y-129701039D01*
X141501616Y-129725308D01*
X141502820Y-129749812D01*
X141502820Y-130999812D01*
X141501616Y-131024316D01*
X141498016Y-131048585D01*
X141492055Y-131072383D01*
X141483790Y-131095483D01*
X141473300Y-131117661D01*
X141460687Y-131138705D01*
X141446073Y-131158410D01*
X141429597Y-131176589D01*
X141411418Y-131193065D01*
X141391713Y-131207679D01*
X141370669Y-131220292D01*
X141348491Y-131230782D01*
X141325391Y-131239047D01*
X141301593Y-131245008D01*
X141277324Y-131248608D01*
X141252820Y-131249812D01*
X140327820Y-131249812D01*
X140303316Y-131248608D01*
X140279047Y-131245008D01*
X140255249Y-131239047D01*
X140232149Y-131230782D01*
X140209971Y-131220292D01*
X140188927Y-131207679D01*
X140169222Y-131193065D01*
X140151043Y-131176589D01*
X140134567Y-131158410D01*
X140119953Y-131138705D01*
X140107340Y-131117661D01*
X140096850Y-131095483D01*
X140088585Y-131072383D01*
X140082624Y-131048585D01*
X140079024Y-131024316D01*
X140077820Y-130999812D01*
X140077820Y-129749812D01*
X140079024Y-129725308D01*
X140082624Y-129701039D01*
X140088585Y-129677241D01*
X140096850Y-129654141D01*
X140107340Y-129631963D01*
X140119953Y-129610919D01*
X140134567Y-129591214D01*
X140151043Y-129573035D01*
X140169222Y-129556559D01*
X140188927Y-129541945D01*
X140209971Y-129529332D01*
X140232149Y-129518842D01*
X140255249Y-129510577D01*
X140279047Y-129504616D01*
X140303316Y-129501016D01*
X140327820Y-129499812D01*
X141252820Y-129499812D01*
X141277324Y-129501016D01*
X141277324Y-129501016D01*
G37*
D22*
X140790320Y-130374812D03*
D17*
G36*
X138302324Y-129501016D02*
G01*
X138326593Y-129504616D01*
X138350391Y-129510577D01*
X138373491Y-129518842D01*
X138395669Y-129529332D01*
X138416713Y-129541945D01*
X138436418Y-129556559D01*
X138454597Y-129573035D01*
X138471073Y-129591214D01*
X138485687Y-129610919D01*
X138498300Y-129631963D01*
X138508790Y-129654141D01*
X138517055Y-129677241D01*
X138523016Y-129701039D01*
X138526616Y-129725308D01*
X138527820Y-129749812D01*
X138527820Y-130999812D01*
X138526616Y-131024316D01*
X138523016Y-131048585D01*
X138517055Y-131072383D01*
X138508790Y-131095483D01*
X138498300Y-131117661D01*
X138485687Y-131138705D01*
X138471073Y-131158410D01*
X138454597Y-131176589D01*
X138436418Y-131193065D01*
X138416713Y-131207679D01*
X138395669Y-131220292D01*
X138373491Y-131230782D01*
X138350391Y-131239047D01*
X138326593Y-131245008D01*
X138302324Y-131248608D01*
X138277820Y-131249812D01*
X137352820Y-131249812D01*
X137328316Y-131248608D01*
X137304047Y-131245008D01*
X137280249Y-131239047D01*
X137257149Y-131230782D01*
X137234971Y-131220292D01*
X137213927Y-131207679D01*
X137194222Y-131193065D01*
X137176043Y-131176589D01*
X137159567Y-131158410D01*
X137144953Y-131138705D01*
X137132340Y-131117661D01*
X137121850Y-131095483D01*
X137113585Y-131072383D01*
X137107624Y-131048585D01*
X137104024Y-131024316D01*
X137102820Y-130999812D01*
X137102820Y-129749812D01*
X137104024Y-129725308D01*
X137107624Y-129701039D01*
X137113585Y-129677241D01*
X137121850Y-129654141D01*
X137132340Y-129631963D01*
X137144953Y-129610919D01*
X137159567Y-129591214D01*
X137176043Y-129573035D01*
X137194222Y-129556559D01*
X137213927Y-129541945D01*
X137234971Y-129529332D01*
X137257149Y-129518842D01*
X137280249Y-129510577D01*
X137304047Y-129504616D01*
X137328316Y-129501016D01*
X137352820Y-129499812D01*
X138277820Y-129499812D01*
X138302324Y-129501016D01*
X138302324Y-129501016D01*
G37*
D22*
X137815320Y-130374812D03*
D17*
G36*
X138464224Y-104339644D02*
G01*
X138488493Y-104343244D01*
X138512291Y-104349205D01*
X138535391Y-104357470D01*
X138557569Y-104367960D01*
X138578613Y-104380573D01*
X138598318Y-104395187D01*
X138616497Y-104411663D01*
X138632973Y-104429842D01*
X138647587Y-104449547D01*
X138660200Y-104470591D01*
X138670690Y-104492769D01*
X138678955Y-104515869D01*
X138684916Y-104539667D01*
X138688516Y-104563936D01*
X138689720Y-104588440D01*
X138689720Y-105838440D01*
X138688516Y-105862944D01*
X138684916Y-105887213D01*
X138678955Y-105911011D01*
X138670690Y-105934111D01*
X138660200Y-105956289D01*
X138647587Y-105977333D01*
X138632973Y-105997038D01*
X138616497Y-106015217D01*
X138598318Y-106031693D01*
X138578613Y-106046307D01*
X138557569Y-106058920D01*
X138535391Y-106069410D01*
X138512291Y-106077675D01*
X138488493Y-106083636D01*
X138464224Y-106087236D01*
X138439720Y-106088440D01*
X137514720Y-106088440D01*
X137490216Y-106087236D01*
X137465947Y-106083636D01*
X137442149Y-106077675D01*
X137419049Y-106069410D01*
X137396871Y-106058920D01*
X137375827Y-106046307D01*
X137356122Y-106031693D01*
X137337943Y-106015217D01*
X137321467Y-105997038D01*
X137306853Y-105977333D01*
X137294240Y-105956289D01*
X137283750Y-105934111D01*
X137275485Y-105911011D01*
X137269524Y-105887213D01*
X137265924Y-105862944D01*
X137264720Y-105838440D01*
X137264720Y-104588440D01*
X137265924Y-104563936D01*
X137269524Y-104539667D01*
X137275485Y-104515869D01*
X137283750Y-104492769D01*
X137294240Y-104470591D01*
X137306853Y-104449547D01*
X137321467Y-104429842D01*
X137337943Y-104411663D01*
X137356122Y-104395187D01*
X137375827Y-104380573D01*
X137396871Y-104367960D01*
X137419049Y-104357470D01*
X137442149Y-104349205D01*
X137465947Y-104343244D01*
X137490216Y-104339644D01*
X137514720Y-104338440D01*
X138439720Y-104338440D01*
X138464224Y-104339644D01*
X138464224Y-104339644D01*
G37*
D22*
X137977220Y-105213440D03*
D17*
G36*
X141439224Y-104339644D02*
G01*
X141463493Y-104343244D01*
X141487291Y-104349205D01*
X141510391Y-104357470D01*
X141532569Y-104367960D01*
X141553613Y-104380573D01*
X141573318Y-104395187D01*
X141591497Y-104411663D01*
X141607973Y-104429842D01*
X141622587Y-104449547D01*
X141635200Y-104470591D01*
X141645690Y-104492769D01*
X141653955Y-104515869D01*
X141659916Y-104539667D01*
X141663516Y-104563936D01*
X141664720Y-104588440D01*
X141664720Y-105838440D01*
X141663516Y-105862944D01*
X141659916Y-105887213D01*
X141653955Y-105911011D01*
X141645690Y-105934111D01*
X141635200Y-105956289D01*
X141622587Y-105977333D01*
X141607973Y-105997038D01*
X141591497Y-106015217D01*
X141573318Y-106031693D01*
X141553613Y-106046307D01*
X141532569Y-106058920D01*
X141510391Y-106069410D01*
X141487291Y-106077675D01*
X141463493Y-106083636D01*
X141439224Y-106087236D01*
X141414720Y-106088440D01*
X140489720Y-106088440D01*
X140465216Y-106087236D01*
X140440947Y-106083636D01*
X140417149Y-106077675D01*
X140394049Y-106069410D01*
X140371871Y-106058920D01*
X140350827Y-106046307D01*
X140331122Y-106031693D01*
X140312943Y-106015217D01*
X140296467Y-105997038D01*
X140281853Y-105977333D01*
X140269240Y-105956289D01*
X140258750Y-105934111D01*
X140250485Y-105911011D01*
X140244524Y-105887213D01*
X140240924Y-105862944D01*
X140239720Y-105838440D01*
X140239720Y-104588440D01*
X140240924Y-104563936D01*
X140244524Y-104539667D01*
X140250485Y-104515869D01*
X140258750Y-104492769D01*
X140269240Y-104470591D01*
X140281853Y-104449547D01*
X140296467Y-104429842D01*
X140312943Y-104411663D01*
X140331122Y-104395187D01*
X140350827Y-104380573D01*
X140371871Y-104367960D01*
X140394049Y-104357470D01*
X140417149Y-104349205D01*
X140440947Y-104343244D01*
X140465216Y-104339644D01*
X140489720Y-104338440D01*
X141414720Y-104338440D01*
X141439224Y-104339644D01*
X141439224Y-104339644D01*
G37*
D22*
X140952220Y-105213440D03*
D17*
G36*
X138464224Y-93417644D02*
G01*
X138488493Y-93421244D01*
X138512291Y-93427205D01*
X138535391Y-93435470D01*
X138557569Y-93445960D01*
X138578613Y-93458573D01*
X138598318Y-93473187D01*
X138616497Y-93489663D01*
X138632973Y-93507842D01*
X138647587Y-93527547D01*
X138660200Y-93548591D01*
X138670690Y-93570769D01*
X138678955Y-93593869D01*
X138684916Y-93617667D01*
X138688516Y-93641936D01*
X138689720Y-93666440D01*
X138689720Y-94916440D01*
X138688516Y-94940944D01*
X138684916Y-94965213D01*
X138678955Y-94989011D01*
X138670690Y-95012111D01*
X138660200Y-95034289D01*
X138647587Y-95055333D01*
X138632973Y-95075038D01*
X138616497Y-95093217D01*
X138598318Y-95109693D01*
X138578613Y-95124307D01*
X138557569Y-95136920D01*
X138535391Y-95147410D01*
X138512291Y-95155675D01*
X138488493Y-95161636D01*
X138464224Y-95165236D01*
X138439720Y-95166440D01*
X137514720Y-95166440D01*
X137490216Y-95165236D01*
X137465947Y-95161636D01*
X137442149Y-95155675D01*
X137419049Y-95147410D01*
X137396871Y-95136920D01*
X137375827Y-95124307D01*
X137356122Y-95109693D01*
X137337943Y-95093217D01*
X137321467Y-95075038D01*
X137306853Y-95055333D01*
X137294240Y-95034289D01*
X137283750Y-95012111D01*
X137275485Y-94989011D01*
X137269524Y-94965213D01*
X137265924Y-94940944D01*
X137264720Y-94916440D01*
X137264720Y-93666440D01*
X137265924Y-93641936D01*
X137269524Y-93617667D01*
X137275485Y-93593869D01*
X137283750Y-93570769D01*
X137294240Y-93548591D01*
X137306853Y-93527547D01*
X137321467Y-93507842D01*
X137337943Y-93489663D01*
X137356122Y-93473187D01*
X137375827Y-93458573D01*
X137396871Y-93445960D01*
X137419049Y-93435470D01*
X137442149Y-93427205D01*
X137465947Y-93421244D01*
X137490216Y-93417644D01*
X137514720Y-93416440D01*
X138439720Y-93416440D01*
X138464224Y-93417644D01*
X138464224Y-93417644D01*
G37*
D22*
X137977220Y-94291440D03*
D17*
G36*
X141439224Y-93417644D02*
G01*
X141463493Y-93421244D01*
X141487291Y-93427205D01*
X141510391Y-93435470D01*
X141532569Y-93445960D01*
X141553613Y-93458573D01*
X141573318Y-93473187D01*
X141591497Y-93489663D01*
X141607973Y-93507842D01*
X141622587Y-93527547D01*
X141635200Y-93548591D01*
X141645690Y-93570769D01*
X141653955Y-93593869D01*
X141659916Y-93617667D01*
X141663516Y-93641936D01*
X141664720Y-93666440D01*
X141664720Y-94916440D01*
X141663516Y-94940944D01*
X141659916Y-94965213D01*
X141653955Y-94989011D01*
X141645690Y-95012111D01*
X141635200Y-95034289D01*
X141622587Y-95055333D01*
X141607973Y-95075038D01*
X141591497Y-95093217D01*
X141573318Y-95109693D01*
X141553613Y-95124307D01*
X141532569Y-95136920D01*
X141510391Y-95147410D01*
X141487291Y-95155675D01*
X141463493Y-95161636D01*
X141439224Y-95165236D01*
X141414720Y-95166440D01*
X140489720Y-95166440D01*
X140465216Y-95165236D01*
X140440947Y-95161636D01*
X140417149Y-95155675D01*
X140394049Y-95147410D01*
X140371871Y-95136920D01*
X140350827Y-95124307D01*
X140331122Y-95109693D01*
X140312943Y-95093217D01*
X140296467Y-95075038D01*
X140281853Y-95055333D01*
X140269240Y-95034289D01*
X140258750Y-95012111D01*
X140250485Y-94989011D01*
X140244524Y-94965213D01*
X140240924Y-94940944D01*
X140239720Y-94916440D01*
X140239720Y-93666440D01*
X140240924Y-93641936D01*
X140244524Y-93617667D01*
X140250485Y-93593869D01*
X140258750Y-93570769D01*
X140269240Y-93548591D01*
X140281853Y-93527547D01*
X140296467Y-93507842D01*
X140312943Y-93489663D01*
X140331122Y-93473187D01*
X140350827Y-93458573D01*
X140371871Y-93445960D01*
X140394049Y-93435470D01*
X140417149Y-93427205D01*
X140440947Y-93421244D01*
X140465216Y-93417644D01*
X140489720Y-93416440D01*
X141414720Y-93416440D01*
X141439224Y-93417644D01*
X141439224Y-93417644D01*
G37*
D22*
X140952220Y-94291440D03*
D17*
G36*
X141277324Y-125555550D02*
G01*
X141301593Y-125559150D01*
X141325391Y-125565111D01*
X141348491Y-125573376D01*
X141370669Y-125583866D01*
X141391713Y-125596479D01*
X141411418Y-125611093D01*
X141429597Y-125627569D01*
X141446073Y-125645748D01*
X141460687Y-125665453D01*
X141473300Y-125686497D01*
X141483790Y-125708675D01*
X141492055Y-125731775D01*
X141498016Y-125755573D01*
X141501616Y-125779842D01*
X141502820Y-125804346D01*
X141502820Y-127054346D01*
X141501616Y-127078850D01*
X141498016Y-127103119D01*
X141492055Y-127126917D01*
X141483790Y-127150017D01*
X141473300Y-127172195D01*
X141460687Y-127193239D01*
X141446073Y-127212944D01*
X141429597Y-127231123D01*
X141411418Y-127247599D01*
X141391713Y-127262213D01*
X141370669Y-127274826D01*
X141348491Y-127285316D01*
X141325391Y-127293581D01*
X141301593Y-127299542D01*
X141277324Y-127303142D01*
X141252820Y-127304346D01*
X140327820Y-127304346D01*
X140303316Y-127303142D01*
X140279047Y-127299542D01*
X140255249Y-127293581D01*
X140232149Y-127285316D01*
X140209971Y-127274826D01*
X140188927Y-127262213D01*
X140169222Y-127247599D01*
X140151043Y-127231123D01*
X140134567Y-127212944D01*
X140119953Y-127193239D01*
X140107340Y-127172195D01*
X140096850Y-127150017D01*
X140088585Y-127126917D01*
X140082624Y-127103119D01*
X140079024Y-127078850D01*
X140077820Y-127054346D01*
X140077820Y-125804346D01*
X140079024Y-125779842D01*
X140082624Y-125755573D01*
X140088585Y-125731775D01*
X140096850Y-125708675D01*
X140107340Y-125686497D01*
X140119953Y-125665453D01*
X140134567Y-125645748D01*
X140151043Y-125627569D01*
X140169222Y-125611093D01*
X140188927Y-125596479D01*
X140209971Y-125583866D01*
X140232149Y-125573376D01*
X140255249Y-125565111D01*
X140279047Y-125559150D01*
X140303316Y-125555550D01*
X140327820Y-125554346D01*
X141252820Y-125554346D01*
X141277324Y-125555550D01*
X141277324Y-125555550D01*
G37*
D22*
X140790320Y-126429346D03*
D17*
G36*
X138302324Y-125555550D02*
G01*
X138326593Y-125559150D01*
X138350391Y-125565111D01*
X138373491Y-125573376D01*
X138395669Y-125583866D01*
X138416713Y-125596479D01*
X138436418Y-125611093D01*
X138454597Y-125627569D01*
X138471073Y-125645748D01*
X138485687Y-125665453D01*
X138498300Y-125686497D01*
X138508790Y-125708675D01*
X138517055Y-125731775D01*
X138523016Y-125755573D01*
X138526616Y-125779842D01*
X138527820Y-125804346D01*
X138527820Y-127054346D01*
X138526616Y-127078850D01*
X138523016Y-127103119D01*
X138517055Y-127126917D01*
X138508790Y-127150017D01*
X138498300Y-127172195D01*
X138485687Y-127193239D01*
X138471073Y-127212944D01*
X138454597Y-127231123D01*
X138436418Y-127247599D01*
X138416713Y-127262213D01*
X138395669Y-127274826D01*
X138373491Y-127285316D01*
X138350391Y-127293581D01*
X138326593Y-127299542D01*
X138302324Y-127303142D01*
X138277820Y-127304346D01*
X137352820Y-127304346D01*
X137328316Y-127303142D01*
X137304047Y-127299542D01*
X137280249Y-127293581D01*
X137257149Y-127285316D01*
X137234971Y-127274826D01*
X137213927Y-127262213D01*
X137194222Y-127247599D01*
X137176043Y-127231123D01*
X137159567Y-127212944D01*
X137144953Y-127193239D01*
X137132340Y-127172195D01*
X137121850Y-127150017D01*
X137113585Y-127126917D01*
X137107624Y-127103119D01*
X137104024Y-127078850D01*
X137102820Y-127054346D01*
X137102820Y-125804346D01*
X137104024Y-125779842D01*
X137107624Y-125755573D01*
X137113585Y-125731775D01*
X137121850Y-125708675D01*
X137132340Y-125686497D01*
X137144953Y-125665453D01*
X137159567Y-125645748D01*
X137176043Y-125627569D01*
X137194222Y-125611093D01*
X137213927Y-125596479D01*
X137234971Y-125583866D01*
X137257149Y-125573376D01*
X137280249Y-125565111D01*
X137304047Y-125559150D01*
X137328316Y-125555550D01*
X137352820Y-125554346D01*
X138277820Y-125554346D01*
X138302324Y-125555550D01*
X138302324Y-125555550D01*
G37*
D22*
X137815320Y-126429346D03*
D17*
G36*
X138302324Y-121610084D02*
G01*
X138326593Y-121613684D01*
X138350391Y-121619645D01*
X138373491Y-121627910D01*
X138395669Y-121638400D01*
X138416713Y-121651013D01*
X138436418Y-121665627D01*
X138454597Y-121682103D01*
X138471073Y-121700282D01*
X138485687Y-121719987D01*
X138498300Y-121741031D01*
X138508790Y-121763209D01*
X138517055Y-121786309D01*
X138523016Y-121810107D01*
X138526616Y-121834376D01*
X138527820Y-121858880D01*
X138527820Y-123108880D01*
X138526616Y-123133384D01*
X138523016Y-123157653D01*
X138517055Y-123181451D01*
X138508790Y-123204551D01*
X138498300Y-123226729D01*
X138485687Y-123247773D01*
X138471073Y-123267478D01*
X138454597Y-123285657D01*
X138436418Y-123302133D01*
X138416713Y-123316747D01*
X138395669Y-123329360D01*
X138373491Y-123339850D01*
X138350391Y-123348115D01*
X138326593Y-123354076D01*
X138302324Y-123357676D01*
X138277820Y-123358880D01*
X137352820Y-123358880D01*
X137328316Y-123357676D01*
X137304047Y-123354076D01*
X137280249Y-123348115D01*
X137257149Y-123339850D01*
X137234971Y-123329360D01*
X137213927Y-123316747D01*
X137194222Y-123302133D01*
X137176043Y-123285657D01*
X137159567Y-123267478D01*
X137144953Y-123247773D01*
X137132340Y-123226729D01*
X137121850Y-123204551D01*
X137113585Y-123181451D01*
X137107624Y-123157653D01*
X137104024Y-123133384D01*
X137102820Y-123108880D01*
X137102820Y-121858880D01*
X137104024Y-121834376D01*
X137107624Y-121810107D01*
X137113585Y-121786309D01*
X137121850Y-121763209D01*
X137132340Y-121741031D01*
X137144953Y-121719987D01*
X137159567Y-121700282D01*
X137176043Y-121682103D01*
X137194222Y-121665627D01*
X137213927Y-121651013D01*
X137234971Y-121638400D01*
X137257149Y-121627910D01*
X137280249Y-121619645D01*
X137304047Y-121613684D01*
X137328316Y-121610084D01*
X137352820Y-121608880D01*
X138277820Y-121608880D01*
X138302324Y-121610084D01*
X138302324Y-121610084D01*
G37*
D22*
X137815320Y-122483880D03*
D17*
G36*
X141277324Y-121610084D02*
G01*
X141301593Y-121613684D01*
X141325391Y-121619645D01*
X141348491Y-121627910D01*
X141370669Y-121638400D01*
X141391713Y-121651013D01*
X141411418Y-121665627D01*
X141429597Y-121682103D01*
X141446073Y-121700282D01*
X141460687Y-121719987D01*
X141473300Y-121741031D01*
X141483790Y-121763209D01*
X141492055Y-121786309D01*
X141498016Y-121810107D01*
X141501616Y-121834376D01*
X141502820Y-121858880D01*
X141502820Y-123108880D01*
X141501616Y-123133384D01*
X141498016Y-123157653D01*
X141492055Y-123181451D01*
X141483790Y-123204551D01*
X141473300Y-123226729D01*
X141460687Y-123247773D01*
X141446073Y-123267478D01*
X141429597Y-123285657D01*
X141411418Y-123302133D01*
X141391713Y-123316747D01*
X141370669Y-123329360D01*
X141348491Y-123339850D01*
X141325391Y-123348115D01*
X141301593Y-123354076D01*
X141277324Y-123357676D01*
X141252820Y-123358880D01*
X140327820Y-123358880D01*
X140303316Y-123357676D01*
X140279047Y-123354076D01*
X140255249Y-123348115D01*
X140232149Y-123339850D01*
X140209971Y-123329360D01*
X140188927Y-123316747D01*
X140169222Y-123302133D01*
X140151043Y-123285657D01*
X140134567Y-123267478D01*
X140119953Y-123247773D01*
X140107340Y-123226729D01*
X140096850Y-123204551D01*
X140088585Y-123181451D01*
X140082624Y-123157653D01*
X140079024Y-123133384D01*
X140077820Y-123108880D01*
X140077820Y-121858880D01*
X140079024Y-121834376D01*
X140082624Y-121810107D01*
X140088585Y-121786309D01*
X140096850Y-121763209D01*
X140107340Y-121741031D01*
X140119953Y-121719987D01*
X140134567Y-121700282D01*
X140151043Y-121682103D01*
X140169222Y-121665627D01*
X140188927Y-121651013D01*
X140209971Y-121638400D01*
X140232149Y-121627910D01*
X140255249Y-121619645D01*
X140279047Y-121613684D01*
X140303316Y-121610084D01*
X140327820Y-121608880D01*
X141252820Y-121608880D01*
X141277324Y-121610084D01*
X141277324Y-121610084D01*
G37*
D22*
X140790320Y-122483880D03*
D17*
G36*
X121784124Y-121677684D02*
G01*
X121808393Y-121681284D01*
X121832191Y-121687245D01*
X121855291Y-121695510D01*
X121877469Y-121706000D01*
X121898513Y-121718613D01*
X121918218Y-121733227D01*
X121936397Y-121749703D01*
X121952873Y-121767882D01*
X121967487Y-121787587D01*
X121980100Y-121808631D01*
X121990590Y-121830809D01*
X121998855Y-121853909D01*
X122004816Y-121877707D01*
X122008416Y-121901976D01*
X122009620Y-121926480D01*
X122009620Y-123176480D01*
X122008416Y-123200984D01*
X122004816Y-123225253D01*
X121998855Y-123249051D01*
X121990590Y-123272151D01*
X121980100Y-123294329D01*
X121967487Y-123315373D01*
X121952873Y-123335078D01*
X121936397Y-123353257D01*
X121918218Y-123369733D01*
X121898513Y-123384347D01*
X121877469Y-123396960D01*
X121855291Y-123407450D01*
X121832191Y-123415715D01*
X121808393Y-123421676D01*
X121784124Y-123425276D01*
X121759620Y-123426480D01*
X120834620Y-123426480D01*
X120810116Y-123425276D01*
X120785847Y-123421676D01*
X120762049Y-123415715D01*
X120738949Y-123407450D01*
X120716771Y-123396960D01*
X120695727Y-123384347D01*
X120676022Y-123369733D01*
X120657843Y-123353257D01*
X120641367Y-123335078D01*
X120626753Y-123315373D01*
X120614140Y-123294329D01*
X120603650Y-123272151D01*
X120595385Y-123249051D01*
X120589424Y-123225253D01*
X120585824Y-123200984D01*
X120584620Y-123176480D01*
X120584620Y-121926480D01*
X120585824Y-121901976D01*
X120589424Y-121877707D01*
X120595385Y-121853909D01*
X120603650Y-121830809D01*
X120614140Y-121808631D01*
X120626753Y-121787587D01*
X120641367Y-121767882D01*
X120657843Y-121749703D01*
X120676022Y-121733227D01*
X120695727Y-121718613D01*
X120716771Y-121706000D01*
X120738949Y-121695510D01*
X120762049Y-121687245D01*
X120785847Y-121681284D01*
X120810116Y-121677684D01*
X120834620Y-121676480D01*
X121759620Y-121676480D01*
X121784124Y-121677684D01*
X121784124Y-121677684D01*
G37*
D22*
X121297120Y-122551480D03*
D17*
G36*
X124759124Y-121677684D02*
G01*
X124783393Y-121681284D01*
X124807191Y-121687245D01*
X124830291Y-121695510D01*
X124852469Y-121706000D01*
X124873513Y-121718613D01*
X124893218Y-121733227D01*
X124911397Y-121749703D01*
X124927873Y-121767882D01*
X124942487Y-121787587D01*
X124955100Y-121808631D01*
X124965590Y-121830809D01*
X124973855Y-121853909D01*
X124979816Y-121877707D01*
X124983416Y-121901976D01*
X124984620Y-121926480D01*
X124984620Y-123176480D01*
X124983416Y-123200984D01*
X124979816Y-123225253D01*
X124973855Y-123249051D01*
X124965590Y-123272151D01*
X124955100Y-123294329D01*
X124942487Y-123315373D01*
X124927873Y-123335078D01*
X124911397Y-123353257D01*
X124893218Y-123369733D01*
X124873513Y-123384347D01*
X124852469Y-123396960D01*
X124830291Y-123407450D01*
X124807191Y-123415715D01*
X124783393Y-123421676D01*
X124759124Y-123425276D01*
X124734620Y-123426480D01*
X123809620Y-123426480D01*
X123785116Y-123425276D01*
X123760847Y-123421676D01*
X123737049Y-123415715D01*
X123713949Y-123407450D01*
X123691771Y-123396960D01*
X123670727Y-123384347D01*
X123651022Y-123369733D01*
X123632843Y-123353257D01*
X123616367Y-123335078D01*
X123601753Y-123315373D01*
X123589140Y-123294329D01*
X123578650Y-123272151D01*
X123570385Y-123249051D01*
X123564424Y-123225253D01*
X123560824Y-123200984D01*
X123559620Y-123176480D01*
X123559620Y-121926480D01*
X123560824Y-121901976D01*
X123564424Y-121877707D01*
X123570385Y-121853909D01*
X123578650Y-121830809D01*
X123589140Y-121808631D01*
X123601753Y-121787587D01*
X123616367Y-121767882D01*
X123632843Y-121749703D01*
X123651022Y-121733227D01*
X123670727Y-121718613D01*
X123691771Y-121706000D01*
X123713949Y-121695510D01*
X123737049Y-121687245D01*
X123760847Y-121681284D01*
X123785116Y-121677684D01*
X123809620Y-121676480D01*
X124734620Y-121676480D01*
X124759124Y-121677684D01*
X124759124Y-121677684D01*
G37*
D22*
X124272120Y-122551480D03*
D17*
G36*
X124759124Y-125377617D02*
G01*
X124783393Y-125381217D01*
X124807191Y-125387178D01*
X124830291Y-125395443D01*
X124852469Y-125405933D01*
X124873513Y-125418546D01*
X124893218Y-125433160D01*
X124911397Y-125449636D01*
X124927873Y-125467815D01*
X124942487Y-125487520D01*
X124955100Y-125508564D01*
X124965590Y-125530742D01*
X124973855Y-125553842D01*
X124979816Y-125577640D01*
X124983416Y-125601909D01*
X124984620Y-125626413D01*
X124984620Y-126876413D01*
X124983416Y-126900917D01*
X124979816Y-126925186D01*
X124973855Y-126948984D01*
X124965590Y-126972084D01*
X124955100Y-126994262D01*
X124942487Y-127015306D01*
X124927873Y-127035011D01*
X124911397Y-127053190D01*
X124893218Y-127069666D01*
X124873513Y-127084280D01*
X124852469Y-127096893D01*
X124830291Y-127107383D01*
X124807191Y-127115648D01*
X124783393Y-127121609D01*
X124759124Y-127125209D01*
X124734620Y-127126413D01*
X123809620Y-127126413D01*
X123785116Y-127125209D01*
X123760847Y-127121609D01*
X123737049Y-127115648D01*
X123713949Y-127107383D01*
X123691771Y-127096893D01*
X123670727Y-127084280D01*
X123651022Y-127069666D01*
X123632843Y-127053190D01*
X123616367Y-127035011D01*
X123601753Y-127015306D01*
X123589140Y-126994262D01*
X123578650Y-126972084D01*
X123570385Y-126948984D01*
X123564424Y-126925186D01*
X123560824Y-126900917D01*
X123559620Y-126876413D01*
X123559620Y-125626413D01*
X123560824Y-125601909D01*
X123564424Y-125577640D01*
X123570385Y-125553842D01*
X123578650Y-125530742D01*
X123589140Y-125508564D01*
X123601753Y-125487520D01*
X123616367Y-125467815D01*
X123632843Y-125449636D01*
X123651022Y-125433160D01*
X123670727Y-125418546D01*
X123691771Y-125405933D01*
X123713949Y-125395443D01*
X123737049Y-125387178D01*
X123760847Y-125381217D01*
X123785116Y-125377617D01*
X123809620Y-125376413D01*
X124734620Y-125376413D01*
X124759124Y-125377617D01*
X124759124Y-125377617D01*
G37*
D22*
X124272120Y-126251413D03*
D17*
G36*
X121784124Y-125377617D02*
G01*
X121808393Y-125381217D01*
X121832191Y-125387178D01*
X121855291Y-125395443D01*
X121877469Y-125405933D01*
X121898513Y-125418546D01*
X121918218Y-125433160D01*
X121936397Y-125449636D01*
X121952873Y-125467815D01*
X121967487Y-125487520D01*
X121980100Y-125508564D01*
X121990590Y-125530742D01*
X121998855Y-125553842D01*
X122004816Y-125577640D01*
X122008416Y-125601909D01*
X122009620Y-125626413D01*
X122009620Y-126876413D01*
X122008416Y-126900917D01*
X122004816Y-126925186D01*
X121998855Y-126948984D01*
X121990590Y-126972084D01*
X121980100Y-126994262D01*
X121967487Y-127015306D01*
X121952873Y-127035011D01*
X121936397Y-127053190D01*
X121918218Y-127069666D01*
X121898513Y-127084280D01*
X121877469Y-127096893D01*
X121855291Y-127107383D01*
X121832191Y-127115648D01*
X121808393Y-127121609D01*
X121784124Y-127125209D01*
X121759620Y-127126413D01*
X120834620Y-127126413D01*
X120810116Y-127125209D01*
X120785847Y-127121609D01*
X120762049Y-127115648D01*
X120738949Y-127107383D01*
X120716771Y-127096893D01*
X120695727Y-127084280D01*
X120676022Y-127069666D01*
X120657843Y-127053190D01*
X120641367Y-127035011D01*
X120626753Y-127015306D01*
X120614140Y-126994262D01*
X120603650Y-126972084D01*
X120595385Y-126948984D01*
X120589424Y-126925186D01*
X120585824Y-126900917D01*
X120584620Y-126876413D01*
X120584620Y-125626413D01*
X120585824Y-125601909D01*
X120589424Y-125577640D01*
X120595385Y-125553842D01*
X120603650Y-125530742D01*
X120614140Y-125508564D01*
X120626753Y-125487520D01*
X120641367Y-125467815D01*
X120657843Y-125449636D01*
X120676022Y-125433160D01*
X120695727Y-125418546D01*
X120716771Y-125405933D01*
X120738949Y-125395443D01*
X120762049Y-125387178D01*
X120785847Y-125381217D01*
X120810116Y-125377617D01*
X120834620Y-125376413D01*
X121759620Y-125376413D01*
X121784124Y-125377617D01*
X121784124Y-125377617D01*
G37*
D22*
X121297120Y-126251413D03*
D17*
G36*
X121784124Y-129077550D02*
G01*
X121808393Y-129081150D01*
X121832191Y-129087111D01*
X121855291Y-129095376D01*
X121877469Y-129105866D01*
X121898513Y-129118479D01*
X121918218Y-129133093D01*
X121936397Y-129149569D01*
X121952873Y-129167748D01*
X121967487Y-129187453D01*
X121980100Y-129208497D01*
X121990590Y-129230675D01*
X121998855Y-129253775D01*
X122004816Y-129277573D01*
X122008416Y-129301842D01*
X122009620Y-129326346D01*
X122009620Y-130576346D01*
X122008416Y-130600850D01*
X122004816Y-130625119D01*
X121998855Y-130648917D01*
X121990590Y-130672017D01*
X121980100Y-130694195D01*
X121967487Y-130715239D01*
X121952873Y-130734944D01*
X121936397Y-130753123D01*
X121918218Y-130769599D01*
X121898513Y-130784213D01*
X121877469Y-130796826D01*
X121855291Y-130807316D01*
X121832191Y-130815581D01*
X121808393Y-130821542D01*
X121784124Y-130825142D01*
X121759620Y-130826346D01*
X120834620Y-130826346D01*
X120810116Y-130825142D01*
X120785847Y-130821542D01*
X120762049Y-130815581D01*
X120738949Y-130807316D01*
X120716771Y-130796826D01*
X120695727Y-130784213D01*
X120676022Y-130769599D01*
X120657843Y-130753123D01*
X120641367Y-130734944D01*
X120626753Y-130715239D01*
X120614140Y-130694195D01*
X120603650Y-130672017D01*
X120595385Y-130648917D01*
X120589424Y-130625119D01*
X120585824Y-130600850D01*
X120584620Y-130576346D01*
X120584620Y-129326346D01*
X120585824Y-129301842D01*
X120589424Y-129277573D01*
X120595385Y-129253775D01*
X120603650Y-129230675D01*
X120614140Y-129208497D01*
X120626753Y-129187453D01*
X120641367Y-129167748D01*
X120657843Y-129149569D01*
X120676022Y-129133093D01*
X120695727Y-129118479D01*
X120716771Y-129105866D01*
X120738949Y-129095376D01*
X120762049Y-129087111D01*
X120785847Y-129081150D01*
X120810116Y-129077550D01*
X120834620Y-129076346D01*
X121759620Y-129076346D01*
X121784124Y-129077550D01*
X121784124Y-129077550D01*
G37*
D22*
X121297120Y-129951346D03*
D17*
G36*
X124759124Y-129077550D02*
G01*
X124783393Y-129081150D01*
X124807191Y-129087111D01*
X124830291Y-129095376D01*
X124852469Y-129105866D01*
X124873513Y-129118479D01*
X124893218Y-129133093D01*
X124911397Y-129149569D01*
X124927873Y-129167748D01*
X124942487Y-129187453D01*
X124955100Y-129208497D01*
X124965590Y-129230675D01*
X124973855Y-129253775D01*
X124979816Y-129277573D01*
X124983416Y-129301842D01*
X124984620Y-129326346D01*
X124984620Y-130576346D01*
X124983416Y-130600850D01*
X124979816Y-130625119D01*
X124973855Y-130648917D01*
X124965590Y-130672017D01*
X124955100Y-130694195D01*
X124942487Y-130715239D01*
X124927873Y-130734944D01*
X124911397Y-130753123D01*
X124893218Y-130769599D01*
X124873513Y-130784213D01*
X124852469Y-130796826D01*
X124830291Y-130807316D01*
X124807191Y-130815581D01*
X124783393Y-130821542D01*
X124759124Y-130825142D01*
X124734620Y-130826346D01*
X123809620Y-130826346D01*
X123785116Y-130825142D01*
X123760847Y-130821542D01*
X123737049Y-130815581D01*
X123713949Y-130807316D01*
X123691771Y-130796826D01*
X123670727Y-130784213D01*
X123651022Y-130769599D01*
X123632843Y-130753123D01*
X123616367Y-130734944D01*
X123601753Y-130715239D01*
X123589140Y-130694195D01*
X123578650Y-130672017D01*
X123570385Y-130648917D01*
X123564424Y-130625119D01*
X123560824Y-130600850D01*
X123559620Y-130576346D01*
X123559620Y-129326346D01*
X123560824Y-129301842D01*
X123564424Y-129277573D01*
X123570385Y-129253775D01*
X123578650Y-129230675D01*
X123589140Y-129208497D01*
X123601753Y-129187453D01*
X123616367Y-129167748D01*
X123632843Y-129149569D01*
X123651022Y-129133093D01*
X123670727Y-129118479D01*
X123691771Y-129105866D01*
X123713949Y-129095376D01*
X123737049Y-129087111D01*
X123760847Y-129081150D01*
X123785116Y-129077550D01*
X123809620Y-129076346D01*
X124734620Y-129076346D01*
X124759124Y-129077550D01*
X124759124Y-129077550D01*
G37*
D22*
X124272120Y-129951346D03*
D17*
G36*
X124759124Y-132777484D02*
G01*
X124783393Y-132781084D01*
X124807191Y-132787045D01*
X124830291Y-132795310D01*
X124852469Y-132805800D01*
X124873513Y-132818413D01*
X124893218Y-132833027D01*
X124911397Y-132849503D01*
X124927873Y-132867682D01*
X124942487Y-132887387D01*
X124955100Y-132908431D01*
X124965590Y-132930609D01*
X124973855Y-132953709D01*
X124979816Y-132977507D01*
X124983416Y-133001776D01*
X124984620Y-133026280D01*
X124984620Y-134276280D01*
X124983416Y-134300784D01*
X124979816Y-134325053D01*
X124973855Y-134348851D01*
X124965590Y-134371951D01*
X124955100Y-134394129D01*
X124942487Y-134415173D01*
X124927873Y-134434878D01*
X124911397Y-134453057D01*
X124893218Y-134469533D01*
X124873513Y-134484147D01*
X124852469Y-134496760D01*
X124830291Y-134507250D01*
X124807191Y-134515515D01*
X124783393Y-134521476D01*
X124759124Y-134525076D01*
X124734620Y-134526280D01*
X123809620Y-134526280D01*
X123785116Y-134525076D01*
X123760847Y-134521476D01*
X123737049Y-134515515D01*
X123713949Y-134507250D01*
X123691771Y-134496760D01*
X123670727Y-134484147D01*
X123651022Y-134469533D01*
X123632843Y-134453057D01*
X123616367Y-134434878D01*
X123601753Y-134415173D01*
X123589140Y-134394129D01*
X123578650Y-134371951D01*
X123570385Y-134348851D01*
X123564424Y-134325053D01*
X123560824Y-134300784D01*
X123559620Y-134276280D01*
X123559620Y-133026280D01*
X123560824Y-133001776D01*
X123564424Y-132977507D01*
X123570385Y-132953709D01*
X123578650Y-132930609D01*
X123589140Y-132908431D01*
X123601753Y-132887387D01*
X123616367Y-132867682D01*
X123632843Y-132849503D01*
X123651022Y-132833027D01*
X123670727Y-132818413D01*
X123691771Y-132805800D01*
X123713949Y-132795310D01*
X123737049Y-132787045D01*
X123760847Y-132781084D01*
X123785116Y-132777484D01*
X123809620Y-132776280D01*
X124734620Y-132776280D01*
X124759124Y-132777484D01*
X124759124Y-132777484D01*
G37*
D22*
X124272120Y-133651280D03*
D17*
G36*
X121784124Y-132777484D02*
G01*
X121808393Y-132781084D01*
X121832191Y-132787045D01*
X121855291Y-132795310D01*
X121877469Y-132805800D01*
X121898513Y-132818413D01*
X121918218Y-132833027D01*
X121936397Y-132849503D01*
X121952873Y-132867682D01*
X121967487Y-132887387D01*
X121980100Y-132908431D01*
X121990590Y-132930609D01*
X121998855Y-132953709D01*
X122004816Y-132977507D01*
X122008416Y-133001776D01*
X122009620Y-133026280D01*
X122009620Y-134276280D01*
X122008416Y-134300784D01*
X122004816Y-134325053D01*
X121998855Y-134348851D01*
X121990590Y-134371951D01*
X121980100Y-134394129D01*
X121967487Y-134415173D01*
X121952873Y-134434878D01*
X121936397Y-134453057D01*
X121918218Y-134469533D01*
X121898513Y-134484147D01*
X121877469Y-134496760D01*
X121855291Y-134507250D01*
X121832191Y-134515515D01*
X121808393Y-134521476D01*
X121784124Y-134525076D01*
X121759620Y-134526280D01*
X120834620Y-134526280D01*
X120810116Y-134525076D01*
X120785847Y-134521476D01*
X120762049Y-134515515D01*
X120738949Y-134507250D01*
X120716771Y-134496760D01*
X120695727Y-134484147D01*
X120676022Y-134469533D01*
X120657843Y-134453057D01*
X120641367Y-134434878D01*
X120626753Y-134415173D01*
X120614140Y-134394129D01*
X120603650Y-134371951D01*
X120595385Y-134348851D01*
X120589424Y-134325053D01*
X120585824Y-134300784D01*
X120584620Y-134276280D01*
X120584620Y-133026280D01*
X120585824Y-133001776D01*
X120589424Y-132977507D01*
X120595385Y-132953709D01*
X120603650Y-132930609D01*
X120614140Y-132908431D01*
X120626753Y-132887387D01*
X120641367Y-132867682D01*
X120657843Y-132849503D01*
X120676022Y-132833027D01*
X120695727Y-132818413D01*
X120716771Y-132805800D01*
X120738949Y-132795310D01*
X120762049Y-132787045D01*
X120785847Y-132781084D01*
X120810116Y-132777484D01*
X120834620Y-132776280D01*
X121759620Y-132776280D01*
X121784124Y-132777484D01*
X121784124Y-132777484D01*
G37*
D22*
X121297120Y-133651280D03*
D17*
G36*
X90032184Y-109213844D02*
G01*
X90056453Y-109217444D01*
X90080251Y-109223405D01*
X90103351Y-109231670D01*
X90125529Y-109242160D01*
X90146573Y-109254773D01*
X90166278Y-109269387D01*
X90184457Y-109285863D01*
X90200933Y-109304042D01*
X90215547Y-109323747D01*
X90228160Y-109344791D01*
X90238650Y-109366969D01*
X90246915Y-109390069D01*
X90252876Y-109413867D01*
X90256476Y-109438136D01*
X90257680Y-109462640D01*
X90257680Y-110387640D01*
X90256476Y-110412144D01*
X90252876Y-110436413D01*
X90246915Y-110460211D01*
X90238650Y-110483311D01*
X90228160Y-110505489D01*
X90215547Y-110526533D01*
X90200933Y-110546238D01*
X90184457Y-110564417D01*
X90166278Y-110580893D01*
X90146573Y-110595507D01*
X90125529Y-110608120D01*
X90103351Y-110618610D01*
X90080251Y-110626875D01*
X90056453Y-110632836D01*
X90032184Y-110636436D01*
X90007680Y-110637640D01*
X88757680Y-110637640D01*
X88733176Y-110636436D01*
X88708907Y-110632836D01*
X88685109Y-110626875D01*
X88662009Y-110618610D01*
X88639831Y-110608120D01*
X88618787Y-110595507D01*
X88599082Y-110580893D01*
X88580903Y-110564417D01*
X88564427Y-110546238D01*
X88549813Y-110526533D01*
X88537200Y-110505489D01*
X88526710Y-110483311D01*
X88518445Y-110460211D01*
X88512484Y-110436413D01*
X88508884Y-110412144D01*
X88507680Y-110387640D01*
X88507680Y-109462640D01*
X88508884Y-109438136D01*
X88512484Y-109413867D01*
X88518445Y-109390069D01*
X88526710Y-109366969D01*
X88537200Y-109344791D01*
X88549813Y-109323747D01*
X88564427Y-109304042D01*
X88580903Y-109285863D01*
X88599082Y-109269387D01*
X88618787Y-109254773D01*
X88639831Y-109242160D01*
X88662009Y-109231670D01*
X88685109Y-109223405D01*
X88708907Y-109217444D01*
X88733176Y-109213844D01*
X88757680Y-109212640D01*
X90007680Y-109212640D01*
X90032184Y-109213844D01*
X90032184Y-109213844D01*
G37*
D22*
X89382680Y-109925140D03*
D17*
G36*
X90032184Y-106238844D02*
G01*
X90056453Y-106242444D01*
X90080251Y-106248405D01*
X90103351Y-106256670D01*
X90125529Y-106267160D01*
X90146573Y-106279773D01*
X90166278Y-106294387D01*
X90184457Y-106310863D01*
X90200933Y-106329042D01*
X90215547Y-106348747D01*
X90228160Y-106369791D01*
X90238650Y-106391969D01*
X90246915Y-106415069D01*
X90252876Y-106438867D01*
X90256476Y-106463136D01*
X90257680Y-106487640D01*
X90257680Y-107412640D01*
X90256476Y-107437144D01*
X90252876Y-107461413D01*
X90246915Y-107485211D01*
X90238650Y-107508311D01*
X90228160Y-107530489D01*
X90215547Y-107551533D01*
X90200933Y-107571238D01*
X90184457Y-107589417D01*
X90166278Y-107605893D01*
X90146573Y-107620507D01*
X90125529Y-107633120D01*
X90103351Y-107643610D01*
X90080251Y-107651875D01*
X90056453Y-107657836D01*
X90032184Y-107661436D01*
X90007680Y-107662640D01*
X88757680Y-107662640D01*
X88733176Y-107661436D01*
X88708907Y-107657836D01*
X88685109Y-107651875D01*
X88662009Y-107643610D01*
X88639831Y-107633120D01*
X88618787Y-107620507D01*
X88599082Y-107605893D01*
X88580903Y-107589417D01*
X88564427Y-107571238D01*
X88549813Y-107551533D01*
X88537200Y-107530489D01*
X88526710Y-107508311D01*
X88518445Y-107485211D01*
X88512484Y-107461413D01*
X88508884Y-107437144D01*
X88507680Y-107412640D01*
X88507680Y-106487640D01*
X88508884Y-106463136D01*
X88512484Y-106438867D01*
X88518445Y-106415069D01*
X88526710Y-106391969D01*
X88537200Y-106369791D01*
X88549813Y-106348747D01*
X88564427Y-106329042D01*
X88580903Y-106310863D01*
X88599082Y-106294387D01*
X88618787Y-106279773D01*
X88639831Y-106267160D01*
X88662009Y-106256670D01*
X88685109Y-106248405D01*
X88708907Y-106242444D01*
X88733176Y-106238844D01*
X88757680Y-106237640D01*
X90007680Y-106237640D01*
X90032184Y-106238844D01*
X90032184Y-106238844D01*
G37*
D22*
X89382680Y-106950140D03*
D17*
G36*
X82404564Y-106238844D02*
G01*
X82428833Y-106242444D01*
X82452631Y-106248405D01*
X82475731Y-106256670D01*
X82497909Y-106267160D01*
X82518953Y-106279773D01*
X82538658Y-106294387D01*
X82556837Y-106310863D01*
X82573313Y-106329042D01*
X82587927Y-106348747D01*
X82600540Y-106369791D01*
X82611030Y-106391969D01*
X82619295Y-106415069D01*
X82625256Y-106438867D01*
X82628856Y-106463136D01*
X82630060Y-106487640D01*
X82630060Y-107412640D01*
X82628856Y-107437144D01*
X82625256Y-107461413D01*
X82619295Y-107485211D01*
X82611030Y-107508311D01*
X82600540Y-107530489D01*
X82587927Y-107551533D01*
X82573313Y-107571238D01*
X82556837Y-107589417D01*
X82538658Y-107605893D01*
X82518953Y-107620507D01*
X82497909Y-107633120D01*
X82475731Y-107643610D01*
X82452631Y-107651875D01*
X82428833Y-107657836D01*
X82404564Y-107661436D01*
X82380060Y-107662640D01*
X81130060Y-107662640D01*
X81105556Y-107661436D01*
X81081287Y-107657836D01*
X81057489Y-107651875D01*
X81034389Y-107643610D01*
X81012211Y-107633120D01*
X80991167Y-107620507D01*
X80971462Y-107605893D01*
X80953283Y-107589417D01*
X80936807Y-107571238D01*
X80922193Y-107551533D01*
X80909580Y-107530489D01*
X80899090Y-107508311D01*
X80890825Y-107485211D01*
X80884864Y-107461413D01*
X80881264Y-107437144D01*
X80880060Y-107412640D01*
X80880060Y-106487640D01*
X80881264Y-106463136D01*
X80884864Y-106438867D01*
X80890825Y-106415069D01*
X80899090Y-106391969D01*
X80909580Y-106369791D01*
X80922193Y-106348747D01*
X80936807Y-106329042D01*
X80953283Y-106310863D01*
X80971462Y-106294387D01*
X80991167Y-106279773D01*
X81012211Y-106267160D01*
X81034389Y-106256670D01*
X81057489Y-106248405D01*
X81081287Y-106242444D01*
X81105556Y-106238844D01*
X81130060Y-106237640D01*
X82380060Y-106237640D01*
X82404564Y-106238844D01*
X82404564Y-106238844D01*
G37*
D22*
X81755060Y-106950140D03*
D17*
G36*
X82404564Y-109213844D02*
G01*
X82428833Y-109217444D01*
X82452631Y-109223405D01*
X82475731Y-109231670D01*
X82497909Y-109242160D01*
X82518953Y-109254773D01*
X82538658Y-109269387D01*
X82556837Y-109285863D01*
X82573313Y-109304042D01*
X82587927Y-109323747D01*
X82600540Y-109344791D01*
X82611030Y-109366969D01*
X82619295Y-109390069D01*
X82625256Y-109413867D01*
X82628856Y-109438136D01*
X82630060Y-109462640D01*
X82630060Y-110387640D01*
X82628856Y-110412144D01*
X82625256Y-110436413D01*
X82619295Y-110460211D01*
X82611030Y-110483311D01*
X82600540Y-110505489D01*
X82587927Y-110526533D01*
X82573313Y-110546238D01*
X82556837Y-110564417D01*
X82538658Y-110580893D01*
X82518953Y-110595507D01*
X82497909Y-110608120D01*
X82475731Y-110618610D01*
X82452631Y-110626875D01*
X82428833Y-110632836D01*
X82404564Y-110636436D01*
X82380060Y-110637640D01*
X81130060Y-110637640D01*
X81105556Y-110636436D01*
X81081287Y-110632836D01*
X81057489Y-110626875D01*
X81034389Y-110618610D01*
X81012211Y-110608120D01*
X80991167Y-110595507D01*
X80971462Y-110580893D01*
X80953283Y-110564417D01*
X80936807Y-110546238D01*
X80922193Y-110526533D01*
X80909580Y-110505489D01*
X80899090Y-110483311D01*
X80890825Y-110460211D01*
X80884864Y-110436413D01*
X80881264Y-110412144D01*
X80880060Y-110387640D01*
X80880060Y-109462640D01*
X80881264Y-109438136D01*
X80884864Y-109413867D01*
X80890825Y-109390069D01*
X80899090Y-109366969D01*
X80909580Y-109344791D01*
X80922193Y-109323747D01*
X80936807Y-109304042D01*
X80953283Y-109285863D01*
X80971462Y-109269387D01*
X80991167Y-109254773D01*
X81012211Y-109242160D01*
X81034389Y-109231670D01*
X81057489Y-109223405D01*
X81081287Y-109217444D01*
X81105556Y-109213844D01*
X81130060Y-109212640D01*
X82380060Y-109212640D01*
X82404564Y-109213844D01*
X82404564Y-109213844D01*
G37*
D22*
X81755060Y-109925140D03*
D17*
G36*
X73179284Y-109213844D02*
G01*
X73203553Y-109217444D01*
X73227351Y-109223405D01*
X73250451Y-109231670D01*
X73272629Y-109242160D01*
X73293673Y-109254773D01*
X73313378Y-109269387D01*
X73331557Y-109285863D01*
X73348033Y-109304042D01*
X73362647Y-109323747D01*
X73375260Y-109344791D01*
X73385750Y-109366969D01*
X73394015Y-109390069D01*
X73399976Y-109413867D01*
X73403576Y-109438136D01*
X73404780Y-109462640D01*
X73404780Y-110387640D01*
X73403576Y-110412144D01*
X73399976Y-110436413D01*
X73394015Y-110460211D01*
X73385750Y-110483311D01*
X73375260Y-110505489D01*
X73362647Y-110526533D01*
X73348033Y-110546238D01*
X73331557Y-110564417D01*
X73313378Y-110580893D01*
X73293673Y-110595507D01*
X73272629Y-110608120D01*
X73250451Y-110618610D01*
X73227351Y-110626875D01*
X73203553Y-110632836D01*
X73179284Y-110636436D01*
X73154780Y-110637640D01*
X71904780Y-110637640D01*
X71880276Y-110636436D01*
X71856007Y-110632836D01*
X71832209Y-110626875D01*
X71809109Y-110618610D01*
X71786931Y-110608120D01*
X71765887Y-110595507D01*
X71746182Y-110580893D01*
X71728003Y-110564417D01*
X71711527Y-110546238D01*
X71696913Y-110526533D01*
X71684300Y-110505489D01*
X71673810Y-110483311D01*
X71665545Y-110460211D01*
X71659584Y-110436413D01*
X71655984Y-110412144D01*
X71654780Y-110387640D01*
X71654780Y-109462640D01*
X71655984Y-109438136D01*
X71659584Y-109413867D01*
X71665545Y-109390069D01*
X71673810Y-109366969D01*
X71684300Y-109344791D01*
X71696913Y-109323747D01*
X71711527Y-109304042D01*
X71728003Y-109285863D01*
X71746182Y-109269387D01*
X71765887Y-109254773D01*
X71786931Y-109242160D01*
X71809109Y-109231670D01*
X71832209Y-109223405D01*
X71856007Y-109217444D01*
X71880276Y-109213844D01*
X71904780Y-109212640D01*
X73154780Y-109212640D01*
X73179284Y-109213844D01*
X73179284Y-109213844D01*
G37*
D22*
X72529780Y-109925140D03*
D17*
G36*
X73179284Y-106238844D02*
G01*
X73203553Y-106242444D01*
X73227351Y-106248405D01*
X73250451Y-106256670D01*
X73272629Y-106267160D01*
X73293673Y-106279773D01*
X73313378Y-106294387D01*
X73331557Y-106310863D01*
X73348033Y-106329042D01*
X73362647Y-106348747D01*
X73375260Y-106369791D01*
X73385750Y-106391969D01*
X73394015Y-106415069D01*
X73399976Y-106438867D01*
X73403576Y-106463136D01*
X73404780Y-106487640D01*
X73404780Y-107412640D01*
X73403576Y-107437144D01*
X73399976Y-107461413D01*
X73394015Y-107485211D01*
X73385750Y-107508311D01*
X73375260Y-107530489D01*
X73362647Y-107551533D01*
X73348033Y-107571238D01*
X73331557Y-107589417D01*
X73313378Y-107605893D01*
X73293673Y-107620507D01*
X73272629Y-107633120D01*
X73250451Y-107643610D01*
X73227351Y-107651875D01*
X73203553Y-107657836D01*
X73179284Y-107661436D01*
X73154780Y-107662640D01*
X71904780Y-107662640D01*
X71880276Y-107661436D01*
X71856007Y-107657836D01*
X71832209Y-107651875D01*
X71809109Y-107643610D01*
X71786931Y-107633120D01*
X71765887Y-107620507D01*
X71746182Y-107605893D01*
X71728003Y-107589417D01*
X71711527Y-107571238D01*
X71696913Y-107551533D01*
X71684300Y-107530489D01*
X71673810Y-107508311D01*
X71665545Y-107485211D01*
X71659584Y-107461413D01*
X71655984Y-107437144D01*
X71654780Y-107412640D01*
X71654780Y-106487640D01*
X71655984Y-106463136D01*
X71659584Y-106438867D01*
X71665545Y-106415069D01*
X71673810Y-106391969D01*
X71684300Y-106369791D01*
X71696913Y-106348747D01*
X71711527Y-106329042D01*
X71728003Y-106310863D01*
X71746182Y-106294387D01*
X71765887Y-106279773D01*
X71786931Y-106267160D01*
X71809109Y-106256670D01*
X71832209Y-106248405D01*
X71856007Y-106242444D01*
X71880276Y-106238844D01*
X71904780Y-106237640D01*
X73154780Y-106237640D01*
X73179284Y-106238844D01*
X73179284Y-106238844D01*
G37*
D22*
X72529780Y-106950140D03*
D17*
G36*
X83163754Y-112282224D02*
G01*
X83188023Y-112285824D01*
X83211821Y-112291785D01*
X83234921Y-112300050D01*
X83257099Y-112310540D01*
X83278143Y-112323153D01*
X83297848Y-112337767D01*
X83316027Y-112354243D01*
X83332503Y-112372422D01*
X83347117Y-112392127D01*
X83359730Y-112413171D01*
X83370220Y-112435349D01*
X83378485Y-112458449D01*
X83384446Y-112482247D01*
X83388046Y-112506516D01*
X83389250Y-112531020D01*
X83389250Y-113781020D01*
X83388046Y-113805524D01*
X83384446Y-113829793D01*
X83378485Y-113853591D01*
X83370220Y-113876691D01*
X83359730Y-113898869D01*
X83347117Y-113919913D01*
X83332503Y-113939618D01*
X83316027Y-113957797D01*
X83297848Y-113974273D01*
X83278143Y-113988887D01*
X83257099Y-114001500D01*
X83234921Y-114011990D01*
X83211821Y-114020255D01*
X83188023Y-114026216D01*
X83163754Y-114029816D01*
X83139250Y-114031020D01*
X82214250Y-114031020D01*
X82189746Y-114029816D01*
X82165477Y-114026216D01*
X82141679Y-114020255D01*
X82118579Y-114011990D01*
X82096401Y-114001500D01*
X82075357Y-113988887D01*
X82055652Y-113974273D01*
X82037473Y-113957797D01*
X82020997Y-113939618D01*
X82006383Y-113919913D01*
X81993770Y-113898869D01*
X81983280Y-113876691D01*
X81975015Y-113853591D01*
X81969054Y-113829793D01*
X81965454Y-113805524D01*
X81964250Y-113781020D01*
X81964250Y-112531020D01*
X81965454Y-112506516D01*
X81969054Y-112482247D01*
X81975015Y-112458449D01*
X81983280Y-112435349D01*
X81993770Y-112413171D01*
X82006383Y-112392127D01*
X82020997Y-112372422D01*
X82037473Y-112354243D01*
X82055652Y-112337767D01*
X82075357Y-112323153D01*
X82096401Y-112310540D01*
X82118579Y-112300050D01*
X82141679Y-112291785D01*
X82165477Y-112285824D01*
X82189746Y-112282224D01*
X82214250Y-112281020D01*
X83139250Y-112281020D01*
X83163754Y-112282224D01*
X83163754Y-112282224D01*
G37*
D22*
X82676750Y-113156020D03*
D17*
G36*
X86138754Y-112282224D02*
G01*
X86163023Y-112285824D01*
X86186821Y-112291785D01*
X86209921Y-112300050D01*
X86232099Y-112310540D01*
X86253143Y-112323153D01*
X86272848Y-112337767D01*
X86291027Y-112354243D01*
X86307503Y-112372422D01*
X86322117Y-112392127D01*
X86334730Y-112413171D01*
X86345220Y-112435349D01*
X86353485Y-112458449D01*
X86359446Y-112482247D01*
X86363046Y-112506516D01*
X86364250Y-112531020D01*
X86364250Y-113781020D01*
X86363046Y-113805524D01*
X86359446Y-113829793D01*
X86353485Y-113853591D01*
X86345220Y-113876691D01*
X86334730Y-113898869D01*
X86322117Y-113919913D01*
X86307503Y-113939618D01*
X86291027Y-113957797D01*
X86272848Y-113974273D01*
X86253143Y-113988887D01*
X86232099Y-114001500D01*
X86209921Y-114011990D01*
X86186821Y-114020255D01*
X86163023Y-114026216D01*
X86138754Y-114029816D01*
X86114250Y-114031020D01*
X85189250Y-114031020D01*
X85164746Y-114029816D01*
X85140477Y-114026216D01*
X85116679Y-114020255D01*
X85093579Y-114011990D01*
X85071401Y-114001500D01*
X85050357Y-113988887D01*
X85030652Y-113974273D01*
X85012473Y-113957797D01*
X84995997Y-113939618D01*
X84981383Y-113919913D01*
X84968770Y-113898869D01*
X84958280Y-113876691D01*
X84950015Y-113853591D01*
X84944054Y-113829793D01*
X84940454Y-113805524D01*
X84939250Y-113781020D01*
X84939250Y-112531020D01*
X84940454Y-112506516D01*
X84944054Y-112482247D01*
X84950015Y-112458449D01*
X84958280Y-112435349D01*
X84968770Y-112413171D01*
X84981383Y-112392127D01*
X84995997Y-112372422D01*
X85012473Y-112354243D01*
X85030652Y-112337767D01*
X85050357Y-112323153D01*
X85071401Y-112310540D01*
X85093579Y-112300050D01*
X85116679Y-112291785D01*
X85140477Y-112285824D01*
X85164746Y-112282224D01*
X85189250Y-112281020D01*
X86114250Y-112281020D01*
X86138754Y-112282224D01*
X86138754Y-112282224D01*
G37*
D22*
X85651750Y-113156020D03*
D17*
G36*
X75016704Y-112282224D02*
G01*
X75040973Y-112285824D01*
X75064771Y-112291785D01*
X75087871Y-112300050D01*
X75110049Y-112310540D01*
X75131093Y-112323153D01*
X75150798Y-112337767D01*
X75168977Y-112354243D01*
X75185453Y-112372422D01*
X75200067Y-112392127D01*
X75212680Y-112413171D01*
X75223170Y-112435349D01*
X75231435Y-112458449D01*
X75237396Y-112482247D01*
X75240996Y-112506516D01*
X75242200Y-112531020D01*
X75242200Y-113781020D01*
X75240996Y-113805524D01*
X75237396Y-113829793D01*
X75231435Y-113853591D01*
X75223170Y-113876691D01*
X75212680Y-113898869D01*
X75200067Y-113919913D01*
X75185453Y-113939618D01*
X75168977Y-113957797D01*
X75150798Y-113974273D01*
X75131093Y-113988887D01*
X75110049Y-114001500D01*
X75087871Y-114011990D01*
X75064771Y-114020255D01*
X75040973Y-114026216D01*
X75016704Y-114029816D01*
X74992200Y-114031020D01*
X74067200Y-114031020D01*
X74042696Y-114029816D01*
X74018427Y-114026216D01*
X73994629Y-114020255D01*
X73971529Y-114011990D01*
X73949351Y-114001500D01*
X73928307Y-113988887D01*
X73908602Y-113974273D01*
X73890423Y-113957797D01*
X73873947Y-113939618D01*
X73859333Y-113919913D01*
X73846720Y-113898869D01*
X73836230Y-113876691D01*
X73827965Y-113853591D01*
X73822004Y-113829793D01*
X73818404Y-113805524D01*
X73817200Y-113781020D01*
X73817200Y-112531020D01*
X73818404Y-112506516D01*
X73822004Y-112482247D01*
X73827965Y-112458449D01*
X73836230Y-112435349D01*
X73846720Y-112413171D01*
X73859333Y-112392127D01*
X73873947Y-112372422D01*
X73890423Y-112354243D01*
X73908602Y-112337767D01*
X73928307Y-112323153D01*
X73949351Y-112310540D01*
X73971529Y-112300050D01*
X73994629Y-112291785D01*
X74018427Y-112285824D01*
X74042696Y-112282224D01*
X74067200Y-112281020D01*
X74992200Y-112281020D01*
X75016704Y-112282224D01*
X75016704Y-112282224D01*
G37*
D22*
X74529700Y-113156020D03*
D17*
G36*
X77991704Y-112282224D02*
G01*
X78015973Y-112285824D01*
X78039771Y-112291785D01*
X78062871Y-112300050D01*
X78085049Y-112310540D01*
X78106093Y-112323153D01*
X78125798Y-112337767D01*
X78143977Y-112354243D01*
X78160453Y-112372422D01*
X78175067Y-112392127D01*
X78187680Y-112413171D01*
X78198170Y-112435349D01*
X78206435Y-112458449D01*
X78212396Y-112482247D01*
X78215996Y-112506516D01*
X78217200Y-112531020D01*
X78217200Y-113781020D01*
X78215996Y-113805524D01*
X78212396Y-113829793D01*
X78206435Y-113853591D01*
X78198170Y-113876691D01*
X78187680Y-113898869D01*
X78175067Y-113919913D01*
X78160453Y-113939618D01*
X78143977Y-113957797D01*
X78125798Y-113974273D01*
X78106093Y-113988887D01*
X78085049Y-114001500D01*
X78062871Y-114011990D01*
X78039771Y-114020255D01*
X78015973Y-114026216D01*
X77991704Y-114029816D01*
X77967200Y-114031020D01*
X77042200Y-114031020D01*
X77017696Y-114029816D01*
X76993427Y-114026216D01*
X76969629Y-114020255D01*
X76946529Y-114011990D01*
X76924351Y-114001500D01*
X76903307Y-113988887D01*
X76883602Y-113974273D01*
X76865423Y-113957797D01*
X76848947Y-113939618D01*
X76834333Y-113919913D01*
X76821720Y-113898869D01*
X76811230Y-113876691D01*
X76802965Y-113853591D01*
X76797004Y-113829793D01*
X76793404Y-113805524D01*
X76792200Y-113781020D01*
X76792200Y-112531020D01*
X76793404Y-112506516D01*
X76797004Y-112482247D01*
X76802965Y-112458449D01*
X76811230Y-112435349D01*
X76821720Y-112413171D01*
X76834333Y-112392127D01*
X76848947Y-112372422D01*
X76865423Y-112354243D01*
X76883602Y-112337767D01*
X76903307Y-112323153D01*
X76924351Y-112310540D01*
X76946529Y-112300050D01*
X76969629Y-112291785D01*
X76993427Y-112285824D01*
X77017696Y-112282224D01*
X77042200Y-112281020D01*
X77967200Y-112281020D01*
X77991704Y-112282224D01*
X77991704Y-112282224D01*
G37*
D22*
X77504700Y-113156020D03*
D17*
G36*
X91310804Y-112282224D02*
G01*
X91335073Y-112285824D01*
X91358871Y-112291785D01*
X91381971Y-112300050D01*
X91404149Y-112310540D01*
X91425193Y-112323153D01*
X91444898Y-112337767D01*
X91463077Y-112354243D01*
X91479553Y-112372422D01*
X91494167Y-112392127D01*
X91506780Y-112413171D01*
X91517270Y-112435349D01*
X91525535Y-112458449D01*
X91531496Y-112482247D01*
X91535096Y-112506516D01*
X91536300Y-112531020D01*
X91536300Y-113781020D01*
X91535096Y-113805524D01*
X91531496Y-113829793D01*
X91525535Y-113853591D01*
X91517270Y-113876691D01*
X91506780Y-113898869D01*
X91494167Y-113919913D01*
X91479553Y-113939618D01*
X91463077Y-113957797D01*
X91444898Y-113974273D01*
X91425193Y-113988887D01*
X91404149Y-114001500D01*
X91381971Y-114011990D01*
X91358871Y-114020255D01*
X91335073Y-114026216D01*
X91310804Y-114029816D01*
X91286300Y-114031020D01*
X90361300Y-114031020D01*
X90336796Y-114029816D01*
X90312527Y-114026216D01*
X90288729Y-114020255D01*
X90265629Y-114011990D01*
X90243451Y-114001500D01*
X90222407Y-113988887D01*
X90202702Y-113974273D01*
X90184523Y-113957797D01*
X90168047Y-113939618D01*
X90153433Y-113919913D01*
X90140820Y-113898869D01*
X90130330Y-113876691D01*
X90122065Y-113853591D01*
X90116104Y-113829793D01*
X90112504Y-113805524D01*
X90111300Y-113781020D01*
X90111300Y-112531020D01*
X90112504Y-112506516D01*
X90116104Y-112482247D01*
X90122065Y-112458449D01*
X90130330Y-112435349D01*
X90140820Y-112413171D01*
X90153433Y-112392127D01*
X90168047Y-112372422D01*
X90184523Y-112354243D01*
X90202702Y-112337767D01*
X90222407Y-112323153D01*
X90243451Y-112310540D01*
X90265629Y-112300050D01*
X90288729Y-112291785D01*
X90312527Y-112285824D01*
X90336796Y-112282224D01*
X90361300Y-112281020D01*
X91286300Y-112281020D01*
X91310804Y-112282224D01*
X91310804Y-112282224D01*
G37*
D22*
X90823800Y-113156020D03*
D17*
G36*
X94285804Y-112282224D02*
G01*
X94310073Y-112285824D01*
X94333871Y-112291785D01*
X94356971Y-112300050D01*
X94379149Y-112310540D01*
X94400193Y-112323153D01*
X94419898Y-112337767D01*
X94438077Y-112354243D01*
X94454553Y-112372422D01*
X94469167Y-112392127D01*
X94481780Y-112413171D01*
X94492270Y-112435349D01*
X94500535Y-112458449D01*
X94506496Y-112482247D01*
X94510096Y-112506516D01*
X94511300Y-112531020D01*
X94511300Y-113781020D01*
X94510096Y-113805524D01*
X94506496Y-113829793D01*
X94500535Y-113853591D01*
X94492270Y-113876691D01*
X94481780Y-113898869D01*
X94469167Y-113919913D01*
X94454553Y-113939618D01*
X94438077Y-113957797D01*
X94419898Y-113974273D01*
X94400193Y-113988887D01*
X94379149Y-114001500D01*
X94356971Y-114011990D01*
X94333871Y-114020255D01*
X94310073Y-114026216D01*
X94285804Y-114029816D01*
X94261300Y-114031020D01*
X93336300Y-114031020D01*
X93311796Y-114029816D01*
X93287527Y-114026216D01*
X93263729Y-114020255D01*
X93240629Y-114011990D01*
X93218451Y-114001500D01*
X93197407Y-113988887D01*
X93177702Y-113974273D01*
X93159523Y-113957797D01*
X93143047Y-113939618D01*
X93128433Y-113919913D01*
X93115820Y-113898869D01*
X93105330Y-113876691D01*
X93097065Y-113853591D01*
X93091104Y-113829793D01*
X93087504Y-113805524D01*
X93086300Y-113781020D01*
X93086300Y-112531020D01*
X93087504Y-112506516D01*
X93091104Y-112482247D01*
X93097065Y-112458449D01*
X93105330Y-112435349D01*
X93115820Y-112413171D01*
X93128433Y-112392127D01*
X93143047Y-112372422D01*
X93159523Y-112354243D01*
X93177702Y-112337767D01*
X93197407Y-112323153D01*
X93218451Y-112310540D01*
X93240629Y-112300050D01*
X93263729Y-112291785D01*
X93287527Y-112285824D01*
X93311796Y-112282224D01*
X93336300Y-112281020D01*
X94261300Y-112281020D01*
X94285804Y-112282224D01*
X94285804Y-112282224D01*
G37*
D22*
X93798800Y-113156020D03*
D17*
G36*
X94957244Y-109213844D02*
G01*
X94981513Y-109217444D01*
X95005311Y-109223405D01*
X95028411Y-109231670D01*
X95050589Y-109242160D01*
X95071633Y-109254773D01*
X95091338Y-109269387D01*
X95109517Y-109285863D01*
X95125993Y-109304042D01*
X95140607Y-109323747D01*
X95153220Y-109344791D01*
X95163710Y-109366969D01*
X95171975Y-109390069D01*
X95177936Y-109413867D01*
X95181536Y-109438136D01*
X95182740Y-109462640D01*
X95182740Y-110387640D01*
X95181536Y-110412144D01*
X95177936Y-110436413D01*
X95171975Y-110460211D01*
X95163710Y-110483311D01*
X95153220Y-110505489D01*
X95140607Y-110526533D01*
X95125993Y-110546238D01*
X95109517Y-110564417D01*
X95091338Y-110580893D01*
X95071633Y-110595507D01*
X95050589Y-110608120D01*
X95028411Y-110618610D01*
X95005311Y-110626875D01*
X94981513Y-110632836D01*
X94957244Y-110636436D01*
X94932740Y-110637640D01*
X93682740Y-110637640D01*
X93658236Y-110636436D01*
X93633967Y-110632836D01*
X93610169Y-110626875D01*
X93587069Y-110618610D01*
X93564891Y-110608120D01*
X93543847Y-110595507D01*
X93524142Y-110580893D01*
X93505963Y-110564417D01*
X93489487Y-110546238D01*
X93474873Y-110526533D01*
X93462260Y-110505489D01*
X93451770Y-110483311D01*
X93443505Y-110460211D01*
X93437544Y-110436413D01*
X93433944Y-110412144D01*
X93432740Y-110387640D01*
X93432740Y-109462640D01*
X93433944Y-109438136D01*
X93437544Y-109413867D01*
X93443505Y-109390069D01*
X93451770Y-109366969D01*
X93462260Y-109344791D01*
X93474873Y-109323747D01*
X93489487Y-109304042D01*
X93505963Y-109285863D01*
X93524142Y-109269387D01*
X93543847Y-109254773D01*
X93564891Y-109242160D01*
X93587069Y-109231670D01*
X93610169Y-109223405D01*
X93633967Y-109217444D01*
X93658236Y-109213844D01*
X93682740Y-109212640D01*
X94932740Y-109212640D01*
X94957244Y-109213844D01*
X94957244Y-109213844D01*
G37*
D22*
X94307740Y-109925140D03*
D17*
G36*
X94957244Y-106238844D02*
G01*
X94981513Y-106242444D01*
X95005311Y-106248405D01*
X95028411Y-106256670D01*
X95050589Y-106267160D01*
X95071633Y-106279773D01*
X95091338Y-106294387D01*
X95109517Y-106310863D01*
X95125993Y-106329042D01*
X95140607Y-106348747D01*
X95153220Y-106369791D01*
X95163710Y-106391969D01*
X95171975Y-106415069D01*
X95177936Y-106438867D01*
X95181536Y-106463136D01*
X95182740Y-106487640D01*
X95182740Y-107412640D01*
X95181536Y-107437144D01*
X95177936Y-107461413D01*
X95171975Y-107485211D01*
X95163710Y-107508311D01*
X95153220Y-107530489D01*
X95140607Y-107551533D01*
X95125993Y-107571238D01*
X95109517Y-107589417D01*
X95091338Y-107605893D01*
X95071633Y-107620507D01*
X95050589Y-107633120D01*
X95028411Y-107643610D01*
X95005311Y-107651875D01*
X94981513Y-107657836D01*
X94957244Y-107661436D01*
X94932740Y-107662640D01*
X93682740Y-107662640D01*
X93658236Y-107661436D01*
X93633967Y-107657836D01*
X93610169Y-107651875D01*
X93587069Y-107643610D01*
X93564891Y-107633120D01*
X93543847Y-107620507D01*
X93524142Y-107605893D01*
X93505963Y-107589417D01*
X93489487Y-107571238D01*
X93474873Y-107551533D01*
X93462260Y-107530489D01*
X93451770Y-107508311D01*
X93443505Y-107485211D01*
X93437544Y-107461413D01*
X93433944Y-107437144D01*
X93432740Y-107412640D01*
X93432740Y-106487640D01*
X93433944Y-106463136D01*
X93437544Y-106438867D01*
X93443505Y-106415069D01*
X93451770Y-106391969D01*
X93462260Y-106369791D01*
X93474873Y-106348747D01*
X93489487Y-106329042D01*
X93505963Y-106310863D01*
X93524142Y-106294387D01*
X93543847Y-106279773D01*
X93564891Y-106267160D01*
X93587069Y-106256670D01*
X93610169Y-106248405D01*
X93633967Y-106242444D01*
X93658236Y-106238844D01*
X93682740Y-106237640D01*
X94932740Y-106237640D01*
X94957244Y-106238844D01*
X94957244Y-106238844D01*
G37*
D22*
X94307740Y-106950140D03*
D17*
G36*
X87029904Y-106238844D02*
G01*
X87054173Y-106242444D01*
X87077971Y-106248405D01*
X87101071Y-106256670D01*
X87123249Y-106267160D01*
X87144293Y-106279773D01*
X87163998Y-106294387D01*
X87182177Y-106310863D01*
X87198653Y-106329042D01*
X87213267Y-106348747D01*
X87225880Y-106369791D01*
X87236370Y-106391969D01*
X87244635Y-106415069D01*
X87250596Y-106438867D01*
X87254196Y-106463136D01*
X87255400Y-106487640D01*
X87255400Y-107412640D01*
X87254196Y-107437144D01*
X87250596Y-107461413D01*
X87244635Y-107485211D01*
X87236370Y-107508311D01*
X87225880Y-107530489D01*
X87213267Y-107551533D01*
X87198653Y-107571238D01*
X87182177Y-107589417D01*
X87163998Y-107605893D01*
X87144293Y-107620507D01*
X87123249Y-107633120D01*
X87101071Y-107643610D01*
X87077971Y-107651875D01*
X87054173Y-107657836D01*
X87029904Y-107661436D01*
X87005400Y-107662640D01*
X85755400Y-107662640D01*
X85730896Y-107661436D01*
X85706627Y-107657836D01*
X85682829Y-107651875D01*
X85659729Y-107643610D01*
X85637551Y-107633120D01*
X85616507Y-107620507D01*
X85596802Y-107605893D01*
X85578623Y-107589417D01*
X85562147Y-107571238D01*
X85547533Y-107551533D01*
X85534920Y-107530489D01*
X85524430Y-107508311D01*
X85516165Y-107485211D01*
X85510204Y-107461413D01*
X85506604Y-107437144D01*
X85505400Y-107412640D01*
X85505400Y-106487640D01*
X85506604Y-106463136D01*
X85510204Y-106438867D01*
X85516165Y-106415069D01*
X85524430Y-106391969D01*
X85534920Y-106369791D01*
X85547533Y-106348747D01*
X85562147Y-106329042D01*
X85578623Y-106310863D01*
X85596802Y-106294387D01*
X85616507Y-106279773D01*
X85637551Y-106267160D01*
X85659729Y-106256670D01*
X85682829Y-106248405D01*
X85706627Y-106242444D01*
X85730896Y-106238844D01*
X85755400Y-106237640D01*
X87005400Y-106237640D01*
X87029904Y-106238844D01*
X87029904Y-106238844D01*
G37*
D22*
X86380400Y-106950140D03*
D17*
G36*
X87029904Y-109213844D02*
G01*
X87054173Y-109217444D01*
X87077971Y-109223405D01*
X87101071Y-109231670D01*
X87123249Y-109242160D01*
X87144293Y-109254773D01*
X87163998Y-109269387D01*
X87182177Y-109285863D01*
X87198653Y-109304042D01*
X87213267Y-109323747D01*
X87225880Y-109344791D01*
X87236370Y-109366969D01*
X87244635Y-109390069D01*
X87250596Y-109413867D01*
X87254196Y-109438136D01*
X87255400Y-109462640D01*
X87255400Y-110387640D01*
X87254196Y-110412144D01*
X87250596Y-110436413D01*
X87244635Y-110460211D01*
X87236370Y-110483311D01*
X87225880Y-110505489D01*
X87213267Y-110526533D01*
X87198653Y-110546238D01*
X87182177Y-110564417D01*
X87163998Y-110580893D01*
X87144293Y-110595507D01*
X87123249Y-110608120D01*
X87101071Y-110618610D01*
X87077971Y-110626875D01*
X87054173Y-110632836D01*
X87029904Y-110636436D01*
X87005400Y-110637640D01*
X85755400Y-110637640D01*
X85730896Y-110636436D01*
X85706627Y-110632836D01*
X85682829Y-110626875D01*
X85659729Y-110618610D01*
X85637551Y-110608120D01*
X85616507Y-110595507D01*
X85596802Y-110580893D01*
X85578623Y-110564417D01*
X85562147Y-110546238D01*
X85547533Y-110526533D01*
X85534920Y-110505489D01*
X85524430Y-110483311D01*
X85516165Y-110460211D01*
X85510204Y-110436413D01*
X85506604Y-110412144D01*
X85505400Y-110387640D01*
X85505400Y-109462640D01*
X85506604Y-109438136D01*
X85510204Y-109413867D01*
X85516165Y-109390069D01*
X85524430Y-109366969D01*
X85534920Y-109344791D01*
X85547533Y-109323747D01*
X85562147Y-109304042D01*
X85578623Y-109285863D01*
X85596802Y-109269387D01*
X85616507Y-109254773D01*
X85637551Y-109242160D01*
X85659729Y-109231670D01*
X85682829Y-109223405D01*
X85706627Y-109217444D01*
X85730896Y-109213844D01*
X85755400Y-109212640D01*
X87005400Y-109212640D01*
X87029904Y-109213844D01*
X87029904Y-109213844D01*
G37*
D22*
X86380400Y-109925140D03*
D17*
G36*
X79486104Y-109213844D02*
G01*
X79510373Y-109217444D01*
X79534171Y-109223405D01*
X79557271Y-109231670D01*
X79579449Y-109242160D01*
X79600493Y-109254773D01*
X79620198Y-109269387D01*
X79638377Y-109285863D01*
X79654853Y-109304042D01*
X79669467Y-109323747D01*
X79682080Y-109344791D01*
X79692570Y-109366969D01*
X79700835Y-109390069D01*
X79706796Y-109413867D01*
X79710396Y-109438136D01*
X79711600Y-109462640D01*
X79711600Y-110387640D01*
X79710396Y-110412144D01*
X79706796Y-110436413D01*
X79700835Y-110460211D01*
X79692570Y-110483311D01*
X79682080Y-110505489D01*
X79669467Y-110526533D01*
X79654853Y-110546238D01*
X79638377Y-110564417D01*
X79620198Y-110580893D01*
X79600493Y-110595507D01*
X79579449Y-110608120D01*
X79557271Y-110618610D01*
X79534171Y-110626875D01*
X79510373Y-110632836D01*
X79486104Y-110636436D01*
X79461600Y-110637640D01*
X78211600Y-110637640D01*
X78187096Y-110636436D01*
X78162827Y-110632836D01*
X78139029Y-110626875D01*
X78115929Y-110618610D01*
X78093751Y-110608120D01*
X78072707Y-110595507D01*
X78053002Y-110580893D01*
X78034823Y-110564417D01*
X78018347Y-110546238D01*
X78003733Y-110526533D01*
X77991120Y-110505489D01*
X77980630Y-110483311D01*
X77972365Y-110460211D01*
X77966404Y-110436413D01*
X77962804Y-110412144D01*
X77961600Y-110387640D01*
X77961600Y-109462640D01*
X77962804Y-109438136D01*
X77966404Y-109413867D01*
X77972365Y-109390069D01*
X77980630Y-109366969D01*
X77991120Y-109344791D01*
X78003733Y-109323747D01*
X78018347Y-109304042D01*
X78034823Y-109285863D01*
X78053002Y-109269387D01*
X78072707Y-109254773D01*
X78093751Y-109242160D01*
X78115929Y-109231670D01*
X78139029Y-109223405D01*
X78162827Y-109217444D01*
X78187096Y-109213844D01*
X78211600Y-109212640D01*
X79461600Y-109212640D01*
X79486104Y-109213844D01*
X79486104Y-109213844D01*
G37*
D22*
X78836600Y-109925140D03*
D17*
G36*
X79486104Y-106238844D02*
G01*
X79510373Y-106242444D01*
X79534171Y-106248405D01*
X79557271Y-106256670D01*
X79579449Y-106267160D01*
X79600493Y-106279773D01*
X79620198Y-106294387D01*
X79638377Y-106310863D01*
X79654853Y-106329042D01*
X79669467Y-106348747D01*
X79682080Y-106369791D01*
X79692570Y-106391969D01*
X79700835Y-106415069D01*
X79706796Y-106438867D01*
X79710396Y-106463136D01*
X79711600Y-106487640D01*
X79711600Y-107412640D01*
X79710396Y-107437144D01*
X79706796Y-107461413D01*
X79700835Y-107485211D01*
X79692570Y-107508311D01*
X79682080Y-107530489D01*
X79669467Y-107551533D01*
X79654853Y-107571238D01*
X79638377Y-107589417D01*
X79620198Y-107605893D01*
X79600493Y-107620507D01*
X79579449Y-107633120D01*
X79557271Y-107643610D01*
X79534171Y-107651875D01*
X79510373Y-107657836D01*
X79486104Y-107661436D01*
X79461600Y-107662640D01*
X78211600Y-107662640D01*
X78187096Y-107661436D01*
X78162827Y-107657836D01*
X78139029Y-107651875D01*
X78115929Y-107643610D01*
X78093751Y-107633120D01*
X78072707Y-107620507D01*
X78053002Y-107605893D01*
X78034823Y-107589417D01*
X78018347Y-107571238D01*
X78003733Y-107551533D01*
X77991120Y-107530489D01*
X77980630Y-107508311D01*
X77972365Y-107485211D01*
X77966404Y-107461413D01*
X77962804Y-107437144D01*
X77961600Y-107412640D01*
X77961600Y-106487640D01*
X77962804Y-106463136D01*
X77966404Y-106438867D01*
X77972365Y-106415069D01*
X77980630Y-106391969D01*
X77991120Y-106369791D01*
X78003733Y-106348747D01*
X78018347Y-106329042D01*
X78034823Y-106310863D01*
X78053002Y-106294387D01*
X78072707Y-106279773D01*
X78093751Y-106267160D01*
X78115929Y-106256670D01*
X78139029Y-106248405D01*
X78162827Y-106242444D01*
X78187096Y-106238844D01*
X78211600Y-106237640D01*
X79461600Y-106237640D01*
X79486104Y-106238844D01*
X79486104Y-106238844D01*
G37*
D22*
X78836600Y-106950140D03*
D17*
G36*
X152269804Y-69104704D02*
G01*
X152294073Y-69108304D01*
X152317871Y-69114265D01*
X152340971Y-69122530D01*
X152363149Y-69133020D01*
X152384193Y-69145633D01*
X152403898Y-69160247D01*
X152422077Y-69176723D01*
X152438553Y-69194902D01*
X152453167Y-69214607D01*
X152465780Y-69235651D01*
X152476270Y-69257829D01*
X152484535Y-69280929D01*
X152490496Y-69304727D01*
X152494096Y-69328996D01*
X152495300Y-69353500D01*
X152495300Y-70278500D01*
X152494096Y-70303004D01*
X152490496Y-70327273D01*
X152484535Y-70351071D01*
X152476270Y-70374171D01*
X152465780Y-70396349D01*
X152453167Y-70417393D01*
X152438553Y-70437098D01*
X152422077Y-70455277D01*
X152403898Y-70471753D01*
X152384193Y-70486367D01*
X152363149Y-70498980D01*
X152340971Y-70509470D01*
X152317871Y-70517735D01*
X152294073Y-70523696D01*
X152269804Y-70527296D01*
X152245300Y-70528500D01*
X150995300Y-70528500D01*
X150970796Y-70527296D01*
X150946527Y-70523696D01*
X150922729Y-70517735D01*
X150899629Y-70509470D01*
X150877451Y-70498980D01*
X150856407Y-70486367D01*
X150836702Y-70471753D01*
X150818523Y-70455277D01*
X150802047Y-70437098D01*
X150787433Y-70417393D01*
X150774820Y-70396349D01*
X150764330Y-70374171D01*
X150756065Y-70351071D01*
X150750104Y-70327273D01*
X150746504Y-70303004D01*
X150745300Y-70278500D01*
X150745300Y-69353500D01*
X150746504Y-69328996D01*
X150750104Y-69304727D01*
X150756065Y-69280929D01*
X150764330Y-69257829D01*
X150774820Y-69235651D01*
X150787433Y-69214607D01*
X150802047Y-69194902D01*
X150818523Y-69176723D01*
X150836702Y-69160247D01*
X150856407Y-69145633D01*
X150877451Y-69133020D01*
X150899629Y-69122530D01*
X150922729Y-69114265D01*
X150946527Y-69108304D01*
X150970796Y-69104704D01*
X150995300Y-69103500D01*
X152245300Y-69103500D01*
X152269804Y-69104704D01*
X152269804Y-69104704D01*
G37*
D22*
X151620300Y-69816000D03*
D17*
G36*
X152269804Y-66129704D02*
G01*
X152294073Y-66133304D01*
X152317871Y-66139265D01*
X152340971Y-66147530D01*
X152363149Y-66158020D01*
X152384193Y-66170633D01*
X152403898Y-66185247D01*
X152422077Y-66201723D01*
X152438553Y-66219902D01*
X152453167Y-66239607D01*
X152465780Y-66260651D01*
X152476270Y-66282829D01*
X152484535Y-66305929D01*
X152490496Y-66329727D01*
X152494096Y-66353996D01*
X152495300Y-66378500D01*
X152495300Y-67303500D01*
X152494096Y-67328004D01*
X152490496Y-67352273D01*
X152484535Y-67376071D01*
X152476270Y-67399171D01*
X152465780Y-67421349D01*
X152453167Y-67442393D01*
X152438553Y-67462098D01*
X152422077Y-67480277D01*
X152403898Y-67496753D01*
X152384193Y-67511367D01*
X152363149Y-67523980D01*
X152340971Y-67534470D01*
X152317871Y-67542735D01*
X152294073Y-67548696D01*
X152269804Y-67552296D01*
X152245300Y-67553500D01*
X150995300Y-67553500D01*
X150970796Y-67552296D01*
X150946527Y-67548696D01*
X150922729Y-67542735D01*
X150899629Y-67534470D01*
X150877451Y-67523980D01*
X150856407Y-67511367D01*
X150836702Y-67496753D01*
X150818523Y-67480277D01*
X150802047Y-67462098D01*
X150787433Y-67442393D01*
X150774820Y-67421349D01*
X150764330Y-67399171D01*
X150756065Y-67376071D01*
X150750104Y-67352273D01*
X150746504Y-67328004D01*
X150745300Y-67303500D01*
X150745300Y-66378500D01*
X150746504Y-66353996D01*
X150750104Y-66329727D01*
X150756065Y-66305929D01*
X150764330Y-66282829D01*
X150774820Y-66260651D01*
X150787433Y-66239607D01*
X150802047Y-66219902D01*
X150818523Y-66201723D01*
X150836702Y-66185247D01*
X150856407Y-66170633D01*
X150877451Y-66158020D01*
X150899629Y-66147530D01*
X150922729Y-66139265D01*
X150946527Y-66133304D01*
X150970796Y-66129704D01*
X150995300Y-66128500D01*
X152245300Y-66128500D01*
X152269804Y-66129704D01*
X152269804Y-66129704D01*
G37*
D22*
X151620300Y-66841000D03*
D17*
G36*
X155686104Y-72232104D02*
G01*
X155710373Y-72235704D01*
X155734171Y-72241665D01*
X155757271Y-72249930D01*
X155779449Y-72260420D01*
X155800493Y-72273033D01*
X155820198Y-72287647D01*
X155838377Y-72304123D01*
X155854853Y-72322302D01*
X155869467Y-72342007D01*
X155882080Y-72363051D01*
X155892570Y-72385229D01*
X155900835Y-72408329D01*
X155906796Y-72432127D01*
X155910396Y-72456396D01*
X155911600Y-72480900D01*
X155911600Y-73405900D01*
X155910396Y-73430404D01*
X155906796Y-73454673D01*
X155900835Y-73478471D01*
X155892570Y-73501571D01*
X155882080Y-73523749D01*
X155869467Y-73544793D01*
X155854853Y-73564498D01*
X155838377Y-73582677D01*
X155820198Y-73599153D01*
X155800493Y-73613767D01*
X155779449Y-73626380D01*
X155757271Y-73636870D01*
X155734171Y-73645135D01*
X155710373Y-73651096D01*
X155686104Y-73654696D01*
X155661600Y-73655900D01*
X154411600Y-73655900D01*
X154387096Y-73654696D01*
X154362827Y-73651096D01*
X154339029Y-73645135D01*
X154315929Y-73636870D01*
X154293751Y-73626380D01*
X154272707Y-73613767D01*
X154253002Y-73599153D01*
X154234823Y-73582677D01*
X154218347Y-73564498D01*
X154203733Y-73544793D01*
X154191120Y-73523749D01*
X154180630Y-73501571D01*
X154172365Y-73478471D01*
X154166404Y-73454673D01*
X154162804Y-73430404D01*
X154161600Y-73405900D01*
X154161600Y-72480900D01*
X154162804Y-72456396D01*
X154166404Y-72432127D01*
X154172365Y-72408329D01*
X154180630Y-72385229D01*
X154191120Y-72363051D01*
X154203733Y-72342007D01*
X154218347Y-72322302D01*
X154234823Y-72304123D01*
X154253002Y-72287647D01*
X154272707Y-72273033D01*
X154293751Y-72260420D01*
X154315929Y-72249930D01*
X154339029Y-72241665D01*
X154362827Y-72235704D01*
X154387096Y-72232104D01*
X154411600Y-72230900D01*
X155661600Y-72230900D01*
X155686104Y-72232104D01*
X155686104Y-72232104D01*
G37*
D22*
X155036600Y-72943400D03*
D17*
G36*
X155686104Y-69257104D02*
G01*
X155710373Y-69260704D01*
X155734171Y-69266665D01*
X155757271Y-69274930D01*
X155779449Y-69285420D01*
X155800493Y-69298033D01*
X155820198Y-69312647D01*
X155838377Y-69329123D01*
X155854853Y-69347302D01*
X155869467Y-69367007D01*
X155882080Y-69388051D01*
X155892570Y-69410229D01*
X155900835Y-69433329D01*
X155906796Y-69457127D01*
X155910396Y-69481396D01*
X155911600Y-69505900D01*
X155911600Y-70430900D01*
X155910396Y-70455404D01*
X155906796Y-70479673D01*
X155900835Y-70503471D01*
X155892570Y-70526571D01*
X155882080Y-70548749D01*
X155869467Y-70569793D01*
X155854853Y-70589498D01*
X155838377Y-70607677D01*
X155820198Y-70624153D01*
X155800493Y-70638767D01*
X155779449Y-70651380D01*
X155757271Y-70661870D01*
X155734171Y-70670135D01*
X155710373Y-70676096D01*
X155686104Y-70679696D01*
X155661600Y-70680900D01*
X154411600Y-70680900D01*
X154387096Y-70679696D01*
X154362827Y-70676096D01*
X154339029Y-70670135D01*
X154315929Y-70661870D01*
X154293751Y-70651380D01*
X154272707Y-70638767D01*
X154253002Y-70624153D01*
X154234823Y-70607677D01*
X154218347Y-70589498D01*
X154203733Y-70569793D01*
X154191120Y-70548749D01*
X154180630Y-70526571D01*
X154172365Y-70503471D01*
X154166404Y-70479673D01*
X154162804Y-70455404D01*
X154161600Y-70430900D01*
X154161600Y-69505900D01*
X154162804Y-69481396D01*
X154166404Y-69457127D01*
X154172365Y-69433329D01*
X154180630Y-69410229D01*
X154191120Y-69388051D01*
X154203733Y-69367007D01*
X154218347Y-69347302D01*
X154234823Y-69329123D01*
X154253002Y-69312647D01*
X154272707Y-69298033D01*
X154293751Y-69285420D01*
X154315929Y-69274930D01*
X154339029Y-69266665D01*
X154362827Y-69260704D01*
X154387096Y-69257104D01*
X154411600Y-69255900D01*
X155661600Y-69255900D01*
X155686104Y-69257104D01*
X155686104Y-69257104D01*
G37*
D22*
X155036600Y-69968400D03*
D23*
X62695900Y-83963800D03*
X62695900Y-82693800D03*
X62695900Y-81423800D03*
X62695900Y-80153800D03*
X62695900Y-78883800D03*
X62695900Y-77613800D03*
X62695900Y-76343800D03*
X62695900Y-75073800D03*
X62695900Y-73803800D03*
X53295900Y-73803800D03*
X53295900Y-75073800D03*
X53295900Y-76343800D03*
X53295900Y-77613800D03*
X53295900Y-78883800D03*
X53295900Y-80153800D03*
X53295900Y-81423800D03*
X53295900Y-82693800D03*
X53295900Y-83963800D03*
D24*
X127954320Y-114321880D03*
X127954320Y-116861880D03*
X134254320Y-116861880D03*
X134254320Y-115591880D03*
X134254320Y-114321880D03*
D25*
X133753920Y-134438680D03*
X133753920Y-133168680D03*
X133753920Y-131898680D03*
X133753920Y-130628680D03*
X128353920Y-130628680D03*
X128353920Y-131898680D03*
X128353920Y-133168680D03*
X128353920Y-134438680D03*
X129286020Y-97790000D03*
X129286020Y-99060000D03*
X129286020Y-100330000D03*
X129286020Y-101600000D03*
X134686020Y-101600000D03*
X134686020Y-100330000D03*
X134686020Y-99060000D03*
X134686020Y-97790000D03*
D26*
X171920000Y-120235000D03*
X171920000Y-121505000D03*
X171920000Y-122775000D03*
X171920000Y-124045000D03*
X171920000Y-125315000D03*
X171920000Y-126585000D03*
X171920000Y-127855000D03*
X171920000Y-129125000D03*
X177320000Y-129125000D03*
X177320000Y-127855000D03*
X177320000Y-126585000D03*
X177320000Y-125315000D03*
X177320000Y-124045000D03*
X177320000Y-122775000D03*
X177320000Y-121505000D03*
X177320000Y-120235000D03*
D25*
X128488520Y-126513880D03*
X128488520Y-125243880D03*
X128488520Y-123973880D03*
X128488520Y-122703880D03*
X133888520Y-122703880D03*
X133888520Y-123973880D03*
X133888520Y-125243880D03*
X133888520Y-126513880D03*
D27*
X74300160Y-100417900D03*
X75570160Y-100417900D03*
X76840160Y-100417900D03*
X78110160Y-100417900D03*
X79380160Y-100417900D03*
X80650160Y-100417900D03*
X81920160Y-100417900D03*
X83190160Y-100417900D03*
X83190160Y-95017900D03*
X81920160Y-95017900D03*
X80650160Y-95017900D03*
X79380160Y-95017900D03*
X78110160Y-95017900D03*
X76840160Y-95017900D03*
X75570160Y-95017900D03*
X74300160Y-95017900D03*
D28*
X155130600Y-64601300D03*
X155130600Y-65551300D03*
X155130600Y-66501300D03*
X157830600Y-66501300D03*
X157830600Y-64601300D03*
X157830600Y-65551300D03*
D17*
G36*
X94309604Y-54337204D02*
G01*
X94333873Y-54340804D01*
X94357671Y-54346765D01*
X94380771Y-54355030D01*
X94402949Y-54365520D01*
X94423993Y-54378133D01*
X94443698Y-54392747D01*
X94461877Y-54409223D01*
X94478353Y-54427402D01*
X94492967Y-54447107D01*
X94505580Y-54468151D01*
X94516070Y-54490329D01*
X94524335Y-54513429D01*
X94530296Y-54537227D01*
X94533896Y-54561496D01*
X94535100Y-54586000D01*
X94535100Y-55836000D01*
X94533896Y-55860504D01*
X94530296Y-55884773D01*
X94524335Y-55908571D01*
X94516070Y-55931671D01*
X94505580Y-55953849D01*
X94492967Y-55974893D01*
X94478353Y-55994598D01*
X94461877Y-56012777D01*
X94443698Y-56029253D01*
X94423993Y-56043867D01*
X94402949Y-56056480D01*
X94380771Y-56066970D01*
X94357671Y-56075235D01*
X94333873Y-56081196D01*
X94309604Y-56084796D01*
X94285100Y-56086000D01*
X93360100Y-56086000D01*
X93335596Y-56084796D01*
X93311327Y-56081196D01*
X93287529Y-56075235D01*
X93264429Y-56066970D01*
X93242251Y-56056480D01*
X93221207Y-56043867D01*
X93201502Y-56029253D01*
X93183323Y-56012777D01*
X93166847Y-55994598D01*
X93152233Y-55974893D01*
X93139620Y-55953849D01*
X93129130Y-55931671D01*
X93120865Y-55908571D01*
X93114904Y-55884773D01*
X93111304Y-55860504D01*
X93110100Y-55836000D01*
X93110100Y-54586000D01*
X93111304Y-54561496D01*
X93114904Y-54537227D01*
X93120865Y-54513429D01*
X93129130Y-54490329D01*
X93139620Y-54468151D01*
X93152233Y-54447107D01*
X93166847Y-54427402D01*
X93183323Y-54409223D01*
X93201502Y-54392747D01*
X93221207Y-54378133D01*
X93242251Y-54365520D01*
X93264429Y-54355030D01*
X93287529Y-54346765D01*
X93311327Y-54340804D01*
X93335596Y-54337204D01*
X93360100Y-54336000D01*
X94285100Y-54336000D01*
X94309604Y-54337204D01*
X94309604Y-54337204D01*
G37*
D22*
X93822600Y-55211000D03*
D17*
G36*
X91334604Y-54337204D02*
G01*
X91358873Y-54340804D01*
X91382671Y-54346765D01*
X91405771Y-54355030D01*
X91427949Y-54365520D01*
X91448993Y-54378133D01*
X91468698Y-54392747D01*
X91486877Y-54409223D01*
X91503353Y-54427402D01*
X91517967Y-54447107D01*
X91530580Y-54468151D01*
X91541070Y-54490329D01*
X91549335Y-54513429D01*
X91555296Y-54537227D01*
X91558896Y-54561496D01*
X91560100Y-54586000D01*
X91560100Y-55836000D01*
X91558896Y-55860504D01*
X91555296Y-55884773D01*
X91549335Y-55908571D01*
X91541070Y-55931671D01*
X91530580Y-55953849D01*
X91517967Y-55974893D01*
X91503353Y-55994598D01*
X91486877Y-56012777D01*
X91468698Y-56029253D01*
X91448993Y-56043867D01*
X91427949Y-56056480D01*
X91405771Y-56066970D01*
X91382671Y-56075235D01*
X91358873Y-56081196D01*
X91334604Y-56084796D01*
X91310100Y-56086000D01*
X90385100Y-56086000D01*
X90360596Y-56084796D01*
X90336327Y-56081196D01*
X90312529Y-56075235D01*
X90289429Y-56066970D01*
X90267251Y-56056480D01*
X90246207Y-56043867D01*
X90226502Y-56029253D01*
X90208323Y-56012777D01*
X90191847Y-55994598D01*
X90177233Y-55974893D01*
X90164620Y-55953849D01*
X90154130Y-55931671D01*
X90145865Y-55908571D01*
X90139904Y-55884773D01*
X90136304Y-55860504D01*
X90135100Y-55836000D01*
X90135100Y-54586000D01*
X90136304Y-54561496D01*
X90139904Y-54537227D01*
X90145865Y-54513429D01*
X90154130Y-54490329D01*
X90164620Y-54468151D01*
X90177233Y-54447107D01*
X90191847Y-54427402D01*
X90208323Y-54409223D01*
X90226502Y-54392747D01*
X90246207Y-54378133D01*
X90267251Y-54365520D01*
X90289429Y-54355030D01*
X90312529Y-54346765D01*
X90336327Y-54340804D01*
X90360596Y-54337204D01*
X90385100Y-54336000D01*
X91310100Y-54336000D01*
X91334604Y-54337204D01*
X91334604Y-54337204D01*
G37*
D22*
X90847600Y-55211000D03*
D17*
G36*
X108047804Y-52660804D02*
G01*
X108072073Y-52664404D01*
X108095871Y-52670365D01*
X108118971Y-52678630D01*
X108141149Y-52689120D01*
X108162193Y-52701733D01*
X108181898Y-52716347D01*
X108200077Y-52732823D01*
X108216553Y-52751002D01*
X108231167Y-52770707D01*
X108243780Y-52791751D01*
X108254270Y-52813929D01*
X108262535Y-52837029D01*
X108268496Y-52860827D01*
X108272096Y-52885096D01*
X108273300Y-52909600D01*
X108273300Y-54159600D01*
X108272096Y-54184104D01*
X108268496Y-54208373D01*
X108262535Y-54232171D01*
X108254270Y-54255271D01*
X108243780Y-54277449D01*
X108231167Y-54298493D01*
X108216553Y-54318198D01*
X108200077Y-54336377D01*
X108181898Y-54352853D01*
X108162193Y-54367467D01*
X108141149Y-54380080D01*
X108118971Y-54390570D01*
X108095871Y-54398835D01*
X108072073Y-54404796D01*
X108047804Y-54408396D01*
X108023300Y-54409600D01*
X107098300Y-54409600D01*
X107073796Y-54408396D01*
X107049527Y-54404796D01*
X107025729Y-54398835D01*
X107002629Y-54390570D01*
X106980451Y-54380080D01*
X106959407Y-54367467D01*
X106939702Y-54352853D01*
X106921523Y-54336377D01*
X106905047Y-54318198D01*
X106890433Y-54298493D01*
X106877820Y-54277449D01*
X106867330Y-54255271D01*
X106859065Y-54232171D01*
X106853104Y-54208373D01*
X106849504Y-54184104D01*
X106848300Y-54159600D01*
X106848300Y-52909600D01*
X106849504Y-52885096D01*
X106853104Y-52860827D01*
X106859065Y-52837029D01*
X106867330Y-52813929D01*
X106877820Y-52791751D01*
X106890433Y-52770707D01*
X106905047Y-52751002D01*
X106921523Y-52732823D01*
X106939702Y-52716347D01*
X106959407Y-52701733D01*
X106980451Y-52689120D01*
X107002629Y-52678630D01*
X107025729Y-52670365D01*
X107049527Y-52664404D01*
X107073796Y-52660804D01*
X107098300Y-52659600D01*
X108023300Y-52659600D01*
X108047804Y-52660804D01*
X108047804Y-52660804D01*
G37*
D22*
X107560800Y-53534600D03*
D17*
G36*
X111022804Y-52660804D02*
G01*
X111047073Y-52664404D01*
X111070871Y-52670365D01*
X111093971Y-52678630D01*
X111116149Y-52689120D01*
X111137193Y-52701733D01*
X111156898Y-52716347D01*
X111175077Y-52732823D01*
X111191553Y-52751002D01*
X111206167Y-52770707D01*
X111218780Y-52791751D01*
X111229270Y-52813929D01*
X111237535Y-52837029D01*
X111243496Y-52860827D01*
X111247096Y-52885096D01*
X111248300Y-52909600D01*
X111248300Y-54159600D01*
X111247096Y-54184104D01*
X111243496Y-54208373D01*
X111237535Y-54232171D01*
X111229270Y-54255271D01*
X111218780Y-54277449D01*
X111206167Y-54298493D01*
X111191553Y-54318198D01*
X111175077Y-54336377D01*
X111156898Y-54352853D01*
X111137193Y-54367467D01*
X111116149Y-54380080D01*
X111093971Y-54390570D01*
X111070871Y-54398835D01*
X111047073Y-54404796D01*
X111022804Y-54408396D01*
X110998300Y-54409600D01*
X110073300Y-54409600D01*
X110048796Y-54408396D01*
X110024527Y-54404796D01*
X110000729Y-54398835D01*
X109977629Y-54390570D01*
X109955451Y-54380080D01*
X109934407Y-54367467D01*
X109914702Y-54352853D01*
X109896523Y-54336377D01*
X109880047Y-54318198D01*
X109865433Y-54298493D01*
X109852820Y-54277449D01*
X109842330Y-54255271D01*
X109834065Y-54232171D01*
X109828104Y-54208373D01*
X109824504Y-54184104D01*
X109823300Y-54159600D01*
X109823300Y-52909600D01*
X109824504Y-52885096D01*
X109828104Y-52860827D01*
X109834065Y-52837029D01*
X109842330Y-52813929D01*
X109852820Y-52791751D01*
X109865433Y-52770707D01*
X109880047Y-52751002D01*
X109896523Y-52732823D01*
X109914702Y-52716347D01*
X109934407Y-52701733D01*
X109955451Y-52689120D01*
X109977629Y-52678630D01*
X110000729Y-52670365D01*
X110024527Y-52664404D01*
X110048796Y-52660804D01*
X110073300Y-52659600D01*
X110998300Y-52659600D01*
X111022804Y-52660804D01*
X111022804Y-52660804D01*
G37*
D22*
X110535800Y-53534600D03*
D17*
G36*
X76237504Y-54629304D02*
G01*
X76261773Y-54632904D01*
X76285571Y-54638865D01*
X76308671Y-54647130D01*
X76330849Y-54657620D01*
X76351893Y-54670233D01*
X76371598Y-54684847D01*
X76389777Y-54701323D01*
X76406253Y-54719502D01*
X76420867Y-54739207D01*
X76433480Y-54760251D01*
X76443970Y-54782429D01*
X76452235Y-54805529D01*
X76458196Y-54829327D01*
X76461796Y-54853596D01*
X76463000Y-54878100D01*
X76463000Y-56128100D01*
X76461796Y-56152604D01*
X76458196Y-56176873D01*
X76452235Y-56200671D01*
X76443970Y-56223771D01*
X76433480Y-56245949D01*
X76420867Y-56266993D01*
X76406253Y-56286698D01*
X76389777Y-56304877D01*
X76371598Y-56321353D01*
X76351893Y-56335967D01*
X76330849Y-56348580D01*
X76308671Y-56359070D01*
X76285571Y-56367335D01*
X76261773Y-56373296D01*
X76237504Y-56376896D01*
X76213000Y-56378100D01*
X75288000Y-56378100D01*
X75263496Y-56376896D01*
X75239227Y-56373296D01*
X75215429Y-56367335D01*
X75192329Y-56359070D01*
X75170151Y-56348580D01*
X75149107Y-56335967D01*
X75129402Y-56321353D01*
X75111223Y-56304877D01*
X75094747Y-56286698D01*
X75080133Y-56266993D01*
X75067520Y-56245949D01*
X75057030Y-56223771D01*
X75048765Y-56200671D01*
X75042804Y-56176873D01*
X75039204Y-56152604D01*
X75038000Y-56128100D01*
X75038000Y-54878100D01*
X75039204Y-54853596D01*
X75042804Y-54829327D01*
X75048765Y-54805529D01*
X75057030Y-54782429D01*
X75067520Y-54760251D01*
X75080133Y-54739207D01*
X75094747Y-54719502D01*
X75111223Y-54701323D01*
X75129402Y-54684847D01*
X75149107Y-54670233D01*
X75170151Y-54657620D01*
X75192329Y-54647130D01*
X75215429Y-54638865D01*
X75239227Y-54632904D01*
X75263496Y-54629304D01*
X75288000Y-54628100D01*
X76213000Y-54628100D01*
X76237504Y-54629304D01*
X76237504Y-54629304D01*
G37*
D22*
X75750500Y-55503100D03*
D17*
G36*
X79212504Y-54629304D02*
G01*
X79236773Y-54632904D01*
X79260571Y-54638865D01*
X79283671Y-54647130D01*
X79305849Y-54657620D01*
X79326893Y-54670233D01*
X79346598Y-54684847D01*
X79364777Y-54701323D01*
X79381253Y-54719502D01*
X79395867Y-54739207D01*
X79408480Y-54760251D01*
X79418970Y-54782429D01*
X79427235Y-54805529D01*
X79433196Y-54829327D01*
X79436796Y-54853596D01*
X79438000Y-54878100D01*
X79438000Y-56128100D01*
X79436796Y-56152604D01*
X79433196Y-56176873D01*
X79427235Y-56200671D01*
X79418970Y-56223771D01*
X79408480Y-56245949D01*
X79395867Y-56266993D01*
X79381253Y-56286698D01*
X79364777Y-56304877D01*
X79346598Y-56321353D01*
X79326893Y-56335967D01*
X79305849Y-56348580D01*
X79283671Y-56359070D01*
X79260571Y-56367335D01*
X79236773Y-56373296D01*
X79212504Y-56376896D01*
X79188000Y-56378100D01*
X78263000Y-56378100D01*
X78238496Y-56376896D01*
X78214227Y-56373296D01*
X78190429Y-56367335D01*
X78167329Y-56359070D01*
X78145151Y-56348580D01*
X78124107Y-56335967D01*
X78104402Y-56321353D01*
X78086223Y-56304877D01*
X78069747Y-56286698D01*
X78055133Y-56266993D01*
X78042520Y-56245949D01*
X78032030Y-56223771D01*
X78023765Y-56200671D01*
X78017804Y-56176873D01*
X78014204Y-56152604D01*
X78013000Y-56128100D01*
X78013000Y-54878100D01*
X78014204Y-54853596D01*
X78017804Y-54829327D01*
X78023765Y-54805529D01*
X78032030Y-54782429D01*
X78042520Y-54760251D01*
X78055133Y-54739207D01*
X78069747Y-54719502D01*
X78086223Y-54701323D01*
X78104402Y-54684847D01*
X78124107Y-54670233D01*
X78145151Y-54657620D01*
X78167329Y-54647130D01*
X78190429Y-54638865D01*
X78214227Y-54632904D01*
X78238496Y-54629304D01*
X78263000Y-54628100D01*
X79188000Y-54628100D01*
X79212504Y-54629304D01*
X79212504Y-54629304D01*
G37*
D22*
X78725500Y-55503100D03*
D17*
G36*
X134992724Y-111025524D02*
G01*
X135016993Y-111029124D01*
X135040791Y-111035085D01*
X135063891Y-111043350D01*
X135086069Y-111053840D01*
X135107113Y-111066453D01*
X135126818Y-111081067D01*
X135144997Y-111097543D01*
X135161473Y-111115722D01*
X135176087Y-111135427D01*
X135188700Y-111156471D01*
X135199190Y-111178649D01*
X135207455Y-111201749D01*
X135213416Y-111225547D01*
X135217016Y-111249816D01*
X135218220Y-111274320D01*
X135218220Y-112199320D01*
X135217016Y-112223824D01*
X135213416Y-112248093D01*
X135207455Y-112271891D01*
X135199190Y-112294991D01*
X135188700Y-112317169D01*
X135176087Y-112338213D01*
X135161473Y-112357918D01*
X135144997Y-112376097D01*
X135126818Y-112392573D01*
X135107113Y-112407187D01*
X135086069Y-112419800D01*
X135063891Y-112430290D01*
X135040791Y-112438555D01*
X135016993Y-112444516D01*
X134992724Y-112448116D01*
X134968220Y-112449320D01*
X133718220Y-112449320D01*
X133693716Y-112448116D01*
X133669447Y-112444516D01*
X133645649Y-112438555D01*
X133622549Y-112430290D01*
X133600371Y-112419800D01*
X133579327Y-112407187D01*
X133559622Y-112392573D01*
X133541443Y-112376097D01*
X133524967Y-112357918D01*
X133510353Y-112338213D01*
X133497740Y-112317169D01*
X133487250Y-112294991D01*
X133478985Y-112271891D01*
X133473024Y-112248093D01*
X133469424Y-112223824D01*
X133468220Y-112199320D01*
X133468220Y-111274320D01*
X133469424Y-111249816D01*
X133473024Y-111225547D01*
X133478985Y-111201749D01*
X133487250Y-111178649D01*
X133497740Y-111156471D01*
X133510353Y-111135427D01*
X133524967Y-111115722D01*
X133541443Y-111097543D01*
X133559622Y-111081067D01*
X133579327Y-111066453D01*
X133600371Y-111053840D01*
X133622549Y-111043350D01*
X133645649Y-111035085D01*
X133669447Y-111029124D01*
X133693716Y-111025524D01*
X133718220Y-111024320D01*
X134968220Y-111024320D01*
X134992724Y-111025524D01*
X134992724Y-111025524D01*
G37*
D22*
X134343220Y-111736820D03*
D17*
G36*
X134992724Y-108050524D02*
G01*
X135016993Y-108054124D01*
X135040791Y-108060085D01*
X135063891Y-108068350D01*
X135086069Y-108078840D01*
X135107113Y-108091453D01*
X135126818Y-108106067D01*
X135144997Y-108122543D01*
X135161473Y-108140722D01*
X135176087Y-108160427D01*
X135188700Y-108181471D01*
X135199190Y-108203649D01*
X135207455Y-108226749D01*
X135213416Y-108250547D01*
X135217016Y-108274816D01*
X135218220Y-108299320D01*
X135218220Y-109224320D01*
X135217016Y-109248824D01*
X135213416Y-109273093D01*
X135207455Y-109296891D01*
X135199190Y-109319991D01*
X135188700Y-109342169D01*
X135176087Y-109363213D01*
X135161473Y-109382918D01*
X135144997Y-109401097D01*
X135126818Y-109417573D01*
X135107113Y-109432187D01*
X135086069Y-109444800D01*
X135063891Y-109455290D01*
X135040791Y-109463555D01*
X135016993Y-109469516D01*
X134992724Y-109473116D01*
X134968220Y-109474320D01*
X133718220Y-109474320D01*
X133693716Y-109473116D01*
X133669447Y-109469516D01*
X133645649Y-109463555D01*
X133622549Y-109455290D01*
X133600371Y-109444800D01*
X133579327Y-109432187D01*
X133559622Y-109417573D01*
X133541443Y-109401097D01*
X133524967Y-109382918D01*
X133510353Y-109363213D01*
X133497740Y-109342169D01*
X133487250Y-109319991D01*
X133478985Y-109296891D01*
X133473024Y-109273093D01*
X133469424Y-109248824D01*
X133468220Y-109224320D01*
X133468220Y-108299320D01*
X133469424Y-108274816D01*
X133473024Y-108250547D01*
X133478985Y-108226749D01*
X133487250Y-108203649D01*
X133497740Y-108181471D01*
X133510353Y-108160427D01*
X133524967Y-108140722D01*
X133541443Y-108122543D01*
X133559622Y-108106067D01*
X133579327Y-108091453D01*
X133600371Y-108078840D01*
X133622549Y-108068350D01*
X133645649Y-108060085D01*
X133669447Y-108054124D01*
X133693716Y-108050524D01*
X133718220Y-108049320D01*
X134968220Y-108049320D01*
X134992724Y-108050524D01*
X134992724Y-108050524D01*
G37*
D22*
X134343220Y-108761820D03*
D17*
G36*
X162102204Y-121494804D02*
G01*
X162126473Y-121498404D01*
X162150271Y-121504365D01*
X162173371Y-121512630D01*
X162195549Y-121523120D01*
X162216593Y-121535733D01*
X162236298Y-121550347D01*
X162254477Y-121566823D01*
X162270953Y-121585002D01*
X162285567Y-121604707D01*
X162298180Y-121625751D01*
X162308670Y-121647929D01*
X162316935Y-121671029D01*
X162322896Y-121694827D01*
X162326496Y-121719096D01*
X162327700Y-121743600D01*
X162327700Y-122993600D01*
X162326496Y-123018104D01*
X162322896Y-123042373D01*
X162316935Y-123066171D01*
X162308670Y-123089271D01*
X162298180Y-123111449D01*
X162285567Y-123132493D01*
X162270953Y-123152198D01*
X162254477Y-123170377D01*
X162236298Y-123186853D01*
X162216593Y-123201467D01*
X162195549Y-123214080D01*
X162173371Y-123224570D01*
X162150271Y-123232835D01*
X162126473Y-123238796D01*
X162102204Y-123242396D01*
X162077700Y-123243600D01*
X161152700Y-123243600D01*
X161128196Y-123242396D01*
X161103927Y-123238796D01*
X161080129Y-123232835D01*
X161057029Y-123224570D01*
X161034851Y-123214080D01*
X161013807Y-123201467D01*
X160994102Y-123186853D01*
X160975923Y-123170377D01*
X160959447Y-123152198D01*
X160944833Y-123132493D01*
X160932220Y-123111449D01*
X160921730Y-123089271D01*
X160913465Y-123066171D01*
X160907504Y-123042373D01*
X160903904Y-123018104D01*
X160902700Y-122993600D01*
X160902700Y-121743600D01*
X160903904Y-121719096D01*
X160907504Y-121694827D01*
X160913465Y-121671029D01*
X160921730Y-121647929D01*
X160932220Y-121625751D01*
X160944833Y-121604707D01*
X160959447Y-121585002D01*
X160975923Y-121566823D01*
X160994102Y-121550347D01*
X161013807Y-121535733D01*
X161034851Y-121523120D01*
X161057029Y-121512630D01*
X161080129Y-121504365D01*
X161103927Y-121498404D01*
X161128196Y-121494804D01*
X161152700Y-121493600D01*
X162077700Y-121493600D01*
X162102204Y-121494804D01*
X162102204Y-121494804D01*
G37*
D22*
X161615200Y-122368600D03*
D17*
G36*
X159127204Y-121494804D02*
G01*
X159151473Y-121498404D01*
X159175271Y-121504365D01*
X159198371Y-121512630D01*
X159220549Y-121523120D01*
X159241593Y-121535733D01*
X159261298Y-121550347D01*
X159279477Y-121566823D01*
X159295953Y-121585002D01*
X159310567Y-121604707D01*
X159323180Y-121625751D01*
X159333670Y-121647929D01*
X159341935Y-121671029D01*
X159347896Y-121694827D01*
X159351496Y-121719096D01*
X159352700Y-121743600D01*
X159352700Y-122993600D01*
X159351496Y-123018104D01*
X159347896Y-123042373D01*
X159341935Y-123066171D01*
X159333670Y-123089271D01*
X159323180Y-123111449D01*
X159310567Y-123132493D01*
X159295953Y-123152198D01*
X159279477Y-123170377D01*
X159261298Y-123186853D01*
X159241593Y-123201467D01*
X159220549Y-123214080D01*
X159198371Y-123224570D01*
X159175271Y-123232835D01*
X159151473Y-123238796D01*
X159127204Y-123242396D01*
X159102700Y-123243600D01*
X158177700Y-123243600D01*
X158153196Y-123242396D01*
X158128927Y-123238796D01*
X158105129Y-123232835D01*
X158082029Y-123224570D01*
X158059851Y-123214080D01*
X158038807Y-123201467D01*
X158019102Y-123186853D01*
X158000923Y-123170377D01*
X157984447Y-123152198D01*
X157969833Y-123132493D01*
X157957220Y-123111449D01*
X157946730Y-123089271D01*
X157938465Y-123066171D01*
X157932504Y-123042373D01*
X157928904Y-123018104D01*
X157927700Y-122993600D01*
X157927700Y-121743600D01*
X157928904Y-121719096D01*
X157932504Y-121694827D01*
X157938465Y-121671029D01*
X157946730Y-121647929D01*
X157957220Y-121625751D01*
X157969833Y-121604707D01*
X157984447Y-121585002D01*
X158000923Y-121566823D01*
X158019102Y-121550347D01*
X158038807Y-121535733D01*
X158059851Y-121523120D01*
X158082029Y-121512630D01*
X158105129Y-121504365D01*
X158128927Y-121498404D01*
X158153196Y-121494804D01*
X158177700Y-121493600D01*
X159102700Y-121493600D01*
X159127204Y-121494804D01*
X159127204Y-121494804D01*
G37*
D22*
X158640200Y-122368600D03*
D17*
G36*
X162048204Y-83674204D02*
G01*
X162072473Y-83677804D01*
X162096271Y-83683765D01*
X162119371Y-83692030D01*
X162141549Y-83702520D01*
X162162593Y-83715133D01*
X162182298Y-83729747D01*
X162200477Y-83746223D01*
X162216953Y-83764402D01*
X162231567Y-83784107D01*
X162244180Y-83805151D01*
X162254670Y-83827329D01*
X162262935Y-83850429D01*
X162268896Y-83874227D01*
X162272496Y-83898496D01*
X162273700Y-83923000D01*
X162273700Y-85173000D01*
X162272496Y-85197504D01*
X162268896Y-85221773D01*
X162262935Y-85245571D01*
X162254670Y-85268671D01*
X162244180Y-85290849D01*
X162231567Y-85311893D01*
X162216953Y-85331598D01*
X162200477Y-85349777D01*
X162182298Y-85366253D01*
X162162593Y-85380867D01*
X162141549Y-85393480D01*
X162119371Y-85403970D01*
X162096271Y-85412235D01*
X162072473Y-85418196D01*
X162048204Y-85421796D01*
X162023700Y-85423000D01*
X161098700Y-85423000D01*
X161074196Y-85421796D01*
X161049927Y-85418196D01*
X161026129Y-85412235D01*
X161003029Y-85403970D01*
X160980851Y-85393480D01*
X160959807Y-85380867D01*
X160940102Y-85366253D01*
X160921923Y-85349777D01*
X160905447Y-85331598D01*
X160890833Y-85311893D01*
X160878220Y-85290849D01*
X160867730Y-85268671D01*
X160859465Y-85245571D01*
X160853504Y-85221773D01*
X160849904Y-85197504D01*
X160848700Y-85173000D01*
X160848700Y-83923000D01*
X160849904Y-83898496D01*
X160853504Y-83874227D01*
X160859465Y-83850429D01*
X160867730Y-83827329D01*
X160878220Y-83805151D01*
X160890833Y-83784107D01*
X160905447Y-83764402D01*
X160921923Y-83746223D01*
X160940102Y-83729747D01*
X160959807Y-83715133D01*
X160980851Y-83702520D01*
X161003029Y-83692030D01*
X161026129Y-83683765D01*
X161049927Y-83677804D01*
X161074196Y-83674204D01*
X161098700Y-83673000D01*
X162023700Y-83673000D01*
X162048204Y-83674204D01*
X162048204Y-83674204D01*
G37*
D22*
X161561200Y-84548000D03*
D17*
G36*
X165023204Y-83674204D02*
G01*
X165047473Y-83677804D01*
X165071271Y-83683765D01*
X165094371Y-83692030D01*
X165116549Y-83702520D01*
X165137593Y-83715133D01*
X165157298Y-83729747D01*
X165175477Y-83746223D01*
X165191953Y-83764402D01*
X165206567Y-83784107D01*
X165219180Y-83805151D01*
X165229670Y-83827329D01*
X165237935Y-83850429D01*
X165243896Y-83874227D01*
X165247496Y-83898496D01*
X165248700Y-83923000D01*
X165248700Y-85173000D01*
X165247496Y-85197504D01*
X165243896Y-85221773D01*
X165237935Y-85245571D01*
X165229670Y-85268671D01*
X165219180Y-85290849D01*
X165206567Y-85311893D01*
X165191953Y-85331598D01*
X165175477Y-85349777D01*
X165157298Y-85366253D01*
X165137593Y-85380867D01*
X165116549Y-85393480D01*
X165094371Y-85403970D01*
X165071271Y-85412235D01*
X165047473Y-85418196D01*
X165023204Y-85421796D01*
X164998700Y-85423000D01*
X164073700Y-85423000D01*
X164049196Y-85421796D01*
X164024927Y-85418196D01*
X164001129Y-85412235D01*
X163978029Y-85403970D01*
X163955851Y-85393480D01*
X163934807Y-85380867D01*
X163915102Y-85366253D01*
X163896923Y-85349777D01*
X163880447Y-85331598D01*
X163865833Y-85311893D01*
X163853220Y-85290849D01*
X163842730Y-85268671D01*
X163834465Y-85245571D01*
X163828504Y-85221773D01*
X163824904Y-85197504D01*
X163823700Y-85173000D01*
X163823700Y-83923000D01*
X163824904Y-83898496D01*
X163828504Y-83874227D01*
X163834465Y-83850429D01*
X163842730Y-83827329D01*
X163853220Y-83805151D01*
X163865833Y-83784107D01*
X163880447Y-83764402D01*
X163896923Y-83746223D01*
X163915102Y-83729747D01*
X163934807Y-83715133D01*
X163955851Y-83702520D01*
X163978029Y-83692030D01*
X164001129Y-83683765D01*
X164024927Y-83677804D01*
X164049196Y-83674204D01*
X164073700Y-83673000D01*
X164998700Y-83673000D01*
X165023204Y-83674204D01*
X165023204Y-83674204D01*
G37*
D22*
X164536200Y-84548000D03*
D17*
G36*
X169295484Y-83694524D02*
G01*
X169319753Y-83698124D01*
X169343551Y-83704085D01*
X169366651Y-83712350D01*
X169388829Y-83722840D01*
X169409873Y-83735453D01*
X169429578Y-83750067D01*
X169447757Y-83766543D01*
X169464233Y-83784722D01*
X169478847Y-83804427D01*
X169491460Y-83825471D01*
X169501950Y-83847649D01*
X169510215Y-83870749D01*
X169516176Y-83894547D01*
X169519776Y-83918816D01*
X169520980Y-83943320D01*
X169520980Y-85193320D01*
X169519776Y-85217824D01*
X169516176Y-85242093D01*
X169510215Y-85265891D01*
X169501950Y-85288991D01*
X169491460Y-85311169D01*
X169478847Y-85332213D01*
X169464233Y-85351918D01*
X169447757Y-85370097D01*
X169429578Y-85386573D01*
X169409873Y-85401187D01*
X169388829Y-85413800D01*
X169366651Y-85424290D01*
X169343551Y-85432555D01*
X169319753Y-85438516D01*
X169295484Y-85442116D01*
X169270980Y-85443320D01*
X168345980Y-85443320D01*
X168321476Y-85442116D01*
X168297207Y-85438516D01*
X168273409Y-85432555D01*
X168250309Y-85424290D01*
X168228131Y-85413800D01*
X168207087Y-85401187D01*
X168187382Y-85386573D01*
X168169203Y-85370097D01*
X168152727Y-85351918D01*
X168138113Y-85332213D01*
X168125500Y-85311169D01*
X168115010Y-85288991D01*
X168106745Y-85265891D01*
X168100784Y-85242093D01*
X168097184Y-85217824D01*
X168095980Y-85193320D01*
X168095980Y-83943320D01*
X168097184Y-83918816D01*
X168100784Y-83894547D01*
X168106745Y-83870749D01*
X168115010Y-83847649D01*
X168125500Y-83825471D01*
X168138113Y-83804427D01*
X168152727Y-83784722D01*
X168169203Y-83766543D01*
X168187382Y-83750067D01*
X168207087Y-83735453D01*
X168228131Y-83722840D01*
X168250309Y-83712350D01*
X168273409Y-83704085D01*
X168297207Y-83698124D01*
X168321476Y-83694524D01*
X168345980Y-83693320D01*
X169270980Y-83693320D01*
X169295484Y-83694524D01*
X169295484Y-83694524D01*
G37*
D22*
X168808480Y-84568320D03*
D17*
G36*
X172270484Y-83694524D02*
G01*
X172294753Y-83698124D01*
X172318551Y-83704085D01*
X172341651Y-83712350D01*
X172363829Y-83722840D01*
X172384873Y-83735453D01*
X172404578Y-83750067D01*
X172422757Y-83766543D01*
X172439233Y-83784722D01*
X172453847Y-83804427D01*
X172466460Y-83825471D01*
X172476950Y-83847649D01*
X172485215Y-83870749D01*
X172491176Y-83894547D01*
X172494776Y-83918816D01*
X172495980Y-83943320D01*
X172495980Y-85193320D01*
X172494776Y-85217824D01*
X172491176Y-85242093D01*
X172485215Y-85265891D01*
X172476950Y-85288991D01*
X172466460Y-85311169D01*
X172453847Y-85332213D01*
X172439233Y-85351918D01*
X172422757Y-85370097D01*
X172404578Y-85386573D01*
X172384873Y-85401187D01*
X172363829Y-85413800D01*
X172341651Y-85424290D01*
X172318551Y-85432555D01*
X172294753Y-85438516D01*
X172270484Y-85442116D01*
X172245980Y-85443320D01*
X171320980Y-85443320D01*
X171296476Y-85442116D01*
X171272207Y-85438516D01*
X171248409Y-85432555D01*
X171225309Y-85424290D01*
X171203131Y-85413800D01*
X171182087Y-85401187D01*
X171162382Y-85386573D01*
X171144203Y-85370097D01*
X171127727Y-85351918D01*
X171113113Y-85332213D01*
X171100500Y-85311169D01*
X171090010Y-85288991D01*
X171081745Y-85265891D01*
X171075784Y-85242093D01*
X171072184Y-85217824D01*
X171070980Y-85193320D01*
X171070980Y-83943320D01*
X171072184Y-83918816D01*
X171075784Y-83894547D01*
X171081745Y-83870749D01*
X171090010Y-83847649D01*
X171100500Y-83825471D01*
X171113113Y-83804427D01*
X171127727Y-83784722D01*
X171144203Y-83766543D01*
X171162382Y-83750067D01*
X171182087Y-83735453D01*
X171203131Y-83722840D01*
X171225309Y-83712350D01*
X171248409Y-83704085D01*
X171272207Y-83698124D01*
X171296476Y-83694524D01*
X171320980Y-83693320D01*
X172245980Y-83693320D01*
X172270484Y-83694524D01*
X172270484Y-83694524D01*
G37*
D22*
X171783480Y-84568320D03*
D17*
G36*
X171815104Y-56503104D02*
G01*
X171839373Y-56506704D01*
X171863171Y-56512665D01*
X171886271Y-56520930D01*
X171908449Y-56531420D01*
X171929493Y-56544033D01*
X171949198Y-56558647D01*
X171967377Y-56575123D01*
X171983853Y-56593302D01*
X171998467Y-56613007D01*
X172011080Y-56634051D01*
X172021570Y-56656229D01*
X172029835Y-56679329D01*
X172035796Y-56703127D01*
X172039396Y-56727396D01*
X172040600Y-56751900D01*
X172040600Y-57676900D01*
X172039396Y-57701404D01*
X172035796Y-57725673D01*
X172029835Y-57749471D01*
X172021570Y-57772571D01*
X172011080Y-57794749D01*
X171998467Y-57815793D01*
X171983853Y-57835498D01*
X171967377Y-57853677D01*
X171949198Y-57870153D01*
X171929493Y-57884767D01*
X171908449Y-57897380D01*
X171886271Y-57907870D01*
X171863171Y-57916135D01*
X171839373Y-57922096D01*
X171815104Y-57925696D01*
X171790600Y-57926900D01*
X170540600Y-57926900D01*
X170516096Y-57925696D01*
X170491827Y-57922096D01*
X170468029Y-57916135D01*
X170444929Y-57907870D01*
X170422751Y-57897380D01*
X170401707Y-57884767D01*
X170382002Y-57870153D01*
X170363823Y-57853677D01*
X170347347Y-57835498D01*
X170332733Y-57815793D01*
X170320120Y-57794749D01*
X170309630Y-57772571D01*
X170301365Y-57749471D01*
X170295404Y-57725673D01*
X170291804Y-57701404D01*
X170290600Y-57676900D01*
X170290600Y-56751900D01*
X170291804Y-56727396D01*
X170295404Y-56703127D01*
X170301365Y-56679329D01*
X170309630Y-56656229D01*
X170320120Y-56634051D01*
X170332733Y-56613007D01*
X170347347Y-56593302D01*
X170363823Y-56575123D01*
X170382002Y-56558647D01*
X170401707Y-56544033D01*
X170422751Y-56531420D01*
X170444929Y-56520930D01*
X170468029Y-56512665D01*
X170491827Y-56506704D01*
X170516096Y-56503104D01*
X170540600Y-56501900D01*
X171790600Y-56501900D01*
X171815104Y-56503104D01*
X171815104Y-56503104D01*
G37*
D22*
X171165600Y-57214400D03*
D17*
G36*
X171815104Y-59478104D02*
G01*
X171839373Y-59481704D01*
X171863171Y-59487665D01*
X171886271Y-59495930D01*
X171908449Y-59506420D01*
X171929493Y-59519033D01*
X171949198Y-59533647D01*
X171967377Y-59550123D01*
X171983853Y-59568302D01*
X171998467Y-59588007D01*
X172011080Y-59609051D01*
X172021570Y-59631229D01*
X172029835Y-59654329D01*
X172035796Y-59678127D01*
X172039396Y-59702396D01*
X172040600Y-59726900D01*
X172040600Y-60651900D01*
X172039396Y-60676404D01*
X172035796Y-60700673D01*
X172029835Y-60724471D01*
X172021570Y-60747571D01*
X172011080Y-60769749D01*
X171998467Y-60790793D01*
X171983853Y-60810498D01*
X171967377Y-60828677D01*
X171949198Y-60845153D01*
X171929493Y-60859767D01*
X171908449Y-60872380D01*
X171886271Y-60882870D01*
X171863171Y-60891135D01*
X171839373Y-60897096D01*
X171815104Y-60900696D01*
X171790600Y-60901900D01*
X170540600Y-60901900D01*
X170516096Y-60900696D01*
X170491827Y-60897096D01*
X170468029Y-60891135D01*
X170444929Y-60882870D01*
X170422751Y-60872380D01*
X170401707Y-60859767D01*
X170382002Y-60845153D01*
X170363823Y-60828677D01*
X170347347Y-60810498D01*
X170332733Y-60790793D01*
X170320120Y-60769749D01*
X170309630Y-60747571D01*
X170301365Y-60724471D01*
X170295404Y-60700673D01*
X170291804Y-60676404D01*
X170290600Y-60651900D01*
X170290600Y-59726900D01*
X170291804Y-59702396D01*
X170295404Y-59678127D01*
X170301365Y-59654329D01*
X170309630Y-59631229D01*
X170320120Y-59609051D01*
X170332733Y-59588007D01*
X170347347Y-59568302D01*
X170363823Y-59550123D01*
X170382002Y-59533647D01*
X170401707Y-59519033D01*
X170422751Y-59506420D01*
X170444929Y-59495930D01*
X170468029Y-59487665D01*
X170491827Y-59481704D01*
X170516096Y-59478104D01*
X170540600Y-59476900D01*
X171790600Y-59476900D01*
X171815104Y-59478104D01*
X171815104Y-59478104D01*
G37*
D22*
X171165600Y-60189400D03*
D17*
G36*
X155498204Y-60788804D02*
G01*
X155522473Y-60792404D01*
X155546271Y-60798365D01*
X155569371Y-60806630D01*
X155591549Y-60817120D01*
X155612593Y-60829733D01*
X155632298Y-60844347D01*
X155650477Y-60860823D01*
X155666953Y-60879002D01*
X155681567Y-60898707D01*
X155694180Y-60919751D01*
X155704670Y-60941929D01*
X155712935Y-60965029D01*
X155718896Y-60988827D01*
X155722496Y-61013096D01*
X155723700Y-61037600D01*
X155723700Y-62287600D01*
X155722496Y-62312104D01*
X155718896Y-62336373D01*
X155712935Y-62360171D01*
X155704670Y-62383271D01*
X155694180Y-62405449D01*
X155681567Y-62426493D01*
X155666953Y-62446198D01*
X155650477Y-62464377D01*
X155632298Y-62480853D01*
X155612593Y-62495467D01*
X155591549Y-62508080D01*
X155569371Y-62518570D01*
X155546271Y-62526835D01*
X155522473Y-62532796D01*
X155498204Y-62536396D01*
X155473700Y-62537600D01*
X154548700Y-62537600D01*
X154524196Y-62536396D01*
X154499927Y-62532796D01*
X154476129Y-62526835D01*
X154453029Y-62518570D01*
X154430851Y-62508080D01*
X154409807Y-62495467D01*
X154390102Y-62480853D01*
X154371923Y-62464377D01*
X154355447Y-62446198D01*
X154340833Y-62426493D01*
X154328220Y-62405449D01*
X154317730Y-62383271D01*
X154309465Y-62360171D01*
X154303504Y-62336373D01*
X154299904Y-62312104D01*
X154298700Y-62287600D01*
X154298700Y-61037600D01*
X154299904Y-61013096D01*
X154303504Y-60988827D01*
X154309465Y-60965029D01*
X154317730Y-60941929D01*
X154328220Y-60919751D01*
X154340833Y-60898707D01*
X154355447Y-60879002D01*
X154371923Y-60860823D01*
X154390102Y-60844347D01*
X154409807Y-60829733D01*
X154430851Y-60817120D01*
X154453029Y-60806630D01*
X154476129Y-60798365D01*
X154499927Y-60792404D01*
X154524196Y-60788804D01*
X154548700Y-60787600D01*
X155473700Y-60787600D01*
X155498204Y-60788804D01*
X155498204Y-60788804D01*
G37*
D22*
X155011200Y-61662600D03*
D17*
G36*
X158473204Y-60788804D02*
G01*
X158497473Y-60792404D01*
X158521271Y-60798365D01*
X158544371Y-60806630D01*
X158566549Y-60817120D01*
X158587593Y-60829733D01*
X158607298Y-60844347D01*
X158625477Y-60860823D01*
X158641953Y-60879002D01*
X158656567Y-60898707D01*
X158669180Y-60919751D01*
X158679670Y-60941929D01*
X158687935Y-60965029D01*
X158693896Y-60988827D01*
X158697496Y-61013096D01*
X158698700Y-61037600D01*
X158698700Y-62287600D01*
X158697496Y-62312104D01*
X158693896Y-62336373D01*
X158687935Y-62360171D01*
X158679670Y-62383271D01*
X158669180Y-62405449D01*
X158656567Y-62426493D01*
X158641953Y-62446198D01*
X158625477Y-62464377D01*
X158607298Y-62480853D01*
X158587593Y-62495467D01*
X158566549Y-62508080D01*
X158544371Y-62518570D01*
X158521271Y-62526835D01*
X158497473Y-62532796D01*
X158473204Y-62536396D01*
X158448700Y-62537600D01*
X157523700Y-62537600D01*
X157499196Y-62536396D01*
X157474927Y-62532796D01*
X157451129Y-62526835D01*
X157428029Y-62518570D01*
X157405851Y-62508080D01*
X157384807Y-62495467D01*
X157365102Y-62480853D01*
X157346923Y-62464377D01*
X157330447Y-62446198D01*
X157315833Y-62426493D01*
X157303220Y-62405449D01*
X157292730Y-62383271D01*
X157284465Y-62360171D01*
X157278504Y-62336373D01*
X157274904Y-62312104D01*
X157273700Y-62287600D01*
X157273700Y-61037600D01*
X157274904Y-61013096D01*
X157278504Y-60988827D01*
X157284465Y-60965029D01*
X157292730Y-60941929D01*
X157303220Y-60919751D01*
X157315833Y-60898707D01*
X157330447Y-60879002D01*
X157346923Y-60860823D01*
X157365102Y-60844347D01*
X157384807Y-60829733D01*
X157405851Y-60817120D01*
X157428029Y-60806630D01*
X157451129Y-60798365D01*
X157474927Y-60792404D01*
X157499196Y-60788804D01*
X157523700Y-60787600D01*
X158448700Y-60787600D01*
X158473204Y-60788804D01*
X158473204Y-60788804D01*
G37*
D22*
X157986200Y-61662600D03*
D17*
G36*
X158569004Y-72232104D02*
G01*
X158593273Y-72235704D01*
X158617071Y-72241665D01*
X158640171Y-72249930D01*
X158662349Y-72260420D01*
X158683393Y-72273033D01*
X158703098Y-72287647D01*
X158721277Y-72304123D01*
X158737753Y-72322302D01*
X158752367Y-72342007D01*
X158764980Y-72363051D01*
X158775470Y-72385229D01*
X158783735Y-72408329D01*
X158789696Y-72432127D01*
X158793296Y-72456396D01*
X158794500Y-72480900D01*
X158794500Y-73405900D01*
X158793296Y-73430404D01*
X158789696Y-73454673D01*
X158783735Y-73478471D01*
X158775470Y-73501571D01*
X158764980Y-73523749D01*
X158752367Y-73544793D01*
X158737753Y-73564498D01*
X158721277Y-73582677D01*
X158703098Y-73599153D01*
X158683393Y-73613767D01*
X158662349Y-73626380D01*
X158640171Y-73636870D01*
X158617071Y-73645135D01*
X158593273Y-73651096D01*
X158569004Y-73654696D01*
X158544500Y-73655900D01*
X157294500Y-73655900D01*
X157269996Y-73654696D01*
X157245727Y-73651096D01*
X157221929Y-73645135D01*
X157198829Y-73636870D01*
X157176651Y-73626380D01*
X157155607Y-73613767D01*
X157135902Y-73599153D01*
X157117723Y-73582677D01*
X157101247Y-73564498D01*
X157086633Y-73544793D01*
X157074020Y-73523749D01*
X157063530Y-73501571D01*
X157055265Y-73478471D01*
X157049304Y-73454673D01*
X157045704Y-73430404D01*
X157044500Y-73405900D01*
X157044500Y-72480900D01*
X157045704Y-72456396D01*
X157049304Y-72432127D01*
X157055265Y-72408329D01*
X157063530Y-72385229D01*
X157074020Y-72363051D01*
X157086633Y-72342007D01*
X157101247Y-72322302D01*
X157117723Y-72304123D01*
X157135902Y-72287647D01*
X157155607Y-72273033D01*
X157176651Y-72260420D01*
X157198829Y-72249930D01*
X157221929Y-72241665D01*
X157245727Y-72235704D01*
X157269996Y-72232104D01*
X157294500Y-72230900D01*
X158544500Y-72230900D01*
X158569004Y-72232104D01*
X158569004Y-72232104D01*
G37*
D22*
X157919500Y-72943400D03*
D17*
G36*
X158569004Y-69257104D02*
G01*
X158593273Y-69260704D01*
X158617071Y-69266665D01*
X158640171Y-69274930D01*
X158662349Y-69285420D01*
X158683393Y-69298033D01*
X158703098Y-69312647D01*
X158721277Y-69329123D01*
X158737753Y-69347302D01*
X158752367Y-69367007D01*
X158764980Y-69388051D01*
X158775470Y-69410229D01*
X158783735Y-69433329D01*
X158789696Y-69457127D01*
X158793296Y-69481396D01*
X158794500Y-69505900D01*
X158794500Y-70430900D01*
X158793296Y-70455404D01*
X158789696Y-70479673D01*
X158783735Y-70503471D01*
X158775470Y-70526571D01*
X158764980Y-70548749D01*
X158752367Y-70569793D01*
X158737753Y-70589498D01*
X158721277Y-70607677D01*
X158703098Y-70624153D01*
X158683393Y-70638767D01*
X158662349Y-70651380D01*
X158640171Y-70661870D01*
X158617071Y-70670135D01*
X158593273Y-70676096D01*
X158569004Y-70679696D01*
X158544500Y-70680900D01*
X157294500Y-70680900D01*
X157269996Y-70679696D01*
X157245727Y-70676096D01*
X157221929Y-70670135D01*
X157198829Y-70661870D01*
X157176651Y-70651380D01*
X157155607Y-70638767D01*
X157135902Y-70624153D01*
X157117723Y-70607677D01*
X157101247Y-70589498D01*
X157086633Y-70569793D01*
X157074020Y-70548749D01*
X157063530Y-70526571D01*
X157055265Y-70503471D01*
X157049304Y-70479673D01*
X157045704Y-70455404D01*
X157044500Y-70430900D01*
X157044500Y-69505900D01*
X157045704Y-69481396D01*
X157049304Y-69457127D01*
X157055265Y-69433329D01*
X157063530Y-69410229D01*
X157074020Y-69388051D01*
X157086633Y-69367007D01*
X157101247Y-69347302D01*
X157117723Y-69329123D01*
X157135902Y-69312647D01*
X157155607Y-69298033D01*
X157176651Y-69285420D01*
X157198829Y-69274930D01*
X157221929Y-69266665D01*
X157245727Y-69260704D01*
X157269996Y-69257104D01*
X157294500Y-69255900D01*
X158544500Y-69255900D01*
X158569004Y-69257104D01*
X158569004Y-69257104D01*
G37*
D22*
X157919500Y-69968400D03*
D17*
G36*
X71104104Y-97427304D02*
G01*
X71128373Y-97430904D01*
X71152171Y-97436865D01*
X71175271Y-97445130D01*
X71197449Y-97455620D01*
X71218493Y-97468233D01*
X71238198Y-97482847D01*
X71256377Y-97499323D01*
X71272853Y-97517502D01*
X71287467Y-97537207D01*
X71300080Y-97558251D01*
X71310570Y-97580429D01*
X71318835Y-97603529D01*
X71324796Y-97627327D01*
X71328396Y-97651596D01*
X71329600Y-97676100D01*
X71329600Y-98601100D01*
X71328396Y-98625604D01*
X71324796Y-98649873D01*
X71318835Y-98673671D01*
X71310570Y-98696771D01*
X71300080Y-98718949D01*
X71287467Y-98739993D01*
X71272853Y-98759698D01*
X71256377Y-98777877D01*
X71238198Y-98794353D01*
X71218493Y-98808967D01*
X71197449Y-98821580D01*
X71175271Y-98832070D01*
X71152171Y-98840335D01*
X71128373Y-98846296D01*
X71104104Y-98849896D01*
X71079600Y-98851100D01*
X69829600Y-98851100D01*
X69805096Y-98849896D01*
X69780827Y-98846296D01*
X69757029Y-98840335D01*
X69733929Y-98832070D01*
X69711751Y-98821580D01*
X69690707Y-98808967D01*
X69671002Y-98794353D01*
X69652823Y-98777877D01*
X69636347Y-98759698D01*
X69621733Y-98739993D01*
X69609120Y-98718949D01*
X69598630Y-98696771D01*
X69590365Y-98673671D01*
X69584404Y-98649873D01*
X69580804Y-98625604D01*
X69579600Y-98601100D01*
X69579600Y-97676100D01*
X69580804Y-97651596D01*
X69584404Y-97627327D01*
X69590365Y-97603529D01*
X69598630Y-97580429D01*
X69609120Y-97558251D01*
X69621733Y-97537207D01*
X69636347Y-97517502D01*
X69652823Y-97499323D01*
X69671002Y-97482847D01*
X69690707Y-97468233D01*
X69711751Y-97455620D01*
X69733929Y-97445130D01*
X69757029Y-97436865D01*
X69780827Y-97430904D01*
X69805096Y-97427304D01*
X69829600Y-97426100D01*
X71079600Y-97426100D01*
X71104104Y-97427304D01*
X71104104Y-97427304D01*
G37*
D22*
X70454600Y-98138600D03*
D17*
G36*
X71104104Y-94452304D02*
G01*
X71128373Y-94455904D01*
X71152171Y-94461865D01*
X71175271Y-94470130D01*
X71197449Y-94480620D01*
X71218493Y-94493233D01*
X71238198Y-94507847D01*
X71256377Y-94524323D01*
X71272853Y-94542502D01*
X71287467Y-94562207D01*
X71300080Y-94583251D01*
X71310570Y-94605429D01*
X71318835Y-94628529D01*
X71324796Y-94652327D01*
X71328396Y-94676596D01*
X71329600Y-94701100D01*
X71329600Y-95626100D01*
X71328396Y-95650604D01*
X71324796Y-95674873D01*
X71318835Y-95698671D01*
X71310570Y-95721771D01*
X71300080Y-95743949D01*
X71287467Y-95764993D01*
X71272853Y-95784698D01*
X71256377Y-95802877D01*
X71238198Y-95819353D01*
X71218493Y-95833967D01*
X71197449Y-95846580D01*
X71175271Y-95857070D01*
X71152171Y-95865335D01*
X71128373Y-95871296D01*
X71104104Y-95874896D01*
X71079600Y-95876100D01*
X69829600Y-95876100D01*
X69805096Y-95874896D01*
X69780827Y-95871296D01*
X69757029Y-95865335D01*
X69733929Y-95857070D01*
X69711751Y-95846580D01*
X69690707Y-95833967D01*
X69671002Y-95819353D01*
X69652823Y-95802877D01*
X69636347Y-95784698D01*
X69621733Y-95764993D01*
X69609120Y-95743949D01*
X69598630Y-95721771D01*
X69590365Y-95698671D01*
X69584404Y-95674873D01*
X69580804Y-95650604D01*
X69579600Y-95626100D01*
X69579600Y-94701100D01*
X69580804Y-94676596D01*
X69584404Y-94652327D01*
X69590365Y-94628529D01*
X69598630Y-94605429D01*
X69609120Y-94583251D01*
X69621733Y-94562207D01*
X69636347Y-94542502D01*
X69652823Y-94524323D01*
X69671002Y-94507847D01*
X69690707Y-94493233D01*
X69711751Y-94480620D01*
X69733929Y-94470130D01*
X69757029Y-94461865D01*
X69780827Y-94455904D01*
X69805096Y-94452304D01*
X69829600Y-94451100D01*
X71079600Y-94451100D01*
X71104104Y-94452304D01*
X71104104Y-94452304D01*
G37*
D22*
X70454600Y-95163600D03*
D29*
X149420660Y-92061300D03*
X150690660Y-92061300D03*
X151960660Y-92061300D03*
X153230660Y-92061300D03*
X153230660Y-86661300D03*
X151960660Y-86661300D03*
X150690660Y-86661300D03*
X149420660Y-86661300D03*
M02*
